<svg xmlns="http://www.w3.org/2000/svg" xmlns:xlink="http://www.w3.org/1999/xlink" width="108" height="108" viewBox="0 0 108 108">
  <defs>
    <filter id="Trazado_904820" x="0" y="0" width="108" height="108" filterUnits="userSpaceOnUse">
      <feOffset dy="3" input="SourceAlpha"/>
      <feGaussianBlur stdDeviation="3" result="blur"/>
      <feFlood flood-opacity="0.161"/>
      <feComposite operator="in" in2="blur"/>
      <feComposite in="SourceGraphic"/>
    </filter>
  </defs>
  <g id="Grupo_1226285" data-name="Grupo 1226285" transform="translate(-619 -4512)">
    <g id="Grupo_1225490" data-name="Grupo 1225490" transform="translate(0 3599)">
      <g id="Grupo_1225071" data-name="Grupo 1225071" transform="translate(419.5 -2272.108)">
        <g id="Grupo_1219746" data-name="Grupo 1219746" transform="translate(0 1895.108)">
          <g id="Grupo_1202418" data-name="Grupo 1202418" transform="translate(-419.977 876.813)">
            <g id="Grupo_1177315" data-name="Grupo 1177315" transform="translate(-0.523 -112.813)">
              <g id="Grupo_1173585" data-name="Grupo 1173585" transform="translate(629 532)">
                <g id="Grupo_1173428" data-name="Grupo 1173428" transform="translate(0 0)">
                  <g id="Grupo_1171958" data-name="Grupo 1171958">
                    <g id="Grupo_1167341" data-name="Grupo 1167341">
                      <g id="Grupo_1166792" data-name="Grupo 1166792">
                        <g transform="matrix(1, 0, 0, 1, -9, -6)" filter="url(#Trazado_904820)">
                          <g id="Trazado_904820-2" data-name="Trazado 904820" transform="translate(9 6)" fill="#fff4e6">
                            <path d="M 44.99999618530273 88.49999237060547 C 39.12687301635742 88.49999237060547 33.43022155761719 87.35006713867188 28.06829643249512 85.08216857910156 C 22.88852119445801 82.89130401611328 18.23629570007324 79.75457763671875 14.24084663391113 75.75914001464844 C 10.24540901184082 71.76369476318359 7.108683586120605 67.11146545410156 4.917821407318115 61.93169403076172 C 2.649921178817749 56.56976699829102 1.499996185302734 50.87311553955078 1.499996185302734 44.99999237060547 C 1.499996185302734 39.12686920166016 2.649921178817749 33.43021774291992 4.917821407318115 28.06829261779785 C 7.108683586120605 22.88851737976074 10.24540901184082 18.23630523681641 14.24084663391113 14.24085521697998 C 18.23629570007324 10.24540519714355 22.88852119445801 7.108692169189453 28.06829643249512 4.917829990386963 C 33.43022155761719 2.649929761886597 39.12687301635742 1.500004887580872 44.99999618530273 1.500004887580872 C 50.87311935424805 1.500004887580872 56.56977081298828 2.649929761886597 61.93169784545898 4.917829990386963 C 67.11147308349609 7.108692169189453 71.76369476318359 10.24540519714355 75.75914764404297 14.24085521697998 C 79.75458526611328 18.23630523681641 82.89131164550781 22.88851737976074 85.08216857910156 28.06829261779785 C 87.35007476806641 33.43021774291992 88.5 39.12686920166016 88.5 44.99999237060547 C 88.5 50.87311553955078 87.35007476806641 56.56976699829102 85.08216857910156 61.93169403076172 C 82.89131164550781 67.11146545410156 79.75458526611328 71.76369476318359 75.75914764404297 75.75914001464844 C 71.76369476318359 79.75457763671875 67.11147308349609 82.89130401611328 61.93169784545898 85.08216857910156 C 56.56977081298828 87.35006713867188 50.87311935424805 88.49999237060547 44.99999618530273 88.49999237060547 Z" stroke="none"/>
                            <path d="M 44.99999618530273 2.999992370605469 C 39.32870864868164 2.999992370605469 33.82865142822266 4.11004638671875 28.65262603759766 6.299331665039062 C 23.65165710449219 8.414566040039062 19.15968322753906 11.44333648681641 15.301513671875 15.30150604248047 C 11.44333648681641 19.15967559814453 8.414566040039062 23.65164947509766 6.299339294433594 28.65262222290039 C 4.110054016113281 33.82864761352539 2.999992370605469 39.32870483398438 2.999992370605469 44.99999237060547 C 2.999992370605469 50.67127990722656 4.110054016113281 56.17132186889648 6.299339294433594 61.34736633300781 C 8.414566040039062 66.34833526611328 11.44333648681641 70.84029388427734 15.301513671875 74.69846343994141 C 19.15968322753906 78.55663299560547 23.65165710449219 81.58540344238281 28.65262603759766 83.70063781738281 C 33.82865142822266 85.88992309570312 39.32870864868164 86.99997711181641 44.99999618530273 86.99997711181641 C 50.67128372192383 86.99997711181641 56.17134094238281 85.88992309570312 61.34736633300781 83.70063781738281 C 66.34834289550781 81.58540344238281 70.84030914306641 78.55663299560547 74.69847869873047 74.69846343994141 C 78.55665588378906 70.84029388427734 81.58542633056641 66.34833526611328 83.70065307617188 61.34736633300781 C 85.88993835449219 56.17132186889648 87 50.67127990722656 87 44.99999237060547 C 87 39.32870483398438 85.88993835449219 33.82864761352539 83.70065307617188 28.65262222290039 C 81.58542633056641 23.65164947509766 78.55665588378906 19.15967559814453 74.69847869873047 15.30150604248047 C 70.84030914306641 11.44333648681641 66.34834289550781 8.414566040039062 61.34736633300781 6.299331665039062 C 56.17134094238281 4.11004638671875 50.67128372192383 2.999992370605469 44.99999618530273 2.999992370605469 M 44.99999618530273 -7.62939453125e-06 C 69.85281372070312 -7.62939453125e-06 90 20.14717864990234 90 44.99999237060547 C 90 69.85279083251953 69.85281372070312 89.99997711181641 44.99999618530273 89.99997711181641 C 20.14717864990234 89.99997711181641 -7.62939453125e-06 69.85279083251953 -7.62939453125e-06 44.99999237060547 C -7.62939453125e-06 20.14717864990234 20.14717864990234 -7.62939453125e-06 44.99999618530273 -7.62939453125e-06 Z" stroke="none" fill="#ff9d1c"/>
                          </g>
                        </g>
                      </g>
                    </g>
                  </g>
                </g>
              </g>
            </g>
          </g>
        </g>
      </g>
    </g>
    <g id="sistema-de-pago" transform="translate(632.085 4522.082)">
      <g id="Grupo_1226284" data-name="Grupo 1226284" transform="translate(14.44 13.438)">
        <g id="Grupo_1226282" data-name="Grupo 1226282" transform="translate(13.631 0)">
          <circle id="Elipse_12643" data-name="Elipse 12643" cx="13.903" cy="13.903" r="13.903" transform="translate(0 19.659) rotate(-45)" fill="#ffe177"/>
          <path id="Trazado_1179116" data-name="Trazado 1179116" d="M301.275,92.329a13.9,13.9,0,0,1,0,27.806c-.315,0-.627-.011-.937-.032a13.9,13.9,0,0,0,0-27.742C300.648,92.34,300.96,92.329,301.275,92.329Z" transform="translate(-281.609 -86.575)" fill="#ffd064" fill-rule="evenodd"/>
          <circle id="Elipse_12644" data-name="Elipse 12644" cx="10.616" cy="10.616" r="10.616" transform="translate(8.811 30.013) rotate(-88.625)" fill="#ffc338"/>
          <path id="Trazado_1179117" data-name="Trazado 1179117" d="M238.032,117.089a10.616,10.616,0,1,0,0,21.233q.432,0,.856-.034a10.617,10.617,0,0,1,0-21.164C238.606,117.1,238.321,117.089,238.032,117.089Z" transform="translate(-218.366 -108.048)" fill="#f5b829" fill-rule="evenodd"/>
        </g>
        <g id="Grupo_1226283" data-name="Grupo 1226283" transform="translate(0 24.649)">
          <path id="Trazado_1179118" data-name="Trazado 1179118" d="M84.059,242.152,94.4,236.159c1.941-1.125,3.915-1.922,6.048-1.23,2.379.771,6.263,2.428,10.224,3.142a2.873,2.873,0,0,1,1.987,3.442,2.781,2.781,0,0,1-3.442,1.987l1.385.222a6.447,6.447,0,0,0,4.433-.772l9.944-5.792c7.73-4.5,8.865,2.424,6.3,4.006L113.23,252.277a6.618,6.618,0,0,1-5.359.756l-13.089-3.507-4.847,2.8a1.958,1.958,0,0,1-2.669-.715l-3.92-6.789A1.958,1.958,0,0,1,84.059,242.152Z" transform="translate(-79.563 -234.671)" fill="#f6dccd" fill-rule="evenodd"/>
          <path id="Trazado_1179119" data-name="Trazado 1179119" d="M235.969,274.752a2.838,2.838,0,0,1-3.206,1.368c-2.144-.567-4.286-1.148-6.428-1.722a1.076,1.076,0,0,1,.557-2.078Z" transform="translate(-203.107 -267.29)" fill="#f1cbbc" fill-rule="evenodd"/>
          <path id="Trazado_1179120" data-name="Trazado 1179120" d="M84.058,242.151,94.4,236.158c1.941-1.125,3.915-1.922,6.048-1.23,1.273.413,2.976,1.079,4.892,1.718L85.306,248.214l-1.961-3.4A1.958,1.958,0,0,1,84.058,242.151Z" transform="translate(-79.562 -234.67)" fill="#f1cbbc" fill-rule="evenodd"/>
          <path id="Trazado_1179121" data-name="Trazado 1179121" d="M62.077,261.591l8.2,14.493a1.468,1.468,0,0,1-.553,2l-2.79,1.579a1.468,1.468,0,0,1-2-.553l-8.2-14.494a1.468,1.468,0,0,1,.553-2l2.79-1.579A1.468,1.468,0,0,1,62.077,261.591Z" transform="translate(-56.55 -257.374)" fill="#d1d1d6" fill-rule="evenodd"/>
          <path id="Trazado_1179122" data-name="Trazado 1179122" d="M91.362,271.549l1.452,2.565,1.436,2.537a1.468,1.468,0,0,1-.549,1.993l1-.564a1.468,1.468,0,0,0,.553-2l-1.44-2.545-2.893-5.111-2.9-5.117-.974-1.721a1.47,1.47,0,0,0-1.705-.678l1.686,2.979L89.922,269l1.44,2.545Z" transform="translate(-81.521 -257.374)" fill="#b1b1b5" fill-rule="evenodd"/>
        </g>
      </g>
      <path id="Trazado_1179123" data-name="Trazado 1179123" d="M18.085,44.474a1,1,0,1,0,1.131.843A.993.993,0,0,0,18.085,44.474Zm28.59-4.66a1.062,1.062,0,0,0,2.124,0v-.528a4.537,4.537,0,0,0,2.655-1.378,3.081,3.081,0,0,0,.725-2.454c-.225-1.858-1.662-3.016-4.261-3.443-2.118-.348-2.156-1.157-2.174-1.463-.056-1.146,1.175-1.484,1.425-1.54a2.286,2.286,0,0,1,2.712,1.274,1.063,1.063,0,0,0,1.962-.822A4.189,4.189,0,0,0,48.8,26.932v-.554a1.062,1.062,0,0,0-2.124,0v.563a3.658,3.658,0,0,0-3.049,3.71c.063,1.29.8,2.938,3.949,3.455,2.081.341,2.424,1.037,2.493,1.6a.975.975,0,0,1-.219.808,2.888,2.888,0,0,1-2,.733,2.333,2.333,0,0,1-2.487-1.556,1.062,1.062,0,0,0-2.062.514,4.2,4.2,0,0,0,3.374,3.06ZM60.39,41.5c2.768-1.612,4.88-1.8,5.654-.516a2.129,2.129,0,0,1-.45,2.7L47.55,54.795a5.573,5.573,0,0,1-4.53.634L29.931,51.923a1.055,1.055,0,0,0-.806.106l-1.837,1.058L22.546,44.7l7.26-4.2c1.624-.94,3.374-1.728,5.192-1.139.6.2,1.293.447,2.1.738a51.723,51.723,0,0,0,8.185,2.425,1.8,1.8,0,0,1,1.231,2.137,1.693,1.693,0,0,1-2.106,1.233c-1.45-.3-2.836-.7-4.3-1.114-.7-.2-1.418-.406-2.162-.605a1.062,1.062,0,0,0-.55,2.052c.725.194,1.437.4,2.13.595,1.525.435,2.962.846,4.511,1.163l1.281.208a7.477,7.477,0,0,0,5.136-.9ZM27.245,57.321a.374.374,0,0,1,.037.305.407.407,0,0,1-.187.243L24.3,59.449a.4.4,0,0,1-.544-.153l-8.2-14.5a.4.4,0,0,1,.15-.548l2.793-1.58a.4.4,0,0,1,.194-.05.45.45,0,0,1,.112.015.4.4,0,0,1,.237.187h0Zm21.049-11.38a5.491,5.491,0,0,0,1.087-.487l2.412-1.406a11.56,11.56,0,0,1-3.136.691,4.185,4.185,0,0,1-.094.471,4.346,4.346,0,0,1-.269.732Zm-2.555-5.494a39.216,39.216,0,0,1-5.567-1.513,9.556,9.556,0,1,1,8.16,3.7,4.083,4.083,0,0,0-2.455-2.148,1.268,1.268,0,0,0-.137-.036ZM34.9,33.1a12.839,12.839,0,1,1,23.554,7.072l-3.224,1.877A11.675,11.675,0,1,0,36.06,33.1a11.787,11.787,0,0,0,1,4.731c-.506-.181-.981-.348-1.412-.487l-.037-.012A12.758,12.758,0,0,1,34.9,33.1Zm26.785,5.437c4.049-1.473,5.723.587,6.185,1.357a4.25,4.25,0,0,1-1.156,5.6L48.662,56.6a7.654,7.654,0,0,1-4.055,1.166,8.234,8.234,0,0,1-2.137-.288L29.806,54.088l-1.468.847.756,1.341a2.526,2.526,0,0,1-.95,3.442L25.351,61.3a2.532,2.532,0,0,1-3.443-.954l-8.2-14.5a2.528,2.528,0,0,1,.95-3.443l2.793-1.578a2.528,2.528,0,0,1,3.443.954l.612,1.074,7.241-4.193A10.562,10.562,0,0,1,33.3,37.043a14.965,14.965,0,1,1,28.384,1.491Zm7.691-14.16a32.921,32.921,0,0,1-47.9,43.112l.687,2.4a1.063,1.063,0,0,1-.731,1.313,1.034,1.034,0,0,1-.294.041,1.063,1.063,0,0,1-1.018-.771L18.5,64.819a1.062,1.062,0,0,1,.981-1.352l5.879-.211H25.4a1.062,1.062,0,0,1,.038,2.124l-3.086.11A30.8,30.8,0,0,0,67.543,25.441a1.06,1.06,0,1,1,1.831-1.069ZM14.287,56.4a1.063,1.063,0,0,1-1.837,1.069A32.922,32.922,0,0,1,60.358,14.356l-.687-2.407a1.062,1.062,0,0,1,2.043-.583l1.612,5.652a1.062,1.062,0,0,1-.981,1.352l-5.873.211h-.044a1.061,1.061,0,0,1-.038-2.122l3.086-.112A30.8,30.8,0,0,0,14.287,56.4Z" fill-rule="evenodd"/>
    </g>
  </g>
</svg>
