<svg xmlns="http://www.w3.org/2000/svg" xmlns:xlink="http://www.w3.org/1999/xlink" width="103" height="103" viewBox="0 0 103 103">
  <defs>
    <filter id="Trazado_978624" x="0" y="0" width="103" height="103" filterUnits="userSpaceOnUse">
      <feOffset dy="3" input="SourceAlpha"/>
      <feGaussianBlur stdDeviation="3" result="blur"/>
      <feFlood flood-opacity="0.161"/>
      <feComposite operator="in" in2="blur"/>
      <feComposite in="SourceGraphic"/>
    </filter>
  </defs>
  <g id="Grupo_1226286" data-name="Grupo 1226286" transform="translate(-171 -5628)">
    <g id="Grupo_1225491" data-name="Grupo 1225491" transform="translate(0 2547)">
      <g id="Grupo_1225104" data-name="Grupo 1225104" transform="translate(0 2068)">
        <g id="Grupo_1220654" data-name="Grupo 1220654" transform="translate(180 1019)">
          <g id="Grupo_1176881" data-name="Grupo 1176881">
            <g id="Grupo_1175148" data-name="Grupo 1175148">
              <g id="Grupo_1173798" data-name="Grupo 1173798">
                <g id="Grupo_1171925" data-name="Grupo 1171925">
                  <g id="Grupo_1164524" data-name="Grupo 1164524">
                    <g id="Grupo_1144123" data-name="Grupo 1144123">
                      <g transform="matrix(1, 0, 0, 1, -9, -6)" filter="url(#Trazado_978624)">
                        <g id="Trazado_978624-2" data-name="Trazado 978624" transform="translate(9 6)" fill="#e9f9fd">
                          <path d="M 42.5 83.5 C 36.96437835693359 83.5 31.59512901306152 82.41617584228516 26.54141235351562 80.27863311767578 C 21.65934181213379 78.21369171142578 17.27447128295898 75.25723266601562 13.50862312316895 71.49137878417969 C 9.742764472961426 67.72553253173828 6.786305904388428 63.34066009521484 4.721364498138428 58.45858764648438 C 2.583823442459106 53.40486907958984 1.5 48.03562164306641 1.5 42.5 C 1.5 36.96437835693359 2.583823442459106 31.59512901306152 4.721364498138428 26.54141235351562 C 6.786305904388428 21.65934181213379 9.742764472961426 17.27447128295898 13.50862312316895 13.50862312316895 C 17.27447128295898 9.742764472961426 21.65934181213379 6.786305904388428 26.54141235351562 4.721364498138428 C 31.59512901306152 2.583823442459106 36.96437835693359 1.5 42.5 1.5 C 48.03562164306641 1.5 53.40486907958984 2.583823442459106 58.45858764648438 4.721364498138428 C 63.34066009521484 6.786305904388428 67.72553253173828 9.742764472961426 71.49137878417969 13.50862312316895 C 75.25723266601562 17.27447128295898 78.21369171142578 21.65934181213379 80.27863311767578 26.54141235351562 C 82.41617584228516 31.59512901306152 83.5 36.96437835693359 83.5 42.5 C 83.5 48.03562164306641 82.41617584228516 53.40486907958984 80.27863311767578 58.45858764648438 C 78.21369171142578 63.34066009521484 75.25723266601562 67.72553253173828 71.49137878417969 71.49137878417969 C 67.72553253173828 75.25723266601562 63.34066009521484 78.21369171142578 58.45858764648438 80.27863311767578 C 53.40486907958984 82.41617584228516 48.03562164306641 83.5 42.5 83.5 Z" stroke="none"/>
                          <path d="M 42.5 3 C 37.16621398925781 3 31.99356079101562 4.043960571289062 27.125732421875 6.102882385253906 C 22.42246627807617 8.092185974121094 18.19785308837891 10.94070434570312 14.56928253173828 14.56928253173828 C 10.94070434570312 18.19785308837891 8.092185974121094 22.42246627807617 6.102882385253906 27.125732421875 C 4.043960571289062 31.99356079101562 3 37.16621398925781 3 42.5 C 3 47.83378601074219 4.043960571289062 53.00643920898438 6.102882385253906 57.87425231933594 C 8.092185974121094 62.57753372192383 10.94070434570312 66.80213165283203 14.56928253173828 70.43071746826172 C 18.19786834716797 74.05929565429688 22.42246627807617 76.90781402587891 27.125732421875 78.89711761474609 C 31.99356079101562 80.95603942871094 37.16621398925781 82 42.5 82 C 47.83378601074219 82 53.00642395019531 80.95603942871094 57.87425231933594 78.89711761474609 C 62.57753372192383 76.90781402587891 66.80213165283203 74.05929565429688 70.43071746826172 70.43071746826172 C 74.05929565429688 66.80213165283203 76.90781402587891 62.57753372192383 78.89711761474609 57.87425231933594 C 80.95603942871094 53.00642395019531 82 47.83378601074219 82 42.5 C 82 37.16621398925781 80.95603942871094 31.99356079101562 78.89711761474609 27.125732421875 C 76.90781402587891 22.42246627807617 74.05929565429688 18.19786834716797 70.43071746826172 14.56928253173828 C 66.80213165283203 10.94070434570312 62.57753372192383 8.092185974121094 57.87425231933594 6.102882385253906 C 53.00643920898438 4.043960571289062 47.83378601074219 3 42.5 3 M 42.5 0 C 65.97209167480469 0 85 19.02789306640625 85 42.5 C 85 65.97209167480469 65.97209167480469 85 42.5 85 C 19.02789306640625 85 0 65.97209167480469 0 42.5 C 0 19.02789306640625 19.02789306640625 0 42.5 0 Z" stroke="none" fill="#36ceef"/>
                        </g>
                      </g>
                    </g>
                  </g>
                </g>
              </g>
            </g>
          </g>
        </g>
      </g>
    </g>
    <g id="economico_2_" data-name="economico (2)" transform="translate(178.516 5632.516)">
      <path id="Trazado_1179124" data-name="Trazado 1179124" d="M88.964,44.467a20.482,20.482,0,1,1-40.964,0q0-.9.077-1.781a20.482,20.482,0,0,1,40.887,1.781Z" transform="translate(-28.438 -7.095)" fill="#9ce6ed"/>
      <path id="Trazado_1179125" data-name="Trazado 1179125" d="M245.372,85.628a20.468,20.468,0,0,1-9.731,17.436L231.124,98.1V90.971h-3.562L224,85.628l3.562-2.672h4.453l2.672-3.562-1.781-4.453,5.571-4.642A20.434,20.434,0,0,1,245.372,85.628Z" transform="translate(-184.846 -48.256)" fill="#02c26a"/>
      <rect id="Rectángulo_421756" data-name="Rectángulo 421756" width="7.124" height="9.067" transform="translate(47.087 58.745)" fill="#4367e0"/>
      <rect id="Rectángulo_421757" data-name="Rectángulo 421757" width="7.124" height="16.191" transform="translate(54.211 51.621)" fill="#4976f2"/>
      <rect id="Rectángulo_421758" data-name="Rectángulo 421758" width="7.124" height="25.258" transform="translate(61.335 42.554)" fill="#548aff"/>
      <path id="Trazado_1179126" data-name="Trazado 1179126" d="M114.808,25.665l-6.34,6.34v5.343l-5.343,3.562-3.562-3.562H95.11V33.787l-4.12-2.472a20.5,20.5,0,0,1,23.818-5.649Z" transform="translate(-66.642 -7.101)" fill="#02c26a"/>
      <path id="Trazado_1179127" data-name="Trazado 1179127" d="M65.81,200.015l-3.562,2.672V213.3A20.49,20.49,0,0,1,48,193.781q0-.9.077-1.781h5.266l2.672,3.562h7.124Z" transform="translate(-28.438 -156.409)" fill="#02c26a"/>
      <path id="Trazado_1179128" data-name="Trazado 1179128" d="M32.905,257.781c0-.984-1.993-1.781-4.453-1.781S24,256.8,24,257.781v22.263c0,.984,1.993,1.781,4.453,1.781s4.453-.8,4.453-1.781Z" transform="translate(-7.109 -213.285)" fill="#ffc431"/>
      <ellipse id="Elipse_12645" data-name="Elipse 12645" cx="4.534" cy="1.943" rx="4.534" ry="1.943" transform="translate(16.648 42.554)" fill="#ffd873"/>
      <path id="Trazado_1179129" data-name="Trazado 1179129" d="M112.905,337.781c0-.984-1.993-1.781-4.453-1.781s-4.453.8-4.453,1.781v13.358c0,.984,1.993,1.781,4.453,1.781s4.453-.8,4.453-1.781Z" transform="translate(-78.204 -284.379)" fill="#ffc431"/>
      <ellipse id="Elipse_12646" data-name="Elipse 12646" cx="4.534" cy="1.619" rx="4.534" ry="1.619" transform="translate(25.715 51.621)" fill="#ffd873"/>
      <path id="Trazado_1179130" data-name="Trazado 1179130" d="M192.905,377.781c0-.984-1.993-1.781-4.453-1.781s-4.453.8-4.453,1.781v8.905c0,.984,1.993,1.781,4.453,1.781s4.453-.8,4.453-1.781Z" transform="translate(-149.299 -319.927)" fill="#ffc431"/>
      <ellipse id="Elipse_12647" data-name="Elipse 12647" cx="4.534" cy="1.619" rx="4.534" ry="1.619" transform="translate(34.782 56.154)" fill="#ffd873"/>
      <path id="Trazado_1179131" data-name="Trazado 1179131" d="M68.541,248H61.417a.891.891,0,0,0-.891.891v8.015H54.292a.891.891,0,0,0-.891.891v6.234H47.168a.891.891,0,0,0-.891.891v8.015H44.5v-8.905c0-.5-.242-1.438-1.864-2.086a10.631,10.631,0,0,0-6.958,0l-.083.035v-2.4c0-.5-.242-1.437-1.864-2.086a9.662,9.662,0,0,0-3.479-.585,9.663,9.663,0,0,0-3.479.585l-.083.035v-6.854c0-.5-.242-1.437-1.864-2.086A9.662,9.662,0,0,0,21.343,248a9.662,9.662,0,0,0-3.479.585c-1.622.649-1.864,1.585-1.864,2.086v22.263c0,.5.242,1.438,1.864,2.086a9.663,9.663,0,0,0,3.479.585,9.663,9.663,0,0,0,3.479-.585,4.29,4.29,0,0,0,.973-.528,4.29,4.29,0,0,0,.973.528,9.663,9.663,0,0,0,3.479.585,9.663,9.663,0,0,0,3.479-.585,4.288,4.288,0,0,0,.973-.528,4.29,4.29,0,0,0,.973.528,10.632,10.632,0,0,0,6.958,0,4.844,4.844,0,0,0,.633-.305H68.541a.891.891,0,0,0,.891-.891V248.891A.891.891,0,0,0,68.541,248Zm-50.76,18.081.083.035a9.662,9.662,0,0,0,3.479.585,9.663,9.663,0,0,0,3.479-.585l.083-.035v2.367c-.155.276-1.387.924-3.562.924s-3.407-.648-3.562-.924Zm0-4.453.083.034a9.662,9.662,0,0,0,3.479.585,9.663,9.663,0,0,0,3.479-.585l.083-.034V264c-.155.276-1.387.924-3.562.924s-3.407-.648-3.562-.924Zm0-4.453.083.035a9.662,9.662,0,0,0,3.479.585,9.663,9.663,0,0,0,3.479-.585l.083-.035v2.367c-.155.276-1.387.924-3.562.924s-3.407-.648-3.562-.924Zm0-4.453.083.035a9.662,9.662,0,0,0,3.479.585,9.663,9.663,0,0,0,3.479-.585l.083-.035v2.367c-.155.276-1.387.924-3.562.924s-3.407-.648-3.562-.924Zm12.467,12.2c-2.175,0-3.407-.648-3.562-.924v-2.367l.083.034a9.661,9.661,0,0,0,3.479.585,9.663,9.663,0,0,0,3.479-.585l.083-.034V264C33.656,264.271,32.424,264.92,30.248,264.92Zm-3.562,1.161.083.035a9.663,9.663,0,0,0,3.479.585,9.663,9.663,0,0,0,3.479-.585l.083-.035v2.367c-.155.276-1.387.924-3.562.924s-3.407-.648-3.562-.924Zm8.905,0,.083.035a10.632,10.632,0,0,0,6.958,0l.083-.035v2.367c-.155.276-1.387.924-3.562.924s-3.407-.648-3.562-.924Zm3.562-2.942c2.1,0,3.314.6,3.538.892-.232.292-1.451.889-3.538.889s-3.307-.6-3.538-.889C35.84,263.74,37.058,263.139,39.154,263.139Zm-8.905-4.453c2.1,0,3.314.6,3.538.892-.232.292-1.451.889-3.538.889s-3.31-.6-3.539-.891C26.938,259.285,28.158,258.686,30.248,258.686Zm-8.905-8.905c2.1,0,3.314.6,3.538.892-.232.292-1.451.889-3.538.889s-3.307-.6-3.538-.889C18.03,250.382,19.248,249.781,21.343,249.781Zm0,24.044c-2.171,0-3.4-.646-3.562-.923v-2.368l.083.035a9.662,9.662,0,0,0,3.479.585,9.662,9.662,0,0,0,3.479-.585l.083-.034V272.9C24.747,273.179,23.515,273.825,21.343,273.825Zm8.905,0c-2.175,0-3.407-.648-3.562-.924v-2.367l.083.035a9.662,9.662,0,0,0,3.479.585,9.662,9.662,0,0,0,3.479-.585l.083-.034V272.9C33.652,273.179,32.42,273.825,30.248,273.825Zm8.905,0c-2.171,0-3.4-.646-3.562-.923v-2.368l.083.035a10.632,10.632,0,0,0,6.958,0l.083-.034V272.9C42.557,273.179,41.325,273.825,39.154,273.825Zm8.905-8.015H53.4v7.124H48.059Zm7.124-7.124h5.343v14.248H55.183Zm7.124,14.248V249.781H67.65v23.154Z" transform="translate(0 -206.175)"/>
      <rect id="Rectángulo_421759" data-name="Rectángulo 421759" width="1.943" height="1.943" transform="translate(39.315 51.621)"/>
      <path id="Trazado_1179132" data-name="Trazado 1179132" d="M256,179.591v1.781h4.453a.891.891,0,0,0,.63-.261l18.071-18.071v1.412h1.781v-3.562a.891.891,0,0,0-.891-.891h-3.562v1.781h1.412l-17.81,17.81Z" transform="translate(-213.284 -127.971)"/>
      <path id="Trazado_1179133" data-name="Trazado 1179133" d="M75.857,21.657A21.373,21.373,0,0,0,40,37.372a21.647,21.647,0,0,0,.18,2.786l1.766-.23a19.861,19.861,0,0,1-.165-2.557c0-.3.008-.6.021-.891h3.986l2.4,3.206a.89.89,0,0,0,.712.356h6.62l2,3.332-2.92,2.19a.891.891,0,0,0-.356.712v2.672h1.781V46.723l3.206-2.4a.891.891,0,0,0,.229-1.171L56.793,38.7a.891.891,0,0,0-.764-.432H49.35l-2.4-3.206a.89.89,0,0,0-.712-.356h-4.27a19.5,19.5,0,0,1,3.926-9.319l3.015,1.809v3.058a.891.891,0,0,0,.891.891h4.084l3.3,3.3a.891.891,0,0,0,1.124.111l5.343-3.562a.89.89,0,0,0,.4-.741V25.274l5.645-5.644a19.546,19.546,0,0,1,3.882,2.411L68.817,26a.89.89,0,0,0-.257,1.015L70.155,31l-2.1,2.805H64.044a.891.891,0,0,0-.534.178L59.948,36.66a.891.891,0,0,0-.207,1.206L63.3,43.209a.89.89,0,0,0,.741.4h2.672v5.343H68.5V42.715a.891.891,0,0,0-.891-.891H64.521l-2.83-4.246,2.651-1.988H68.5a.89.89,0,0,0,.712-.356l2.672-3.562A.89.89,0,0,0,72,30.808l-1.541-3.852,4.473-3.728a19.519,19.519,0,0,1,5.963,12.439l1.775-.153A21.3,21.3,0,0,0,75.857,21.657ZM62.524,24.275a.891.891,0,0,0-.261.63v4.867l-4.339,2.893-3.046-3.046a.891.891,0,0,0-.63-.261H50.686V26.686a.891.891,0,0,0-.432-.764l-3.192-1.915A19.583,19.583,0,0,1,67.9,18.9Z" transform="translate(-21.328)"/>
    </g>
  </g>
</svg>
