<svg xmlns="http://www.w3.org/2000/svg" xmlns:xlink="http://www.w3.org/1999/xlink" width="103" height="103" viewBox="0 0 103 103">
  <defs>
    <filter id="Trazado_978624" x="0" y="0" width="103" height="103" filterUnits="userSpaceOnUse">
      <feOffset dy="3" input="SourceAlpha"/>
      <feGaussianBlur stdDeviation="3" result="blur"/>
      <feFlood flood-opacity="0.161"/>
      <feComposite operator="in" in2="blur"/>
      <feComposite in="SourceGraphic"/>
    </filter>
  </defs>
  <g id="Grupo_1226281" data-name="Grupo 1226281" transform="translate(-171 -2741.537)">
    <g id="Grupo_1225484" data-name="Grupo 1225484" transform="translate(180 2747.537)">
      <g id="Grupo_1225104" data-name="Grupo 1225104">
        <g id="Grupo_1220654" data-name="Grupo 1220654">
          <g id="Grupo_1176881" data-name="Grupo 1176881">
            <g id="Grupo_1175148" data-name="Grupo 1175148">
              <g id="Grupo_1173798" data-name="Grupo 1173798">
                <g id="Grupo_1171925" data-name="Grupo 1171925">
                  <g id="Grupo_1164524" data-name="Grupo 1164524">
                    <g id="Grupo_1144123" data-name="Grupo 1144123">
                      <g transform="matrix(1, 0, 0, 1, -9, -6)" filter="url(#Trazado_978624)">
                        <g id="Trazado_978624-2" data-name="Trazado 978624" transform="translate(9 6)" fill="#f6f3ef">
                          <path d="M 42.5 83.5 C 36.96437835693359 83.5 31.59512901306152 82.41617584228516 26.54141235351562 80.27863311767578 C 21.65934181213379 78.21369171142578 17.27447128295898 75.25723266601562 13.50862312316895 71.49137878417969 C 9.742764472961426 67.72553253173828 6.786305904388428 63.34066009521484 4.721364498138428 58.45858764648438 C 2.583823442459106 53.40486907958984 1.5 48.03562164306641 1.5 42.5 C 1.5 36.96437835693359 2.583823442459106 31.59512901306152 4.721364498138428 26.54141235351562 C 6.786305904388428 21.65934181213379 9.742764472961426 17.27447128295898 13.50862312316895 13.50862312316895 C 17.27447128295898 9.742764472961426 21.65934181213379 6.786305904388428 26.54141235351562 4.721364498138428 C 31.59512901306152 2.583823442459106 36.96437835693359 1.5 42.5 1.5 C 48.03562164306641 1.5 53.40486907958984 2.583823442459106 58.45858764648438 4.721364498138428 C 63.34066009521484 6.786305904388428 67.72553253173828 9.742764472961426 71.49137878417969 13.50862312316895 C 75.25723266601562 17.27447128295898 78.21369171142578 21.65934181213379 80.27863311767578 26.54141235351562 C 82.41617584228516 31.59512901306152 83.5 36.96437835693359 83.5 42.5 C 83.5 48.03562164306641 82.41617584228516 53.40486907958984 80.27863311767578 58.45858764648438 C 78.21369171142578 63.34066009521484 75.25723266601562 67.72553253173828 71.49137878417969 71.49137878417969 C 67.72553253173828 75.25723266601562 63.34066009521484 78.21369171142578 58.45858764648438 80.27863311767578 C 53.40486907958984 82.41617584228516 48.03562164306641 83.5 42.5 83.5 Z" stroke="none"/>
                          <path d="M 42.5 3 C 37.16621398925781 3 31.99356079101562 4.043960571289062 27.125732421875 6.102882385253906 C 22.42246627807617 8.092185974121094 18.19785308837891 10.94070434570312 14.56928253173828 14.56928253173828 C 10.94070434570312 18.19785308837891 8.092185974121094 22.42246627807617 6.102882385253906 27.125732421875 C 4.043960571289062 31.99356079101562 3 37.16621398925781 3 42.5 C 3 47.83378601074219 4.043960571289062 53.00643920898438 6.102882385253906 57.87425231933594 C 8.092185974121094 62.57753372192383 10.94070434570312 66.80213165283203 14.56928253173828 70.43071746826172 C 18.19786834716797 74.05929565429688 22.42246627807617 76.90781402587891 27.125732421875 78.89711761474609 C 31.99356079101562 80.95603942871094 37.16621398925781 82 42.5 82 C 47.83378601074219 82 53.00642395019531 80.95603942871094 57.87425231933594 78.89711761474609 C 62.57753372192383 76.90781402587891 66.80213165283203 74.05929565429688 70.43071746826172 70.43071746826172 C 74.05929565429688 66.80213165283203 76.90781402587891 62.57753372192383 78.89711761474609 57.87425231933594 C 80.95603942871094 53.00642395019531 82 47.83378601074219 82 42.5 C 82 37.16621398925781 80.95603942871094 31.99356079101562 78.89711761474609 27.125732421875 C 76.90781402587891 22.42246627807617 74.05929565429688 18.19786834716797 70.43071746826172 14.56928253173828 C 66.80213165283203 10.94070434570312 62.57753372192383 8.092185974121094 57.87425231933594 6.102882385253906 C 53.00643920898438 4.043960571289062 47.83378601074219 3 42.5 3 M 42.5 0 C 65.97209167480469 0 85 19.02789306640625 85 42.5 C 85 65.97209167480469 65.97209167480469 85 42.5 85 C 19.02789306640625 85 0 65.97209167480469 0 42.5 C 0 19.02789306640625 19.02789306640625 0 42.5 0 Z" stroke="none" fill="#7b776f"/>
                        </g>
                      </g>
                    </g>
                  </g>
                </g>
              </g>
            </g>
          </g>
        </g>
      </g>
    </g>
    <g id="ganancias" transform="translate(196.221 2758.729)">
      <g id="Grupo_1226279" data-name="Grupo 1226279" transform="translate(0.77 3.356)">
        <path id="Trazado_1179088" data-name="Trazado 1179088" d="M34.1,294.867H9.751A2.251,2.251,0,0,1,7.5,292.616v-2.833a2.251,2.251,0,0,1,2.251-2.251H34.1a2.251,2.251,0,0,1,2.251,2.251v2.833A2.251,2.251,0,0,1,34.1,294.867Z" transform="translate(-7.5 -259.05)" fill="#f1e64c"/>
        <path id="Trazado_1179089" data-name="Trazado 1179089" d="M14.436,294.87H9.752A2.251,2.251,0,0,1,7.5,292.62v-2.834a2.251,2.251,0,0,1,2.252-2.251h4.684a2.251,2.251,0,0,0-2.251,2.251v2.834A2.251,2.251,0,0,0,14.436,294.87Z" transform="translate(-7.5 -259.053)" fill="#ffc250"/>
        <path id="Trazado_1179090" data-name="Trazado 1179090" d="M36.354,319.63v1.79a2.251,2.251,0,0,1-2.251,2.25H9.752A2.251,2.251,0,0,1,7.5,321.42v-1.79a2.251,2.251,0,0,0,2.251,2.251H34.1A2.251,2.251,0,0,0,36.354,319.63Z" transform="translate(-7.501 -287.853)" fill="#ffc250"/>
        <path id="Trazado_1179091" data-name="Trazado 1179091" d="M74.74,223.411H50.389a2.251,2.251,0,0,1-2.251-2.251v-2.833a2.251,2.251,0,0,1,2.251-2.251H74.74a2.251,2.251,0,0,1,2.251,2.251v2.833A2.251,2.251,0,0,1,74.74,223.411Z" transform="translate(-43.966 -194.93)" fill="#f1e64c"/>
        <path id="Trazado_1179092" data-name="Trazado 1179092" d="M55.075,223.414H50.391a2.251,2.251,0,0,1-2.252-2.251V218.33a2.251,2.251,0,0,1,2.252-2.251h4.684a2.251,2.251,0,0,0-2.251,2.251v2.834A2.251,2.251,0,0,0,55.075,223.414Z" transform="translate(-43.967 -194.932)" fill="#ffc250"/>
        <path id="Trazado_1179093" data-name="Trazado 1179093" d="M76.993,248.174v1.79a2.251,2.251,0,0,1-2.251,2.25H50.391a2.251,2.251,0,0,1-2.251-2.25v-1.79a2.251,2.251,0,0,0,2.251,2.251h24.35A2.251,2.251,0,0,0,76.993,248.174Z" transform="translate(-43.968 -223.733)" fill="#ffc250"/>
        <path id="Trazado_1179094" data-name="Trazado 1179094" d="M46.164,151.953H21.813a2.251,2.251,0,0,1-2.251-2.251v-2.833a2.251,2.251,0,0,1,2.251-2.251H46.164a2.251,2.251,0,0,1,2.251,2.251V149.7A2.251,2.251,0,0,1,46.164,151.953Z" transform="translate(-18.324 -130.807)" fill="#f1e64c"/>
        <path id="Trazado_1179095" data-name="Trazado 1179095" d="M26.5,151.957H21.815a2.251,2.251,0,0,1-2.252-2.251v-2.834a2.251,2.251,0,0,1,2.252-2.251H26.5a2.251,2.251,0,0,0-2.251,2.251v2.834A2.251,2.251,0,0,0,26.5,151.957Z" transform="translate(-18.325 -130.811)" fill="#ffc250"/>
        <path id="Trazado_1179096" data-name="Trazado 1179096" d="M48.416,176.716v1.79a2.251,2.251,0,0,1-2.251,2.25H21.814a2.251,2.251,0,0,1-2.251-2.25v-1.79a2.251,2.251,0,0,0,2.251,2.251h24.35A2.251,2.251,0,0,0,48.416,176.716Z" transform="translate(-18.325 -159.61)" fill="#ffc250"/>
        <path id="Trazado_1179097" data-name="Trazado 1179097" d="M54.1,366.325H29.751a2.251,2.251,0,0,1-2.251-2.251v-2.833a2.251,2.251,0,0,1,2.251-2.251H54.1a2.251,2.251,0,0,1,2.251,2.251v2.833A2.251,2.251,0,0,1,54.1,366.325Z" transform="translate(-25.447 -323.173)" fill="#f1e64c"/>
        <path id="Trazado_1179098" data-name="Trazado 1179098" d="M56.354,391.088v1.79a2.251,2.251,0,0,1-2.251,2.25H29.752a2.251,2.251,0,0,1-2.251-2.25v-1.79a2.251,2.251,0,0,0,2.251,2.251H54.1A2.251,2.251,0,0,0,56.354,391.088Z" transform="translate(-25.448 -351.976)" fill="#ffc250"/>
        <path id="Trazado_1179099" data-name="Trazado 1179099" d="M34.436,366.328H29.752a2.251,2.251,0,0,1-2.252-2.251v-2.834a2.251,2.251,0,0,1,2.252-2.251h4.684a2.251,2.251,0,0,0-2.251,2.251v2.834A2.251,2.251,0,0,0,34.436,366.328Z" transform="translate(-25.447 -323.176)" fill="#ffc250"/>
        <path id="Trazado_1179100" data-name="Trazado 1179100" d="M39.1,437.783H14.751a2.251,2.251,0,0,1-2.251-2.251V432.7a2.251,2.251,0,0,1,2.251-2.251H39.1a2.251,2.251,0,0,1,2.251,2.251v2.833A2.251,2.251,0,0,1,39.1,437.783Z" transform="translate(-11.987 -387.296)" fill="#f1e64c"/>
        <path id="Trazado_1179101" data-name="Trazado 1179101" d="M41.354,462.546v1.79a2.251,2.251,0,0,1-2.251,2.25H14.752a2.251,2.251,0,0,1-2.251-2.25v-1.79a2.251,2.251,0,0,0,2.251,2.251H39.1A2.251,2.251,0,0,0,41.354,462.546Z" transform="translate(-11.988 -416.099)" fill="#ffc250"/>
        <path id="Trazado_1179102" data-name="Trazado 1179102" d="M19.436,437.786H14.752a2.251,2.251,0,0,1-2.252-2.251V432.7a2.251,2.251,0,0,1,2.252-2.251h4.684a2.251,2.251,0,0,0-2.251,2.251v2.834A2.251,2.251,0,0,0,19.436,437.786Z" transform="translate(-11.987 -387.298)" fill="#ffc250"/>
        <g id="Grupo_1226276" data-name="Grupo 1226276" transform="translate(22.166 21.635)">
          <circle id="Elipse_12641" data-name="Elipse 12641" cx="14.426" cy="14.426" r="14.426" transform="translate(0 0)" fill="#f1e64c"/>
          <g id="Grupo_1226275" data-name="Grupo 1226275" transform="translate(0 0)">
            <path id="Trazado_1179103" data-name="Trazado 1179103" d="M239.076,249.642q-.6.052-1.22.051a14.426,14.426,0,0,1,0-28.852q.617,0,1.22.051a14.426,14.426,0,0,0,0,28.749Z" transform="translate(-223.43 -220.841)" fill="#ffc250"/>
            <circle id="Elipse_12642" data-name="Elipse 12642" cx="9.741" cy="9.741" r="9.741" transform="translate(4.685 4.685)" fill="#ffc250"/>
          </g>
        </g>
        <g id="Grupo_1226277" data-name="Grupo 1226277" transform="translate(5.3 1.241)">
          <path id="Trazado_1179104" data-name="Trazado 1179104" d="M73.32,51.715V39.838h2.03a3.2,3.2,0,0,0,2.773-4.8L71.616,23.767a3.2,3.2,0,0,0-5.545,0L59.563,35.035a3.2,3.2,0,0,0,2.773,4.8h2.031V51.715a2.015,2.015,0,0,0,2.015,2.015h4.924A2.015,2.015,0,0,0,73.32,51.715Z" transform="translate(-59.13 -22.166)" fill="#95d6a4"/>
          <path id="Trazado_1179105" data-name="Trazado 1179105" d="M68.236,53.737H66.382a2.014,2.014,0,0,1-2.014-2.014V39.845H62.336a3.2,3.2,0,0,1-2.772-4.8l6.506-11.269a3.172,3.172,0,0,1,2.773-1.6,2.138,2.138,0,0,0-1.857,1.6L62.627,35.042c-.826,2.135.206,4.8,1.857,4.8h.835a1.567,1.567,0,0,1,1.567,1.567v10.31C66.886,52.834,67.49,53.737,68.236,53.737Z" transform="translate(-59.13 -22.173)" fill="#78c2a4"/>
        </g>
        <g id="Grupo_1226278" data-name="Grupo 1226278" transform="translate(25.953 0)">
          <path id="Trazado_1179106" data-name="Trazado 1179106" d="M372.352,139.164l-.059-.22a1.526,1.526,0,0,1,.979-1.839l2.335-.8a1.526,1.526,0,0,1,1.969,1.049l.146.546a1.526,1.526,0,0,1-1.181,1.893l-2.422.474A1.526,1.526,0,0,1,372.352,139.164Z" transform="translate(-360.752 -123.273)" fill="#f7f493"/>
          <path id="Trazado_1179107" data-name="Trazado 1179107" d="M331.677,60.36l-.161-.161a1.526,1.526,0,0,1-.071-2.082l1.622-1.861a1.526,1.526,0,0,1,2.23-.076l.4.4a1.526,1.526,0,0,1-.076,2.23l-1.861,1.622A1.526,1.526,0,0,1,331.677,60.36Z" transform="translate(-323.807 -51.046)" fill="#f7f493"/>
          <path id="Trazado_1179108" data-name="Trazado 1179108" d="M261.676,15.559l-.22-.059a1.526,1.526,0,0,1-1.1-1.767l.474-2.422a1.526,1.526,0,0,1,1.893-1.181l.546.146a1.526,1.526,0,0,1,1.049,1.969l-.8,2.335A1.526,1.526,0,0,1,261.676,15.559Z" transform="translate(-260.325 -10.077)" fill="#f7f493"/>
        </g>
      </g>
      <g id="Grupo_1226280" data-name="Grupo 1226280" transform="translate(0 2.587)">
        <path id="Trazado_1179109" data-name="Trazado 1179109" d="M48.425,39.838A.77.77,0,1,0,47.3,40.894,13.655,13.655,0,1,1,45.1,39a.77.77,0,1,0,.874-1.268A15.2,15.2,0,0,0,33.725,35.5a3.009,3.009,0,0,0-2.181-.93h-.3a3,3,0,0,0,.39-1.481V30.256a3.024,3.024,0,0,0-3.021-3.021H25.334L19.223,16.651a3.933,3.933,0,0,0-3.44-1.986h0a3.93,3.93,0,0,0-3.437,1.985L6.233,27.235H4.259a3.024,3.024,0,0,0-3.021,3.021v2.833A3.024,3.024,0,0,0,4.259,36.11h.3a3,3,0,0,0-.39,1.481v2.833a3,3,0,0,0,.39,1.481H3.021A3.024,3.024,0,0,0,0,44.926v2.833a3.025,3.025,0,0,0,2.472,2.97,3,3,0,0,0-.419,1.532v2.833a3,3,0,0,0,.492,1.649A3.026,3.026,0,0,0,.513,59.6v2.833a3.024,3.024,0,0,0,3.021,3.021h24.35a3.032,3.032,0,0,0,2.671-1.612,15.2,15.2,0,0,0,17.87-24ZM3.593,55.095V52.262A1.483,1.483,0,0,1,5.074,50.78h17.1a15.093,15.093,0,0,0,1.368,5.8H5.074a1.483,1.483,0,0,1-1.481-1.481ZM31.766,36.128a15.283,15.283,0,0,0-7.094,5.778H21.031v-5.8H31.543a1.482,1.482,0,0,1,.223.017Zm-1.675-5.872v2.833a1.483,1.483,0,0,1-1.481,1.481H21.031v-.693h1.26a3.973,3.973,0,0,0,3.808-5.1h2.511a1.483,1.483,0,0,1,1.481,1.481ZM2.778,33.089V30.256a1.483,1.483,0,0,1,1.481-1.481H5.468A3.921,3.921,0,0,0,5.4,30.767a.77.77,0,0,0,1.5-.338,2.379,2.379,0,0,1,.272-1.739L13.678,17.42a2.4,2.4,0,0,1,2.1-1.215h0a2.409,2.409,0,0,1,2.107,1.216L24.4,28.689a2.432,2.432,0,0,1-2.106,3.648H20.261a.77.77,0,0,0-.77.77V44.983a1.247,1.247,0,0,1-1.245,1.245H13.322a1.247,1.247,0,0,1-1.245-1.245V33.107a.77.77,0,0,0-.77-.77H9.277a2.447,2.447,0,0,1-.838-.145.77.77,0,1,0-.526,1.447,3.98,3.98,0,0,0,1.365.237h1.261v.693H4.259a1.483,1.483,0,0,1-1.481-1.481Zm2.934,7.336V37.592A1.483,1.483,0,0,1,7.193,36.11h3.344v5.8H7.193A1.483,1.483,0,0,1,5.712,40.425ZM1.54,47.759V44.926a1.482,1.482,0,0,1,1.481-1.48h7.516v1.537a2.788,2.788,0,0,0,2.785,2.785h4.923a2.788,2.788,0,0,0,2.785-2.785V43.446H23.78A15.084,15.084,0,0,0,22.2,49.241H3.021A1.483,1.483,0,0,1,1.54,47.759ZM27.885,63.912H3.534a1.483,1.483,0,0,1-1.481-1.481V59.6a1.483,1.483,0,0,1,1.481-1.481H24.361a15.316,15.316,0,0,0,4.854,4.963A1.485,1.485,0,0,1,27.885,63.912Z" transform="translate(0 -13.425)"/>
        <path id="Trazado_1179110" data-name="Trazado 1179110" d="M328.927,295.5c-.272-.079-.552-.163-.83-.25v-3.411a3.254,3.254,0,0,1,1.358.5.77.77,0,0,0,.926-1.23,4.868,4.868,0,0,0-2.284-.817v-.665a.77.77,0,1,0-1.54,0v.714c-.148.025-.3.056-.455.095a3.218,3.218,0,0,0-2.469,2.523,2.48,2.48,0,0,0,1.087,2.536,9.118,9.118,0,0,0,1.837.863v4.321a4.44,4.44,0,0,1-2.2-.637.77.77,0,0,0-.73,1.356,5.891,5.891,0,0,0,2.928.822v.756a.77.77,0,1,0,1.54,0v-.806A3.921,3.921,0,0,0,331.56,299a3.231,3.231,0,0,0-2.633-3.5Zm-3.371-1.3a.953.953,0,0,1-.4-.989,1.653,1.653,0,0,1,1.321-1.282l.085-.019v2.8A6.442,6.442,0,0,1,325.556,294.2Zm4.479,4.593A2.337,2.337,0,0,1,328.1,300.6v-3.741l.4.118C329.591,297.295,330.151,297.955,330.035,298.789Z" transform="translate(-290.045 -259.466)"/>
        <path id="Trazado_1179111" data-name="Trazado 1179111" d="M272.08,258.977a10.511,10.511,0,1,0,10.511,10.511A10.523,10.523,0,0,0,272.08,258.977Zm0,19.483a8.972,8.972,0,1,1,8.971-8.972A8.982,8.982,0,0,1,272.08,278.46Z" transform="translate(-234.718 -232.658)"/>
        <path id="Trazado_1179112" data-name="Trazado 1179112" d="M364.824,132.424l.059.22h0a2.3,2.3,0,0,0,2.22,1.7,2.276,2.276,0,0,0,.439-.043l2.422-.474a2.3,2.3,0,0,0,1.777-2.848l-.146-.546a2.3,2.3,0,0,0-2.963-1.578l-2.335.8A2.3,2.3,0,0,0,364.824,132.424Zm1.973-1.31,2.335-.8a.756.756,0,0,1,.976.52l.146.546a.756.756,0,0,1-.585.938l-2.422.474a.758.758,0,0,1-.876-.546l-.059-.22A.759.759,0,0,1,366.8,131.114Z" transform="translate(-327.304 -115.784)"/>
        <path id="Trazado_1179113" data-name="Trazado 1179113" d="M324.424,54.174a2.3,2.3,0,0,0,3.132.107l1.861-1.622a2.3,2.3,0,0,0,.115-3.354l-.4-.4a2.3,2.3,0,0,0-3.354.115l-1.622,1.861a2.3,2.3,0,0,0,.107,3.132Zm.893-2.281,1.622-1.861a.748.748,0,0,1,.544-.259h.027a.748.748,0,0,1,.534.222l.4.4a.756.756,0,0,1-.038,1.1l-1.861,1.622a.759.759,0,0,1-1.032-.035l-.161-.161a.759.759,0,0,1-.035-1.032Z" transform="translate(-290.375 -43.547)"/>
        <path id="Trazado_1179114" data-name="Trazado 1179114" d="M271.547,70.725h0Z" transform="translate(-243.672 -63.73)"/>
        <path id="Trazado_1179115" data-name="Trazado 1179115" d="M254.531,9.523l.22.059a2.28,2.28,0,0,0,.59.078,2.305,2.305,0,0,0,2.176-1.551l.8-2.335a2.3,2.3,0,0,0-1.578-2.963l-.546-.146a2.3,2.3,0,0,0-2.848,1.777l-.474,2.422a2.3,2.3,0,0,0,1.659,2.659Zm-.148-2.363.474-2.422a.758.758,0,0,1,.74-.612.766.766,0,0,1,.2.026l.546.146a.756.756,0,0,1,.52.976l-.8,2.335a.759.759,0,0,1-.911.485h0l-.22-.059a.759.759,0,0,1-.547-.876Z" transform="translate(-226.875 -2.587)"/>
      </g>
    </g>
  </g>
</svg>
