<svg xmlns="http://www.w3.org/2000/svg" xmlns:xlink="http://www.w3.org/1999/xlink" width="295" height="317" viewBox="0 0 295 317">
  <defs>
    <clipPath id="clip-path">
      <rect id="Rect치ngulo_421762" data-name="Rect치ngulo 421762" width="295" height="317" transform="translate(1125 272)" fill="#fff" stroke="#707070" stroke-width="1"/>
    </clipPath>
  </defs>
  <g id="Grupo_1226402" data-name="Grupo 1226402" transform="translate(-1125 -272)">
    <rect id="Rect치ngulo_421813" data-name="Rect치ngulo 421813" width="210" height="317" transform="translate(1125 272)" fill="#36ceef"/>
    <g id="Enmascarar_grupo_1211510" data-name="Enmascarar grupo 1211510" clip-path="url(#clip-path)">
      <g id="Object" transform="translate(884.635 97.98)">
        <g id="Grupo_1226401" data-name="Grupo 1226401" transform="translate(229.8 151.02)">
          <g id="Grupo_1226400" data-name="Grupo 1226400" transform="translate(0 0)">
            <g id="Grupo_1226374" data-name="Grupo 1226374" transform="translate(13.348 48.397)">
              <path id="Trazado_1179936" data-name="Trazado 1179936" d="M343.125,432.775l85.686,57.112,61.247-126.612-15.382-7.055,38.942-27.62,4.435,47.531-15.12-6.943-68.47,141.488-89.092-59.413L240.223,565.749,229.8,556.168Z" transform="translate(-229.8 -328.6)" fill="#5fe0ab"/>
              <g id="Grupo_1226373" data-name="Grupo 1226373">
                <path id="Trazado_1179937" data-name="Trazado 1179937" d="M344.229,594.1,429.9,651.21,491.145,524.6l-1.965-.9L428.812,648.478l-85.686-57.112L229.8,714.759l1.946,1.8Z" transform="translate(-229.8 -487.191)" fill="#b0ffca"/>
                <path id="Trazado_1179938" data-name="Trazado 1179938" d="M1577.641,331.893l-.3-3.293L1538.4,356.22l2.994,1.366Z" transform="translate(-1293.523 -328.6)" fill="#b0ffca"/>
              </g>
              <path id="Trazado_1181118" data-name="Trazado 1181118" d="M326.291,441.821l72.958-48.628L451.4,501,438.3,507l33.157,23.517,3.776-40.47-12.874,5.911-58.3-120.471L328.2,426.079,238.675,328.6l-8.875,8.158Z" transform="translate(-208.391 -273.6)" fill="#e81858" opacity="0.71"/>
            </g>
            <g id="Grupo_1226375" data-name="Grupo 1226375" transform="translate(105.09 36.374)">
              <path id="Trazado_1179939" data-name="Trazado 1179939" d="M934.638,672.4a2.695,2.695,0,0,1,2.282-3.089,2.623,2.623,0,0,1,2.032.5,2.705,2.705,0,0,1,1.058,1.809,2.558,2.558,0,0,1-.529,2.032,2.706,2.706,0,0,1-1.809,1.058,2.469,2.469,0,0,1-2-.529,2.572,2.572,0,0,1-1.03-1.809Zm-.39-4.314L932.3,654.2l4.926-.7,1.948,13.888Z" transform="translate(-917.048 -653.5)" fill="#f78f1e"/>
              <path id="Trazado_1179940" data-name="Trazado 1179940" d="M884.875,685.07a2.719,2.719,0,0,1-.083-2.087,2.519,2.519,0,0,1,1.419-1.5,2.719,2.719,0,0,1,2.087-.083,2.566,2.566,0,0,1,1.5,1.447,2.72,2.72,0,0,1,.084,2.087,2.692,2.692,0,0,1-1.447,1.531,2.531,2.531,0,0,1-2.06.056A2.648,2.648,0,0,1,884.875,685.07Zm-1.586-4.036L877.5,668.26l4.537-2.06,5.789,12.775Z" transform="translate(-877.5 -662.665)" fill="#f78f1e"/>
            </g>
            <path id="Trazado_1179941" data-name="Trazado 1179941" d="M932.409,1707.751c0,2.4-18.717,4.351-41.8,4.351s-41.8-1.95-41.8-4.351,18.717-4.351,41.8-4.351S932.409,1705.35,932.409,1707.751Z" transform="translate(-721.765 -1384.811)" fill="#020202" opacity="0.1"/>
            <g id="Grupo_1226382" data-name="Grupo 1226382" transform="translate(76.423 40.911)">
              <path id="Trazado_1179942" data-name="Trazado 1179942" d="M910.176,771.075s-5.065-17.757-15.447-6.568c-10.354,11.161-19.9,30.281-6.708,40.217,13.192,9.964-8.322,17.256-8.322,17.256s24.659,8.572,23.574-7.71c-1.614-24.381-4.258-41.637,4.063-36.154C907.337,778.117,910.176,777.226,910.176,771.075Z" transform="translate(-850.421 -735.478)" fill="#1a1a1a"/>
              <g id="Grupo_1226378" data-name="Grupo 1226378" transform="translate(0 0)">
                <path id="Trazado_1179943" data-name="Trazado 1179943" d="M1177.987,686.861l2.811-7.125s4.286-6.123,4.286-9.936c0,0,2.115.139,1.642,2.867-.417,2.394-1.308,2.95-1.308,2.95a15.1,15.1,0,0,1,10.326.445s.083.557-.278.7c-.362.167-4.7-1.308-7.181.223l.306.417a12.353,12.353,0,0,1,6.847.362s1.447,1.336-.195,1.336c0,0-1.921-1.2-6.012-.167l.111.557a9.824,9.824,0,0,1,5.566,1.113s1.085.974-.362.779-4.425-.891-4.843-.529,3.869.585,4.648,2.644c0,0,.056,1.03-1.28,0s-3.117-1.7-4.258-.779c-1.113.918-1.392,1.7-5.01,1.7l-1.893,2.755s-4.258,3.451-3.952-.306Z" transform="translate(-1065.657 -669.8)" fill="#fda777"/>
                <path id="Trazado_1179944" data-name="Trazado 1179944" d="M795.151,748.375l-5.455-5.4s-6.4-3.9-7.932-7.376c0,0-1.893.974-.362,3.284,1.336,2,2.366,2.171,2.366,2.171a15.076,15.076,0,0,0-9.268,4.565s.139.529.529.529,3.785-3.089,6.652-2.672l-.111.5a12.264,12.264,0,0,0-6.123,3.089s-.779,1.809.724,1.141c0,0,1.28-1.865,5.427-2.561l.139.529a9.959,9.959,0,0,0-4.648,3.256s-.585,1.336.64.557c1.225-.752,3.7-2.616,4.23-2.449s-3.312,2.087-3.2,4.286c0,0,.362.946,1.169-.5.807-1.475,2.171-2.811,3.59-2.421,1.392.39,1.948,1,5.288-.473l2.839,1.781s5.288,1.447,3.479-1.865Z" transform="translate(-774.5 -717.286)" fill="#fda777"/>
                <g id="Grupo_1226376" data-name="Grupo 1226376" transform="translate(62.151 176.762)">
                  <path id="Trazado_1179945" data-name="Trazado 1179945" d="M1034.848,1312.916l8.211,14.556-44.281,41.192s-4.091,9.435,4.509,4.091c4.453-2.755,58.2-41.414,58.2-41.414s2.867-8.6-1.447-13.944c-4.314-5.316-9.825-12.5-9.825-12.5l-15.363,7.988Z" transform="translate(-997.806 -1304.9)" fill="#e5946c"/>
                  <path id="Trazado_1179946" data-name="Trazado 1179946" d="M1175.15,1352.251c.557-2.143,1.948-8.823-1.642-13.248-1.085-1.336-2.226-2.783-3.34-4.2l-12.385,1.642-2.783,9.964,1.5,2.644-.251.251c3.646,1.308,12.024,3.924,18.9,2.978Z" transform="translate(-1111.25 -1326.478)" fill="#cc7e5c"/>
                </g>
                <g id="Grupo_1226377" data-name="Grupo 1226377" transform="translate(70.737 179.851)">
                  <path id="Trazado_1179947" data-name="Trazado 1179947" d="M1045.646,1323.988l8.21,14.556-25.188,59.672s-.417,6.123,3.674,2.839,40.774-62.928,40.774-62.928,2.06-4.314-2.254-9.63-9.825-12.5-9.825-12.5l-15.363,7.988Z" transform="translate(-1028.657 -1316)" fill="#fda777"/>
                  <path id="Trazado_1179948" data-name="Trazado 1179948" d="M1114,1338.6l-18.7,4.481,6.624,11.773c3.507.362,13.721.974,19.761-2.922a10.96,10.96,0,0,0-2.727-7.125c-1.586-1.976-3.34-4.2-4.927-6.207Z" transform="translate(-1076.752 -1332.31)" fill="#e5946c"/>
                </g>
                <path id="Trazado_1179949" data-name="Trazado 1179949" d="M1163.3,724.473l5.232-9.073,5.539,4.008-7.849,9.213Z" transform="translate(-1055.089 -702.709)" fill="#ccc"/>
                <path id="Trazado_1179950" data-name="Trazado 1179950" d="M836.683,773.91l-7.069-7.709L825.3,773.91l9.992,4.759Z" transform="translate(-811.161 -739.37)" fill="#ccc"/>
                <path id="Trazado_1179951" data-name="Trazado 1179951" d="M1083.884,736.4l5.539,8.21-28.083,55.553L1052.1,785.8Z" transform="translate(-974.838 -717.864)" fill="#2d333f"/>
                <path id="Trazado_1179952" data-name="Trazado 1179952" d="M1028.034,942.435a72.309,72.309,0,0,1-24.6-36.905s-6.568-.417-8.405.417c-1.837.807-9.63,26.635-9.63,26.635l-5.733,10.66-1.225,3.284s-.612,6.568,4.314,9.018,26.246,18.647,45.283-13.109Z" transform="translate(-921.66 -839.846)" fill="#2d333f"/>
                <path id="Trazado_1179953" data-name="Trazado 1179953" d="M1017.36,1066.228l-2.06,7.988,22.544.195s-1.03-6.346-1.03-7.181-19.482-1.03-19.482-1.03Z" transform="translate(-948.28 -955.873)" fill="#e5946c"/>
                <path id="Trazado_1179954" data-name="Trazado 1179954" d="M985.312,1087.318s-12.3,17.618-9.435,30.755c2.866,13.109,33.621,50.821,33.621,50.821s29.92,0,44.671-12.719L1009.5,1086.9Z" transform="translate(-919.517 -970.812)"/>
                <path id="Trazado_1179955" data-name="Trazado 1179955" d="M1009.56,956.586l28.5-1.837-6.568-20.29a7.22,7.22,0,0,0,4.314-6.763s-13.109-12.914-14.333-15.976-10.047-2.672-11.69,1.642-4.7,12.914-1.837,21.737,1.642,21.514,1.642,21.514Z" transform="translate(-942.123 -842.948)" fill="#ccc"/>
                <path id="Trazado_1179956" data-name="Trazado 1179956" d="M857.054,781.3,854.8,792.99l44.281,48.372,2.644-20.289Z" transform="translate(-832.451 -750.267)" fill="#454c5b"/>
                <path id="Trazado_1179957" data-name="Trazado 1179957" d="M979.38,955.867s-5.316-10.242,1.837-11.69c7.181-1.447,10.66,7.376,17.228,3.7,0,0-5.956-11.272-5.121-21.514a45.876,45.876,0,0,0-2.867-19.065l-5.539,2.254L977.126,944.4a10.6,10.6,0,0,0,2.254,11.467Z" transform="translate(-920.154 -841.199)" fill="#454c5b"/>
                <path id="Trazado_1179958" data-name="Trazado 1179958" d="M1013.858,936.152a.717.717,0,0,1-.529-.278l-5.26-8.127,3.2-6.262-4.37-1.252,4.425-7.292a.606.606,0,1,1,1.03.64l-3.59,5.928,4.258,1.225-3.562,6.958,4.87,7.543a.609.609,0,0,1-.195.863.793.793,0,0,1-.334.111Z" transform="translate(-942.218 -845.058)" fill="#2d333f"/>
                <path id="Trazado_1179959" data-name="Trazado 1179959" d="M1040.7,926.7s6.652,8.405,6.457,12.413c-.195,3.924-2.867,19.983,13.5,22.4l-.863-2.672a12.387,12.387,0,0,1-10.771-11.968c-.473-12.691-1.837-13.026-8.294-20.178Z" transform="translate(-966.611 -855.199)" fill="#b2b2b2"/>
                <path id="Trazado_1179960" data-name="Trazado 1179960" d="M1044.4,923.525s-.111-2.143-1.03-2.672c-.918-.5-1.531-1.447-2.059-.5-.5.918-.612,3.479.807,3.7,0,0,10.158,5.038,9.017,12.914-1.447,9.936,15.363,16.2,27.164,8.906,0,0-22.127,3.117-24.8-8.906a21.971,21.971,0,0,0-9.129-13.415Z" transform="translate(-966.809 -850.327)" fill="#e81858"/>
              </g>
              <g id="Grupo_1226379" data-name="Grupo 1226379" transform="translate(55.072 33.92)">
                <path id="Trazado_1179961" data-name="Trazado 1179961" d="M1022.544,873.791l-4.676-2.254L1014,858.984l8.684-3.284,2.922,15.614Z" transform="translate(-1002.414 -837.88)" fill="#fda777"/>
                <path id="Trazado_1179962" data-name="Trazado 1179962" d="M999.1,807.072a13.434,13.434,0,1,1-11.328-15.252A13.423,13.423,0,0,1,999.1,807.072Z" transform="translate(-972.374 -791.674)" fill="#fda777"/>
                <path id="Trazado_1179963" data-name="Trazado 1179963" d="M988.234,818.243s21.375,10.966,23.685-.863-5.177-19.455-9.574-21.4c-2.394-1.058-16.31,7.737-14.139,22.266Z" transform="translate(-983.634 -794.718)" fill="#fda777"/>
              </g>
              <path id="Trazado_1179964" data-name="Trazado 1179964" d="M977.21,803.805s-3.646-3.924-4.342-.946c0,0-.668,3.256,3.535,5.288,0,0,.278,5.149,2.171,6.374,0,0-14.083-1.893-10.437-18.425,0,0,2.7-10.576,13-9.352s14.751,5.01,17.479,3.535c0,0,0,8.795-9.491,7.042s-11.1-2.7-11.1-2.7,6.234,10.966-.807,9.212Z" transform="translate(-913.809 -754.125)" fill="#1a1a1a"/>
              <path id="Trazado_1179965" data-name="Trazado 1179965" d="M966.715,797.74a.986.986,0,0,1-.946-.668,5.447,5.447,0,0,1,.084-4.286c1.308-2.811,4.843-4.091,4.982-4.147a1.021,1.021,0,0,1,.7,1.92c-.028,0-2.895,1.058-3.841,3.089a3.26,3.26,0,0,0,0,2.7,1.008,1.008,0,0,1-.584,1.308.82.82,0,0,1-.362.056Z" transform="translate(-912.248 -755.518)" fill="#454c5b"/>
              <g id="Grupo_1226380" data-name="Grupo 1226380" transform="translate(58.002 238.879)">
                <path id="Trazado_1179966" data-name="Trazado 1179966" d="M989.218,1528.09c-1.614-.139-6.318,3.423-6.318,3.423s9.157,12.664,9.407,13.026c2.226,3.089,2.338-8.906.612-10.214-.807-.612-2.421.362-3.841-1.419s.835-4.7.111-4.787Z" transform="translate(-982.9 -1528.086)" fill="#102d3f"/>
                <path id="Trazado_1179967" data-name="Trazado 1179967" d="M982.928,1538.307s9.519,13.164,9.769,13.526c.167.251,1.392-.139,1-.946l-9.686-13.387c-.668.473-1.113.807-1.113.807Z" transform="translate(-982.9 -1534.88)" fill="#00121a"/>
              </g>
              <g id="Grupo_1226381" data-name="Grupo 1226381" transform="translate(66.184 258.473)">
                <path id="Trazado_1179968" data-name="Trazado 1179968" d="M1017.549,1598.489c-1.586.306-5.149,4.982-5.149,4.982s12.218,9.741,12.552,10.019c2.978,2.394-.139-9.212-2.143-10.019-.946-.39-2.227.974-4.064-.362s-.473-4.759-1.169-4.62Z" transform="translate(-1012.372 -1598.485)" fill="#102d3f"/>
                <path id="Trazado_1179969" data-name="Trazado 1179969" d="M1012.3,1613.658s12.719,10.131,13.053,10.409c.223.195,1.308-.5.724-1.169l-12.914-10.3c-.5.612-.863,1.058-.863,1.058Z" transform="translate(-1012.3 -1608.672)" fill="#00121a"/>
              </g>
            </g>
            <g id="Grupo_1226383" data-name="Grupo 1226383" transform="translate(178.713 66.555)">
              <path id="Trazado_1179970" data-name="Trazado 1179970" d="M1100.875,483.837l.944-2.237,1.827,2.34a20.638,20.638,0,0,1,8.106,1.744,20.42,20.42,0,0,1,6.937,4.412l3-.349-.944,2.237a.433.433,0,0,1-.082.205c-.944,2.155-6.157,2.073-11.636-.185-5.5-2.257-9.194-5.808-8.271-7.963a.829.829,0,0,1,.1-.185Z" transform="translate(-1100.611 -480.311)" fill="#ffd580"/>
              <path id="Trazado_1179971" data-name="Trazado 1179971" d="M1105.332,476.875c-.944,2.155,2.771,5.726,8.271,7.963,5.5,2.257,10.713,2.34,11.636.185.944-2.155-2.771-5.726-8.271-7.963C1111.469,474.8,1106.256,474.74,1105.332,476.875Z" transform="translate(-1104.247 -475.319)" fill="#fac751"/>
              <path id="Trazado_1179972" data-name="Trazado 1179972" d="M1111.88,480.232c-.759,1.724,2.545,4.72,7.347,6.69s9.317,2.155,10.056.431c.759-1.724-2.545-4.72-7.347-6.69S1112.618,478.509,1111.88,480.232Zm1.17.164c.616-1.416,4.535-1.19,8.763.534s7.142,4.289,6.506,5.705c-.616,1.416-4.536,1.19-8.763-.534s-7.142-4.289-6.506-5.705Z" transform="translate(-1109.48 -478.287)" fill="#ffd580"/>
              <path id="Trazado_1179973" data-name="Trazado 1179973" d="M1145.362,494a1.168,1.168,0,0,1-.8.472,1.467,1.467,0,0,1-.965-.185,1.662,1.662,0,0,1-.718-.616,2.253,2.253,0,0,1-.267-1.006,1.813,1.813,0,0,0-.144-.78.894.894,0,0,0-.39-.39.627.627,0,0,0-.534-.062.578.578,0,0,0-.39.369,1.479,1.479,0,0,0-.082.9l-.616-.123a1.593,1.593,0,0,1,.082-.924l-.739-.369.185-.39.78.39a1.135,1.135,0,0,1,.739-.452,1.488,1.488,0,0,1,.924.164,1.549,1.549,0,0,1,.657.6,2.407,2.407,0,0,1,.246,1.067,1.541,1.541,0,0,0,.144.7.933.933,0,0,0,.431.41.812.812,0,0,0,.616.062.631.631,0,0,0,.431-.39,1.506,1.506,0,0,0,.062-1.047l.616.123a1.548,1.548,0,0,1-.082,1.088l.78.39-.185.39-.8-.39Z" transform="translate(-1131.757 -487.645)" fill="#ffd580"/>
            </g>
            <g id="Grupo_1226384" data-name="Grupo 1226384" transform="translate(204.325 215.402)">
              <path id="Trazado_1179974" data-name="Trazado 1179974" d="M1226.208,1203.842l1.785-1.642.718,2.873a20.5,20.5,0,0,1,6.69,4.9,20.186,20.186,0,0,1,4.515,6.875l2.894.9-1.785,1.642c-.041.062-.1.1-.144.164-1.724,1.58-6.465-.616-10.549-4.925-4.1-4.31-6.013-9.071-4.289-10.651C1226.105,1203.944,1226.146,1203.883,1226.208,1203.842Z" transform="translate(-1225.409 -1201.872)" fill="#ffd580"/>
              <path id="Trazado_1179975" data-name="Trazado 1179975" d="M1234.444,1201.116c-1.724,1.58.185,6.342,4.289,10.651s8.825,6.506,10.549,4.925-.185-6.341-4.289-10.651S1236.167,1199.536,1234.444,1201.116Z" transform="translate(-1232.085 -1200.603)" fill="#fac751"/>
              <path id="Trazado_1179976" data-name="Trazado 1179976" d="M1240.16,1205.93c-1.4,1.272.39,5.336,3.961,9.092s7.614,5.787,8.989,4.515c1.4-1.272-.39-5.336-3.961-9.092S1241.535,1204.657,1240.16,1205.93Zm1.006.636c1.149-1.047,4.618.78,7.778,4.084,3.14,3.3,4.761,6.813,3.612,7.881-1.149,1.047-4.618-.78-7.778-4.084C1241.638,1211.143,1240.016,1207.633,1241.166,1206.566Z" transform="translate(-1236.755 -1204.535)" fill="#ffd580"/>
              <path id="Trazado_1179977" data-name="Trazado 1179977" d="M1267.661,1229.928a1.2,1.2,0,0,1-.924.1,1.947,1.947,0,0,1-.821-.554,1.847,1.847,0,0,1-.411-.862,1.989,1.989,0,0,1,.185-1.026,2.452,2.452,0,0,0,.185-.759.829.829,0,0,0-.185-.513.78.78,0,0,0-.451-.287.624.624,0,0,0-.513.164,1.4,1.4,0,0,0-.452.8l-.493-.369a1.571,1.571,0,0,1,.452-.8l-.534-.657.308-.267.554.677a1.162,1.162,0,0,1,.862-.1,1.624,1.624,0,0,1,.78.534,1.46,1.46,0,0,1,.349.821,2.269,2.269,0,0,1-.226,1.067,1.368,1.368,0,0,0-.144.7.822.822,0,0,0,.226.534.763.763,0,0,0,.534.308.706.706,0,0,0,.554-.185,1.439,1.439,0,0,0,.472-.924l.513.369a1.6,1.6,0,0,1-.513.965l.554.677-.308.267-.554-.7Z" transform="translate(-1255.842 -1219.914)" fill="#ffd580"/>
            </g>
            <g id="Grupo_1226385" data-name="Grupo 1226385" transform="translate(46.902 121.874)">
              <path id="Trazado_1179978" data-name="Trazado 1179978" d="M465.534,765.635l-2.134-1.149,2.483-1.621a20.607,20.607,0,0,1,2.422-7.922,19.781,19.781,0,0,1,5.008-6.526l-.1-3.017,2.134,1.149c.062.021.123.062.185.082,2.073,1.108,1.539,6.3-1.17,11.6-2.709,5.274-6.588,8.661-8.64,7.552l-.185-.123Z" transform="translate(-462.361 -745.292)" fill="#ffd580"/>
              <path id="Trazado_1179979" data-name="Trazado 1179979" d="M459.6,764.23c2.073,1.108,5.931-2.258,8.64-7.552,2.709-5.274,3.243-10.466,1.17-11.6-2.073-1.108-5.931,2.257-8.64,7.552C458.062,757.909,457.529,763.1,459.6,764.23Z" transform="translate(-458.337 -744.872)" fill="#fac751"/>
              <path id="Trazado_1179980" data-name="Trazado 1179980" d="M463.221,767.607c1.662.9,4.925-2.114,7.286-6.752,2.381-4.618,2.955-9.092,1.293-9.974-1.662-.9-4.925,2.114-7.286,6.752C462.134,762.251,461.559,766.725,463.221,767.607Zm.267-1.17c-1.375-.739-.78-4.618,1.293-8.681s4.884-6.731,6.239-5.993c1.375.739.78,4.618-1.293,8.681S464.843,767.176,463.488,766.438Z" transform="translate(-461.464 -749.521)" fill="#ffd580"/>
              <path id="Trazado_1179981" data-name="Trazado 1179981" d="M479.35,776.744a1.2,1.2,0,0,1,.39.841,1.783,1.783,0,0,1-.267.944,1.6,1.6,0,0,1-.677.657,2.2,2.2,0,0,1-1.026.164,1.993,1.993,0,0,0-.78.082.841.841,0,0,0-.41.349.854.854,0,0,0-.123.534.611.611,0,0,0,.328.431,1.436,1.436,0,0,0,.9.164l-.185.6a1.381,1.381,0,0,1-.9-.164l-.431.718-.369-.205.452-.739a1.069,1.069,0,0,1-.39-.78,1.624,1.624,0,0,1,.246-.9,1.309,1.309,0,0,1,.657-.6,2.41,2.41,0,0,1,1.088-.144,1.817,1.817,0,0,0,.718-.082.883.883,0,0,0,.431-.39.845.845,0,0,0,.123-.616.729.729,0,0,0-.349-.472,1.448,1.448,0,0,0-1.026-.144l.185-.616a1.7,1.7,0,0,1,1.088.164l.452-.739.369.205-.472.759Z" transform="translate(-472.216 -769.453)" fill="#ffd580"/>
            </g>
            <g id="Grupo_1226386" data-name="Grupo 1226386" transform="translate(106.969 203.297)">
              <path id="Trazado_1179982" data-name="Trazado 1179982" d="M752.367,1158.762l-1.067-2.175,2.976.144a23.292,23.292,0,0,1,14.509-7.327l1.7-2.5,1.067,2.175a.832.832,0,0,1,.1.185c1.006,2.114-2.463,6.013-7.758,8.681-5.295,2.688-10.426,3.14-11.431,1.026a.614.614,0,0,1-.082-.205Z" transform="translate(-751.244 -1145.816)" fill="#ffd580"/>
              <path id="Trazado_1179983" data-name="Trazado 1179983" d="M751.206,1152.656c1.006,2.114,6.136,1.662,11.431-1.026s8.784-6.567,7.758-8.681c-1.006-2.114-6.136-1.662-11.431,1.026S750.18,1150.542,751.206,1152.656Z" transform="translate(-751.027 -1141.618)" fill="#fac751"/>
              <path id="Trazado_1179984" data-name="Trazado 1179984" d="M756.89,1155.011c.821,1.7,5.233,1.17,9.851-1.17,4.638-2.339,7.737-5.623,6.916-7.306-.821-1.7-5.233-1.17-9.851,1.17C759.168,1150.044,756.069,1153.328,756.89,1155.011Zm.9-.78c-.677-1.4,2.073-4.207,6.157-6.259,4.063-2.052,7.9-2.586,8.578-1.19s-2.073,4.207-6.157,6.259C762.307,1155.093,758.47,1155.627,757.793,1154.231Z" transform="translate(-755.582 -1144.733)" fill="#ffd580"/>
              <path id="Trazado_1179985" data-name="Trazado 1179985" d="M786.69,1159.99a1.248,1.248,0,0,1-.164.9,1.693,1.693,0,0,1-.78.616,1.751,1.751,0,0,1-.944.144,2.137,2.137,0,0,1-.944-.472,2.656,2.656,0,0,0-.677-.411.8.8,0,0,0-.534.041.872.872,0,0,0-.41.349.607.607,0,0,0,0,.534,1.4,1.4,0,0,0,.636.657l-.493.369a1.511,1.511,0,0,1-.636-.657l-.78.328-.164-.39.8-.328a1.256,1.256,0,0,1,.144-.862,1.544,1.544,0,0,1,.739-.6,1.485,1.485,0,0,1,.883-.1,2.34,2.34,0,0,1,.965.513,1.653,1.653,0,0,0,.636.349.932.932,0,0,0,.575-.062.745.745,0,0,0,.452-1.006,1.449,1.449,0,0,0-.759-.718l.513-.39a1.6,1.6,0,0,1,.78.78l.8-.328.164.39-.821.349Z" transform="translate(-774.69 -1155.274)" fill="#ffd580"/>
            </g>
            <g id="Grupo_1226387" data-name="Grupo 1226387" transform="translate(143.719 28.551)">
              <path id="Trazado_1179986" data-name="Trazado 1179986" d="M799.357,174.395l-1.457-3,4.063.185a28.507,28.507,0,0,1,9.071-6.834,27.9,27.9,0,0,1,10.815-3.222l2.34-3.427,1.457,3a1.106,1.106,0,0,1,.144.267c1.4,2.894-3.386,8.23-10.651,11.9s-14.284,4.31-15.679,1.4A1.425,1.425,0,0,1,799.357,174.395Z" transform="translate(-797.807 -156.647)" fill="#ffd580"/>
              <path id="Trazado_1179987" data-name="Trazado 1179987" d="M797.684,166.141c1.4,2.894,8.414,2.278,15.679-1.4s12.026-9.009,10.651-11.9c-1.4-2.894-8.414-2.278-15.679,1.4S796.309,163.247,797.684,166.141Z" transform="translate(-797.448 -151.02)" fill="#fac751"/>
              <path id="Trazado_1179988" data-name="Trazado 1179988" d="M805.6,169.447c1.108,2.319,7.162,1.6,13.524-1.6s10.61-7.7,9.481-10.015c-1.108-2.319-7.162-1.6-13.524,1.6S804.468,167.128,805.6,169.447Zm1.231-1.067c-.923-1.929,2.853-5.767,8.435-8.578s10.836-3.55,11.759-1.621-2.853,5.767-8.435,8.578S807.751,170.309,806.828,168.38Z" transform="translate(-803.78 -155.352)" fill="#ffd580"/>
              <path id="Trazado_1179989" data-name="Trazado 1179989" d="M846.386,176.38a1.7,1.7,0,0,1-.226,1.231,2.256,2.256,0,0,1-1.047.841,2.482,2.482,0,0,1-1.293.185,3.132,3.132,0,0,1-1.293-.636,2.972,2.972,0,0,0-.924-.554,1.03,1.03,0,0,0-.739.062.948.948,0,0,0-.554.493.924.924,0,0,0,0,.739,1.922,1.922,0,0,0,.862.9l-.677.513a2.084,2.084,0,0,1-.883-.9l-1.067.431-.246-.534,1.088-.451a1.637,1.637,0,0,1,.205-1.17,2.194,2.194,0,0,1,1.006-.8,2.09,2.09,0,0,1,1.211-.144,3.436,3.436,0,0,1,1.334.718,2.279,2.279,0,0,0,.862.472,1.209,1.209,0,0,0,.8-.082,1.009,1.009,0,0,0,.616-.575.988.988,0,0,0,0-.8,1.932,1.932,0,0,0-1.026-.985l.7-.534a2.158,2.158,0,0,1,1.067,1.067l1.088-.451.246.534-1.129.472Z" transform="translate(-829.916 -169.92)" fill="#ffd580"/>
            </g>
            <g id="Grupo_1226388" data-name="Grupo 1226388" transform="translate(138.103 57.536)">
              <path id="Trazado_1179990" data-name="Trazado 1179990" d="M903.475,440.685l-.575-1.19,1.621.082a11.526,11.526,0,0,1,3.612-2.729,11,11,0,0,1,4.31-1.272l.924-1.375.575,1.19c.021.041.041.062.062.1.554,1.149-1.354,3.284-4.248,4.741s-5.685,1.7-6.239.554C903.516,440.747,903.475,440.706,903.475,440.685Z" transform="translate(-902.865 -433.62)" fill="#ffd580"/>
              <path id="Trazado_1179991" data-name="Trazado 1179991" d="M902.806,437.394c.554,1.149,3.345.9,6.239-.554s4.782-3.591,4.248-4.741c-.554-1.149-3.345-.9-6.239.554s-4.782,3.591-4.228,4.741Z" transform="translate(-902.73 -431.376)" fill="#fac751"/>
              <path id="Trazado_1179992" data-name="Trazado 1179992" d="M905.919,438.72c.451.924,2.853.636,5.377-.636s4.228-3.058,3.776-3.981-2.853-.636-5.377.636S905.468,437.8,905.919,438.72Zm.493-.431c-.369-.759,1.129-2.3,3.366-3.427,2.216-1.129,4.31-1.416,4.679-.636.369.759-1.129,2.3-3.366,3.427C908.874,438.782,906.781,439.069,906.412,438.289Z" transform="translate(-905.207 -433.113)" fill="#ffd580"/>
              <path id="Trazado_1179993" data-name="Trazado 1179993" d="M922.122,441.357a.594.594,0,0,1-.1.493.917.917,0,0,1-.41.328.934.934,0,0,1-.513.082,1.067,1.067,0,0,1-.513-.246,1.272,1.272,0,0,0-.369-.226.683.683,0,0,0-.287.021.373.373,0,0,0-.226.205.35.35,0,0,0,0,.287.72.72,0,0,0,.349.349l-.267.205a.869.869,0,0,1-.349-.369l-.431.185-.1-.205.431-.185a.636.636,0,0,1,.082-.472.839.839,0,0,1,.41-.328,1.024,1.024,0,0,1,.493-.062,1.375,1.375,0,0,1,.534.287.828.828,0,0,0,.349.185.632.632,0,0,0,.328-.041.387.387,0,0,0,.246-.226.453.453,0,0,0,0-.328.766.766,0,0,0-.41-.39l.267-.205a.879.879,0,0,1,.431.431l.431-.185.1.205-.451.185Z" transform="translate(-915.581 -438.786)" fill="#ffd580"/>
            </g>
            <g id="Grupo_1226389" data-name="Grupo 1226389" transform="translate(144.097 243.722)">
              <path id="Trazado_1179994" data-name="Trazado 1179994" d="M932.074,1343.311l.513-1.211,1.006,1.272a11.569,11.569,0,0,1,4.433.924,10.8,10.8,0,0,1,3.8,2.4l1.642-.205-.513,1.211a.157.157,0,0,1-.041.1c-.513,1.17-3.345,1.149-6.362-.062s-5.028-3.14-4.536-4.33C932.013,1343.372,932.054,1343.352,932.074,1343.311Z" transform="translate(-931.939 -1341.381)" fill="#ffd580"/>
              <path id="Trazado_1179995" data-name="Trazado 1179995" d="M934.393,1339.461c-.513,1.17,1.519,3.119,4.536,4.33s5.849,1.231,6.362.062-1.519-3.119-4.536-4.33S934.906,1338.291,934.393,1339.461Z" transform="translate(-933.826 -1338.599)" fill="#fac751"/>
              <path id="Trazado_1179996" data-name="Trazado 1179996" d="M937.975,1341.262c-.41.944,1.4,2.565,4.022,3.633s5.09,1.149,5.5.205-1.4-2.565-4.022-3.632S938.385,1340.318,937.975,1341.262Zm.657.082c.328-.78,2.483-.657,4.782.267s3.9,2.319,3.571,3.1-2.483.657-4.782-.267S938.3,1342.124,938.631,1341.344Z" transform="translate(-936.69 -1340.194)" fill="#ffd580"/>
              <path id="Trazado_1179997" data-name="Trazado 1179997" d="M956.417,1348.7a.584.584,0,0,1-.431.246.836.836,0,0,1-.534-.1.9.9,0,0,1-.39-.328,1.368,1.368,0,0,1-.144-.554,1.144,1.144,0,0,0-.082-.431.459.459,0,0,0-.493-.246.263.263,0,0,0-.205.205.788.788,0,0,0-.041.493l-.328-.062a.815.815,0,0,1,.041-.493l-.41-.205.1-.205.431.205a.582.582,0,0,1,.41-.246.933.933,0,0,1,.513.082.828.828,0,0,1,.369.328,1.382,1.382,0,0,1,.144.575,1,1,0,0,0,.082.39.481.481,0,0,0,.226.226.476.476,0,0,0,.328.041.437.437,0,0,0,.246-.226.786.786,0,0,0,.021-.575l.349.062a.861.861,0,0,1-.041.6l.431.205-.1.205-.431-.205Z" transform="translate(-948.996 -1345.247)" fill="#ffd580"/>
            </g>
            <g id="Grupo_1226390" data-name="Grupo 1226390" transform="translate(214.538 130.007)">
              <path id="Trazado_1179998" data-name="Trazado 1179998" d="M1281.993,796.259l-1.293-.308,1.088-1.211a12.68,12.68,0,0,1,1.929-8.661l-.472-1.58,1.293.308h.123c1.252.308,1.683,3.12.965,6.28-.7,3.161-2.278,5.48-3.53,5.172a.292.292,0,0,1-.123-.041Z" transform="translate(-1279.566 -784.5)" fill="#ffd580"/>
              <path id="Trazado_1179999" data-name="Trazado 1179999" d="M1276.471,796.145c1.252.308,2.832-2.011,3.53-5.172s.267-5.972-.965-6.28c-1.252-.308-2.832,2.011-3.53,5.172S1275.24,795.838,1276.471,796.145Z" transform="translate(-1275.173 -784.632)" fill="#fac751"/>
              <path id="Trazado_1180000" data-name="Trazado 1180000" d="M1278.047,798.137c1.006.246,2.3-1.806,2.914-4.556.616-2.771.308-5.213-.677-5.459-1.006-.246-2.3,1.806-2.914,4.556C1276.754,795.449,1277.062,797.891,1278.047,798.137Zm-.021-.657c-.821-.205-1.047-2.34-.513-4.761s1.642-4.228,2.463-4.022,1.047,2.34.513,4.761S1278.848,797.686,1278.027,797.481Z" transform="translate(-1276.667 -787.363)" fill="#ffd580"/>
              <path id="Trazado_1180001" data-name="Trazado 1180001" d="M1283.183,803.454a.626.626,0,0,1,.328.39.944.944,0,0,1,0,.534.982.982,0,0,1-.267.451,1.08,1.08,0,0,1-.513.226,1.166,1.166,0,0,0-.411.144.408.408,0,0,0-.164.246.458.458,0,0,0,0,.287.413.413,0,0,0,.226.185.815.815,0,0,0,.493-.041v.328a.882.882,0,0,1-.513.041l-.123.431-.226-.062.144-.452a.611.611,0,0,1-.308-.369.874.874,0,0,1,0-.513.952.952,0,0,1,.267-.41,1.158,1.158,0,0,1,.554-.226,1.062,1.062,0,0,0,.369-.144.624.624,0,0,0,.185-.267.45.45,0,0,0,0-.328.411.411,0,0,0-.246-.205.947.947,0,0,0-.575.062v-.349a1.031,1.031,0,0,1,.616-.062l.144-.451.226.062-.144.472Z" transform="translate(-1280.448 -799.124)" fill="#ffd580"/>
            </g>
            <g id="Grupo_1226391" data-name="Grupo 1226391" transform="translate(76.424 79.131)">
              <path id="Trazado_1180002" data-name="Trazado 1180002" d="M603.894,536.785l1.313-.185-.575,1.519a11.16,11.16,0,0,1,1.457,4.289,11.02,11.02,0,0,1-.123,4.495l1.006,1.313-1.313.185a.26.26,0,0,0-.123.021c-1.272.164-2.688-2.3-3.181-5.5s.144-5.931,1.416-6.1h.123Z" transform="translate(-602.188 -536.6)" fill="#ffd580"/>
              <path id="Trazado_1180003" data-name="Trazado 1180003" d="M609.97,536.67c-1.272.164-1.909,2.894-1.416,6.1s1.909,5.664,3.181,5.5,1.909-2.894,1.416-6.1S611.243,536.506,609.97,536.67Z" transform="translate(-607.115 -536.649)" fill="#fac751"/>
              <path id="Trazado_1180004" data-name="Trazado 1180004" d="M612.25,540.174c-1.026.123-1.5,2.5-1.067,5.315s1.6,4.966,2.606,4.823c1.026-.123,1.5-2.5,1.067-5.315S613.256,540.03,612.25,540.174Zm.267.616c.841-.1,1.826,1.785,2.2,4.248s0,4.535-.841,4.659c-.841.1-1.827-1.785-2.2-4.248S611.675,540.913,612.517,540.789Z" transform="translate(-609.21 -539.435)" fill="#ffd580"/>
              <path id="Trazado_1180005" data-name="Trazado 1180005" d="M619.6,558.784a.584.584,0,0,1-.431-.246,1.028,1.028,0,0,1-.185-.513,1,1,0,0,1,.082-.513,1.116,1.116,0,0,1,.41-.41,1.2,1.2,0,0,0,.328-.287.356.356,0,0,0,.062-.287.331.331,0,0,0-.123-.267.326.326,0,0,0-.287-.082.64.64,0,0,0-.452.226l-.1-.328a.943.943,0,0,1,.451-.226l-.041-.451h.226c0-.021.041.451.041.451a.557.557,0,0,1,.41.226.888.888,0,0,1,.185.493.733.733,0,0,1-.1.472,1.389,1.389,0,0,1-.431.41.917.917,0,0,0-.287.267.4.4,0,0,0-.062.308.436.436,0,0,0,.144.308.4.4,0,0,0,.308.1.667.667,0,0,0,.493-.267l.123.328a.835.835,0,0,1-.534.267l.041.472h-.226C619.639,559.256,619.6,558.784,619.6,558.784Z" transform="translate(-615.47 -551.539)" fill="#ffd580"/>
            </g>
            <g id="Grupo_1226392" data-name="Grupo 1226392" transform="translate(277.407 179.956)">
              <path id="Trazado_1180006" data-name="Trazado 1180006" d="M1589.25,1028.013l2.34.636-2.052,2.134a20.922,20.922,0,0,1-.6,8.271,20.115,20.115,0,0,1-3.427,7.47l.759,2.935-2.339-.636a.73.73,0,0,1-.205-.041c-2.257-.636-2.894-5.808-1.416-11.554s4.494-9.912,6.752-9.276a.783.783,0,0,1,.205.062Z" transform="translate(-1581.516 -1027.887)" fill="#ffd580"/>
              <path id="Trazado_1180007" data-name="Trazado 1180007" d="M1600.065,1030.951c-2.257-.636-5.295,3.53-6.752,9.276-1.478,5.746-.841,10.938,1.416,11.554,2.257.636,5.295-3.53,6.752-9.276C1602.959,1036.759,1602.323,1031.567,1600.065,1030.951Z" transform="translate(-1590.258 -1030.272)" fill="#fac751"/>
              <path id="Trazado_1180008" data-name="Trazado 1180008" d="M1603.711,1037.515c-1.806-.513-4.33,3.161-5.6,8.188-1.293,5.028-.862,9.522.944,10.015,1.806.513,4.33-3.16,5.6-8.188C1605.948,1042.5,1605.517,1038.007,1603.711,1037.515Zm0,1.19c1.5.41,1.786,4.33.657,8.743s-3.263,7.655-4.761,7.244-1.786-4.33-.657-8.743S1602.212,1038.295,1603.711,1038.705Z" transform="translate(-1594.109 -1035.501)" fill="#ffd580"/>
              <path id="Trazado_1180009" data-name="Trazado 1180009" d="M1612.078,1072.07a1.249,1.249,0,0,1-.575-.718,1.8,1.8,0,0,1,.041-.985,1.748,1.748,0,0,1,.513-.8,1.987,1.987,0,0,1,.965-.39,2.177,2.177,0,0,0,.759-.246.871.871,0,0,0,.328-.431.792.792,0,0,0,0-.534.6.6,0,0,0-.41-.349,1.518,1.518,0,0,0-.9.041l.041-.616a1.578,1.578,0,0,1,.924-.041l.267-.8.411.123-.267.821a1.2,1.2,0,0,1,.554.677,1.5,1.5,0,0,1-.041.944,1.467,1.467,0,0,1-.513.739,2.281,2.281,0,0,1-1.026.39,1.735,1.735,0,0,0-.677.246,1.021,1.021,0,0,0-.349.472.905.905,0,0,0,0,.616.779.779,0,0,0,.451.39,1.558,1.558,0,0,0,1.047-.082l-.041.636a1.515,1.515,0,0,1-1.088.082l-.267.821-.41-.123.287-.841Z" transform="translate(-1605.309 -1058.337)" fill="#ffd580"/>
            </g>
            <g id="Grupo_1226393" data-name="Grupo 1226393" transform="translate(88.658 65.299)">
              <path id="Trazado_1180010" data-name="Trazado 1180010" d="M681.4,469.2s-8.907,14.858-19.6,19.332l8.681,8.64s11.9-4.9,20.3-19.168Z" transform="translate(-661.8 -469.2)" fill="#71c6a9"/>
              <path id="Trazado_1180011" data-name="Trazado 1180011" d="M681.868,503.47a42.067,42.067,0,0,0,17.1-16.644l-7.942-7.327s-7.573,12.95-16.521,16.787Zm15.33-14.982a43.3,43.3,0,0,1-13.689,13.36,1.368,1.368,0,0,0-2.319.041L676.7,497.5a1.524,1.524,0,0,0,.6-1.929c5.952-3.674,10.918-10.487,13.114-13.832a1.521,1.521,0,0,0,1.868-.226l4.6,4.248c-.369.493-1.211,1.868.349,2.75Z" transform="translate(-671.894 -477.386)" fill="#378e70"/>
              <path id="Trazado_1180012" data-name="Trazado 1180012" d="M722.271,535.022c1.56,1.272,3.571,1.375,4.494.246s.411-3.078-1.149-4.351-3.571-1.375-4.494-.246S720.711,533.75,722.271,535.022Z" transform="translate(-708.583 -517.434)" fill="#378e70"/>
              <path id="Trazado_1180013" data-name="Trazado 1180013" d="M726.98,534.113a.947.947,0,0,1,.739-.123,1.437,1.437,0,0,1,.7.41,1.4,1.4,0,0,1,.369.677,2.184,2.184,0,0,1-.082.862,2.55,2.55,0,0,0-.123.636.68.68,0,0,0,.185.41.662.662,0,0,0,.39.205.556.556,0,0,0,.41-.164,1.175,1.175,0,0,0,.328-.677l.431.267a1.175,1.175,0,0,1-.328.677l.472.513-.246.246-.493-.513a.949.949,0,0,1-.7.144,1.429,1.429,0,0,1-.677-.39,1.117,1.117,0,0,1-.328-.657,1.9,1.9,0,0,1,.123-.9,1.3,1.3,0,0,0,.082-.6.845.845,0,0,0-.205-.431.64.64,0,0,0-.451-.226.562.562,0,0,0-.451.185,1.307,1.307,0,0,0-.349.8l-.452-.287a1.211,1.211,0,0,1,.369-.821l-.493-.513.246-.246.492.534Z" transform="translate(-712.983 -520.383)" fill="#71c6a9"/>
            </g>
            <g id="Grupo_1226394" data-name="Grupo 1226394" transform="translate(265.223 221.325)">
              <path id="Trazado_1180014" data-name="Trazado 1180014" d="M1648.291,1208.425s-17.177,2.278-27.336-3.325l-1.354,12.17s11.246,6.28,27.623,3.981l1.067-12.806Z" transform="translate(-1619.6 -1205.1)" fill="#71c6a9"/>
              <path id="Trazado_1180015" data-name="Trazado 1180015" d="M1630.6,1224.12a42.142,42.142,0,0,0,23.683,3.037l.8-10.774s-14.838,2.114-23.416-2.483l-1.047,10.241Zm21.261,2.688a43.027,43.027,0,0,1-18.983-2.422,1.384,1.384,0,0,0-1.478-1.806l.636-6.239a1.517,1.517,0,0,0,1.888-.739c6.567,2.381,15,2.032,18.983,1.662a1.517,1.517,0,0,0,1.334,1.313l-.451,6.239c-.616,0-2.217.205-1.929,1.97Z" transform="translate(-1628.343 -1212.094)" fill="#378e70"/>
              <path id="Trazado_1180016" data-name="Trazado 1180016" d="M1674.3,1238.191c-.021,2.011,1.129,3.653,2.606,3.674,1.457,0,2.668-1.6,2.688-3.592.021-2.011-1.129-3.653-2.606-3.673C1675.53,1234.6,1674.319,1236.2,1674.3,1238.191Z" transform="translate(-1663.073 -1228.546)" fill="#378e70"/>
              <path id="Trazado_1180017" data-name="Trazado 1180017" d="M1683.806,1238.659a1.014,1.014,0,0,1,.575.513,1.323,1.323,0,0,1,.1.8,1.284,1.284,0,0,1-.308.718,1.9,1.9,0,0,1-.718.472,1.792,1.792,0,0,0-.575.308.714.714,0,0,0-.205.411.611.611,0,0,0,.082.431.507.507,0,0,0,.39.226,1.219,1.219,0,0,0,.739-.164l.062.513a1.308,1.308,0,0,1-.739.164l-.1.677-.349-.041.1-.7a.872.872,0,0,1-.534-.472,1.239,1.239,0,0,1-.1-.78,1.289,1.289,0,0,1,.308-.677,2.114,2.114,0,0,1,.78-.472,1.218,1.218,0,0,0,.513-.308.845.845,0,0,0,.205-.431.637.637,0,0,0-.1-.493.584.584,0,0,0-.431-.246,1.124,1.124,0,0,0-.821.226l-.062-.513a1.389,1.389,0,0,1,.882-.226l.1-.7.349.041-.1.718Z" transform="translate(-1669.358 -1231.169)" fill="#71c6a9"/>
            </g>
            <g id="Grupo_1226395" data-name="Grupo 1226395" transform="translate(58.695 249.551)">
              <path id="Trazado_1180018" data-name="Trazado 1180018" d="M545.537,1381.612S529.017,1376.379,522.2,1367l-6.4,10.426s7.511,10.467,23.334,15.33Z" transform="translate(-515.8 -1367)" fill="#71c6a9"/>
              <path id="Trazado_1180019" data-name="Trazado 1180019" d="M526.1,1387.8a42.069,42.069,0,0,0,20.153,12.806l5.295-9.42s-14.345-4.371-20.153-12.19l-5.295,8.825Zm18.121,11.452a42.948,42.948,0,0,1-16.151-10.241,1.375,1.375,0,0,0-.575-2.257l3.222-5.377a1.515,1.515,0,0,0,2.011.144c4.946,4.946,12.724,8.188,16.48,9.563a1.558,1.558,0,0,0,.657,1.765l-3.058,5.459c-.554-.246-2.093-.759-2.586.964Z" transform="translate(-523.986 -1376.537)" fill="#378e70"/>
              <path id="Trazado_1180020" data-name="Trazado 1180020" d="M568.737,1420.945c-.882,1.806-.513,3.8.8,4.433s3.078-.308,3.961-2.114.513-3.8-.8-4.433S569.62,1419.139,568.737,1420.945Z" transform="translate(-557.491 -1408.037)" fill="#378e70"/>
              <path id="Trazado_1180021" data-name="Trazado 1180021" d="M577.378,1424.239a.951.951,0,0,1,.308.7,1.4,1.4,0,0,1-.246.78,1.558,1.558,0,0,1-.575.534,1.825,1.825,0,0,1-.862.123,2.013,2.013,0,0,0-.657.041.6.6,0,0,0-.349.287.567.567,0,0,0-.1.431.425.425,0,0,0,.246.349,1.235,1.235,0,0,0,.739.164l-.164.493a1.16,1.16,0,0,1-.739-.164l-.39.575-.287-.185.39-.6a.919.919,0,0,1-.287-.657,1.294,1.294,0,0,1,.226-.739,1.116,1.116,0,0,1,.554-.472,1.988,1.988,0,0,1,.9-.082,1.3,1.3,0,0,0,.6-.062.878.878,0,0,0,.369-.308.74.74,0,0,0,.123-.493.506.506,0,0,0-.287-.39,1.181,1.181,0,0,0-.841-.144l.164-.493a1.232,1.232,0,0,1,.883.164l.39-.6.287.185-.41.616Z" transform="translate(-562.294 -1411.905)" fill="#71c6a9"/>
            </g>
            <g id="Grupo_1226396" data-name="Grupo 1226396" transform="translate(179.157 94.236)">
              <path id="Trazado_1180022" data-name="Trazado 1180022" d="M1204.054,265.661s-9.687-14.366-9.194-25.961l-11.493,4.187s-.616,12.868,8.743,26.515Z" transform="translate(-1183.359 -239.7)" fill="#71c6a9"/>
              <path id="Trazado_1180023" data-name="Trazado 1180023" d="M1189,255.812a42.042,42.042,0,0,0,7.819,22.554l9.995-4.084s-8.517-12.334-8.188-22.082L1189,255.832Zm7.06,20.235a43.027,43.027,0,0,1-6.28-18.06,1.392,1.392,0,0,0,.964-2.134l5.87-2.216a1.516,1.516,0,0,0,1.5,1.354c.8,6.937,4.864,14.345,6.957,17.732a1.546,1.546,0,0,0-.6,1.785l-5.787,2.36c-.287-.554-1.17-1.888-2.627-.862Z" transform="translate(-1187.841 -249.635)" fill="#378e70"/>
              <path id="Trazado_1180024" data-name="Trazado 1180024" d="M1209.875,301.837c-1.806.862-2.771,2.647-2.134,3.961s2.606,1.683,4.412.8c1.806-.862,2.771-2.647,2.134-3.961S1211.681,300.955,1209.875,301.837Z" transform="translate(-1202.581 -288.703)" fill="#378e70"/>
              <path id="Trazado_1180025" data-name="Trazado 1180025" d="M1215.967,309.206a.978.978,0,0,1-.205.739,1.324,1.324,0,0,1-.677.452,1.29,1.29,0,0,1-.78.041,1.712,1.712,0,0,1-.739-.452,1.386,1.386,0,0,0-.534-.369.574.574,0,0,0-.452,0,.6.6,0,0,0-.349.267.453.453,0,0,0-.021.431,1.159,1.159,0,0,0,.472.575l-.431.287a1.159,1.159,0,0,1-.472-.575l-.657.205-.123-.328.677-.226a.851.851,0,0,1,.185-.7,1.182,1.182,0,0,1,.636-.431,1.145,1.145,0,0,1,.739-.021,1.824,1.824,0,0,1,.759.493,1.456,1.456,0,0,0,.493.328,1,1,0,0,0,.493,0,.712.712,0,0,0,.41-.308.583.583,0,0,0,.021-.493,1.156,1.156,0,0,0-.575-.636l.431-.287a1.293,1.293,0,0,1,.6.677l.677-.226.123.328Z" transform="translate(-1205.328 -294.142)" fill="#71c6a9"/>
            </g>
            <g id="Grupo_1226397" data-name="Grupo 1226397" transform="translate(29.828 168.222)">
              <path id="Trazado_1180026" data-name="Trazado 1180026" d="M299.286,959.983s-23.15-5.315-33.513-17.383L258.2,957.561s11.431,13.463,33.575,18.347l7.511-15.946Z" transform="translate(-258.2 -942.6)" fill="#71c6a9"/>
              <path id="Trazado_1180027" data-name="Trazado 1180027" d="M272.8,971.042s10.3,11.328,28.957,15.248l6.177-13.463s-20.071-4.392-28.9-14.427Zm26.023,13.648a58.851,58.851,0,0,1-23.211-12.211c1.088-1.95-.328-2.75-1.026-3.017l3.817-7.716a2.064,2.064,0,0,0,2.771-.041c7.306,6.218,18.306,9.789,23.58,11.246a2.112,2.112,0,0,0,1.088,2.34l-3.571,7.8c-.8-.287-2.955-.8-3.427,1.6Z" transform="translate(-269.804 -955.158)" fill="#378e70"/>
              <path id="Trazado_1180028" data-name="Trazado 1180028" d="M332.772,1012.349c-.985,2.565-.287,5.233,1.58,5.952s4.187-.78,5.172-3.345.287-5.233-1.58-5.952S333.757,1009.783,332.772,1012.349Z" transform="translate(-317.113 -995.233)" fill="#378e70"/>
              <path id="Trazado_1180029" data-name="Trazado 1180029" d="M345.095,1015.549a1.378,1.378,0,0,1,.493.924,1.74,1.74,0,0,1-.246,1.088,1.946,1.946,0,0,1-.739.78,2.329,2.329,0,0,1-1.149.246,2.3,2.3,0,0,0-.882.123.971.971,0,0,0-.451.41.8.8,0,0,0-.1.6.676.676,0,0,0,.39.472,1.546,1.546,0,0,0,1.026.123l-.164.677a1.951,1.951,0,0,1-1.026-.123l-.451.821-.431-.226.472-.862a1.221,1.221,0,0,1-.472-.862,1.771,1.771,0,0,1,.226-1.047,1.619,1.619,0,0,1,.718-.718,2.8,2.8,0,0,1,1.231-.226,1.69,1.69,0,0,0,.8-.144,1.049,1.049,0,0,0,.472-.472.954.954,0,0,0,.1-.7.816.816,0,0,0-.431-.513,1.62,1.62,0,0,0-1.17-.1l.164-.7a1.733,1.733,0,0,1,1.231.144l.472-.862.431.226-.493.882Z" transform="translate(-324.285 -999.665)" fill="#71c6a9"/>
            </g>
            <g id="Grupo_1226398" data-name="Grupo 1226398" transform="translate(217.741 93.271)">
              <path id="Trazado_1180030" data-name="Trazado 1180030" d="M1382.626,502.7s-17.424,16.151-33.226,17.937l8.106,14.694s17.567-1.888,34.068-17.444Z" transform="translate(-1349.4 -502.7)" fill="#71c6a9"/>
              <path id="Trazado_1180031" data-name="Trazado 1180031" d="M1374.037,543.434s15.146-2.134,28.9-15.351l-7.655-12.683s-14.92,14.14-28.178,15.761Zm25.9-13.832a59.315,59.315,0,0,1-23.149,12.334c-.985-1.991-2.463-1.293-3.078-.841l-4.228-7.491a2.067,2.067,0,0,0,1.519-2.319c9.235-2.545,18.388-9.625,22.554-13.176a2.113,2.113,0,0,0,2.545.41l4.433,7.347C1399.854,526.359,1398.212,527.857,1399.936,529.6Z" transform="translate(-1363.467 -512.794)" fill="#378e70"/>
              <path id="Trazado_1180032" data-name="Trazado 1180032" d="M1436.162,578.691c1.56,2.258,4.166,3.181,5.808,2.052s1.724-3.9.164-6.157-4.166-3.181-5.808-2.052S1434.6,576.434,1436.162,578.691Z" transform="translate(-1417.466 -557.82)" fill="#378e70"/>
              <path id="Trazado_1180033" data-name="Trazado 1180033" d="M1444.772,576.862a1.271,1.271,0,0,1,1.026.123,2.074,2.074,0,0,1,.985,1.868,2.433,2.433,0,0,1-.451,1.108,2.318,2.318,0,0,0-.39.8.942.942,0,0,0,.1.616.879.879,0,0,0,.431.431.627.627,0,0,0,.6-.062,1.6,1.6,0,0,0,.677-.78l.472.513a1.714,1.714,0,0,1-.7.78l.431.841-.41.226-.452-.862a1.263,1.263,0,0,1-.985-.1,1.816,1.816,0,0,1-.739-.78,1.7,1.7,0,0,1-.185-.985,2.556,2.556,0,0,1,.513-1.129,1.858,1.858,0,0,0,.328-.739.952.952,0,0,0-.123-.657.885.885,0,0,0-.513-.472.742.742,0,0,0-.657.062,1.671,1.671,0,0,0-.759.9l-.472-.534a1.869,1.869,0,0,1,.8-.944l-.431-.862.411-.226.451.9Z" transform="translate(-1424.188 -560.957)" fill="#71c6a9"/>
            </g>
            <g id="Grupo_1226399" data-name="Grupo 1226399" transform="translate(197.202 264.491)">
              <path id="Trazado_1180034" data-name="Trazado 1180034" d="M1223.926,1439.8s-17.424,16.151-33.226,17.937l8.106,14.694s17.567-1.888,34.068-17.444Z" transform="translate(-1190.7 -1439.8)" fill="#71c6a9"/>
              <path id="Trazado_1180035" data-name="Trazado 1180035" d="M1215.337,1480.634s15.146-2.134,28.9-15.351l-7.655-12.683s-14.92,14.14-28.177,15.761Zm25.9-13.853a59.316,59.316,0,0,1-23.15,12.334c-.985-1.991-2.463-1.293-3.078-.841l-4.228-7.491a2.067,2.067,0,0,0,1.519-2.319c9.235-2.545,18.388-9.625,22.554-13.176a2.113,2.113,0,0,0,2.545.41l4.433,7.347C1241.154,1463.538,1239.512,1465.037,1241.236,1466.781Z" transform="translate(-1204.767 -1449.973)" fill="#378e70"/>
              <path id="Trazado_1180036" data-name="Trazado 1180036" d="M1277.462,1515.791c1.56,2.257,4.166,3.181,5.808,2.052s1.724-3.9.164-6.157-4.166-3.181-5.808-2.052S1275.9,1513.534,1277.462,1515.791Z" transform="translate(-1258.766 -1494.92)" fill="#378e70"/>
              <path id="Trazado_1180037" data-name="Trazado 1180037" d="M1286.172,1514.062a1.271,1.271,0,0,1,1.026.123,2.074,2.074,0,0,1,.985,1.868,2.433,2.433,0,0,1-.451,1.108,2.318,2.318,0,0,0-.39.8.942.942,0,0,0,.1.616.879.879,0,0,0,.431.431.627.627,0,0,0,.6-.062,1.6,1.6,0,0,0,.677-.78l.472.513a1.715,1.715,0,0,1-.7.78l.431.841-.41.226-.452-.862a1.263,1.263,0,0,1-.985-.1,1.815,1.815,0,0,1-.739-.78,1.7,1.7,0,0,1-.185-.985,2.556,2.556,0,0,1,.513-1.129,1.857,1.857,0,0,0,.328-.739.952.952,0,0,0-.123-.657.825.825,0,0,0-.513-.472.742.742,0,0,0-.657.062,1.67,1.67,0,0,0-.759.9l-.472-.534a1.869,1.869,0,0,1,.8-.944l-.431-.862.411-.226.451.9Z" transform="translate(-1265.568 -1498.136)" fill="#71c6a9"/>
            </g>
            <path id="Trazado_1180038" data-name="Trazado 1180038" d="M1187,1675.622c0,1.334,10.4,2.422,23.232,2.422s23.232-1.088,23.232-2.422-10.405-2.422-23.232-2.422S1187,1674.288,1187,1675.622Z" transform="translate(-990.558 -1360.809)" fill="#020202" opacity="0.1"/>
            <path id="Trazado_1180039" data-name="Trazado 1180039" d="M537.8,1624.519c0,.842,6.506,1.519,14.53,1.519s14.53-.677,14.53-1.519S560.354,1623,552.33,1623,537.8,1623.677,537.8,1624.519Z" transform="translate(-474.59 -1320.911)" fill="#020202" opacity="0.1"/>
          </g>
        </g>
      </g>
    </g>
  </g>
</svg>
