<svg xmlns="http://www.w3.org/2000/svg" xmlns:xlink="http://www.w3.org/1999/xlink" width="103" height="103" viewBox="0 0 103 103">
  <defs>
    <filter id="Trazado_978624" x="0" y="0" width="103" height="103" filterUnits="userSpaceOnUse">
      <feOffset dy="3" input="SourceAlpha"/>
      <feGaussianBlur stdDeviation="3" result="blur"/>
      <feFlood flood-opacity="0.161"/>
      <feComposite operator="in" in2="blur"/>
      <feComposite in="SourceGraphic"/>
    </filter>
  </defs>
  <g id="Grupo_1226407" data-name="Grupo 1226407" transform="translate(-171 -2148)">
    <g id="Grupo_1225498" data-name="Grupo 1225498" transform="translate(0 -933)">
      <g id="Grupo_1225104" data-name="Grupo 1225104" transform="translate(0 2068)">
        <g id="Grupo_1220654" data-name="Grupo 1220654" transform="translate(180 1019)">
          <g id="Grupo_1176881" data-name="Grupo 1176881">
            <g id="Grupo_1175148" data-name="Grupo 1175148">
              <g id="Grupo_1173798" data-name="Grupo 1173798">
                <g id="Grupo_1171925" data-name="Grupo 1171925">
                  <g id="Grupo_1164524" data-name="Grupo 1164524">
                    <g id="Grupo_1144123" data-name="Grupo 1144123">
                      <g transform="matrix(1, 0, 0, 1, -9, -6)" filter="url(#Trazado_978624)">
                        <g id="Trazado_978624-2" data-name="Trazado 978624" transform="translate(9 6)" fill="#e9f9fd">
                          <path d="M 42.5 83.5 C 36.96437835693359 83.5 31.59512901306152 82.41617584228516 26.54141235351562 80.27863311767578 C 21.65934181213379 78.21369171142578 17.27447128295898 75.25723266601562 13.50862312316895 71.49137878417969 C 9.742764472961426 67.72553253173828 6.786305904388428 63.34066009521484 4.721364498138428 58.45858764648438 C 2.583823442459106 53.40486907958984 1.5 48.03562164306641 1.5 42.5 C 1.5 36.96437835693359 2.583823442459106 31.59512901306152 4.721364498138428 26.54141235351562 C 6.786305904388428 21.65934181213379 9.742764472961426 17.27447128295898 13.50862312316895 13.50862312316895 C 17.27447128295898 9.742764472961426 21.65934181213379 6.786305904388428 26.54141235351562 4.721364498138428 C 31.59512901306152 2.583823442459106 36.96437835693359 1.5 42.5 1.5 C 48.03562164306641 1.5 53.40486907958984 2.583823442459106 58.45858764648438 4.721364498138428 C 63.34066009521484 6.786305904388428 67.72553253173828 9.742764472961426 71.49137878417969 13.50862312316895 C 75.25723266601562 17.27447128295898 78.21369171142578 21.65934181213379 80.27863311767578 26.54141235351562 C 82.41617584228516 31.59512901306152 83.5 36.96437835693359 83.5 42.5 C 83.5 48.03562164306641 82.41617584228516 53.40486907958984 80.27863311767578 58.45858764648438 C 78.21369171142578 63.34066009521484 75.25723266601562 67.72553253173828 71.49137878417969 71.49137878417969 C 67.72553253173828 75.25723266601562 63.34066009521484 78.21369171142578 58.45858764648438 80.27863311767578 C 53.40486907958984 82.41617584228516 48.03562164306641 83.5 42.5 83.5 Z" stroke="none"/>
                          <path d="M 42.5 3 C 37.16621398925781 3 31.99356079101562 4.043960571289062 27.125732421875 6.102882385253906 C 22.42246627807617 8.092185974121094 18.19785308837891 10.94070434570312 14.56928253173828 14.56928253173828 C 10.94070434570312 18.19785308837891 8.092185974121094 22.42246627807617 6.102882385253906 27.125732421875 C 4.043960571289062 31.99356079101562 3 37.16621398925781 3 42.5 C 3 47.83378601074219 4.043960571289062 53.00643920898438 6.102882385253906 57.87425231933594 C 8.092185974121094 62.57753372192383 10.94070434570312 66.80213165283203 14.56928253173828 70.43071746826172 C 18.19786834716797 74.05929565429688 22.42246627807617 76.90781402587891 27.125732421875 78.89711761474609 C 31.99356079101562 80.95603942871094 37.16621398925781 82 42.5 82 C 47.83378601074219 82 53.00642395019531 80.95603942871094 57.87425231933594 78.89711761474609 C 62.57753372192383 76.90781402587891 66.80213165283203 74.05929565429688 70.43071746826172 70.43071746826172 C 74.05929565429688 66.80213165283203 76.90781402587891 62.57753372192383 78.89711761474609 57.87425231933594 C 80.95603942871094 53.00642395019531 82 47.83378601074219 82 42.5 C 82 37.16621398925781 80.95603942871094 31.99356079101562 78.89711761474609 27.125732421875 C 76.90781402587891 22.42246627807617 74.05929565429688 18.19786834716797 70.43071746826172 14.56928253173828 C 66.80213165283203 10.94070434570312 62.57753372192383 8.092185974121094 57.87425231933594 6.102882385253906 C 53.00643920898438 4.043960571289062 47.83378601074219 3 42.5 3 M 42.5 0 C 65.97209167480469 0 85 19.02789306640625 85 42.5 C 85 65.97209167480469 65.97209167480469 85 42.5 85 C 19.02789306640625 85 0 65.97209167480469 0 42.5 C 0 19.02789306640625 19.02789306640625 0 42.5 0 Z" stroke="none" fill="#36ceef"/>
                        </g>
                      </g>
                    </g>
                  </g>
                </g>
              </g>
            </g>
          </g>
        </g>
      </g>
    </g>
    <g id="economia_3_" data-name="economia (3)" transform="translate(188.079 2162.08)">
      <g id="Grupo_1226405" data-name="Grupo 1226405" transform="translate(1.008 1.007)">
        <g id="Grupo_1226404" data-name="Grupo 1226404">
          <path id="Trazado_1180040" data-name="Trazado 1180040" d="M50.84,10.2,43.87,7.584a1.268,1.268,0,0,0-1.7,1.394l.292,1.764a32.029,32.029,0,0,0-21.1,25.171,1.979,1.979,0,1,0,3.909.616A28.057,28.057,0,0,1,43.123,14.709l.268,1.615a1.268,1.268,0,0,0,2.056.772L51.2,12.369A1.268,1.268,0,0,0,50.84,10.2Z" transform="translate(-19.482 -7.501)" fill="#0ed2b3"/>
          <path id="Trazado_1180041" data-name="Trazado 1180041" d="M305.41,42.175l-1.764.292a32.029,32.029,0,0,0-25.171-21.1,1.979,1.979,0,1,0-.616,3.909,28.057,28.057,0,0,1,21.819,17.846l-1.615.268a1.268,1.268,0,0,0-.772,2.056l4.727,5.752a1.268,1.268,0,0,0,2.167-.359l2.619-6.97A1.268,1.268,0,0,0,305.41,42.175Z" transform="translate(-240.061 -19.484)" fill="#0ed2b3"/>
          <path id="Trazado_1180042" data-name="Trazado 1180042" d="M293.818,276.214a1.979,1.979,0,0,0-2.262,1.647,28.057,28.057,0,0,1-17.846,21.819l-.268-1.615a1.268,1.268,0,0,0-2.056-.772l-5.752,4.727a1.268,1.268,0,0,0,.359,2.167l6.97,2.619a1.268,1.268,0,0,0,1.7-1.394l-.292-1.764a32.028,32.028,0,0,0,21.1-25.171A1.978,1.978,0,0,0,293.818,276.214Z" transform="translate(-230.525 -240.062)" fill="#0ed2b3"/>
          <path id="Trazado_1180043" data-name="Trazado 1180043" d="M36.527,291.557a28.057,28.057,0,0,1-21.819-17.846l1.615-.268a1.268,1.268,0,0,0,.772-2.056l-4.727-5.752a1.268,1.268,0,0,0-2.167.359l-2.619,6.97a1.268,1.268,0,0,0,1.394,1.7l1.764-.292a32.029,32.029,0,0,0,25.171,21.1,1.979,1.979,0,1,0,.616-3.909Z" transform="translate(-7.5 -230.526)" fill="#0ed2b3"/>
        </g>
        <circle id="Elipse_12666" data-name="Elipse 12666" cx="19.581" cy="19.581" r="19.581" transform="translate(13.832 13.832)" fill="#fef48b"/>
        <path id="Trazado_1180044" data-name="Trazado 1180044" d="M131.678,149.457q-.851.075-1.724.075a19.581,19.581,0,1,1,0-39.162q.871,0,1.724.075a19.582,19.582,0,0,0,0,39.012Z" transform="translate(-96.541 -96.538)" fill="#fee45a"/>
        <circle id="Elipse_12667" data-name="Elipse 12667" cx="14.613" cy="14.613" r="14.613" transform="translate(18.799 18.799)" fill="#fee45a"/>
        <path id="Trazado_1180045" data-name="Trazado 1180045" d="M253.211,161.933a14.617,14.617,0,0,1-17.317,14.362,14.614,14.614,0,0,0,0-28.723,14.617,14.617,0,0,1,17.317,14.361Z" transform="translate(-205.184 -128.52)" fill="#ffd15b"/>
      </g>
      <g id="Grupo_1226406" data-name="Grupo 1226406" transform="translate(0 -0.002)">
        <path id="Trazado_1180046" data-name="Trazado 1180046" d="M16.372,32.677a3.008,3.008,0,0,0,.467.037,2.971,2.971,0,0,0,2.948-2.523A26.971,26.971,0,0,1,35.846,9.618l.063.378A2.276,2.276,0,0,0,39.6,11.382l5.752-4.727a2.276,2.276,0,0,0-.644-3.889L37.738.147a2.276,2.276,0,0,0-3.046,2.5l.155.935A33.041,33.041,0,0,0,13.886,29.262a2.987,2.987,0,0,0,2.486,3.415Zm-.494-3.1A31.02,31.02,0,0,1,36.308,5.2a1.009,1.009,0,0,0,.665-1.118L36.681,2.32a.248.248,0,0,1,.091-.243.253.253,0,0,1,.161-.061.269.269,0,0,1,.1.018L44,4.654a.26.26,0,0,1,.073.443L38.319,9.825a.26.26,0,0,1-.421-.158l-.268-1.615a1.008,1.008,0,0,0-1.348-.78A28.991,28.991,0,0,0,17.795,29.878a.968.968,0,0,1-1.109.807.97.97,0,0,1-.808-1.109Z" transform="translate(-11.987 0.002)"/>
        <path id="Trazado_1180047" data-name="Trazado 1180047" d="M300.885,35.494a2.251,2.251,0,0,0-2.13-.8l-.936.155a33.04,33.04,0,0,0-25.676-20.96,2.987,2.987,0,1,0-.93,5.9,26.545,26.545,0,0,1,3.252.724,1.008,1.008,0,1,0,.561-1.937,28.556,28.556,0,0,0-3.5-.779.97.97,0,0,1-.421-1.743.962.962,0,0,1,.722-.173A31.019,31.019,0,0,1,296.2,36.31a1.008,1.008,0,0,0,1.118.665l1.765-.292a.258.258,0,0,1,.284.347L296.749,44a.259.259,0,0,1-.443.073l-4.726-5.752a.259.259,0,0,1,.158-.421l1.615-.268a1.008,1.008,0,0,0,.78-1.348,29.106,29.106,0,0,0-14.569-15.967,1.008,1.008,0,1,0-.878,1.815,27.109,27.109,0,0,1,13.1,13.715l-.379.063a2.276,2.276,0,0,0-1.386,3.691l4.726,5.752a2.25,2.25,0,0,0,1.749.832,2.346,2.346,0,0,0,.383-.032,2.252,2.252,0,0,0,1.758-1.445l2.619-6.968A2.252,2.252,0,0,0,300.885,35.494Z" transform="translate(-232.562 -11.989)"/>
        <path id="Trazado_1180048" data-name="Trazado 1180048" d="M287.477,268.724a2.988,2.988,0,0,0-3.415,2.486A26.97,26.97,0,0,1,268,291.784l-.063-.379a2.276,2.276,0,0,0-3.691-1.386l-5.752,4.726a2.276,2.276,0,0,0,.644,3.889l6.968,2.619a2.293,2.293,0,0,0,.81.149,2.28,2.28,0,0,0,2.237-2.65l-.155-.936a32.467,32.467,0,0,0,3.042-1.323,1.008,1.008,0,0,0-.9-1.805,30.55,30.55,0,0,1-3.6,1.512,1.008,1.008,0,0,0-.665,1.117l.292,1.765a.258.258,0,0,1-.347.284l-6.969-2.619a.259.259,0,0,1-.073-.443l5.752-4.726a.259.259,0,0,1,.421.157l.267,1.615a1.008,1.008,0,0,0,1.348.78,28.991,28.991,0,0,0,18.488-22.606.97.97,0,1,1,1.916.3,31.068,31.068,0,0,1-12.992,20.6,1.008,1.008,0,1,0,1.148,1.658,33.1,33.1,0,0,0,13.837-21.945,2.986,2.986,0,0,0-2.485-3.416Z" transform="translate(-223.019 -232.56)"/>
        <path id="Trazado_1180049" data-name="Trazado 1180049" d="M30.192,284.064A26.971,26.971,0,0,1,9.619,268.005l.378-.063a2.276,2.276,0,0,0,1.387-3.691L6.657,258.5a2.276,2.276,0,0,0-3.89.644L.148,266.113a2.276,2.276,0,0,0,2.5,3.046L3.587,269a33.041,33.041,0,0,0,25.677,20.961,3,3,0,0,0,.467.037,2.987,2.987,0,0,0,.462-5.938Zm.494,3.1a.976.976,0,0,1-.956.82.989.989,0,0,1-.153-.012A31.019,31.019,0,0,1,5.2,267.543a1.007,1.007,0,0,0-1.118-.665l-1.764.292a.26.26,0,0,1-.285-.347l2.619-6.969a.26.26,0,0,1,.443-.073l4.727,5.752a.26.26,0,0,1-.158.421l-1.615.268a1.008,1.008,0,0,0-.78,1.348,28.992,28.992,0,0,0,22.606,18.488.97.97,0,0,1,.808,1.109Z" transform="translate(0 -223.022)"/>
        <path id="Trazado_1180050" data-name="Trazado 1180050" d="M144.055,123.467a20.589,20.589,0,1,0-20.589,20.589A20.612,20.612,0,0,0,144.055,123.467Zm-20.589,18.572a18.572,18.572,0,1,1,18.572-18.572A18.593,18.593,0,0,1,123.467,142.038Z" transform="translate(-89.045 -89.045)"/>
        <path id="Trazado_1180051" data-name="Trazado 1180051" d="M155.445,139.824a15.63,15.63,0,0,0-15.095,19.651,1.008,1.008,0,0,0,1.948-.521,13.611,13.611,0,1,1,1.786,3.976,1.008,1.008,0,1,0-1.683,1.111,15.621,15.621,0,1,0,13.043-24.218Z" transform="translate(-121.023 -121.023)"/>
        <path id="Trazado_1180052" data-name="Trazado 1180052" d="M221.4,195.8a1.008,1.008,0,0,0-1.1,1.688,6.058,6.058,0,0,0,3.307,1.159v1.091a1.008,1.008,0,1,0,2.017,0V198.57a4.94,4.94,0,0,0,3.877-4.052,4.337,4.337,0,0,0-2.986-4.963c-.293-.1-.592-.212-.891-.325v-4.771a3.108,3.108,0,0,1,1.228.588,1.008,1.008,0,0,0,1.29-1.551,5.3,5.3,0,0,0-2.518-1.087v-.975a1.008,1.008,0,1,0-2.017,0v1.051c-.15.033-.3.072-.457.118a4.107,4.107,0,0,0-2.813,3.222,3.616,3.616,0,0,0,1.184,3.563,9.739,9.739,0,0,0,2.086,1.195v6.046A4.141,4.141,0,0,1,221.4,195.8Zm1.361-8a1.626,1.626,0,0,1-.446-1.6,2.134,2.134,0,0,1,1.288-1.621v3.761A6.052,6.052,0,0,1,222.762,187.8Zm3.077,3.655a2.353,2.353,0,0,1,1.669,2.727,2.965,2.965,0,0,1-1.888,2.292v-5.1Z" transform="translate(-190.281 -156.167)"/>
      </g>
    </g>
  </g>
</svg>
