<svg xmlns="http://www.w3.org/2000/svg" xmlns:xlink="http://www.w3.org/1999/xlink" width="103" height="103" viewBox="0 0 103 103">
  <defs>
    <filter id="Trazado_978624" x="0" y="0" width="103" height="103" filterUnits="userSpaceOnUse">
      <feOffset dy="3" input="SourceAlpha"/>
      <feGaussianBlur stdDeviation="3" result="blur"/>
      <feFlood flood-opacity="0.161"/>
      <feComposite operator="in" in2="blur"/>
      <feComposite in="SourceGraphic"/>
    </filter>
  </defs>
  <g id="Grupo_1226850" data-name="Grupo 1226850" transform="translate(-171 -3193.99)">
    <g id="Grupo_1226138" data-name="Grupo 1226138" transform="translate(0 112.99)">
      <g id="Grupo_1225104" data-name="Grupo 1225104" transform="translate(0 2068)">
        <g id="Grupo_1220654" data-name="Grupo 1220654" transform="translate(180 1019)">
          <g id="Grupo_1176881" data-name="Grupo 1176881">
            <g id="Grupo_1175148" data-name="Grupo 1175148">
              <g id="Grupo_1173798" data-name="Grupo 1173798">
                <g id="Grupo_1171925" data-name="Grupo 1171925">
                  <g id="Grupo_1164524" data-name="Grupo 1164524">
                    <g id="Grupo_1144123" data-name="Grupo 1144123">
                      <g transform="matrix(1, 0, 0, 1, -9, -6)" filter="url(#Trazado_978624)">
                        <g id="Trazado_978624-2" data-name="Trazado 978624" transform="translate(9 6)" fill="#e9f9fd">
                          <path d="M 42.5 83.5 C 36.96437835693359 83.5 31.59512901306152 82.41617584228516 26.54141235351562 80.27863311767578 C 21.65934181213379 78.21369171142578 17.27447128295898 75.25723266601562 13.50862312316895 71.49137878417969 C 9.742764472961426 67.72553253173828 6.786305904388428 63.34066009521484 4.721364498138428 58.45858764648438 C 2.583823442459106 53.40486907958984 1.5 48.03562164306641 1.5 42.5 C 1.5 36.96437835693359 2.583823442459106 31.59512901306152 4.721364498138428 26.54141235351562 C 6.786305904388428 21.65934181213379 9.742764472961426 17.27447128295898 13.50862312316895 13.50862312316895 C 17.27447128295898 9.742764472961426 21.65934181213379 6.786305904388428 26.54141235351562 4.721364498138428 C 31.59512901306152 2.583823442459106 36.96437835693359 1.5 42.5 1.5 C 48.03562164306641 1.5 53.40486907958984 2.583823442459106 58.45858764648438 4.721364498138428 C 63.34066009521484 6.786305904388428 67.72553253173828 9.742764472961426 71.49137878417969 13.50862312316895 C 75.25723266601562 17.27447128295898 78.21369171142578 21.65934181213379 80.27863311767578 26.54141235351562 C 82.41617584228516 31.59512901306152 83.5 36.96437835693359 83.5 42.5 C 83.5 48.03562164306641 82.41617584228516 53.40486907958984 80.27863311767578 58.45858764648438 C 78.21369171142578 63.34066009521484 75.25723266601562 67.72553253173828 71.49137878417969 71.49137878417969 C 67.72553253173828 75.25723266601562 63.34066009521484 78.21369171142578 58.45858764648438 80.27863311767578 C 53.40486907958984 82.41617584228516 48.03562164306641 83.5 42.5 83.5 Z" stroke="none"/>
                          <path d="M 42.5 3 C 37.16621398925781 3 31.99356079101562 4.043960571289062 27.125732421875 6.102882385253906 C 22.42246627807617 8.092185974121094 18.19785308837891 10.94070434570312 14.56928253173828 14.56928253173828 C 10.94070434570312 18.19785308837891 8.092185974121094 22.42246627807617 6.102882385253906 27.125732421875 C 4.043960571289062 31.99356079101562 3 37.16621398925781 3 42.5 C 3 47.83378601074219 4.043960571289062 53.00643920898438 6.102882385253906 57.87425231933594 C 8.092185974121094 62.57753372192383 10.94070434570312 66.80213165283203 14.56928253173828 70.43071746826172 C 18.19786834716797 74.05929565429688 22.42246627807617 76.90781402587891 27.125732421875 78.89711761474609 C 31.99356079101562 80.95603942871094 37.16621398925781 82 42.5 82 C 47.83378601074219 82 53.00642395019531 80.95603942871094 57.87425231933594 78.89711761474609 C 62.57753372192383 76.90781402587891 66.80213165283203 74.05929565429688 70.43071746826172 70.43071746826172 C 74.05929565429688 66.80213165283203 76.90781402587891 62.57753372192383 78.89711761474609 57.87425231933594 C 80.95603942871094 53.00642395019531 82 47.83378601074219 82 42.5 C 82 37.16621398925781 80.95603942871094 31.99356079101562 78.89711761474609 27.125732421875 C 76.90781402587891 22.42246627807617 74.05929565429688 18.19786834716797 70.43071746826172 14.56928253173828 C 66.80213165283203 10.94070434570312 62.57753372192383 8.092185974121094 57.87425231933594 6.102882385253906 C 53.00643920898438 4.043960571289062 47.83378601074219 3 42.5 3 M 42.5 0 C 65.97209167480469 0 85 19.02789306640625 85 42.5 C 85 65.97209167480469 65.97209167480469 85 42.5 85 C 19.02789306640625 85 0 65.97209167480469 0 42.5 C 0 19.02789306640625 19.02789306640625 0 42.5 0 Z" stroke="none" fill="#36ceef"/>
                        </g>
                      </g>
                    </g>
                  </g>
                </g>
              </g>
            </g>
          </g>
        </g>
      </g>
    </g>
    <g id="economia-global_4_" data-name="economia-global (4)" transform="translate(185.877 3224.268)">
      <g id="Grupo_1226849" data-name="Grupo 1226849" transform="translate(4.121 -17.268)">
        <g id="Grupo_1226845" data-name="Grupo 1226845" transform="translate(1.095 3.749)">
          <circle id="Elipse_12679" data-name="Elipse 12679" cx="21.271" cy="21.271" r="21.271" transform="translate(0 30.077) rotate(-45)" fill="#66d4f1"/>
        </g>
        <g id="Grupo_1226848" data-name="Grupo 1226848" transform="translate(0 0)">
          <g id="Grupo_1226846" data-name="Grupo 1226846" transform="translate(0 42.148)">
            <circle id="Elipse_12680" data-name="Elipse 12680" cx="9.957" cy="9.957" r="9.957" transform="matrix(0.16, -0.987, 0.987, 0.16, 0, 19.656)" fill="#fdcd56"/>
            <circle id="Elipse_12681" data-name="Elipse 12681" cx="7.729" cy="7.729" r="7.729" transform="translate(2.139 5.671) rotate(-13.3)" fill="#f5b945"/>
          </g>
          <g id="Grupo_1226847" data-name="Grupo 1226847" transform="translate(36.843)">
            <circle id="Elipse_12682" data-name="Elipse 12682" cx="9.957" cy="9.957" r="9.957" transform="translate(0 14.08) rotate(-45)" fill="#fdcd56"/>
            <circle id="Elipse_12683" data-name="Elipse 12683" cx="7.729" cy="7.729" r="7.729" transform="translate(4.778 8.317) rotate(-13.3)" fill="#f5b945"/>
          </g>
        </g>
      </g>
      <path id="Trazado_1180838" data-name="Trazado 1180838" d="M23.476,61.856a3.428,3.428,0,0,1-2.768,3.254l.016.654a.867.867,0,0,1-.845.887h-.021a.867.867,0,0,1-.866-.845l-.016-.68A4.192,4.192,0,0,1,16.9,63.9a.867.867,0,0,1,1.189-1.261,2.206,2.206,0,0,0,1.736.833,1.643,1.643,0,1,0,0-3.24,3.517,3.517,0,0,1-3.652-3.354,3.429,3.429,0,0,1,2.77-3.255l-.018-.745a.866.866,0,0,1,1.732-.041l.019.807a4.126,4.126,0,0,1,2.343,1.42.867.867,0,1,1-1.448.952,2.956,2.956,0,0,0-1.747-.758,1.644,1.644,0,1,0,0,3.241A3.516,3.516,0,0,1,23.476,61.856Zm32.2-44.477a3.429,3.429,0,0,1,2.77-3.254l-.018-.745a.866.866,0,0,1,.845-.887h.021a.866.866,0,0,1,.866.845l.019.807a4.127,4.127,0,0,1,2.342,1.42.866.866,0,1,1-1.448.952,2.959,2.959,0,0,0-1.747-.759,1.791,1.791,0,0,0-1.919,1.62A1.791,1.791,0,0,0,59.327,19a3.516,3.516,0,0,1,3.652,3.353,3.428,3.428,0,0,1-2.768,3.254l.016.653a.867.867,0,0,1-.845.888H59.36a.866.866,0,0,1-.866-.846l-.016-.679A4.2,4.2,0,0,1,56.4,24.4a.867.867,0,0,1,1.189-1.261,2.206,2.206,0,0,0,1.736.833,1.79,1.79,0,0,0,1.919-1.62,1.791,1.791,0,0,0-1.919-1.62,3.517,3.517,0,0,1-3.652-3.354ZM19.825,68.414a9.091,9.091,0,1,0-9.091-9.091,9.1,9.1,0,0,0,9.091,9.091ZM51.151,38.706a35.462,35.462,0,0,0-1.784-10.639q1.179-.272,2.3-.611a10.8,10.8,0,0,0,6.216,3.091,20.46,20.46,0,0,1,2.08,8.159H51.151Zm-1.81,12.447a35.405,35.405,0,0,0,1.81-10.715h8.81a20.324,20.324,0,0,1-5.012,12.536A31.344,31.344,0,0,0,49.341,51.153Zm-1.424,3.332a14.137,14.137,0,0,1-4.1,5.045,20.37,20.37,0,0,0,9.852-5.218,30.619,30.619,0,0,0-4.955-1.527q-.373.883-.8,1.7ZM29.784,28.069A35.454,35.454,0,0,0,28,38.706h-8.81A20.319,20.319,0,0,1,24.15,26.229a31.245,31.245,0,0,0,5.634,1.839Zm1.45-3.412a14.137,14.137,0,0,1,4.1-5.045,20.382,20.382,0,0,0-9.913,5.278A30.507,30.507,0,0,0,30.4,26.434C30.662,25.819,30.938,25.224,31.234,24.657Zm9.208,2.733V19.976c2.2.4,4.283,2.31,5.938,5.483.22.422.429.862.627,1.315A43.186,43.186,0,0,1,40.442,27.39Zm0,11.316h8.976a33.486,33.486,0,0,0-1.762-10.287,44.784,44.784,0,0,1-7.214.706Zm0,11.4a44.912,44.912,0,0,1,7.186.7,33.4,33.4,0,0,0,1.79-10.362H40.442Zm0,1.733a43.213,43.213,0,0,1,6.533.608c-.188.426-.386.84-.595,1.24-1.656,3.173-3.738,5.083-5.938,5.483Zm-1.733,0v7.331c-2.2-.4-4.283-2.31-5.939-5.483q-.312-.6-.593-1.238A43.349,43.349,0,0,1,38.709,51.837Zm0-11.4V50.1a44.738,44.738,0,0,0-7.186.7,33.428,33.428,0,0,1-1.79-10.364Zm0-11.315a44.74,44.74,0,0,1-7.215-.7,33.484,33.484,0,0,0-1.761,10.284h8.976Zm0-1.733a43.185,43.185,0,0,1-6.568-.612q.3-.682.629-1.319c1.656-3.174,3.738-5.084,5.939-5.483ZM50.449,26A10.756,10.756,0,0,1,48.6,21.269a20.348,20.348,0,0,0-4.78-1.655,14.144,14.144,0,0,1,4.1,5.044c.3.566.571,1.159.828,1.772Q49.614,26.237,50.449,26ZM21.272,48.6a20.468,20.468,0,0,1-2.08-8.158H28a35.4,35.4,0,0,0,1.811,10.716q-1.16.266-2.26.6A10.8,10.8,0,0,0,21.272,48.6Zm7.479,4.613q.826-.228,1.687-.419c.248.586.513,1.153.8,1.7a14.138,14.138,0,0,0,4.1,5.044,20.344,20.344,0,0,1-4.78-1.655,10.754,10.754,0,0,0-1.8-4.666ZM59.327,10.731a9.091,9.091,0,1,0,9.091,9.091A9.1,9.1,0,0,0,59.327,10.731ZM70.15,19.821a10.823,10.823,0,0,0-21.635-.505,22.143,22.143,0,0,0-29.2,29.195,10.759,10.759,0,0,0-3.848.9A26.1,26.1,0,0,1,38.856,13.551l-1.392,1.393a.866.866,0,1,0,1.225,1.224l2.846-2.846a.867.867,0,0,0,0-1.225L38.69,9.251a.867.867,0,1,0-1.225,1.225l1.343,1.343A27.83,27.83,0,0,0,13.939,50.244a10.822,10.822,0,1,0,16.7,9.584,22.144,22.144,0,0,0,29.2-29.195,10.765,10.765,0,0,0,3.847-.9A26.1,26.1,0,0,1,40.295,65.592L41.686,64.2a.866.866,0,1,0-1.225-1.225l-2.846,2.845a.867.867,0,0,0,0,1.225l2.846,2.847a.866.866,0,1,0,1.225-1.225l-1.343-1.344A27.829,27.829,0,0,0,65.212,28.9a10.825,10.825,0,0,0,4.938-9.08Z" transform="translate(-4.276 -23.014)" fill-rule="evenodd"/>
    </g>
  </g>
</svg>
