<svg xmlns="http://www.w3.org/2000/svg" xmlns:xlink="http://www.w3.org/1999/xlink" width="103" height="103" viewBox="0 0 103 103">
  <defs>
    <filter id="Trazado_978624" x="0" y="0" width="103" height="103" filterUnits="userSpaceOnUse">
      <feOffset dy="3" input="SourceAlpha"/>
      <feGaussianBlur stdDeviation="3" result="blur"/>
      <feFlood flood-opacity="0.161"/>
      <feComposite operator="in" in2="blur"/>
      <feComposite in="SourceGraphic"/>
    </filter>
  </defs>
  <g id="Grupo_1226267" data-name="Grupo 1226267" transform="translate(-171 -1484)">
    <g id="Grupo_1225439" data-name="Grupo 1225439" transform="translate(0 -1597)">
      <g id="Grupo_1225104" data-name="Grupo 1225104" transform="translate(0 2068)">
        <g id="Grupo_1220654" data-name="Grupo 1220654" transform="translate(180 1019)">
          <g id="Grupo_1176881" data-name="Grupo 1176881">
            <g id="Grupo_1175148" data-name="Grupo 1175148">
              <g id="Grupo_1173798" data-name="Grupo 1173798">
                <g id="Grupo_1171925" data-name="Grupo 1171925">
                  <g id="Grupo_1164524" data-name="Grupo 1164524">
                    <g id="Grupo_1144123" data-name="Grupo 1144123">
                      <g transform="matrix(1, 0, 0, 1, -9, -6)" filter="url(#Trazado_978624)">
                        <g id="Trazado_978624-2" data-name="Trazado 978624" transform="translate(9 6)" fill="#e9f9fd">
                          <path d="M 42.5 83.5 C 36.96437835693359 83.5 31.59512901306152 82.41617584228516 26.54141235351562 80.27863311767578 C 21.65934181213379 78.21369171142578 17.27447128295898 75.25723266601562 13.50862312316895 71.49137878417969 C 9.742764472961426 67.72553253173828 6.786305904388428 63.34066009521484 4.721364498138428 58.45858764648438 C 2.583823442459106 53.40486907958984 1.5 48.03562164306641 1.5 42.5 C 1.5 36.96437835693359 2.583823442459106 31.59512901306152 4.721364498138428 26.54141235351562 C 6.786305904388428 21.65934181213379 9.742764472961426 17.27447128295898 13.50862312316895 13.50862312316895 C 17.27447128295898 9.742764472961426 21.65934181213379 6.786305904388428 26.54141235351562 4.721364498138428 C 31.59512901306152 2.583823442459106 36.96437835693359 1.5 42.5 1.5 C 48.03562164306641 1.5 53.40486907958984 2.583823442459106 58.45858764648438 4.721364498138428 C 63.34066009521484 6.786305904388428 67.72553253173828 9.742764472961426 71.49137878417969 13.50862312316895 C 75.25723266601562 17.27447128295898 78.21369171142578 21.65934181213379 80.27863311767578 26.54141235351562 C 82.41617584228516 31.59512901306152 83.5 36.96437835693359 83.5 42.5 C 83.5 48.03562164306641 82.41617584228516 53.40486907958984 80.27863311767578 58.45858764648438 C 78.21369171142578 63.34066009521484 75.25723266601562 67.72553253173828 71.49137878417969 71.49137878417969 C 67.72553253173828 75.25723266601562 63.34066009521484 78.21369171142578 58.45858764648438 80.27863311767578 C 53.40486907958984 82.41617584228516 48.03562164306641 83.5 42.5 83.5 Z" stroke="none"/>
                          <path d="M 42.5 3 C 37.16621398925781 3 31.99356079101562 4.043960571289062 27.125732421875 6.102882385253906 C 22.42246627807617 8.092185974121094 18.19785308837891 10.94070434570312 14.56928253173828 14.56928253173828 C 10.94070434570312 18.19785308837891 8.092185974121094 22.42246627807617 6.102882385253906 27.125732421875 C 4.043960571289062 31.99356079101562 3 37.16621398925781 3 42.5 C 3 47.83378601074219 4.043960571289062 53.00643920898438 6.102882385253906 57.87425231933594 C 8.092185974121094 62.57753372192383 10.94070434570312 66.80213165283203 14.56928253173828 70.43071746826172 C 18.19786834716797 74.05929565429688 22.42246627807617 76.90781402587891 27.125732421875 78.89711761474609 C 31.99356079101562 80.95603942871094 37.16621398925781 82 42.5 82 C 47.83378601074219 82 53.00642395019531 80.95603942871094 57.87425231933594 78.89711761474609 C 62.57753372192383 76.90781402587891 66.80213165283203 74.05929565429688 70.43071746826172 70.43071746826172 C 74.05929565429688 66.80213165283203 76.90781402587891 62.57753372192383 78.89711761474609 57.87425231933594 C 80.95603942871094 53.00642395019531 82 47.83378601074219 82 42.5 C 82 37.16621398925781 80.95603942871094 31.99356079101562 78.89711761474609 27.125732421875 C 76.90781402587891 22.42246627807617 74.05929565429688 18.19786834716797 70.43071746826172 14.56928253173828 C 66.80213165283203 10.94070434570312 62.57753372192383 8.092185974121094 57.87425231933594 6.102882385253906 C 53.00643920898438 4.043960571289062 47.83378601074219 3 42.5 3 M 42.5 0 C 65.97209167480469 0 85 19.02789306640625 85 42.5 C 85 65.97209167480469 65.97209167480469 85 42.5 85 C 19.02789306640625 85 0 65.97209167480469 0 42.5 C 0 19.02789306640625 19.02789306640625 0 42.5 0 Z" stroke="none" fill="#36ceef"/>
                        </g>
                      </g>
                    </g>
                  </g>
                </g>
              </g>
            </g>
          </g>
        </g>
      </g>
    </g>
    <g id="economia-global_3_" data-name="economia-global (3)" transform="translate(189.5 1495.75)">
      <g id="Grupo_1226252" data-name="Grupo 1226252">
        <g id="Grupo_1226241" data-name="Grupo 1226241">
          <circle id="Elipse_12637" data-name="Elipse 12637" cx="27" cy="27" r="27" transform="translate(2.03 9)" fill="#7cb5e8"/>
        </g>
        <g id="Grupo_1226242" data-name="Grupo 1226242" opacity="0.3">
          <path id="Trazado_1179049" data-name="Trazado 1179049" d="M29.03,9a26.874,26.874,0,0,0-12.75,3.2A27,27,0,0,0,52.83,48.75,27,27,0,0,0,29.03,9Z" fill="#fff"/>
        </g>
        <g id="Grupo_1226243" data-name="Grupo 1226243">
          <circle id="Elipse_12638" data-name="Elipse 12638" cx="12" cy="12" r="12" transform="translate(40.03 39)" fill="#ffab03"/>
        </g>
        <g id="Grupo_1226244" data-name="Grupo 1226244" opacity="0.3">
          <path id="Trazado_1179050" data-name="Trazado 1179050" d="M52.03,39a11.838,11.838,0,0,0-5.15,1.18,11.871,11.871,0,0,0-1.18,5.15,12,12,0,0,0,12,12,11.838,11.838,0,0,0,5.15-1.18A11.871,11.871,0,0,0,64.03,51,12,12,0,0,0,52.03,39Z" fill="#fff"/>
        </g>
        <g id="Grupo_1226245" data-name="Grupo 1226245">
          <path id="Trazado_1179051" data-name="Trazado 1179051" d="M11.03,3a9.048,9.048,0,0,0-9.05,9.05c0,5,9.05,16.95,9.05,16.95s9.05-11.95,9.05-16.95A9.048,9.048,0,0,0,11.03,3Zm0,13.88a4.83,4.83,0,1,1,4.83-4.83A4.827,4.827,0,0,1,11.03,16.88Z" fill="#4e6575"/>
        </g>
        <g id="Grupo_1226246" data-name="Grupo 1226246" opacity="0.3">
          <path id="Trazado_1179052" data-name="Trazado 1179052" d="M62.5,45.34a12.17,12.17,0,0,0-5.09-4.96A11.428,11.428,0,0,0,52.05,39c-1.9,0-1.96,2.97-.07,3h.05a9.014,9.014,0,0,1,9,9v.14a1.5,1.5,0,0,0,3,.06A11.517,11.517,0,0,0,62.5,45.34Z" fill="#fff"/>
        </g>
        <g id="Grupo_1226247" data-name="Grupo 1226247" opacity="0.3">
          <path id="Trazado_1179053" data-name="Trazado 1179053" d="M29.03,9H28.9a1.5,1.5,0,0,0-.26,2.97,2.561,2.561,0,0,0,.39.03,24.032,24.032,0,0,1,24,24,2.561,2.561,0,0,0,.03.39c.23,1.78,2.96,1.53,2.97-.26V36a27,27,0,0,0-27-27Z" fill="#fff"/>
        </g>
        <g id="Grupo_1226248" data-name="Grupo 1226248">
          <path id="Trazado_1179054" data-name="Trazado 1179054" d="M50.03,12a6.274,6.274,0,0,0-6.27,6.27c0,3.46,6.27,11.73,6.27,11.73s6.27-8.27,6.27-11.73A6.28,6.28,0,0,0,50.03,12Zm0,8.27a2,2,0,1,1,2-2A2.006,2.006,0,0,1,50.03,20.27Z" fill="#ef4a51"/>
        </g>
        <g id="Grupo_1226249" data-name="Grupo 1226249" opacity="0.3">
          <path id="Trazado_1179055" data-name="Trazado 1179055" d="M11.03,3A8.971,8.971,0,0,0,5.58,4.84a7.734,7.734,0,0,0-.05.84,10.263,10.263,0,0,0,1.04,4.5,4.831,4.831,0,0,1,9.28,1.88A4.777,4.777,0,0,1,14,15.83a10.267,10.267,0,0,0,1.85.17,10.138,10.138,0,0,0,3.41-.59,9.835,9.835,0,0,0,.81-3.36A9.033,9.033,0,0,0,11.03,3Z" fill="#e2e2e2"/>
        </g>
        <g id="Grupo_1226250" data-name="Grupo 1226250" opacity="0.3">
          <path id="Trazado_1179056" data-name="Trazado 1179056" d="M50.03,12a6.208,6.208,0,0,0-3.03.78c-.01.12-.02.24-.02.35a7.777,7.777,0,0,0,1.26,4.26,2,2,0,0,1,3.79.88A1.97,1.97,0,0,1,51.01,20a7.752,7.752,0,0,0,3.83,1,5.846,5.846,0,0,0,.73-.04,7.462,7.462,0,0,0,.72-2.7A6.263,6.263,0,0,0,50.03,12Z" fill="#e2e2e2"/>
        </g>
        <g id="Grupo_1226251" data-name="Grupo 1226251" opacity="0.3">
          <path id="Trazado_1179057" data-name="Trazado 1179057" d="M11.03,3H11a1.5,1.5,0,0,0-.04,3h.07a6.058,6.058,0,0,1,6.05,6.05v.07a1.5,1.5,0,0,0,3-.02v-.04A9.05,9.05,0,0,0,11.03,3Z" fill="#e2e2e2"/>
        </g>
      </g>
      <g id="Grupo_1226266" data-name="Grupo 1226266">
        <g id="Grupo_1226253" data-name="Grupo 1226253">
          <path id="Trazado_1179058" data-name="Trazado 1179058" d="M11.03,29.75a.753.753,0,0,1-.6-.3c-.38-.5-9.21-12.21-9.21-17.4a9.8,9.8,0,1,1,19.6,0c0,5.19-8.83,16.9-9.21,17.4A.7.7,0,0,1,11.03,29.75Zm0-26a8.305,8.305,0,0,0-8.3,8.3c0,3.61,5.53,11.9,8.3,15.69,2.78-3.79,8.3-12.08,8.3-15.69A8.305,8.305,0,0,0,11.03,3.75Zm0,13.88a5.58,5.58,0,1,1,5.58-5.58,5.582,5.582,0,0,1-5.58,5.58Zm0-9.66a4.08,4.08,0,1,0,4.08,4.08A4.084,4.084,0,0,0,11.03,7.97Z"/>
        </g>
        <g id="Grupo_1226254" data-name="Grupo 1226254">
          <path id="Trazado_1179059" data-name="Trazado 1179059" d="M29.03,63.75c-5.93,0-9.48-14.11-9.48-27.75S23.09,8.25,29.03,8.25,38.5,22.36,38.5,36s-3.54,27.75-9.47,27.75Zm0-54c-3.85,0-7.98,10.55-7.98,26.25s4.13,26.25,7.98,26.25S37,51.7,37,36,32.88,9.75,29.03,9.75Z"/>
        </g>
        <g id="Grupo_1226255" data-name="Grupo 1226255">
          <path id="Trazado_1179060" data-name="Trazado 1179060" d="M52.03,63.75A12.75,12.75,0,1,1,64.78,51,12.765,12.765,0,0,1,52.03,63.75Zm0-24A11.25,11.25,0,1,0,63.28,51,11.267,11.267,0,0,0,52.03,39.75Z"/>
        </g>
        <g id="Grupo_1226256" data-name="Grupo 1226256">
          <path id="Trazado_1179061" data-name="Trazado 1179061" d="M52.03,59.75a8.745,8.745,0,1,1,3.41-.69.748.748,0,1,1-.58-1.38,7.26,7.26,0,1,0-2.83.57.75.75,0,0,1,0,1.5Z"/>
        </g>
        <g id="Grupo_1226260" data-name="Grupo 1226260">
          <g id="Grupo_1226257" data-name="Grupo 1226257">
            <path id="Trazado_1179062" data-name="Trazado 1179062" d="M52.03,55.15a2.454,2.454,0,0,1-2.45-2.45.75.75,0,0,1,1.5,0,.95.95,0,1,0,.95-.95,2.45,2.45,0,1,1,2.45-2.45.75.75,0,0,1-1.5,0,.95.95,0,1,0-.95.95,2.45,2.45,0,0,1,0,4.9Z"/>
          </g>
          <g id="Grupo_1226258" data-name="Grupo 1226258">
            <path id="Trazado_1179063" data-name="Trazado 1179063" d="M52.03,48.35a.755.755,0,0,1-.75-.75V46.43a.75.75,0,0,1,1.5,0V47.6A.749.749,0,0,1,52.03,48.35Z"/>
          </g>
          <g id="Grupo_1226259" data-name="Grupo 1226259">
            <path id="Trazado_1179064" data-name="Trazado 1179064" d="M52.03,56.32a.755.755,0,0,1-.75-.75V54.4a.75.75,0,0,1,1.5,0v1.17A.749.749,0,0,1,52.03,56.32Z"/>
          </g>
        </g>
        <g id="Grupo_1226261" data-name="Grupo 1226261">
          <path id="Trazado_1179065" data-name="Trazado 1179065" d="M50.03,30.75a.753.753,0,0,1-.6-.3c-.66-.87-6.42-8.58-6.42-12.19a7.02,7.02,0,0,1,14.04,0c0,3.61-5.76,11.32-6.42,12.19a.768.768,0,0,1-.6.3Zm0-18a5.531,5.531,0,0,0-5.52,5.52c0,2.36,3.56,7.77,5.52,10.47,1.96-2.7,5.52-8.11,5.52-10.47A5.538,5.538,0,0,0,50.03,12.75Zm0,8.27a2.75,2.75,0,1,1,2.75-2.75A2.748,2.748,0,0,1,50.03,21.02Zm0-4a1.25,1.25,0,1,0,1.25,1.25A1.25,1.25,0,0,0,50.03,17.02Z"/>
        </g>
        <g id="Grupo_1226262" data-name="Grupo 1226262">
          <path id="Trazado_1179066" data-name="Trazado 1179066" d="M29.03,45.48C15.39,45.48,1.28,41.94,1.28,36s14.11-9.48,27.75-9.48S56.78,30.07,56.78,36a.75.75,0,0,1-1.5,0c0-3.85-10.55-7.98-26.25-7.98S2.78,32.15,2.78,36s10.55,7.98,26.25,7.98a78.293,78.293,0,0,0,9.58-.57.751.751,0,1,1,.19,1.49,81.556,81.556,0,0,1-9.77.58Z"/>
        </g>
        <g id="Grupo_1226263" data-name="Grupo 1226263">
          <path id="Trazado_1179067" data-name="Trazado 1179067" d="M29.03,63.75A27.753,27.753,0,0,1,5.41,21.43a.748.748,0,1,1,1.27.79A26.252,26.252,0,0,0,40.1,59.8a.753.753,0,0,1,1,.36.762.762,0,0,1-.36,1,27.548,27.548,0,0,1-11.71,2.59Z"/>
        </g>
        <g id="Grupo_1226264" data-name="Grupo 1226264">
          <path id="Trazado_1179068" data-name="Trazado 1179068" d="M45.15,15.09a.76.76,0,0,1-.45-.15,26.285,26.285,0,0,0-24.49-3.67.75.75,0,1,1-.51-1.41,27.781,27.781,0,0,1,25.9,3.88.75.75,0,0,1,.15,1.05.783.783,0,0,1-.6.3Z"/>
        </g>
        <g id="Grupo_1226265" data-name="Grupo 1226265">
          <path id="Trazado_1179069" data-name="Trazado 1179069" d="M56.03,36.75a.755.755,0,0,1-.75-.75A25.977,25.977,0,0,0,52.9,25.07a.747.747,0,1,1,1.36-.62,27.533,27.533,0,0,1,2.52,11.56.753.753,0,0,1-.75.74Z"/>
        </g>
      </g>
    </g>
  </g>
</svg>
