<svg xmlns="http://www.w3.org/2000/svg" xmlns:xlink="http://www.w3.org/1999/xlink" width="106.16" height="106.16" viewBox="0 0 106.16 106.16">
  <defs>
    <filter id="Trazado_982547" x="0" y="0" width="106.16" height="106.16" filterUnits="userSpaceOnUse">
      <feOffset dy="3" input="SourceAlpha"/>
      <feGaussianBlur stdDeviation="3" result="blur"/>
      <feFlood flood-opacity="0.161"/>
      <feComposite operator="in" in2="blur"/>
      <feComposite in="SourceGraphic"/>
    </filter>
  </defs>
  <g id="Grupo_1226419" data-name="Grupo 1226419" transform="translate(-190.42 -694)">
    <g id="Grupo_1224871" data-name="Grupo 1224871" transform="translate(-420.5 -1187.069)">
      <g id="Grupo_1206132" data-name="Grupo 1206132" transform="translate(0 -58.931)">
        <g id="Grupo_1203794" data-name="Grupo 1203794" transform="translate(0 -4639.878)">
          <g id="Grupo_1203345" data-name="Grupo 1203345" transform="translate(338.92 5174.875)">
            <g id="Grupo_1177900" data-name="Grupo 1177900" transform="translate(281 1411.003)">
              <g id="Grupo_1172010" data-name="Grupo 1172010" transform="translate(0)">
                <g id="Grupo_1171046" data-name="Grupo 1171046">
                  <g id="Grupo_1148525" data-name="Grupo 1148525">
                    <g transform="matrix(1, 0, 0, 1, -9, -6)" filter="url(#Trazado_982547)">
                      <g id="Trazado_982547-2" data-name="Trazado 982547" transform="translate(9 6)" fill="#e9f9fd">
                        <path d="M 44.0802001953125 86.660400390625 C 38.33124923706055 86.660400390625 32.75506210327148 85.53479766845703 27.50652503967285 83.31484985351562 C 22.43628692626953 81.17032623291016 17.88242530822754 78.09992218017578 13.97144985198975 74.18894958496094 C 10.06047534942627 70.27797698974609 6.99007511138916 65.72411346435547 4.845550060272217 60.65387344360352 C 2.625600099563599 55.40533828735352 1.500000238418579 49.82915115356445 1.500000238418579 44.0802001953125 C 1.500000238418579 38.33124923706055 2.625600099563599 32.75506210327148 4.845550060272217 27.50652503967285 C 6.99007511138916 22.43628692626953 10.06047534942627 17.88242530822754 13.97144985198975 13.97144985198975 C 17.88242530822754 10.06047534942627 22.43628692626953 6.99007511138916 27.50652503967285 4.845550060272217 C 32.75506210327148 2.625600099563599 38.33124923706055 1.500000238418579 44.0802001953125 1.500000238418579 C 49.82915115356445 1.500000238418579 55.40533828735352 2.625600099563599 60.65387344360352 4.845550060272217 C 65.72411346435547 6.99007511138916 70.27797698974609 10.06047534942627 74.18894958496094 13.97144985198975 C 78.09992218017578 17.88242530822754 81.17032623291016 22.43628692626953 83.31484985351562 27.50652503967285 C 85.53479766845703 32.75506210327148 86.660400390625 38.33124923706055 86.660400390625 44.0802001953125 C 86.660400390625 49.82915115356445 85.53479766845703 55.40533828735352 83.31484985351562 60.65387344360352 C 81.17032623291016 65.72411346435547 78.09992218017578 70.27797698974609 74.18894958496094 74.18894958496094 C 70.27797698974609 78.09992218017578 65.72411346435547 81.17032623291016 60.65387344360352 83.31484985351562 C 55.40533828735352 85.53479766845703 49.82915115356445 86.660400390625 44.0802001953125 86.660400390625 Z" stroke="none"/>
                        <path d="M 44.0802001953125 3 C 38.53308486938477 3 33.15349960327148 4.085746765136719 28.09085845947266 6.227058410644531 C 23.19941711425781 8.29595947265625 18.80581665039062 11.25841522216797 15.03211212158203 15.03211212158203 C 11.25841522216797 18.80581665039062 8.29595947265625 23.19941711425781 6.227058410644531 28.09085845947266 C 4.085746765136719 33.15349960327148 3 38.53308486938477 3 44.0802001953125 C 3 49.62731552124023 4.085746765136719 55.00691604614258 6.227058410644531 60.06954193115234 C 8.29595947265625 64.96098327636719 11.25841522216797 69.35458374023438 15.03211212158203 73.12828826904297 C 18.80581665039062 76.90198516845703 23.19941711425781 79.86444091796875 28.09085845947266 81.93334197998047 C 33.15349960327148 84.07466125488281 38.53308486938477 85.160400390625 44.0802001953125 85.160400390625 C 49.62731552124023 85.160400390625 55.00691604614258 84.07466125488281 60.06954193115234 81.93334197998047 C 64.96099853515625 79.86444091796875 69.35458374023438 76.90198516845703 73.12828826904297 73.12828826904297 C 76.90198516845703 69.35458374023438 79.86444091796875 64.96099853515625 81.93334197998047 60.06954193115234 C 84.07466125488281 55.00691604614258 85.160400390625 49.62731552124023 85.160400390625 44.0802001953125 C 85.160400390625 38.53308486938477 84.07466125488281 33.15349960327148 81.93334197998047 28.09085845947266 C 79.86444091796875 23.19941711425781 76.90198516845703 18.80581665039062 73.12828826904297 15.03211212158203 C 69.35458374023438 11.25841522216797 64.96098327636719 8.29595947265625 60.06954193115234 6.227058410644531 C 55.00691604614258 4.085746765136719 49.62731552124023 3 44.0802001953125 3 M 44.0802001953125 0 C 68.42502593994141 0 88.160400390625 19.73538970947266 88.160400390625 44.0802001953125 C 88.160400390625 68.42502593994141 68.42502593994141 88.160400390625 44.0802001953125 88.160400390625 C 19.73538970947266 88.160400390625 0 68.42502593994141 0 44.0802001953125 C 0 19.73538970947266 19.73538970947266 0 44.0802001953125 0 Z" stroke="none" fill="#1d7083"/>
                      </g>
                    </g>
                  </g>
                </g>
              </g>
            </g>
          </g>
        </g>
      </g>
    </g>
    <g id="la-politica-fiscal" transform="translate(202.974 712.469)">
      <g id="Grupo_1226417" data-name="Grupo 1226417" transform="translate(18.429 0.845)">
        <path id="Trazado_1180069" data-name="Trazado 1180069" d="M19.314,117.458H63.507v4.347H19.314Z" transform="translate(-19.314 -60.246)" fill="#396973"/>
        <path id="Trazado_1180070" data-name="Trazado 1180070" d="M28.769,65.863h6.06V87.015h-6.06Z" transform="translate(-24.094 -34.163)" fill="#ffefa0"/>
        <path id="Trazado_1180071" data-name="Trazado 1180071" d="M34.77,113H23.352v-2.877l1.483-1.483h8.451l1.483,1.483Z" transform="translate(-21.355 -55.787)" fill="#fc6"/>
        <path id="Trazado_1180072" data-name="Trazado 1180072" d="M57.872,65.863h6.06V87.015h-6.06Z" transform="translate(-38.806 -34.163)" fill="#ffefa0"/>
        <path id="Trazado_1180073" data-name="Trazado 1180073" d="M63.873,113H52.455v-2.877l1.483-1.483h8.451l1.483,1.483Z" transform="translate(-36.067 -55.787)" fill="#fc6"/>
        <path id="Trazado_1180074" data-name="Trazado 1180074" d="M86.975,65.863h6.06V87.015h-6.06Z" transform="translate(-53.518 -34.163)" fill="#ffefa0"/>
        <path id="Trazado_1180075" data-name="Trazado 1180075" d="M92.976,113H81.558v-2.877l1.483-1.483h8.451l1.483,1.483Z" transform="translate(-50.78 -55.787)" fill="#fc6"/>
        <path id="Trazado_1180076" data-name="Trazado 1180076" d="M63.762,12.385A10.631,10.631,0,1,0,50.955,22.793l2.176,2.7,2.172-2.7A10.635,10.635,0,0,0,63.762,12.385Z" transform="translate(-31.034 -1.756)" fill="#a6d12d"/>
        <path id="Trazado_1180077" data-name="Trazado 1180077" d="M46.971,41.574a10.567,10.567,0,0,1-3.388,1.347l-2.172,2.7-2.173-2.7a10.571,10.571,0,0,1-3.388-1.348L19.314,48.481v5.1H63.507v-5.1Z" transform="translate(-19.314 -21.885)" fill="#396973"/>
        <g id="Grupo_1226416" data-name="Grupo 1226416" transform="translate(14.176 5.129)">
          <path id="Trazado_1180078" data-name="Trazado 1180078" d="M62.962,16.949h-.989V15.466h.665a.865.865,0,0,0,0-1.731H61.97a.863.863,0,0,0-1.725,0H57v-.742a.865.865,0,0,0-1.731,0v.742H52.019a.863.863,0,0,0-1.725,0h-.668a.865.865,0,0,0,0,1.731h.665v1.483H49.3a.866.866,0,0,0-.865.865v1.329a2.72,2.72,0,1,0,5.439,0V17.815a.865.865,0,0,0-.865-.865h-.989V15.466h3.245v6.861H53.83a.865.865,0,0,0,0,1.731h4.605a.865.865,0,0,0,0-1.731H57V15.466h3.245v1.483h-.989a.865.865,0,0,0-.865.865v1.329a2.72,2.72,0,1,0,5.439,0V17.815a.865.865,0,0,0-.865-.865ZM52.146,18.68v.463a.989.989,0,1,1-1.978,0V18.68Zm9.951.463a.989.989,0,1,1-1.978,0V18.68H62.1Z" transform="translate(-48.213 -12.128)" fill="#ffefa0"/>
          <path id="Trazado_1180079" data-name="Trazado 1180079" d="M63.823,60.559H47.983V57.842l2.472-2.472h10.9l2.472,2.472Z" transform="translate(-47.983 -33.988)" fill="#ffefa0"/>
        </g>
      </g>
      <g id="Grupo_1226418" data-name="Grupo 1226418" transform="translate(17.564 -0.046)">
        <path id="Trazado_1180080" data-name="Trazado 1180080" d="M62.622,57.192h-1.13V55.18a.863.863,0,0,0-.254-.612l-1.483-1.483a.863.863,0,0,0-.612-.254h-.33V33.41h3.807a.865.865,0,0,0,.865-.865v-5.1a.865.865,0,0,0-.532-.8l-3.2-1.335a.865.865,0,1,0-.667,1.6l2.67,1.115v3.662H49.311V29.829a.866.866,0,0,0-.253-.612l-2.472-2.472a.867.867,0,0,0-.612-.253H35.078a.865.865,0,0,0-.612.253l-2.472,2.472a.865.865,0,0,0-.253.612v1.85H19.295V28.017L34.9,21.5a12.132,12.132,0,0,0,2.97,1.162l1.982,2.46a.865.865,0,0,0,1.347,0l1.983-2.46a12.167,12.167,0,0,0,2.97-1.162l8.427,3.52a.865.865,0,1,0,.667-1.6l-7.412-3.1a11.5,11.5,0,1,0-14.618,0L18.1,26.642a.865.865,0,0,0-.532.8v5.1a.865.865,0,0,0,.865.865h3.807v5.254a.865.865,0,1,0,1.731,0V33.41H28.3V52.831H23.97V50.137a.865.865,0,0,0-1.731,0v2.693h-.33a.866.866,0,0,0-.612.253l-1.483,1.483a.866.866,0,0,0-.253.612v2.012H18.429a.865.865,0,0,0-.865.865V62.4a.865.865,0,0,0,.865.865H62.622a.865.865,0,0,0,.865-.865V58.057A.865.865,0,0,0,62.622,57.192ZM30.759,11.474a9.767,9.767,0,1,1,11.764,9.561.864.864,0,0,0-.5.3l-1.5,1.86-1.5-1.861a.865.865,0,0,0-.5-.3,9.831,9.831,0,0,1-7.77-9.559Zm29,44.064v1.654H50.072V55.538l.977-.977h7.735ZM47.1,57.192V55.18a.867.867,0,0,0-.254-.612l-1.483-1.483a.866.866,0,0,0-.612-.253h-.33V33.41h6.6V52.831h-.33a.863.863,0,0,0-.612.254l-1.483,1.483a.866.866,0,0,0-.254.612v2.012ZM38.361,33.41h4.33V52.831h-4.33Zm-1.7,21.152h7.734l.977.976v1.654H35.682V55.538ZM57.081,33.41V52.831H52.752V33.41Zm-23.61-3.221,1.966-1.966H45.615l1.965,1.966v1.492H33.471ZM30.03,33.412h6.6V52.833H36.3a.866.866,0,0,0-.612.253L34.2,54.569a.866.866,0,0,0-.253.612v2.012H32.709V55.182a.866.866,0,0,0-.254-.612l-1.483-1.483a.865.865,0,0,0-.612-.253h-.33ZM21.29,55.538l.977-.977H30l.977.977v1.654H21.29Zm40.466,6H19.295V58.922H61.757Z" transform="translate(-17.564 0.046)"/>
        <path id="Trazado_1180081" data-name="Trazado 1180081" d="M27.884,89.794a.865.865,0,0,0,.865-.865V86.47a.865.865,0,1,0-1.731,0v2.458A.866.866,0,0,0,27.884,89.794Z" transform="translate(-22.344 -43.252)"/>
        <path id="Trazado_1180082" data-name="Trazado 1180082" d="M51.157,21.863a2.723,2.723,0,0,0,2.72-2.72V17.815a.865.865,0,0,0-.865-.865h-.989V15.466h3.245v6.861H53.83a.865.865,0,0,0,0,1.731h4.605a.865.865,0,1,0,0-1.731H57V15.466h3.245v1.483h-.989a.865.865,0,0,0-.865.865v1.329a2.72,2.72,0,0,0,5.439,0V17.815a.865.865,0,0,0-.865-.865h-.989V15.466h.665a.865.865,0,0,0,0-1.731H61.97a.863.863,0,0,0-1.725,0H57v-.742a.865.865,0,0,0-1.731,0v.742H52.019a.863.863,0,0,0-1.725,0h-.668a.865.865,0,0,0,0,1.731h.665v1.483H49.3a.866.866,0,0,0-.865.865v1.329A2.723,2.723,0,0,0,51.157,21.863Zm10.94-2.72a.989.989,0,1,1-1.978,0V18.68H62.1ZM50.168,18.68h1.978v.463a.989.989,0,1,1-1.978,0Z" transform="translate(-33.171 -6.108)"/>
      </g>
    </g>
  </g>
</svg>
