<svg xmlns="http://www.w3.org/2000/svg" xmlns:xlink="http://www.w3.org/1999/xlink" width="108" height="108" viewBox="0 0 108 108">
  <defs>
    <filter id="Trazado_904820" x="0" y="0" width="108" height="108" filterUnits="userSpaceOnUse">
      <feOffset dy="3" input="SourceAlpha"/>
      <feGaussianBlur stdDeviation="3" result="blur"/>
      <feFlood flood-opacity="0.161"/>
      <feComposite operator="in" in2="blur"/>
      <feComposite in="SourceGraphic"/>
    </filter>
  </defs>
  <g id="Grupo_1226274" data-name="Grupo 1226274" transform="translate(-199.058 -495)">
    <g id="Grupo_1225440" data-name="Grupo 1225440" transform="translate(208.058 501)">
      <g id="Grupo_1225100" data-name="Grupo 1225100" transform="translate(0 0)">
        <g id="Grupo_1219746" data-name="Grupo 1219746" transform="translate(0 0)">
          <g id="Grupo_1202418" data-name="Grupo 1202418">
            <g id="Grupo_1177315" data-name="Grupo 1177315">
              <g id="Grupo_1173585" data-name="Grupo 1173585">
                <g id="Grupo_1173428" data-name="Grupo 1173428">
                  <g id="Grupo_1171958" data-name="Grupo 1171958">
                    <g id="Grupo_1167341" data-name="Grupo 1167341">
                      <g id="Grupo_1166792" data-name="Grupo 1166792">
                        <g transform="matrix(1, 0, 0, 1, -9, -6)" filter="url(#Trazado_904820)">
                          <g id="Trazado_904820-2" data-name="Trazado 904820" transform="translate(9 6)" fill="#e9f9fd">
                            <path d="M 44.99999618530273 88.49996948242188 C 39.12687301635742 88.49996948242188 33.43022155761719 87.35004425048828 28.06829643249512 85.08214569091797 C 22.88852119445801 82.89128112792969 18.23629570007324 79.75457000732422 14.24084663391113 75.75911712646484 C 10.24540901184082 71.763671875 7.108683586120605 67.11144256591797 4.917821407318115 61.93168258666992 C 2.649921178817749 56.56974411010742 1.499996185302734 50.87310409545898 1.499996185302734 44.99998092651367 C 1.499996185302734 39.12685775756836 2.649921178817749 33.43020629882812 4.917821407318115 28.06828117370605 C 7.108683586120605 22.88851928710938 10.24540901184082 18.23629379272461 14.24084663391113 14.24084377288818 C 18.23629570007324 10.24540615081787 22.88852119445801 7.108693599700928 28.06829643249512 4.917830944061279 C 33.43022155761719 2.649930953979492 39.12687301635742 1.500005960464478 44.99999618530273 1.500005960464478 C 50.87311935424805 1.500005960464478 56.56977081298828 2.649930953979492 61.93169784545898 4.917830944061279 C 67.11147308349609 7.108693599700928 71.76369476318359 10.24540615081787 75.75914764404297 14.24084377288818 C 79.75458526611328 18.23629379272461 82.89131164550781 22.88851928710938 85.08216857910156 28.06828117370605 C 87.35007476806641 33.43020629882812 88.5 39.12685775756836 88.5 44.99998092651367 C 88.5 50.87310409545898 87.35007476806641 56.56974411010742 85.08216857910156 61.93168258666992 C 82.89131164550781 67.11144256591797 79.75458526611328 71.763671875 75.75914764404297 75.75911712646484 C 71.76369476318359 79.75457000732422 67.11147308349609 82.89128112792969 61.93169784545898 85.08214569091797 C 56.56977081298828 87.35004425048828 50.87311935424805 88.49996948242188 44.99999618530273 88.49996948242188 Z" stroke="none"/>
                            <path d="M 44.99999618530273 2.999992370605469 C 39.32870864868164 2.999992370605469 33.82865142822266 4.110054016113281 28.65262603759766 6.299324035644531 C 23.65165710449219 8.414566040039062 19.15968322753906 11.44332122802734 15.301513671875 15.30150604248047 C 11.44333648681641 19.15968322753906 8.414566040039062 23.65164184570312 6.299339294433594 28.65261077880859 C 4.110054016113281 33.82863616943359 2.999992370605469 39.32869338989258 2.999992370605469 44.99998092651367 C 2.999992370605469 50.67126846313477 4.110054016113281 56.17131042480469 6.299339294433594 61.34735107421875 C 8.414566040039062 66.34832763671875 11.44333648681641 70.84027862548828 15.301513671875 74.69845581054688 C 19.15968322753906 78.55662536621094 23.65165710449219 81.58539581298828 28.65262603759766 83.70062255859375 C 33.82865142822266 85.88990783691406 39.32870864868164 86.99996948242188 44.99999618530273 86.99996948242188 C 50.67128372192383 86.99996948242188 56.17134094238281 85.88990783691406 61.34736633300781 83.70062255859375 C 66.34834289550781 81.58539581298828 70.84030914306641 78.55662536621094 74.69847869873047 74.69845581054688 C 78.55665588378906 70.84027862548828 81.58542633056641 66.34832763671875 83.70065307617188 61.34735107421875 C 85.88993835449219 56.17131042480469 87 50.67126846313477 87 44.99998092651367 C 87 39.32869338989258 85.88993835449219 33.82863616943359 83.70065307617188 28.65261077880859 C 81.58542633056641 23.65164184570312 78.55665588378906 19.15968322753906 74.69847869873047 15.30150604248047 C 70.84030914306641 11.44332122802734 66.34834289550781 8.414566040039062 61.34736633300781 6.299324035644531 C 56.17134094238281 4.110054016113281 50.67128372192383 2.999992370605469 44.99999618530273 2.999992370605469 M 44.99999618530273 -7.62939453125e-06 C 69.85281372070312 -7.62939453125e-06 90 20.14716339111328 90 44.99998092651367 C 90 69.852783203125 69.85281372070312 89.99996948242188 44.99999618530273 89.99996948242188 C 20.14717864990234 89.99996948242188 -7.62939453125e-06 69.852783203125 -7.62939453125e-06 44.99998092651367 C -7.62939453125e-06 20.14716339111328 20.14717864990234 -7.62939453125e-06 44.99999618530273 -7.62939453125e-06 Z" stroke="none" fill="#1d7083"/>
                          </g>
                        </g>
                      </g>
                    </g>
                  </g>
                </g>
              </g>
            </g>
          </g>
        </g>
      </g>
    </g>
    <g id="margen-de-beneficio" transform="translate(223.368 513.141)">
      <g id="Grupo_1226273" data-name="Grupo 1226273" transform="translate(1.899 5.469)">
        <g id="Grupo_1226268" data-name="Grupo 1226268" transform="translate(0 1.472)">
          <path id="Trazado_1179070" data-name="Trazado 1179070" d="M194.233,329.278a25.98,25.98,0,0,0,29.693-17.141l-8.242-2.209a17.457,17.457,0,0,1-19.243,11.108Z" transform="translate(-173.392 -277.943)" fill="#ffda2d" fill-rule="evenodd"/>
          <path id="Trazado_1179071" data-name="Trazado 1179071" d="M210.44,322.472A18.945,18.945,0,0,0,231.5,310.313l-1.436-.385a17.457,17.457,0,0,1-19.243,11.108Z" transform="translate(-187.775 -277.943)" fill="#ffc700" fill-rule="evenodd"/>
          <path id="Trazado_1179072" data-name="Trazado 1179072" d="M278.094,56.65a25.963,25.963,0,0,0-23.788-31v8.529a17.45,17.45,0,0,1,15.546,20.259Z" transform="translate(-226.706 -25.654)" fill="#64b5f6" fill-rule="evenodd"/>
          <path id="Trazado_1179073" data-name="Trazado 1179073" d="M271.289,110.381a18.935,18.935,0,0,0-16.983-22.13v1.486A17.45,17.45,0,0,1,269.852,110Z" transform="translate(-226.706 -81.208)" fill="#42a5f5" fill-rule="evenodd"/>
          <path id="Trazado_1179074" data-name="Trazado 1179074" d="M44.006,25.655A25.962,25.962,0,0,0,21.073,43.246l8.241,2.208a17.455,17.455,0,0,1,14.692-11.27Z" transform="translate(-19.715 -25.655)" fill="#72d561" fill-rule="evenodd"/>
          <path id="Trazado_1179075" data-name="Trazado 1179075" d="M81.548,100.622l1.437.385a17.455,17.455,0,0,1,14.692-11.27V88.251A18.936,18.936,0,0,0,81.548,100.622Z" transform="translate(-73.385 -81.208)" fill="#3cbe52" fill-rule="evenodd"/>
          <path id="Trazado_1179076" data-name="Trazado 1179076" d="M9.5,210.407a26.035,26.035,0,0,0,2.188,16.62l7.388-4.265a17.5,17.5,0,0,1-1.334-10.146Z" transform="translate(-9 -189.62)" fill="#fc685b" fill-rule="evenodd"/>
          <path id="Trazado_1179077" data-name="Trazado 1179077" d="M71.714,226.614A18.989,18.989,0,0,0,73.2,237.888l1.287-.743A17.5,17.5,0,0,1,73.151,227Z" transform="translate(-64.406 -204.003)" fill="#f35244" fill-rule="evenodd"/>
          <path id="Trazado_1179078" data-name="Trazado 1179078" d="M47.644,349.939a26.015,26.015,0,0,0,13.3,10.208l2.208-8.242a17.493,17.493,0,0,1-8.117-6.232Z" transform="translate(-43.296 -309.667)" fill="#ff94d5" fill-rule="evenodd"/>
          <path id="Trazado_1179079" data-name="Trazado 1179079" d="M101.867,346.416a18.975,18.975,0,0,0,9.019,6.925l.385-1.436a17.492,17.492,0,0,1-8.117-6.232Z" transform="translate(-91.418 -309.666)" fill="#ff72c7" fill-rule="evenodd"/>
        </g>
        <g id="Grupo_1226269" data-name="Grupo 1226269" transform="translate(43.56 50.577)">
          <path id="Trazado_1179080" data-name="Trazado 1179080" d="M402,462.088h-5.4a.451.451,0,0,0-.45.45v3.3a.451.451,0,0,0,.45.45H402a.451.451,0,0,0,.45-.45v-3.3A.451.451,0,0,0,402,462.088Z" transform="translate(-396.152 -462.088)" fill="#ffda2d" fill-rule="evenodd"/>
          <path id="Trazado_1179081" data-name="Trazado 1179081" d="M402,462.088h-.35v2.991a.451.451,0,0,1-.45.45h-5.053v.311a.451.451,0,0,0,.45.45H402a.451.451,0,0,0,.45-.45v-3.3A.451.451,0,0,0,402,462.088Z" transform="translate(-396.152 -462.088)" fill="#ffc700" fill-rule="evenodd"/>
        </g>
        <g id="Grupo_1226270" data-name="Grupo 1226270" transform="translate(43.919 0)">
          <path id="Trazado_1179082" data-name="Trazado 1179082" d="M405.2,12.568h-5.4a.451.451,0,0,0-.45.45v3.3a.451.451,0,0,0,.45.45h5.4a.451.451,0,0,0,.45-.45v-3.3a.451.451,0,0,0-.45-.45Z" transform="translate(-399.346 -12.568)" fill="#64b5f6" fill-rule="evenodd"/>
          <path id="Trazado_1179083" data-name="Trazado 1179083" d="M405.2,12.568h-.35v2.991a.451.451,0,0,1-.45.45h-5.053v.311a.451.451,0,0,0,.45.45h5.4a.451.451,0,0,0,.45-.45v-3.3a.451.451,0,0,0-.45-.45Z" transform="translate(-399.346 -12.568)" fill="#42a5f5" fill-rule="evenodd"/>
        </g>
        <g id="Grupo_1226272" data-name="Grupo 1226272" transform="translate(12.862 14.281)">
          <circle id="Elipse_12639" data-name="Elipse 12639" cx="13.084" cy="13.084" r="13.084" transform="translate(0 0)" fill="#fdb800"/>
          <path id="Trazado_1179084" data-name="Trazado 1179084" d="M169.5,167.232a13.083,13.083,0,1,1-18.443,18.443A13.083,13.083,0,0,0,169.5,167.232Z" transform="translate(-147.936 -164.111)" fill="#f4a40e" fill-rule="evenodd"/>
          <circle id="Elipse_12640" data-name="Elipse 12640" cx="9.132" cy="9.132" r="9.132" transform="translate(3.952 3.952)" fill="#ffda2d"/>
          <g id="Grupo_1226271" data-name="Grupo 1226271" transform="translate(3.952 3.952)">
            <path id="Trazado_1179085" data-name="Trazado 1179085" d="M167.567,174.61a9.107,9.107,0,0,1,6.686,2.913,9.132,9.132,0,0,0-12.1,13.575,9.132,9.132,0,0,1,5.411-16.489Z" transform="translate(-158.435 -174.61)" fill="#ffc700" fill-rule="evenodd"/>
            <path id="Trazado_1179086" data-name="Trazado 1179086" d="M208.091,207.265a.917.917,0,0,1,1.833,0v.76a2.86,2.86,0,0,1,1.752,1.12.915.915,0,1,1-1.482,1.074,1.006,1.006,0,0,0-.353-.308.977.977,0,0,0-.448-.1h-.6a.985.985,0,0,0,0,1.97h.425a2.819,2.819,0,0,1,.7,5.547v.8a.917.917,0,0,1-1.833,0v-.76a2.86,2.86,0,0,1-1.752-1.12.915.915,0,0,1,1.482-1.074,1.006,1.006,0,0,0,.353.307.977.977,0,0,0,.448.1h.6a.985.985,0,0,0,0-1.97H208.8a2.819,2.819,0,0,1-.7-5.547v-.8Z" transform="translate(-200.628 -202.777)" fill="#ffc700" fill-rule="evenodd"/>
          </g>
        </g>
      </g>
      <path id="Trazado_1179087" data-name="Trazado 1179087" d="M50.862,59.348h-4.5v-2.4h4.5ZM27.845,57.879a25.028,25.028,0,0,0,13.39-3.872V51.084a.9.9,0,1,1,1.8,0v1.67a24.988,24.988,0,0,0,8.222-11L44.731,40A18.354,18.354,0,0,1,25.611,51.039l-1.748,6.525a25.278,25.278,0,0,0,3.982.315Zm23.467-2.732h-5.4a1.352,1.352,0,0,0-1.35,1.35v.75H43.035v-2.27A26.794,26.794,0,0,0,53.287,41.422a.9.9,0,0,0-.62-1.156l-8.242-2.209a.9.9,0,0,0-1.077.555A16.559,16.559,0,0,1,25.1,49.147a.9.9,0,0,0-1.018.655l-2.208,8.241a.9.9,0,0,0,.693,1.116,26.952,26.952,0,0,0,18.671-3.05v2.039a.9.9,0,0,0,.9.9h2.424v.75a1.352,1.352,0,0,0,1.35,1.35h5.4a1.351,1.351,0,0,0,1.35-1.35V56.5a1.351,1.351,0,0,0-1.35-1.35Zm6.71,5.1a.9.9,0,0,1-.9.9H54.914a.9.9,0,1,1,0-1.8h2.209A.9.9,0,0,1,58.022,60.248ZM54.372,5.47a.9.9,0,0,1,.9-.9h2.209a.9.9,0,1,1,0,1.8H55.272A.9.9,0,0,1,54.372,5.47ZM24.831,30.931a2.807,2.807,0,0,1,2.114-2.716v-.81a.9.9,0,0,1,1.8,0v.773A2.816,2.816,0,0,1,30.5,29.294a.9.9,0,0,1-1.459,1.055,1,1,0,0,0-.812-.42h-.6a1,1,0,0,0,0,2h.426a2.8,2.8,0,0,1,.687,5.519v.81a.9.9,0,0,1-1.8,0v-.773a2.817,2.817,0,0,1-1.757-1.116.9.9,0,0,1,1.459-1.055,1.008,1.008,0,0,0,.812.42h.6a1,1,0,0,0,0-2h-.426a2.8,2.8,0,0,1-2.8-2.8Zm3.014-6.33a8.232,8.232,0,1,1-8.232,8.232A8.242,8.242,0,0,1,27.845,24.6Zm0,18.264A10.032,10.032,0,1,1,37.878,32.833,10.044,10.044,0,0,1,27.845,42.866Zm0-22.216A12.184,12.184,0,1,1,15.661,32.833,12.2,12.2,0,0,1,27.845,20.65ZM13.861,32.833A13.984,13.984,0,1,1,27.845,46.817,14,14,0,0,1,13.861,32.833ZM58.022,53.871a.9.9,0,0,1-.9.9H53.271a.9.9,0,0,1,0-1.8h3.852A.9.9,0,0,1,58.022,53.871Zm0,3.189a.9.9,0,0,1-.9.9H54.914a.9.9,0,0,1,0-1.8h2.209A.9.9,0,0,1,58.022,57.06Zm.359-45.213a.9.9,0,0,1-.9.9h-3.85a.9.9,0,1,1,0-1.8h3.85A.9.9,0,0,1,58.382,11.847Zm0-3.188a.9.9,0,0,1-.9.9H55.272a.9.9,0,0,1,0-1.8h2.209A.9.9,0,0,1,58.382,8.658ZM18.927,56.244l1.748-6.523a18.293,18.293,0,0,1-7.283-5.592L7.545,47.5A25.241,25.241,0,0,0,18.927,56.244Zm3.139-7.907a.9.9,0,0,1,.555,1.077l-2.208,8.242a.9.9,0,0,1-1.157.62A27.016,27.016,0,0,1,5.5,47.713a.9.9,0,0,1,.3-1.279l7.387-4.264a.9.9,0,0,1,1.183.256A16.509,16.509,0,0,0,22.066,48.336ZM4.986,43.08,10.834,39.7A18.193,18.193,0,0,1,9.5,32.833,18.52,18.52,0,0,1,9.639,30.6L3.115,28.852A25.271,25.271,0,0,0,2.8,32.833,24.779,24.779,0,0,0,4.986,43.08Zm7.81-3.372a.9.9,0,0,1-.368,1.154L5.04,45.128a.9.9,0,0,1-1.256-.379A26.578,26.578,0,0,1,1,32.833a27.07,27.07,0,0,1,.52-5.28.9.9,0,0,1,1.116-.693l8.242,2.209a.9.9,0,0,1,.655,1.018,16.707,16.707,0,0,0-.228,2.746A16.4,16.4,0,0,0,12.8,39.709ZM25.29,7.918a24.929,24.929,0,0,0-20.856,16l6.524,1.747A18.357,18.357,0,0,1,25.29,14.67ZM3.025,25.4l8.241,2.209a.932.932,0,0,0,.233.03.9.9,0,0,0,.843-.586A16.625,16.625,0,0,1,26.275,16.366a.9.9,0,0,0,.816-.9V6.941a.9.9,0,0,0-.957-.9A26.863,26.863,0,0,0,2.4,24.244a.9.9,0,0,0,.62,1.157ZM30.4,7.919V14.67A18.346,18.346,0,0,1,46.187,32.833a18.579,18.579,0,0,1-.136,2.234l6.523,1.749a25.046,25.046,0,0,0-9.179-23.6v1.419a.9.9,0,1,1-1.8,0V11.909A24.822,24.822,0,0,0,30.4,7.919Zm16.32-1.55h4.5v2.4h-4.5Zm-17.3,10a.9.9,0,0,1-.816-.9V6.941a.9.9,0,0,1,.957-.9A26.723,26.723,0,0,1,41.6,9.771V7.57a.9.9,0,0,1,.9-.9h2.424V5.92a1.351,1.351,0,0,1,1.35-1.351h5.4a1.351,1.351,0,0,1,1.35,1.351v3.3a1.351,1.351,0,0,1-1.35,1.35h-5.4a1.351,1.351,0,0,1-1.35-1.35V8.47H43.4v2.478a27.065,27.065,0,0,1,3.989,3.478,26.73,26.73,0,0,1,7.307,18.407,27.053,27.053,0,0,1-.521,5.282.9.9,0,0,1-.882.723.918.918,0,0,1-.233-.03L44.813,36.6a.9.9,0,0,1-.655-1.018A16.547,16.547,0,0,0,29.415,16.366Z" transform="translate(0)" fill-rule="evenodd"/>
    </g>
  </g>
</svg>
