<svg xmlns="http://www.w3.org/2000/svg" xmlns:xlink="http://www.w3.org/1999/xlink" width="108" height="108" viewBox="0 0 108 108">
  <defs>
    <filter id="Trazado_904820" x="0" y="0" width="108" height="108" filterUnits="userSpaceOnUse">
      <feOffset dy="3" input="SourceAlpha"/>
      <feGaussianBlur stdDeviation="3" result="blur"/>
      <feFlood flood-opacity="0.161"/>
      <feComposite operator="in" in2="blur"/>
      <feComposite in="SourceGraphic"/>
    </filter>
  </defs>
  <g id="Grupo_1226415" data-name="Grupo 1226415" transform="translate(-199.5 -787.423)">
    <g id="Grupo_1225500" data-name="Grupo 1225500" transform="translate(0 -1037.577)">
      <g id="Grupo_1220078" data-name="Grupo 1220078" transform="translate(0 -1360.108)">
        <g id="Grupo_1219746" data-name="Grupo 1219746" transform="translate(0 1895.108)">
          <g id="Grupo_1202418" data-name="Grupo 1202418" transform="translate(-419.977 876.813)">
            <g id="Grupo_1177315" data-name="Grupo 1177315" transform="translate(-0.523 -112.813)">
              <g id="Grupo_1173585" data-name="Grupo 1173585" transform="translate(629 532)">
                <g id="Grupo_1173428" data-name="Grupo 1173428" transform="translate(0 0)">
                  <g id="Grupo_1171958" data-name="Grupo 1171958">
                    <g id="Grupo_1167341" data-name="Grupo 1167341">
                      <g id="Grupo_1166792" data-name="Grupo 1166792">
                        <g transform="matrix(1, 0, 0, 1, -9, -6)" filter="url(#Trazado_904820)">
                          <g id="Trazado_904820-2" data-name="Trazado 904820" transform="translate(9 6)" fill="#e9f9fd">
                            <path d="M 44.99999618530273 88.49999237060547 C 39.12687301635742 88.49999237060547 33.43022155761719 87.35006713867188 28.06829643249512 85.08216857910156 C 22.88852119445801 82.89130401611328 18.23629570007324 79.75457763671875 14.24084663391113 75.75914001464844 C 10.24540901184082 71.76369476318359 7.108683586120605 67.11146545410156 4.917821407318115 61.93169403076172 C 2.649921178817749 56.56976699829102 1.499996185302734 50.87311553955078 1.499996185302734 44.99999237060547 C 1.499996185302734 39.12686920166016 2.649921178817749 33.43021774291992 4.917821407318115 28.06829261779785 C 7.108683586120605 22.88851737976074 10.24540901184082 18.23630523681641 14.24084663391113 14.24085521697998 C 18.23629570007324 10.24540519714355 22.88852119445801 7.108692169189453 28.06829643249512 4.917829990386963 C 33.43022155761719 2.649929761886597 39.12687301635742 1.500004887580872 44.99999618530273 1.500004887580872 C 50.87311935424805 1.500004887580872 56.56977081298828 2.649929761886597 61.93169784545898 4.917829990386963 C 67.11147308349609 7.108692169189453 71.76369476318359 10.24540519714355 75.75914764404297 14.24085521697998 C 79.75458526611328 18.23630523681641 82.89131164550781 22.88851737976074 85.08216857910156 28.06829261779785 C 87.35007476806641 33.43021774291992 88.5 39.12686920166016 88.5 44.99999237060547 C 88.5 50.87311553955078 87.35007476806641 56.56976699829102 85.08216857910156 61.93169403076172 C 82.89131164550781 67.11146545410156 79.75458526611328 71.76369476318359 75.75914764404297 75.75914001464844 C 71.76369476318359 79.75457763671875 67.11147308349609 82.89130401611328 61.93169784545898 85.08216857910156 C 56.56977081298828 87.35006713867188 50.87311935424805 88.49999237060547 44.99999618530273 88.49999237060547 Z" stroke="none"/>
                            <path d="M 44.99999618530273 2.999992370605469 C 39.32870864868164 2.999992370605469 33.82865142822266 4.11004638671875 28.65262603759766 6.299331665039062 C 23.65165710449219 8.414566040039062 19.15968322753906 11.44333648681641 15.301513671875 15.30150604248047 C 11.44333648681641 19.15967559814453 8.414566040039062 23.65164947509766 6.299339294433594 28.65262222290039 C 4.110054016113281 33.82864761352539 2.999992370605469 39.32870483398438 2.999992370605469 44.99999237060547 C 2.999992370605469 50.67127990722656 4.110054016113281 56.17132186889648 6.299339294433594 61.34736633300781 C 8.414566040039062 66.34833526611328 11.44333648681641 70.84029388427734 15.301513671875 74.69846343994141 C 19.15968322753906 78.55663299560547 23.65165710449219 81.58540344238281 28.65262603759766 83.70063781738281 C 33.82865142822266 85.88992309570312 39.32870864868164 86.99997711181641 44.99999618530273 86.99997711181641 C 50.67128372192383 86.99997711181641 56.17134094238281 85.88992309570312 61.34736633300781 83.70063781738281 C 66.34834289550781 81.58540344238281 70.84030914306641 78.55663299560547 74.69847869873047 74.69846343994141 C 78.55665588378906 70.84029388427734 81.58542633056641 66.34833526611328 83.70065307617188 61.34736633300781 C 85.88993835449219 56.17132186889648 87 50.67127990722656 87 44.99999237060547 C 87 39.32870483398438 85.88993835449219 33.82864761352539 83.70065307617188 28.65262222290039 C 81.58542633056641 23.65164947509766 78.55665588378906 19.15967559814453 74.69847869873047 15.30150604248047 C 70.84030914306641 11.44333648681641 66.34834289550781 8.414566040039062 61.34736633300781 6.299331665039062 C 56.17134094238281 4.11004638671875 50.67128372192383 2.999992370605469 44.99999618530273 2.999992370605469 M 44.99999618530273 -7.62939453125e-06 C 69.85281372070312 -7.62939453125e-06 90 20.14717864990234 90 44.99999237060547 C 90 69.85279083251953 69.85281372070312 89.99997711181641 44.99999618530273 89.99997711181641 C 20.14717864990234 89.99997711181641 -7.62939453125e-06 69.85279083251953 -7.62939453125e-06 44.99999237060547 C -7.62939453125e-06 20.14717864990234 20.14717864990234 -7.62939453125e-06 44.99999618530273 -7.62939453125e-06 Z" stroke="none" fill="#1d7083"/>
                          </g>
                        </g>
                      </g>
                    </g>
                  </g>
                </g>
              </g>
            </g>
          </g>
        </g>
      </g>
    </g>
    <g id="economia_4_" data-name="economia (4)" transform="translate(219.731 803.957)">
      <g id="Grupo_1226409" data-name="Grupo 1226409" transform="translate(10.958 11.017)">
        <path id="Trazado_1180053" data-name="Trazado 1180053" d="M66.589,44.4a22.319,22.319,0,0,1-44.639,0q0-.438.016-.876A22.329,22.329,0,0,1,40.745,22.356a22.664,22.664,0,0,1,3.524-.276A22.319,22.319,0,0,1,66.589,44.4Z" transform="translate(-21.95 -22.08)" fill="#91c6fa"/>
        <g id="Grupo_1226408" data-name="Grupo 1226408" transform="translate(0 0)">
          <path id="Trazado_1180054" data-name="Trazado 1180054" d="M69.748,86.448l-1.213-.093a1.85,1.85,0,0,1-1.629-2.38,1.849,1.849,0,0,0-.188-1.493L64.64,79.048a1.851,1.851,0,0,1,.27-2.262l1.424-1.433a1.852,1.852,0,0,1,2.253-.29l.119.07a1.848,1.848,0,0,0,1.635.12l3.911-1.588a1.85,1.85,0,0,1,2.35.886l.577,1.146a1.85,1.85,0,0,1-.137,1.887l-5.633,8.077A1.85,1.85,0,0,1,69.748,86.448Z" transform="translate(-41.855 -46.221)" fill="#0fbf57"/>
          <path id="Trazado_1180055" data-name="Trazado 1180055" d="M84.624,44.4q0,.478-.02.952a1.927,1.927,0,0,1-2.738,1.636l-.431-.2a1.934,1.934,0,0,1-1.094-1.41l-.429-2.352a1.936,1.936,0,0,0-.637-1.115l-.72-.622A1.935,1.935,0,0,0,76,41.317l-3.966,3.54a1.933,1.933,0,0,1-1.393.488l-5.874-.318A1.934,1.934,0,0,1,62.941,43.2l-.332-6.023a1.932,1.932,0,0,0-.665-1.355l-.891-.772a1.933,1.933,0,0,1-.535-2.165l1.664-4.26a1.932,1.932,0,0,0-.228-1.829l-1.206-1.686a1.911,1.911,0,0,1,1.52-3.029H62.3A22.319,22.319,0,0,1,84.624,44.4Z" transform="translate(-39.985 -22.08)" fill="#0fbf57"/>
          <path id="Trazado_1180056" data-name="Trazado 1180056" d="M40.554,83.986a22.325,22.325,0,0,1-18.6-22.012q0-.438.016-.876l3.207,2.54a2.184,2.184,0,0,0,2.753-.032l4.306-3.579a2.185,2.185,0,0,1,3.291.6l.56.979a2.182,2.182,0,0,0,.55.637l1.413,1.106a2.185,2.185,0,0,1,.325,3.128l-1.026,1.221a2.184,2.184,0,0,0-.152,2.61l2.037,3.089a2.184,2.184,0,0,1,.234,1.936L38.5,78.036a2.183,2.183,0,0,0,.073,1.645Z" transform="translate(-21.95 -39.65)" fill="#0fbf57"/>
        </g>
      </g>
      <g id="Grupo_1226413" data-name="Grupo 1226413" transform="translate(-1.477 -1.498)">
        <g id="Grupo_1226411" data-name="Grupo 1226411" transform="translate(40.074 40.084)">
          <path id="Trazado_1180057" data-name="Trazado 1180057" d="M98.8,86.408c-.07,6.855-7.041,12.668-12.387,12.387-6.832-.358-12.387-5.546-12.387-12.387a12.387,12.387,0,0,1,24.775,0Z" transform="translate(-74.024 -74.021)" fill="#f9d37d"/>
          <g id="Grupo_1226410" data-name="Grupo 1226410" transform="translate(6.163 10.457)">
            <path id="Trazado_1180058" data-name="Trazado 1180058" d="M106.736,101.8h-2.654V94.253a.531.531,0,0,1,.531-.531h1.592a.531.531,0,0,1,.531.531Z" transform="translate(-94.291 -93.722)" fill="#91c6fa"/>
            <path id="Trazado_1180059" data-name="Trazado 1180059" d="M97.513,103.507H94.859V97.89a.531.531,0,0,1,.531-.531h1.592a.531.531,0,0,1,.531.531Z" transform="translate(-89.964 -95.429)" fill="#91c6fa"/>
            <path id="Trazado_1180060" data-name="Trazado 1180060" d="M88.29,105.371H85.636v-3.508a.531.531,0,0,1,.531-.531h1.592a.531.531,0,0,1,.531.531Z" transform="translate(-85.636 -97.293)" fill="#91c6fa"/>
          </g>
        </g>
        <g id="Grupo_1226412" data-name="Grupo 1226412" transform="translate(0)">
          <circle id="Elipse_12668" data-name="Elipse 12668" cx="12.387" cy="12.387" r="12.387" transform="translate(0 21.083) rotate(-58.28)" fill="#f9ac00"/>
          <circle id="Elipse_12669" data-name="Elipse 12669" cx="9.733" cy="9.733" r="9.733" transform="translate(7.314 7.325)" fill="#f9d37d"/>
        </g>
      </g>
      <g id="Grupo_1226414" data-name="Grupo 1226414" transform="translate(2.65 2.639)">
        <path id="Trazado_1180061" data-name="Trazado 1180061" d="M92.149,32.128a.531.531,0,0,0-.714.784,22,22,0,0,1,1.814,1.858.531.531,0,0,0,.8-.7A23.156,23.156,0,0,0,92.149,32.128Z" transform="translate(-46.17 -18.357)"/>
        <path id="Trazado_1180062" data-name="Trazado 1180062" d="M40.969,90.038A26.673,26.673,0,0,1,11.192,64.932l1.16,1.092a.531.531,0,0,0,.728-.773l-2.092-1.968a.531.531,0,0,0-.743.018l-.006,0L8.272,65.4a.531.531,0,1,0,.773.728l1.085-1.155A27.734,27.734,0,0,0,41.095,91.091a.531.531,0,0,0-.126-1.054Z" transform="translate(-7.157 -32.968)"/>
        <path id="Trazado_1180063" data-name="Trazado 1180063" d="M56.373,13.157A26.662,26.662,0,0,1,86.734,38.265l-1.168-1.1a.531.531,0,1,0-.728.773l2.091,1.968a.531.531,0,0,0,.747-.02l1.969-2.09a.531.531,0,1,0-.773-.728l-1.083,1.15a27.724,27.724,0,0,0-31.57-26.114.531.531,0,1,0,.149,1.051Z" transform="translate(-29.508 -8.894)"/>
        <path id="Trazado_1180064" data-name="Trazado 1180064" d="M83.463,90.133a.531.531,0,0,0,.712.237L96.44,84.239l-.178.62a.531.531,0,0,0,1.021.292l.255-.891.255-.891a.564.564,0,0,0-.042-.392.58.58,0,0,0-.311-.258c-.106-.033-1.845-.531-1.792-.515a.531.531,0,1,0-.292,1.021l.471.134L83.7,89.421A.531.531,0,0,0,83.463,90.133Z" transform="translate(-42.479 -41.903)"/>
        <path id="Trazado_1180065" data-name="Trazado 1180065" d="M82.36,101.329a.531.531,0,0,0,.531.531H97.753a.531.531,0,0,0,0-1.062h-.679V93.782a1.062,1.062,0,0,0-1.062-1.062H94.419a1.065,1.065,0,0,0-1.062,1.062V100.8H92.179V95.714a1.065,1.065,0,0,0-1.062-1.062H89.526a1.065,1.065,0,0,0-1.062,1.062V100.8H87.286V97.821a1.065,1.065,0,0,0-1.062-1.062H84.632a1.062,1.062,0,0,0-1.062,1.062V100.8h-.679A.531.531,0,0,0,82.36,101.329Zm12.059-7.548h1.592V100.8H94.419Zm-4.894,1.932h1.592V100.8H89.526Zm-4.894,2.107h1.592V100.8H84.632Z" transform="translate(-41.987 -46.847)"/>
        <path id="Trazado_1180066" data-name="Trazado 1180066" d="M27.551,30.934V29.57h.69a2.874,2.874,0,1,0,0-5.748h-.69V20.2h1.428a1.085,1.085,0,0,1,1.072,1.083.531.531,0,1,0,1.062,0,2.146,2.146,0,0,0-2.134-2.144H27.551V17.771a.531.531,0,1,0-1.062,0v1.364H25.8a2.874,2.874,0,0,0,0,5.748h.69v3.625H25.061a1.076,1.076,0,0,1-1.072-1.072.531.531,0,1,0-1.062,0,2.134,2.134,0,0,0,2.134,2.134h1.428v1.364a.531.531,0,0,0,1.062,0Zm0-6.051h.69a1.813,1.813,0,1,1,0,3.625h-.69Zm-1.062-1.062H25.8a1.813,1.813,0,0,1,0-3.625h.69Z" transform="translate(-14.1 -11.431)"/>
        <path id="Trazado_1180067" data-name="Trazado 1180067" d="M21.565,31.831A10.265,10.265,0,1,0,11.3,21.565,10.265,10.265,0,0,0,21.565,31.831Zm-9.2-10.265a9.2,9.2,0,1,1,9.2,9.2,9.2,9.2,0,0,1-9.2-9.2Z" transform="translate(-8.645 -8.644)"/>
        <path id="Trazado_1180068" data-name="Trazado 1180068" d="M66.882,56.531a.526.526,0,0,0-.621.419,11.857,11.857,0,0,1-22.887,1.4,11.733,11.733,0,0,1-.6-3.715,11.858,11.858,0,0,1,23.487-2.32.531.531,0,1,0,1.04-.2A12.889,12.889,0,0,0,59.1,42.519,22.877,22.877,0,0,0,57,26.08a.532.532,0,1,0-.934.51A21.8,21.8,0,0,1,58.714,37c0,.308-.005.621-.021.929a1.338,1.338,0,0,1-.658,1.1,1.736,1.736,0,0,1-1.762-.122,1.392,1.392,0,0,1-.791-1.019l-.43-2.357c-.218-1.189-1.093-1.592-1.529-2.044a2.478,2.478,0,0,0-3.259.027l-3.96,3.54a1.4,1.4,0,0,1-1.014.356l-5.876-.318a1.392,1.392,0,0,1-1.322-1.322l-.329-6.03c-.1-1.465-1.263-1.98-1.741-2.495a1.407,1.407,0,0,1-.387-1.576L37.3,21.409A2.457,2.457,0,0,0,37,19.079L35.8,17.4A1.38,1.38,0,0,1,36.867,15.2h.058a21.8,21.8,0,0,1,10.812,2.866.543.543,0,0,0,.727-.2.536.536,0,0,0-.2-.727,22.883,22.883,0,0,0-11.343-3h-.064a22.005,22.005,0,0,0-5.489.7A12.919,12.919,0,1,0,14.786,31.351,22.827,22.827,0,0,0,42.535,59.143,12.912,12.912,0,0,0,67.3,57.152a.526.526,0,0,0-.419-.621ZM7.36,19.217A11.858,11.858,0,1,1,19.218,31.075,11.858,11.858,0,0,1,7.36,19.217Zm7.781,17.994L17.5,39.079a2.731,2.731,0,0,0,3.424-.042l4.3-3.577a1.66,1.66,0,0,1,2.495.451,5.46,5.46,0,0,0,1.242,1.768l1.412,1.109a1.656,1.656,0,0,1,.249,2.367c-.26.483-2.7,2.213-1.215,4.464l2.033,3.089a1.645,1.645,0,0,1,.18,1.465l-.966,2.707a2.7,2.7,0,0,0,.09,2.044l1.55,3.37A21.888,21.888,0,0,1,15.142,37.211ZM33.571,58.527l-1.858-4.045a1.665,1.665,0,0,1-.058-1.247l.966-2.707a2.717,2.717,0,0,0-.292-2.4L30.3,45.029c-.966-1.449.775-2.58,1.141-3.19a2.721,2.721,0,0,0-.4-3.891c-1.306-1.062-1.555-1.109-1.831-1.587l-.563-.977a2.714,2.714,0,0,0-4.092-.743l-4.3,3.583a1.668,1.668,0,0,1-2.086.021l-2.988-2.367a21.785,21.785,0,0,1,.632-4.2A12.9,12.9,0,0,0,31.686,15.852a18.231,18.231,0,0,1,3.153-.541,2.442,2.442,0,0,0,.1,2.7l1.2,1.683a1.406,1.406,0,0,1,.165,1.332l-1.661,4.252a2.465,2.465,0,0,0,.674,2.76c.589.6,1.332.9,1.38,1.757l.329,6.024a2.46,2.46,0,0,0,2.33,2.33l5.876.318a2.453,2.453,0,0,0,1.773-.621l3.96-3.54a1.407,1.407,0,0,1,1.858-.016c.51.5,1.051.706,1.184,1.428l.43,2.357a2.447,2.447,0,0,0,1.391,1.794,3.2,3.2,0,0,0,1.465.425,2.5,2.5,0,0,0,1.2-.313c-.032.212-.053.425-.09.642-.085.515-.2,1.04-.329,1.566a12.951,12.951,0,0,0-3.45-.478,12.749,12.749,0,0,0-4.867.955,2.382,2.382,0,0,0-2.962-1.04l-3.912,1.587a1.416,1.416,0,0,1-1.284-.154,2.369,2.369,0,0,0-2.9.372l-1.422,1.433a2.376,2.376,0,0,0-.35,2.914l2.075,3.429a1.35,1.35,0,0,1,.138,1.067,2.369,2.369,0,0,0,.313,2.028,2.669,2.669,0,0,0,2.282,1.072,12.823,12.823,0,0,0,.462,2.76,22.111,22.111,0,0,1-8.636.393Zm8.153-4.22a1.614,1.614,0,0,1-1.385-.605,1.291,1.291,0,0,1-.17-1.12,2.442,2.442,0,0,0-.244-1.921l-2.075-3.434a1.317,1.317,0,0,1,.191-1.619l1.422-1.433a1.322,1.322,0,0,1,1.614-.2,2.462,2.462,0,0,0,2.219.223l3.912-1.592a1.312,1.312,0,0,1,1.592.51A12.93,12.93,0,0,0,41.723,54.307Z" transform="translate(-6.298 -6.296)"/>
      </g>
    </g>
  </g>
</svg>
