<svg xmlns="http://www.w3.org/2000/svg" xmlns:xlink="http://www.w3.org/1999/xlink" width="106.16" height="106.16" viewBox="0 0 106.16 106.16">
  <defs>
    <filter id="Trazado_982547" x="0" y="0" width="106.16" height="106.16" filterUnits="userSpaceOnUse">
      <feOffset dy="3" input="SourceAlpha"/>
      <feGaussianBlur stdDeviation="3" result="blur"/>
      <feFlood flood-opacity="0.161"/>
      <feComposite operator="in" in2="blur"/>
      <feComposite in="SourceGraphic"/>
    </filter>
  </defs>
  <g id="Grupo_1226426" data-name="Grupo 1226426" transform="translate(-820.42 -694)">
    <g id="Grupo_1225525" data-name="Grupo 1225525" transform="translate(209.5 -1187.069)">
      <g id="Grupo_1206132" data-name="Grupo 1206132" transform="translate(0 -58.931)">
        <g id="Grupo_1203794" data-name="Grupo 1203794" transform="translate(0 -4639.878)">
          <g id="Grupo_1203345" data-name="Grupo 1203345" transform="translate(338.92 5174.875)">
            <g id="Grupo_1177900" data-name="Grupo 1177900" transform="translate(281 1411.003)">
              <g id="Grupo_1172010" data-name="Grupo 1172010" transform="translate(0)">
                <g id="Grupo_1171046" data-name="Grupo 1171046">
                  <g id="Grupo_1148525" data-name="Grupo 1148525">
                    <g transform="matrix(1, 0, 0, 1, -9, -6)" filter="url(#Trazado_982547)">
                      <g id="Trazado_982547-2" data-name="Trazado 982547" transform="translate(9 6)" fill="#e9f9fd">
                        <path d="M 44.0802001953125 86.660400390625 C 38.33124923706055 86.660400390625 32.75506210327148 85.53479766845703 27.50652503967285 83.31484985351562 C 22.43628692626953 81.17032623291016 17.88242530822754 78.09992218017578 13.97144985198975 74.18894958496094 C 10.06047534942627 70.27797698974609 6.99007511138916 65.72411346435547 4.845550060272217 60.65387344360352 C 2.625600099563599 55.40533828735352 1.500000238418579 49.82915115356445 1.500000238418579 44.0802001953125 C 1.500000238418579 38.33124923706055 2.625600099563599 32.75506210327148 4.845550060272217 27.50652503967285 C 6.99007511138916 22.43628692626953 10.06047534942627 17.88242530822754 13.97144985198975 13.97144985198975 C 17.88242530822754 10.06047534942627 22.43628692626953 6.99007511138916 27.50652503967285 4.845550060272217 C 32.75506210327148 2.625600099563599 38.33124923706055 1.500000238418579 44.0802001953125 1.500000238418579 C 49.82915115356445 1.500000238418579 55.40533828735352 2.625600099563599 60.65387344360352 4.845550060272217 C 65.72411346435547 6.99007511138916 70.27797698974609 10.06047534942627 74.18894958496094 13.97144985198975 C 78.09992218017578 17.88242530822754 81.17032623291016 22.43628692626953 83.31484985351562 27.50652503967285 C 85.53479766845703 32.75506210327148 86.660400390625 38.33124923706055 86.660400390625 44.0802001953125 C 86.660400390625 49.82915115356445 85.53479766845703 55.40533828735352 83.31484985351562 60.65387344360352 C 81.17032623291016 65.72411346435547 78.09992218017578 70.27797698974609 74.18894958496094 74.18894958496094 C 70.27797698974609 78.09992218017578 65.72411346435547 81.17032623291016 60.65387344360352 83.31484985351562 C 55.40533828735352 85.53479766845703 49.82915115356445 86.660400390625 44.0802001953125 86.660400390625 Z" stroke="none"/>
                        <path d="M 44.0802001953125 3 C 38.53308486938477 3 33.15349960327148 4.085746765136719 28.09085845947266 6.227058410644531 C 23.19941711425781 8.29595947265625 18.80581665039062 11.25841522216797 15.03211212158203 15.03211212158203 C 11.25841522216797 18.80581665039062 8.29595947265625 23.19941711425781 6.227058410644531 28.09085845947266 C 4.085746765136719 33.15349960327148 3 38.53308486938477 3 44.0802001953125 C 3 49.62731552124023 4.085746765136719 55.00691604614258 6.227058410644531 60.06954193115234 C 8.29595947265625 64.96098327636719 11.25841522216797 69.35458374023438 15.03211212158203 73.12828826904297 C 18.80581665039062 76.90198516845703 23.19941711425781 79.86444091796875 28.09085845947266 81.93334197998047 C 33.15349960327148 84.07466125488281 38.53308486938477 85.160400390625 44.0802001953125 85.160400390625 C 49.62731552124023 85.160400390625 55.00691604614258 84.07466125488281 60.06954193115234 81.93334197998047 C 64.96099853515625 79.86444091796875 69.35458374023438 76.90198516845703 73.12828826904297 73.12828826904297 C 76.90198516845703 69.35458374023438 79.86444091796875 64.96099853515625 81.93334197998047 60.06954193115234 C 84.07466125488281 55.00691604614258 85.160400390625 49.62731552124023 85.160400390625 44.0802001953125 C 85.160400390625 38.53308486938477 84.07466125488281 33.15349960327148 81.93334197998047 28.09085845947266 C 79.86444091796875 23.19941711425781 76.90198516845703 18.80581665039062 73.12828826904297 15.03211212158203 C 69.35458374023438 11.25841522216797 64.96098327636719 8.29595947265625 60.06954193115234 6.227058410644531 C 55.00691604614258 4.085746765136719 49.62731552124023 3 44.0802001953125 3 M 44.0802001953125 0 C 68.42502593994141 0 88.160400390625 19.73538970947266 88.160400390625 44.0802001953125 C 88.160400390625 68.42502593994141 68.42502593994141 88.160400390625 44.0802001953125 88.160400390625 C 19.73538970947266 88.160400390625 0 68.42502593994141 0 44.0802001953125 C 0 19.73538970947266 19.73538970947266 0 44.0802001953125 0 Z" stroke="none" fill="#1d7083"/>
                      </g>
                    </g>
                  </g>
                </g>
              </g>
            </g>
          </g>
        </g>
      </g>
    </g>
    <g id="la-politica-monetaria_2_" data-name="la-politica-monetaria (2)" transform="translate(845.868 708.939)">
      <g id="Grupo_1226425" data-name="Grupo 1226425" transform="translate(0 6.061)">
        <g id="Grupo_1226420" data-name="Grupo 1226420" transform="translate(32.647 0.81)">
          <path id="Trazado_1180083" data-name="Trazado 1180083" d="M324.274,26.162V22.769l-2.766-.692a8.42,8.42,0,0,0-.694-1.679l1.466-2.444-2.4-2.4-2.444,1.466a8.433,8.433,0,0,0-1.679-.694l-.692-2.766h-3.392l-.692,2.766a8.425,8.425,0,0,0-1.679.694l-2.444-1.466-2.4,2.4,1.466,2.444a8.431,8.431,0,0,0-.694,1.679l-2.766.692v3.392l2.766.692a8.417,8.417,0,0,0,.694,1.679l-1.466,2.444,2.4,2.4,2.444-1.466a8.432,8.432,0,0,0,1.679.694l.692,2.766h3.392l.692-2.766a8.426,8.426,0,0,0,1.679-.694l2.444,1.466,2.4-2.4-1.466-2.444a8.433,8.433,0,0,0,.694-1.679Zm-10.9-3.877a2.181,2.181,0,1,1-2.181,2.181A2.181,2.181,0,0,1,313.37,22.285Z" transform="translate(-302.467 -13.562)" fill="#528fd8"/>
          <path id="Trazado_1180084" data-name="Trazado 1180084" d="M312.934,106.567h-.424l-10.043-5.859V103.9l2.766.692a8.419,8.419,0,0,0,.694,1.679l-1.466,2.444,2.4,2.4,2.444-1.466a8.431,8.431,0,0,0,1.679.694l.692,2.766h3.392l.692-2.766a8.47,8.47,0,0,0,1.235-.469A4.15,4.15,0,0,0,312.934,106.567Z" transform="translate(-302.467 -91.302)" fill="#0573ce"/>
        </g>
        <g id="Grupo_1226423" data-name="Grupo 1226423" transform="translate(0.81 11.713)">
          <g id="Grupo_1226421" data-name="Grupo 1226421" transform="translate(10.467)">
            <path id="Trazado_1180085" data-name="Trazado 1180085" d="M187.309,215.594h14.829v14.829H187.309Z" transform="translate(-178.368 -204.691)" fill="#ffd15b"/>
            <path id="Trazado_1180086" data-name="Trazado 1180086" d="M202.139,296.405a5.9,5.9,0,0,0-.872-.065h-7.127l-.78-.633a11.857,11.857,0,0,0-6.049-2.553v6.457h14.829v-3.206Z" transform="translate(-178.369 -273.879)" fill="#ffc344"/>
            <path id="Trazado_1180087" data-name="Trazado 1180087" d="M136.314,188.561H105.348a.872.872,0,0,1-.872-.872v-1.526a.872.872,0,0,1,.872-.872h30.966a.872.872,0,0,1,.872.872v1.526A.872.872,0,0,1,136.314,188.561Z" transform="translate(-104.476 -177.658)" fill="#c5d3dd"/>
            <path id="Trazado_1180088" data-name="Trazado 1180088" d="M372.409,185.289h-3.271a.872.872,0,0,1,.872.872v1.526a.872.872,0,0,1-.872.872h3.271a.872.872,0,0,0,.872-.872v-1.526A.872.872,0,0,0,372.409,185.289Z" transform="translate(-340.571 -177.657)" fill="#b6c4cf"/>
            <path id="Trazado_1180089" data-name="Trazado 1180089" d="M162.417,358.209H132.76v-5.234h28.349a1.308,1.308,0,0,1,1.308,1.308Z" transform="translate(-129.707 -327.243)" fill="#c5d3dd"/>
            <path id="Trazado_1180090" data-name="Trazado 1180090" d="M158.456,354.938a5.842,5.842,0,0,0-.58-1.963H132.76v5.234h25.7Z" transform="translate(-129.707 -327.243)" fill="#b6c4cf"/>
            <path id="Trazado_1180091" data-name="Trazado 1180091" d="M324.691,215.594h5.888v14.829h-5.888Z" transform="translate(-300.922 -204.691)" fill="#8d9ca8"/>
            <path id="Trazado_1180092" data-name="Trazado 1180092" d="M324.691,215.594h5.888v14.829h-5.888Z" transform="translate(-300.922 -204.691)" fill="#8d9ca8"/>
            <path id="Trazado_1180093" data-name="Trazado 1180093" d="M324.691,323.274v3.206h4.4A5.9,5.9,0,0,0,324.691,323.274Z" transform="translate(-300.922 -300.748)" fill="#7a8c98"/>
            <path id="Trazado_1180094" data-name="Trazado 1180094" d="M0,0H5.888V14.829H0Z" transform="translate(8.941 25.732) rotate(180)" fill="#8d9ca8"/>
            <path id="Trazado_1180095" data-name="Trazado 1180095" d="M138.648,292.45a11.682,11.682,0,0,0-5.888.808v5.649h5.888Z" transform="translate(-129.707 -273.175)" fill="#7a8c98"/>
            <path id="Trazado_1180096" data-name="Trazado 1180096" d="M153.028,122.21H124.679l12.83-7.484a1.09,1.09,0,0,1,.549-.149h1.591a1.09,1.09,0,0,1,.549.149Z" transform="translate(-122.498 -114.578)" fill="#8d9ca8"/>
            <path id="Trazado_1180097" data-name="Trazado 1180097" d="M244.119,156.62a1.635,1.635,0,1,0-3.271,0v1.635h3.271V156.62Z" transform="translate(-226.128 -150.624)" fill="#596c76"/>
            <path id="Trazado_1180098" data-name="Trazado 1180098" d="M239.323,114.727a1.091,1.091,0,0,0-.549-.149h-1.591a1.09,1.09,0,0,0-.549.149l-.836.488,11.994,7h4.361Z" transform="translate(-221.623 -114.578)" fill="#7a8c98"/>
          </g>
          <g id="Grupo_1226422" data-name="Grupo 1226422" transform="translate(0 21.973)">
            <path id="Trazado_1180099" data-name="Trazado 1180099" d="M72.15,352.975h3.925v13.956H72.15Z" transform="translate(-65.172 -349.217)" fill="#dff6fd"/>
            <path id="Trazado_1180100" data-name="Trazado 1180100" d="M150.493,318.92a2.617,2.617,0,0,0-3.7,0l-8.226,8.226h-7.587a2.617,2.617,0,0,0,0-5.234h-8.287l-1.681-1.363a8.547,8.547,0,0,0-10.679-.069l-1.814,1.432v13.956l15.794.99a8.722,8.722,0,0,0,3.12-.371L139.7,332.7a4.361,4.361,0,0,0,1.8-1.083l8.994-8.994A2.617,2.617,0,0,0,150.493,318.92Z" transform="translate(-97.614 -318.154)" fill="#fed2a4"/>
            <path id="Trazado_1180101" data-name="Trazado 1180101" d="M280.055,318.92a2.617,2.617,0,0,0-3.7,0l-8.226,8.226h-1.561a32.041,32.041,0,0,1-2.623,2.968,29.293,29.293,0,0,1-10.188,6.738l.117.007a8.723,8.723,0,0,0,3.12-.371l12.27-3.789a4.36,4.36,0,0,0,1.8-1.083l8.994-8.994A2.617,2.617,0,0,0,280.055,318.92Z" transform="translate(-227.177 -318.154)" fill="#ffbd86"/>
            <path id="Trazado_1180102" data-name="Trazado 1180102" d="M7.5,336.812h6.978v17.445H7.5Z" transform="translate(-7.5 -334.798)" fill="#62dbfb"/>
            <path id="Trazado_1180103" data-name="Trazado 1180103" d="M45.886,336.812h2.835v17.445H45.886Z" transform="translate(-41.743 -334.798)" fill="#01d0fb"/>
          </g>
        </g>
        <g id="Grupo_1226424" data-name="Grupo 1226424" transform="translate(0 0)">
          <path id="Trazado_1180104" data-name="Trazado 1180104" d="M54.651,20.256a.809.809,0,0,0,.613-.785V16.078a.809.809,0,0,0-.613-.785l-2.33-.583a9.31,9.31,0,0,0-.4-.972l1.235-2.058a.81.81,0,0,0-.122-.989l-2.4-2.4a.81.81,0,0,0-.989-.122L47.587,9.406a9.242,9.242,0,0,0-.972-.4l-.582-2.329a.809.809,0,0,0-.785-.613H41.854a.809.809,0,0,0-.785.613L40.487,9a9.244,9.244,0,0,0-.972.4L37.457,8.171a.81.81,0,0,0-.989.122l-2.4,2.4a.809.809,0,0,0-.122.989l1.235,2.058a9.337,9.337,0,0,0-.4.972l-2.33.583a.809.809,0,0,0-.613.785v2.576l-2.453-1.431a1.9,1.9,0,0,0-.957-.259H26.836a1.9,1.9,0,0,0-.957.259L13.238,24.6H12.149a1.684,1.684,0,0,0-1.682,1.682V27.8a1.684,1.684,0,0,0,1.682,1.682H13.52v11.59c-.168.116-.334.235-.495.362L11.432,42.7H8.6v-.935a.81.81,0,0,0-.81-.81H.809a.81.81,0,0,0-.81.81V46.85a.81.81,0,0,0,1.619,0v-4.28H6.978V58.4H1.619V50.628a.81.81,0,1,0-1.619,0v8.579a.81.81,0,0,0,.81.81H7.788a.81.81,0,0,0,.81-.81v-.935h3.09l15.769.989q.3.019.6.019a9.493,9.493,0,0,0,2.808-.425l12.27-3.789a5.191,5.191,0,0,0,2.131-1.284l8.994-8.994a3.426,3.426,0,1,0-4.846-4.846l-4.633,4.633a2.12,2.12,0,0,0-2.1-1.878h-.935V37.981a.81.81,0,1,0-1.619,0v1.444H35.856V32.758h4.269V34.2a.81.81,0,0,0,1.619,0V29.487h3.5a.809.809,0,0,0,.785-.613l.582-2.329a9.234,9.234,0,0,0,.972-.4l2.058,1.235a.81.81,0,0,0,.989-.122l2.4-2.4a.81.81,0,0,0,.122-.989L51.92,21.81a9.248,9.248,0,0,0,.4-.972ZM10.9,56.653H8.6V44.315H10.9ZM50.559,41.086a1.807,1.807,0,1,1,2.556,2.556l-8.994,8.994a3.565,3.565,0,0,1-1.464.882l-12.27,3.789a7.889,7.889,0,0,1-2.83.337L12.522,56.7V43.9l1.506-1.189a7.77,7.77,0,0,1,4.79-1.664h.01A7.761,7.761,0,0,1,23.7,42.772l1.681,1.363a.81.81,0,0,0,.51.181h8.287a1.807,1.807,0,0,1,0,3.615H24.8a.809.809,0,0,0-.572.237L23.08,49.312a.809.809,0,1,0,1.145,1.145l.908-.908H41.761a.809.809,0,0,0,.572-.237ZM19.408,32.758v6.667H15.139V32.758Zm-4.269-1.619V29.486h4.269v1.653Zm5.888,8.553V29.486H34.237V42.7l-.063,0h-8l-1.458-1.182a9.38,9.38,0,0,0-3.689-1.822Zm21.651,4.623a.5.5,0,0,1,.5.5v1.364L41.426,47.93H37.084a3.418,3.418,0,0,0,0-3.615Zm-2.554-3.271V42.7H35.856V41.045Zm0-9.906H35.856V29.486h4.269ZM43.177,27.8a.061.061,0,0,1-.063.063H12.149a.061.061,0,0,1-.063-.063V26.278a.062.062,0,0,1,.063-.063h7.069a.81.81,0,0,0,0-1.619H16.452l10.243-5.975a.281.281,0,0,1,.141-.038h1.591a.282.282,0,0,1,.142.038L38.812,24.6H30.077v-.826a2.445,2.445,0,1,0-4.89,0V24.6H23a.81.81,0,1,0,0,1.619H43.114a.062.062,0,0,1,.063.063ZM28.458,23.771V24.6H26.806v-.826a.826.826,0,1,1,1.652,0Zm23.034-4.395a.81.81,0,0,0-.581.558,7.627,7.627,0,0,1-.628,1.518.81.81,0,0,0,.016.805l1.141,1.9-1.5,1.5-1.9-1.141a.809.809,0,0,0-.805-.016,7.618,7.618,0,0,1-1.518.628.81.81,0,0,0-.558.581l-.357,1.43v-.866A1.684,1.684,0,0,0,43.114,24.6H42.025l-5.148-3a.807.807,0,0,0-.059-.142,7.621,7.621,0,0,1-.628-1.518.81.81,0,0,0-.581-.558l-2.153-.538V16.71l2.153-.539a.809.809,0,0,0,.58-.558,7.681,7.681,0,0,1,.628-1.519.81.81,0,0,0-.016-.8l-1.141-1.9,1.5-1.5,1.9,1.141a.81.81,0,0,0,.805.016,7.621,7.621,0,0,1,1.518-.628.809.809,0,0,0,.558-.581l.538-2.153h2.129l.538,2.153a.81.81,0,0,0,.558.581,7.622,7.622,0,0,1,1.518.628.809.809,0,0,0,.805-.016l1.9-1.141,1.5,1.5L50.3,13.29a.809.809,0,0,0-.016.8,7.678,7.678,0,0,1,.628,1.519.809.809,0,0,0,.58.558l2.153.539v2.128Z" transform="translate(0 -6.061)"/>
          <path id="Trazado_1180105" data-name="Trazado 1180105" d="M378.77,86.875a2.99,2.99,0,1,0,2.99,2.99A2.994,2.994,0,0,0,378.77,86.875Zm0,4.361a1.371,1.371,0,1,1,1.371-1.371A1.373,1.373,0,0,1,378.77,91.236Z" transform="translate(-335.219 -78.152)"/>
          <circle id="Elipse_12670" data-name="Elipse 12670" cx="0.81" cy="0.81" r="0.81" transform="translate(3.489 38.38)"/>
          <circle id="Elipse_12671" data-name="Elipse 12671" cx="0.81" cy="0.81" r="0.81" transform="translate(3.489 41.869)"/>
        </g>
      </g>
      <path id="Trazado_1180106" data-name="Trazado 1180106" d="M233.461,238.307c-.122-.059-.24-.113-.355-.165v-1.821a3.116,3.116,0,0,1,.538.3.81.81,0,0,0,.984-1.286,4.67,4.67,0,0,0-1.522-.725v-.3a.81.81,0,0,0-1.619,0v.253c-.041.01-.082.019-.124.031a2.358,2.358,0,0,0-1.722,1.868,2.237,2.237,0,0,0,.9,2.236,5.311,5.311,0,0,0,.944.5v2.69a2.173,2.173,0,0,1-.706-.341.81.81,0,0,0-.886,1.355,3.454,3.454,0,0,0,1.592.625v.308a.81.81,0,0,0,1.619,0v-.38a2.808,2.808,0,0,0,2.076-2.071A2.725,2.725,0,0,0,233.461,238.307Zm-1.984-.926a.637.637,0,0,1-.24-.637.714.714,0,0,1,.25-.429v1.072Zm2.125,3.657a1.137,1.137,0,0,1-.5.682v-1.749A1.025,1.025,0,0,1,233.6,241.037Z" transform="translate(-204.754 -202.895)"/>
    </g>
  </g>
</svg>
