<svg xmlns="http://www.w3.org/2000/svg" xmlns:xlink="http://www.w3.org/1999/xlink" width="190" height="188" viewBox="0 0 190 188">
  <defs>
    <clipPath id="clip-path">
      <rect id="Rectángulo_421821" data-name="Rectángulo 421821" width="190" height="188" transform="translate(180 992)" fill="#fff" stroke="#707070" stroke-width="1"/>
    </clipPath>
    <clipPath id="clip-path-2">
      <rect id="SVGID" width="138.98" height="138.918" fill="none"/>
    </clipPath>
  </defs>
  <g id="Enmascarar_grupo_1211511" data-name="Enmascarar grupo 1211511" transform="translate(-180 -992)" clip-path="url(#clip-path)">
    <rect id="Rectángulo_421814" data-name="Rectángulo 421814" width="125" height="181" rx="9" transform="translate(180 999)" fill="#36ceef"/>
    <g id="Bank_transfer" transform="translate(181.403 991.716)">
      <g id="Grupo_1226453" data-name="Grupo 1226453" transform="translate(0 49.658)" clip-path="url(#clip-path-2)">
        <g id="Grupo_1226452" data-name="Grupo 1226452" transform="translate(-0.165 34.346)">
          <g id="Grupo_1226427" data-name="Grupo 1226427" transform="translate(27.309)">
            <path id="Trazado_1180107" data-name="Trazado 1180107" d="M863.557,1273.492c-1.628,0-2.957-2.061-2.957-4.6s1.329-4.6,2.957-4.6,2.957,2.061,2.957,4.6S865.186,1273.492,863.557,1273.492Zm0-8.728c-1.381,0-2.5,1.855-2.5,4.142s1.123,4.143,2.5,4.143,2.5-1.855,2.5-4.143S864.938,1264.764,863.557,1264.764Z" transform="translate(-833.572 -1252.542)"/>
            <path id="Trazado_1180108" data-name="Trazado 1180108" d="M660.557,1176.264c0,7.553-1.927,15.993-8.9,15.993s-16.354-8.45-16.354-15.993,5.657-13.664,12.623-13.664,12.623,6.121,12.623,13.664Z" transform="translate(-631.489 -1161.322)" fill="#fda4ff"/>
            <rect id="Rectángulo_421816" data-name="Rectángulo 421816" width="14.488" height="23.948" transform="translate(5.264 14.942)" fill="#fda4ff"/>
            <path id="Trazado_1180109" data-name="Trazado 1180109" d="M788.027,1418.578a.229.229,0,0,1-.227-.227v-12.324a.227.227,0,0,1,.453,0v12.324A.229.229,0,0,1,788.027,1418.578Z" transform="translate(-768.274 -1379.461)"/>
            <path id="Trazado_1180110" data-name="Trazado 1180110" d="M621.178,1176.088c0,6.121-3.287,15.746-11.078,15.746s-12.737-10.212-11.634-16.23c1.618-8.78,5.513-10.6,11.634-10.6A11.082,11.082,0,0,1,621.178,1176.088Z" transform="translate(-598.313 -1163.475)"/>
            <ellipse id="Elipse_12672" data-name="Elipse 12672" cx="11.232" cy="7.182" rx="11.232" ry="7.182" transform="translate(4.883)"/>
            <path id="Trazado_1180111" data-name="Trazado 1180111" d="M808.966,1299.533h-.021l-12.046-.886a.228.228,0,1,1,.041-.453l12.046.886a.227.227,0,0,1-.021.453Z" transform="translate(-776.25 -1282.942)"/>
            <ellipse id="Elipse_12673" data-name="Elipse 12673" cx="3.545" cy="4.256" rx="3.545" ry="4.256" transform="translate(16.124 17.217) rotate(-23.6)" fill="#fda4ff"/>
          </g>
          <g id="Grupo_1226450" data-name="Grupo 1226450" transform="translate(0 0.149)">
            <g id="Grupo_1226428" data-name="Grupo 1226428" transform="translate(0 34.532)">
              <path id="Trazado_1180112" data-name="Trazado 1180112" d="M376.157,1488.983c-30.543-1.2-41.25,27.184-42.445,57.727l-.412,17.528,64.817,7.677-1.185-60.468A21.632,21.632,0,0,0,376.157,1488.983Z" transform="translate(-333.3 -1488.72)" fill="#8c7bff"/>
              <path id="Trazado_1180113" data-name="Trazado 1180113" d="M399.831,1570.176H399.8l-64.26-7.863a.224.224,0,0,1-.2-.227l-.144-17.333c.66-16.962,4.2-31.1,10.253-40.889,7.337-11.881,18.25-17.621,32.429-17.075a21.864,21.864,0,0,1,20.991,22.7l1.185,60.458a.269.269,0,0,1-.072.175.21.21,0,0,1-.155.062Zm-64.034-8.3,63.807,7.811-1.185-60.2a21.408,21.408,0,0,0-20.558-22.238c-34.717-1.35-41.343,35.448-42.208,57.511l.144,17.126Z" transform="translate(-335.004 -1486.755)"/>
            </g>
            <g id="Grupo_1226449" data-name="Grupo 1226449" transform="translate(37.071)">
              <g id="Grupo_1226432" data-name="Grupo 1226432" transform="translate(13.217 20.935)">
                <g id="Grupo_1226431" data-name="Grupo 1226431" transform="translate(0.103)">
                  <g id="Grupo_1226429" data-name="Grupo 1226429" transform="translate(0 0.238)">
                    <path id="Trazado_1180114" data-name="Trazado 1180114" d="M1032.948,1426.2l-2.648-3.72,7.43-4.709a2.389,2.389,0,0,1,3.246.577,2.188,2.188,0,0,1-.68,3.1Z" transform="translate(-1008.866 -1411.163)" fill="#fda4ff"/>
                    <path id="Trazado_1180115" data-name="Trazado 1180115" d="M989.566,1402.8,987,1399.117l7.347-4.75a2.389,2.389,0,0,1,3.246.577,2.193,2.193,0,0,1-.67,3.1l-7.347,4.75Z" transform="translate(-970.028 -1390.175)" fill="#fda4ff"/>
                    <path id="Trazado_1180116" data-name="Trazado 1180116" d="M960.473,1379.555s-2.927-2.587-2.195-3.153c1.608-1.237,6.471-4.369,6.471-4.369a2.129,2.129,0,0,1,2.9.515,1.966,1.966,0,0,1-.6,2.772l-6.564,4.235Z" transform="translate(-944.16 -1370.18)" fill="#fda4ff"/>
                    <path id="Trazado_1180117" data-name="Trazado 1180117" d="M1074.422,1373.88l-4.122-2.731,10.542-13.221a2.324,2.324,0,0,1,3.143-.371,2.185,2.185,0,0,1,.515,3.081l-10.088,13.242Z" transform="translate(-1044.744 -1357.115)" fill="#fda4ff"/>
                    <path id="Trazado_1180118" data-name="Trazado 1180118" d="M1019.5,1543.206l1.721-8.388,15.5-2.226a2.23,2.23,0,1,1,.958,4.349l-6.873,1.525-11.3,4.75Z" transform="translate(-999.179 -1514.457)" fill="#fda4ff"/>
                    <path id="Trazado_1180119" data-name="Trazado 1180119" d="M842.621,1439.309l-3.493,4.008-1.556-.464-15.272-3.905,6.966-8.491L836.4,1416.7l15.519,10.542-2.432,3.72Z" transform="translate(-822.3 -1410.56)" fill="#fda4ff"/>
                  </g>
                  <g id="Grupo_1226430" data-name="Grupo 1226430" transform="translate(1.123)">
                    <path id="Trazado_1180120" data-name="Trazado 1180120" d="M1036.658,1419.76a.265.265,0,0,1-.2-.1.212.212,0,0,1,.072-.309l6.564-4.225a2.321,2.321,0,0,1,2.8-.062.228.228,0,0,1-.278.361,1.9,1.9,0,0,0-2.277.083l-6.564,4.225a.292.292,0,0,1-.124.041Z" transform="translate(-1015.482 -1408.456)"/>
                    <path id="Trazado_1180121" data-name="Trazado 1180121" d="M997.192,1399.229a.266.266,0,0,1-.2-.1.226.226,0,0,1,.072-.319l4.586-2.957a2.022,2.022,0,0,0,.917-1.329,1.82,1.82,0,0,0-.309-1.453,2.17,2.17,0,0,0-2.937-.515l-6.544,4.235a.232.232,0,1,1-.247-.392l6.543-4.235a2.626,2.626,0,0,1,3.555.629,2.327,2.327,0,0,1,.381,1.8,2.514,2.514,0,0,1-1.113,1.628l-4.586,2.958a.292.292,0,0,1-.124.041Z" transform="translate(-976.016 -1387.925)"/>
                    <path id="Trazado_1180122" data-name="Trazado 1180122" d="M1072.867,1372.034a.171.171,0,0,1-.134-.052.219.219,0,0,1-.041-.319l10.088-13.241a1.834,1.834,0,0,0,.412-1.422,1.985,1.985,0,0,0-.866-1.329,2.107,2.107,0,0,0-2.834.319l-10.521,13.169a.227.227,0,1,1-.35-.288l10.521-13.169a2.569,2.569,0,0,1,3.452-.423,2.426,2.426,0,0,1,1.062,1.638,2.281,2.281,0,0,1-.495,1.772l-10.078,13.242a.22.22,0,0,1-.185.093Z" transform="translate(-1044.313 -1354.805)"/>
                    <path id="Trazado_1180123" data-name="Trazado 1180123" d="M983.589,1545.516a.306.306,0,0,1-.155-.052.227.227,0,0,1-.021-.319l3.493-4a.16.16,0,0,1,.082-.062l11.3-4.75a.078.078,0,0,0,.041-.01l6.873-1.525a2.065,2.065,0,0,0,1.638-2.411,1.944,1.944,0,0,0-.907-1.247,2.152,2.152,0,0,0-1.6-.247l-9.789,1.412a.229.229,0,1,1-.062-.453l9.769-1.4a2.573,2.573,0,0,1,1.906.309,2.369,2.369,0,0,1,1.113,1.535,2.514,2.514,0,0,1-1.989,2.947l-6.853,1.515-11.242,4.719-3.462,3.957a.22.22,0,0,1-.175.082Z" transform="translate(-967.884 -1512.294)"/>
                    <path id="Trazado_1180124" data-name="Trazado 1180124" d="M1072.043,1523.442a.18.18,0,0,1-.124-.041.232.232,0,0,1-.062-.319l3.741-5.461a.23.23,0,0,1,.381.258l-3.741,5.462a.23.23,0,0,1-.186.1Z" transform="translate(-1047.229 -1500.751)"/>
                    <path id="Trazado_1180125" data-name="Trazado 1180125" d="M833.426,1395.234a.245.245,0,0,1-.144-.052.229.229,0,0,1-.031-.319l5.6-6.822,6.43-12.675a5.5,5.5,0,0,1,1.793-1.917l5.461-3.524a2.368,2.368,0,0,1,3.2.567,2.113,2.113,0,0,1,.34,1.628,2.225,2.225,0,0,1-1.01,1.463l-5.091,3.287a.232.232,0,0,1-.247-.392l5.091-3.287a1.826,1.826,0,0,0,.814-1.175,1.6,1.6,0,0,0-.268-1.278,1.912,1.912,0,0,0-2.586-.453l-5.461,3.524a4.9,4.9,0,0,0-1.638,1.742l-6.43,12.685c0,.01-.021.031-.031.041l-5.606,6.842a.236.236,0,0,1-.175.083Z" transform="translate(-833.199 -1368.02)"/>
                  </g>
                </g>
                <path id="Trazado_1180126" data-name="Trazado 1180126" d="M838.375,1598.42l-17.075-4.637,3.7-4.483,14.3,7.6Z" transform="translate(-821.3 -1565.136)" fill="#020202"/>
              </g>
              <g id="Grupo_1226433" data-name="Grupo 1226433" transform="translate(0 38.514)">
                <path id="Trazado_1180127" data-name="Trazado 1180127" d="M0,.01H27.73V54A13.717,13.717,0,0,1,14.014,67.712h-.464A13.554,13.554,0,0,1,0,54.162V0H0Z" transform="matrix(0.631, -0.776, 0.776, 0.631, 0, 21.9)" fill="#8c7bff"/>
                <path id="Trazado_1180128" data-name="Trazado 1180128" d="M844.469,1584.754a14.038,14.038,0,0,1-8.872-3.164l-29.915-24.34a.227.227,0,1,1,.289-.35l29.915,24.34a13.635,13.635,0,0,0,17.209-21.156L811.277,1525.8a.227.227,0,1,1,.289-.35l41.817,34.274a14.087,14.087,0,0,1-8.924,25.02Z" transform="translate(-794 -1525.399)"/>
              </g>
              <g id="Grupo_1226448" data-name="Grupo 1226448" transform="translate(41.843)">
                <g id="Grupo_1226447" data-name="Grupo 1226447" transform="translate(14.744)">
                  <path id="Trazado_1180129" data-name="Trazado 1180129" d="M1295.733,1372.118l6.688-13.891.536-.752.567-.526.876-.557.783-.309,3.514-8.45,1.546-5.225-3.318-3.246-15.148-8.563s-9.862,15.859-6.595,20.857c-.886,2.339-4.081,9.151-4.081,9.151l14.622,11.51Z" transform="translate(-1277.089 -1312.16)" fill="#fda4ff"/>
                  <path id="Trazado_1180130" data-name="Trazado 1180130" d="M1303.644,1578.731l-16.055-8.831-1.989,4.359,16.817,6.832Z" transform="translate(-1281.126 -1526.801)"/>
                  <g id="Grupo_1226440" data-name="Grupo 1226440">
                    <g id="Grupo_1226435" data-name="Grupo 1226435">
                      <path id="Trazado_1180131" data-name="Trazado 1180131" d="M1284.372,1163.712l13.51,11.964a2.785,2.785,0,0,1,.155,3.947l-25.113,28.369a2.8,2.8,0,0,1-3.936.319l-13.509-11.964a2.785,2.785,0,0,1-.155-3.947l25.113-28.369A2.8,2.8,0,0,1,1284.372,1163.712Z" transform="translate(-1253.301 -1161.873)"/>
                      <rect id="Rectángulo_421817" data-name="Rectángulo 421817" width="1.35" height="3.576" transform="translate(42.756 18.739) rotate(41.5)"/>
                      <g id="Grupo_1226434" data-name="Grupo 1226434" transform="translate(39.995 18.43)">
                        <rect id="Rectángulo_421818" data-name="Rectángulo 421818" width="0.649" height="3.576" transform="translate(2.764 0.31) rotate(41.5)" fill="#fff"/>
                        <path id="Trazado_1180132" data-name="Trazado 1180132" d="M1631.125,1334.251l-.824-.732,2.679-3.019.824.732Zm-.186-.773.144.124,2.071-2.339-.144-.124Z" transform="translate(-1630.3 -1330.5)"/>
                      </g>
                      <path id="Trazado_1180133" data-name="Trazado 1180133" d="M1273.972,1154.512l13.51,11.964a2.785,2.785,0,0,1,.155,3.947l-25.113,28.369a2.8,2.8,0,0,1-3.936.319l-13.51-11.964a2.785,2.785,0,0,1-.155-3.947l25.113-28.369A2.8,2.8,0,0,1,1273.972,1154.512Z" transform="translate(-1243.973 -1153.621)" fill="#fff"/>
                      <path id="Trazado_1180134" data-name="Trazado 1180134" d="M1327.189,1275.465a.248.248,0,0,1-.155-.062.228.228,0,0,1-.021-.319l7.481-8.45a.226.226,0,0,1,.34.3l-7.481,8.45a.212.212,0,0,1-.175.072Z" transform="translate(-1318.221 -1254.717)"/>
                      <path id="Trazado_1180135" data-name="Trazado 1180135" d="M1258.564,1198.026a2.9,2.9,0,0,1-1.937-.732l-13.468-11.923a2.935,2.935,0,0,1-.979-2.092,3.148,3.148,0,0,1,.8-2.226l8-9.037a.226.226,0,0,1,.34.3l-8,9.037a2.726,2.726,0,0,0-.69,1.906,2.462,2.462,0,0,0,.824,1.762l13.468,11.923a2.422,2.422,0,0,0,1.855.608,2.674,2.674,0,0,0,1.8-.917l25.071-28.328a2.726,2.726,0,0,0,.69-1.906,2.462,2.462,0,0,0-.824-1.762l-13.468-11.923a2.466,2.466,0,0,0-2.185-.556.226.226,0,0,1-.093-.443,2.962,2.962,0,0,1,2.587.659l13.468,11.923a2.935,2.935,0,0,1,.979,2.092,3.148,3.148,0,0,1-.8,2.226l-25.071,28.328a3.132,3.132,0,0,1-2.112,1.061h-.247Z" transform="translate(-1242.177 -1151.65)"/>
                      <path id="Trazado_1180136" data-name="Trazado 1180136" d="M1475.688,1155.76a.247.247,0,0,1-.155-.062.227.227,0,0,1-.021-.319l1.772-2a3.171,3.171,0,0,1,1.721-1.01.226.226,0,0,1,.268.175.219.219,0,0,1-.175.268,2.742,2.742,0,0,0-1.474.866l-1.772,2a.212.212,0,0,1-.175.072Z" transform="translate(-1451.419 -1152.292)"/>
                      <path id="Trazado_1180137" data-name="Trazado 1180137" d="M1399.789,1189.25a.247.247,0,0,1-.155-.062.227.227,0,0,1-.021-.319l7.9-8.934a.226.226,0,1,1,.34.3l-7.9,8.934a.212.212,0,0,1-.175.072Z" transform="translate(-1383.34 -1176.951)"/>
                      <path id="Trazado_1180138" data-name="Trazado 1180138" d="M1571.941,1209.076a.247.247,0,0,1-.155-.062l-3.452-3.06a.226.226,0,0,1,.3-.34l3.452,3.061a.228.228,0,0,1,.021.319.212.212,0,0,1-.175.072Z" transform="translate(-1534.656 -1200.003)"/>
                      <path id="Trazado_1180139" data-name="Trazado 1180139" d="M1604.841,1238.213a.6.6,0,0,1-.4-.155.587.587,0,0,1-.062-.824.6.6,0,0,1,.835-.041.661.661,0,0,1,.206.4.613.613,0,0,1-.144.433.6.6,0,0,1-.412.2h-.021Zm-.031-.721a.112.112,0,0,0-.093.041.133.133,0,0,0,.021.186.147.147,0,0,0,.1.041.083.083,0,0,0,.083-.041.238.238,0,0,0,.031-.093.143.143,0,0,0-.052-.1.183.183,0,0,0-.1-.041Z" transform="translate(-1566.927 -1228.243)"/>
                    </g>
                    <g id="Grupo_1226436" data-name="Grupo 1226436" transform="translate(3.641 19.307)">
                      <path id="Trazado_1180140" data-name="Trazado 1180140" d="M1340.612,1356.58a1.365,1.365,0,0,1-.917-.35l-12.85-11.376a1.353,1.353,0,0,1-.464-.948,1.408,1.408,0,0,1,.34-1l3.04-3.432a1.393,1.393,0,0,1,1.948-.124l12.85,11.376a1.353,1.353,0,0,1,.464.948,1.409,1.409,0,0,1-.34,1l-3.04,3.431a1.357,1.357,0,0,1-1.031.464Zm-9.81-17.126h-.062a.9.9,0,0,0-.639.309l-3.04,3.432a.889.889,0,0,0-.227.67.9.9,0,0,0,.309.639l12.85,11.376a.929.929,0,0,0,1.309-.083l3.04-3.431a.89.89,0,0,0,.227-.67.9.9,0,0,0-.309-.639l-12.85-11.376a.922.922,0,0,0-.608-.237Z" transform="translate(-1321.343 -1339.011)"/>
                      <path id="Trazado_1180141" data-name="Trazado 1180141" d="M1291.741,1411.65a1.377,1.377,0,0,1-.917-.35l-12.85-11.376a1.393,1.393,0,0,1-.124-1.948l3.04-3.432a1.353,1.353,0,0,1,.948-.464,1.409,1.409,0,0,1,1,.34l12.85,11.376a1.353,1.353,0,0,1,.464.948,1.408,1.408,0,0,1-.34,1l-3.04,3.432a1.353,1.353,0,0,1-.948.464h-.083Zm-9.81-17.116h-.062a.9.9,0,0,0-.639.309l-3.04,3.432a.929.929,0,0,0,.083,1.309l12.85,11.376a.889.889,0,0,0,.67.227.9.9,0,0,0,.639-.309l3.04-3.431a.889.889,0,0,0,.227-.67.9.9,0,0,0-.309-.639l-12.85-11.376a.922.922,0,0,0-.608-.237Z" transform="translate(-1277.511 -1388.404)"/>
                    </g>
                    <g id="Grupo_1226439" data-name="Grupo 1226439" transform="translate(16.825 6.533)">
                      <rect id="Rectángulo_421819" data-name="Rectángulo 421819" width="12.026" height="18.538" transform="translate(0 9.048) rotate(-48.8)" fill="#4ada85"/>
                      <g id="Grupo_1226438" data-name="Grupo 1226438" transform="translate(3.643 5.535)">
                        <g id="Grupo_1226437" data-name="Grupo 1226437">
                          <path id="Trazado_1180142" data-name="Trazado 1180142" d="M1537.4,1354.356a.306.306,0,0,1-.155-.052l-2.277-1.989a.219.219,0,0,1-.072-.155.285.285,0,0,1,.052-.165l.67-.763a.228.228,0,0,1,.319-.021l2.277,1.989a.22.22,0,0,1,.072.155.285.285,0,0,1-.052.165l-.67.762a.22.22,0,0,1-.175.083Zm-1.958-2.236,1.937,1.69.371-.422-1.937-1.69Z" transform="translate(-1525.203 -1342.666)"/>
                          <path id="Trazado_1180143" data-name="Trazado 1180143" d="M1505.966,1326.895a.307.307,0,0,1-.155-.052l-2.277-1.989a.227.227,0,0,1-.021-.319l.67-.763a.219.219,0,0,1,.155-.072.285.285,0,0,1,.165.052l2.277,1.989a.228.228,0,0,1,.021.32l-.67.762a.219.219,0,0,1-.155.072Zm-1.948-2.236,1.937,1.69.371-.422-1.937-1.69Z" transform="translate(-1497.001 -1318.038)"/>
                          <path id="Trazado_1180144" data-name="Trazado 1180144" d="M1474.7,1299.457a.307.307,0,0,1-.155-.052l-2.277-1.989a.219.219,0,0,1-.072-.155.285.285,0,0,1,.052-.165l.67-.763a.228.228,0,0,1,.319-.021l2.277,1.989a.219.219,0,0,1,.072.155.285.285,0,0,1-.052.165l-.67.762a.22.22,0,0,1-.175.083Zm-1.958-2.246,1.937,1.69.371-.422-1.937-1.69Z" transform="translate(-1468.964 -1293.424)"/>
                          <path id="Trazado_1180145" data-name="Trazado 1180145" d="M1443.3,1271.957a.3.3,0,0,1-.155-.052l-2.277-1.989a.219.219,0,0,1-.072-.155.285.285,0,0,1,.052-.165l.67-.763a.227.227,0,0,1,.319-.021l2.277,1.989a.228.228,0,0,1,.021.32l-.67.762a.219.219,0,0,1-.155.072Zm-1.958-2.236,1.937,1.69.371-.422-1.937-1.69Z" transform="translate(-1440.8 -1268.758)"/>
                        </g>
                        <path id="Trazado_1180146" data-name="Trazado 1180146" d="M1496.019,1345.756a.305.305,0,0,1-.155-.052l-5.493-4.8a.219.219,0,0,1-.072-.155.284.284,0,0,1,.052-.165l.567-.649a.228.228,0,0,1,.319-.021l5.492,4.8a.227.227,0,0,1,.021.319l-.567.649a.219.219,0,0,1-.155.072Zm-5.173-5.049,5.142,4.5.268-.3-5.142-4.5Z" transform="translate(-1485.199 -1332.531)"/>
                        <path id="Trazado_1180147" data-name="Trazado 1180147" d="M1457,1311.82a.307.307,0,0,1-.155-.052l-3.009-2.628a.228.228,0,0,1-.021-.32l.567-.649a.219.219,0,0,1,.155-.072.285.285,0,0,1,.165.052l3.009,2.628a.227.227,0,0,1,.021.319l-.567.649a.219.219,0,0,1-.155.072Zm-2.679-2.885,2.669,2.329.268-.3-2.669-2.329Z" transform="translate(-1452.422 -1304.046)"/>
                      </g>
                      <rect id="Rectángulo_421820" data-name="Rectángulo 421820" width="2.082" height="2.999" transform="translate(15.109 13.355) rotate(-48.8)" fill="#fcb503"/>
                    </g>
                  </g>
                  <g id="Grupo_1226445" data-name="Grupo 1226445" transform="translate(4.258 5.034)">
                    <g id="Grupo_1226441" data-name="Grupo 1226441" transform="translate(0 8.581)">
                      <path id="Trazado_1180148" data-name="Trazado 1180148" d="M1288.034,1286.924l-.979,1.164a5.553,5.553,0,0,0-1.288,3.421l-.072,3.349a2.389,2.389,0,0,0,2.349,2.442h.206a2.382,2.382,0,0,0,2.442-2.349l.072-3.349a5.412,5.412,0,0,1,1.288-3.421l.639-.762a1.1,1.1,0,0,0-.814-1.8l-.958-.021a3.7,3.7,0,0,0-2.9,1.319Z" transform="translate(-1285.468 -1285.406)" fill="#fda4ff"/>
                      <path id="Trazado_1180149" data-name="Trazado 1180149" d="M1286.331,1295.9h-.258a2.639,2.639,0,0,1-2.576-2.69l.072-3.349a6.406,6.406,0,0,1,1.288-3.658,7.814,7.814,0,0,1,3.432-2.432.224.224,0,0,1,.072.443,7.575,7.575,0,0,0-3.143,2.257,5.964,5.964,0,0,0-1.2,3.39l-.072,3.349a2.155,2.155,0,0,0,.608,1.546,2.131,2.131,0,0,0,1.525.67h.206a2.187,2.187,0,0,0,2.164-1.69.226.226,0,1,1,.443.093,2.635,2.635,0,0,1-2.566,2.051Z" transform="translate(-1283.497 -1283.77)"/>
                    </g>
                    <g id="Grupo_1226442" data-name="Grupo 1226442" transform="translate(2.473 6.592)">
                      <path id="Trazado_1180150" data-name="Trazado 1180150" d="M1312.034,1267.624l-.979,1.164a5.554,5.554,0,0,0-1.288,3.421l-.072,3.349a2.389,2.389,0,0,0,2.349,2.442h.206a2.382,2.382,0,0,0,2.442-2.349l.072-3.349a5.412,5.412,0,0,1,1.288-3.421l.639-.762a1.1,1.1,0,0,0-.814-1.8l-.958-.021a3.7,3.7,0,0,0-2.9,1.319Z" transform="translate(-1309.468 -1266.106)" fill="#fda4ff"/>
                      <path id="Trazado_1180151" data-name="Trazado 1180151" d="M1310.331,1276.6h-.258a2.639,2.639,0,0,1-2.576-2.689l.072-3.349a6.405,6.405,0,0,1,1.288-3.658,7.815,7.815,0,0,1,3.431-2.432.224.224,0,0,1,.072.443,7.576,7.576,0,0,0-3.143,2.257,5.963,5.963,0,0,0-1.2,3.39l-.072,3.349a2.155,2.155,0,0,0,.608,1.546,2.131,2.131,0,0,0,1.525.67h.247a2.181,2.181,0,0,0,2.123-1.69.237.237,0,0,1,.268-.175.231.231,0,0,1,.175.268,2.635,2.635,0,0,1-2.566,2.051Z" transform="translate(-1307.497 -1264.469)"/>
                    </g>
                    <g id="Grupo_1226443" data-name="Grupo 1226443" transform="translate(6.327 2.916)">
                      <path id="Trazado_1180152" data-name="Trazado 1180152" d="M1349.6,1232.079l-.69.824a7.359,7.359,0,0,0-1.711,4.544l-.1,4.885a2.388,2.388,0,0,0,2.349,2.442h.206a2.382,2.382,0,0,0,2.442-2.349l.1-5.06a6.829,6.829,0,0,1,1.6-4.245l.2-.227a1.2,1.2,0,0,0-.9-1.979l-.907-.021a3.317,3.317,0,0,0-2.6,1.175Z" transform="translate(-1346.868 -1230.678)" fill="#fda4ff"/>
                      <path id="Trazado_1180153" data-name="Trazado 1180153" d="M1347.731,1243.134h-.258a2.639,2.639,0,0,1-2.576-2.69l.1-4.884a7.52,7.52,0,0,1,1.762-4.689l.69-.824a3.166,3.166,0,0,1,2.453-1.247h0a.227.227,0,0,1,.227.216.236.236,0,0,1-.216.237,2.763,2.763,0,0,0-2.123,1.092l-.69.824a7.131,7.131,0,0,0-1.649,4.41l-.1,4.885a2.181,2.181,0,0,0,2.133,2.215h.247a2.187,2.187,0,0,0,2.174-2.133l.021-.855a.229.229,0,0,1,.227-.227h0a.231.231,0,0,1,.227.237l-.021.855A2.635,2.635,0,0,1,1347.731,1243.134Z" transform="translate(-1344.897 -1228.8)"/>
                    </g>
                    <g id="Grupo_1226444" data-name="Grupo 1226444" transform="translate(10.109)">
                      <path id="Trazado_1180154" data-name="Trazado 1180154" d="M1386.3,1203.776l-.629.67a7.958,7.958,0,0,0-1.669,4.8l-.1,4.884a2.389,2.389,0,0,0,2.349,2.442h.206a2.382,2.382,0,0,0,2.442-2.35l.1-5.06c.031-1.556-.093-3.349-.093-3.349l2.659-3s-1.36-.093-1.68-.1l-.907-.021A4.192,4.192,0,0,0,1386.3,1203.776Z" transform="translate(-1383.657 -1202.468)" fill="#fda4ff"/>
                      <path id="Trazado_1180155" data-name="Trazado 1180155" d="M1384.431,1214.844h-.258a2.673,2.673,0,0,1-1.845-.814,2.639,2.639,0,0,1-.732-1.875l.1-4.884a8.3,8.3,0,0,1,1.628-4.823,5.06,5.06,0,0,1,3.545-1.948h.041l2.679.062a.231.231,0,0,1,.227.237.229.229,0,0,1-.227.227h0l-2.679-.062h-.031a4.622,4.622,0,0,0-3.184,1.772,7.835,7.835,0,0,0-1.535,4.555l-.1,4.885a2.155,2.155,0,0,0,.608,1.546,2.132,2.132,0,0,0,1.525.67h.206a2.173,2.173,0,0,0,2.215-2.123l.041-8.45a.229.229,0,0,1,.227-.227h0a.229.229,0,0,1,.227.227l-.041,8.46a2.635,2.635,0,0,1-2.628,2.576Z" transform="translate(-1381.597 -1200.5)"/>
                    </g>
                  </g>
                  <g id="Grupo_1226446" data-name="Grupo 1226446" transform="translate(18.411 25.429)">
                    <path id="Trazado_1180156" data-name="Trazado 1180156" d="M1479.634,1418.242l-7.234,1.618.495-3.957a6.971,6.971,0,0,1,4.411-5.647c.546-.319,2.473-.484,2.71-2.391a10.156,10.156,0,0,1,1.772-4.988,4.53,4.53,0,0,1,4.431-2.216h.083a1.72,1.72,0,0,1,1.206,2.669,7.765,7.765,0,0,0-1.742,3.792l-.629,5.07a7.106,7.106,0,0,1-5.5,6.059Z" transform="translate(-1467.087 -1400.396)" fill="#fda4ff"/>
                    <path id="Trazado_1180157" data-name="Trazado 1180157" d="M1421.076,1433.141a.2.2,0,0,1-.1-.021.214.214,0,0,1-.1-.3l6.554-13.623a4.39,4.39,0,0,1,1-1.35,5.3,5.3,0,0,1,2.422-1.247l2.494-.556a6.877,6.877,0,0,0,5.317-5.864l.629-5.07a7.166,7.166,0,0,1,1.546-3.535c.082-.113.165-.237.237-.35a1.475,1.475,0,0,0,.124-1.443,1.5,1.5,0,0,0-1.175-.866h-.082a4.239,4.239,0,0,0-4.173,2.051.586.586,0,0,1-.041.062,9.69,9.69,0,0,0-1.7,4.637c-.01.113-.021.2-.031.247a2.9,2.9,0,0,1-2.349,2.36,2.82,2.82,0,0,0-.464.185c-.01,0-.021.01-.031.021a6.744,6.744,0,0,0-4.266,5.472l-.144,1.2a.225.225,0,0,1-.258.2.23.23,0,0,1-.2-.258l.144-1.2a7.217,7.217,0,0,1,4.544-5.832,3.7,3.7,0,0,1,.536-.206c.793-.268,1.875-.639,2.051-2v-.021c0-.031.021-.113.021-.206a10.081,10.081,0,0,1,1.783-4.854l.01-.01.021-.031a4.708,4.708,0,0,1,4.617-2.277h.082a1.954,1.954,0,0,1,1.371,3.019c-.083.124-.165.237-.247.361a6.732,6.732,0,0,0-1.463,3.339l-.628,5.07a7.338,7.338,0,0,1-5.678,6.245l-2.494.556a4.916,4.916,0,0,0-2.216,1.144,3.881,3.881,0,0,0-.9,1.206l-6.554,13.623A.227.227,0,0,1,1421.076,1433.141Z" transform="translate(-1420.843 -1398.415)"/>
                  </g>
                </g>
                <path id="Trazado_1180158" data-name="Trazado 1180158" d="M1115.979,1582.2l22.567,8.7-18.322,36.767-21.125-13.922Z" transform="translate(-1099.1 -1537.833)" fill="#8c7bff"/>
                <path id="Trazado_1180159" data-name="Trazado 1180159" d="M1156.854,1626.12a.187.187,0,0,1-.1-.021.234.234,0,0,1-.1-.309l18.373-36.891-22.145-8.532-12.324,23.247a.228.228,0,0,1-.4-.216l12.427-23.433a.22.22,0,0,1,.278-.1l22.567,8.7a.245.245,0,0,1,.134.134.287.287,0,0,1,0,.186L1157.07,1626a.227.227,0,0,1-.206.124Z" transform="translate(-1135.894 -1535.722)"/>
              </g>
            </g>
          </g>
          <g id="Grupo_1226451" data-name="Grupo 1226451" transform="translate(0.446 9.192)">
            <circle id="Elipse_12674" data-name="Elipse 12674" cx="6.09" cy="6.09" r="6.09" transform="translate(23.049)" fill="#fed101"/>
            <path id="Trazado_1180160" data-name="Trazado 1180160" d="M366.549,1264.91c2.772-2.916,3.854-6.379,2.422-8.821-1.958-3.339-8.429-3.555-13.252-.34-10.315,6.853-5.853,14.313-6.368,15.509-.763,1.772-4,2.71-4.792,4.771-.711,1.865,1.051,4.709.371,6.75-.639,1.927-3.761,3.164-4.328,5.2-.546,1.979,1.515,4.627,1.082,6.677-.422,2.03-3.37,3.648-3.638,5.7-.268,2.071,2.164,4.369,2.082,6.43-.072,2.1-2.659,4.245-2.494,6.286.175,2.1,3.071,3.741,3.555,5.74l30.657-1.6a7.223,7.223,0,0,0,.093-3.431c-.68-1.948-3.782-3.195-4.287-5.225s1.659-4.6,1.309-6.636c-.35-2.061-3.225-3.771-3.442-5.822-.227-2.1,2.236-4.39,2.133-6.42-.113-2.143-2.793-4.153-2.813-6.152-.021-2.205,2.648-4.266,2.72-6.193.082-2.339-2.411-4.586-2.277-6.368A27.3,27.3,0,0,1,366.549,1264.91Z" transform="translate(-337.627 -1252.009)"/>
          </g>
        </g>
      </g>
      <g id="Grupo_1226474" data-name="Grupo 1226474" transform="translate(13.108)">
        <g id="Grupo_1226454" data-name="Grupo 1226454" transform="translate(65.086 0.005)">
          <path id="Trazado_1180161" data-name="Trazado 1180161" d="M1118.547,372.977a45.139,45.139,0,0,1,58.7,68.073l-3.524-3.091.742,11.366,11.366-.742-3.359-2.957a52.081,52.081,0,0,0-67.867-78.367Z" transform="translate(-1112.448 -355.34)" fill="#4ada85"/>
          <path id="Trazado_1180162" data-name="Trazado 1180162" d="M1099.905,352.351a44.68,44.68,0,0,1,58.1,67.383l-3.483-3.06.732,11.253,11.253-.732-3.328-2.927A51.552,51.552,0,0,0,1096,346.694l3.906,5.657Z" transform="translate(-1095.764 -336.981)" fill="#fff"/>
          <path id="Trazado_1180163" data-name="Trazado 1180163" d="M1153.2,426.217a.227.227,0,0,1-.227-.216l-.732-11.253a.231.231,0,0,1,.124-.216.217.217,0,0,1,.247.031l3.318,2.916a44.81,44.81,0,0,0,6.09-8.069,44.448,44.448,0,0,0-64.044-58.819.262.262,0,0,1-.175.041.2.2,0,0,1-.144-.093l-3.906-5.657a.24.24,0,0,1,.052-.319,51.779,51.779,0,0,1,67.63,77.749l3.153,2.772a.222.222,0,0,1,.062.247.251.251,0,0,1-.2.155l-11.253.732h-.01Zm-.464-10.944.68,10.48,10.48-.68-2.916-2.566a.205.205,0,0,1-.072-.165.234.234,0,0,1,.062-.165,51.321,51.321,0,0,0-66.692-77.358l3.648,5.286a44.913,44.913,0,0,1,58.211,67.867.224.224,0,0,1-.309.01l-3.071-2.7Z" transform="translate(-1093.713 -335.045)"/>
        </g>
        <g id="Grupo_1226464" data-name="Grupo 1226464" transform="translate(125.903 47.278)">
          <g id="Grupo_1226457" data-name="Grupo 1226457" transform="translate(13.046 45.712)">
            <g id="Grupo_1226455" data-name="Grupo 1226455" transform="translate(0 18.033)">
              <path id="Trazado_1180164" data-name="Trazado 1180164" d="M1848.787,1414.7v6.708a18.044,18.044,0,0,1-36.087,0V1414.7Z" transform="translate(-1812.473 -1414.463)" fill="#fff"/>
              <path id="Trazado_1180165" data-name="Trazado 1180165" d="M1828.77,1437.6a18.284,18.284,0,0,1-18.27-18.26v-6.708a.227.227,0,1,1,.453,0v6.708a17.817,17.817,0,0,0,35.634,0v-6.708a.227.227,0,1,1,.453,0v6.708A18.284,18.284,0,0,1,1828.77,1437.6Z" transform="translate(-1810.5 -1412.4)"/>
            </g>
            <ellipse id="Elipse_12675" data-name="Elipse 12675" cx="18.044" cy="18.023" rx="18.044" ry="18.023" transform="translate(0.227 0.247)" fill="#fed101"/>
            <path id="Trazado_1180166" data-name="Trazado 1180166" d="M1828.77,1273.92a18.26,18.26,0,1,1,18.27-18.26A18.284,18.284,0,0,1,1828.77,1273.92Zm0-36.056a17.8,17.8,0,1,0,17.817,17.8A17.831,17.831,0,0,0,1828.77,1237.864Z" transform="translate(-1810.5 -1237.4)"/>
            <path id="Trazado_1180167" data-name="Trazado 1180167" d="M1858.85,1316.8a.232.232,0,0,1-.227-.2,13.582,13.582,0,0,1-.124-1.834,13.42,13.42,0,0,1,6.492-11.438.226.226,0,1,1,.227.392,12.918,12.918,0,0,0-6.276,11.047c0,4.5.041,1.185.124,1.772a.23.23,0,0,1-.2.258h-.021Z" transform="translate(-1853.554 -1296.506)"/>
            <path id="Trazado_1180168" data-name="Trazado 1180168" d="M1871.547,1462.813a.2.2,0,0,1-.124-.041,13.381,13.381,0,0,1-5.235-6.6.225.225,0,0,1,.423-.155,13,13,0,0,0,5.06,6.368.232.232,0,0,1-.124.422Z" transform="translate(-1860.438 -1433.362)"/>
            <path id="Trazado_1180169" data-name="Trazado 1180169" d="M1939.37,1479.608a13.244,13.244,0,0,1-5.431-1.154.226.226,0,1,1,.185-.412,12.9,12.9,0,0,0,16.611-5.7.228.228,0,1,1,.4.216A13.321,13.321,0,0,1,1939.37,1479.608Z" transform="translate(-1921.1 -1448.024)"/>
            <path id="Trazado_1180170" data-name="Trazado 1180170" d="M2079.191,1335.6h-.052a.227.227,0,0,1-.165-.278,13.126,13.126,0,0,0,.392-3.174,12.792,12.792,0,0,0-3.771-9.1.218.218,0,0,1,0-.32.227.227,0,0,1,.32,0,13.246,13.246,0,0,1,3.906,9.418c0,3.555-.134,2.216-.412,3.287a.239.239,0,0,1-.216.175Z" transform="translate(-2048.215 -1313.876)"/>
            <path id="Trazado_1180171" data-name="Trazado 1180171" d="M1963.671,1288a.18.18,0,0,1-.124-.041,12.855,12.855,0,0,0-7.193-2.195,7.192,7.192,0,0,0-3.339.433.229.229,0,0,1-.113-.443,13.454,13.454,0,0,1,3.452-.453,13.225,13.225,0,0,1,7.45,2.277.231.231,0,0,1-.124.422Z" transform="translate(-1938.074 -1280.364)"/>
            <path id="Trazado_1180172" data-name="Trazado 1180172" d="M2094.327,1569.354a.229.229,0,0,1-.227-.227v-5.1a.227.227,0,1,1,.453,0v5.1A.229.229,0,0,1,2094.327,1569.354Z" transform="translate(-2064.876 -1530.166)"/>
            <path id="Trazado_1180173" data-name="Trazado 1180173" d="M2068.327,1600.085a.229.229,0,0,1-.227-.227v-3.432a.227.227,0,0,1,.454,0v3.432A.229.229,0,0,1,2068.327,1600.085Z" transform="translate(-2041.555 -1559.227)"/>
            <path id="Trazado_1180174" data-name="Trazado 1180174" d="M2039.027,1613.185a.229.229,0,0,1-.227-.227v-3.431a.227.227,0,1,1,.453,0v3.431A.229.229,0,0,1,2039.027,1613.185Z" transform="translate(-2015.274 -1570.977)"/>
            <g id="Grupo_1226456" data-name="Grupo 1226456" transform="translate(14.241 8.49)">
              <path id="Trazado_1180175" data-name="Trazado 1180175" d="M1949.318,1357.3a.248.248,0,0,1-.206-.124,4.01,4.01,0,0,1,3.607-5.781,3.431,3.431,0,0,1,3.648,2.319.226.226,0,0,1-.412.186,3.567,3.567,0,0,0-6.8,1.5c0,1.968.124,1.072.361,1.566a.248.248,0,0,1-.1.309.169.169,0,0,1-.1.021Z" transform="translate(-1948.7 -1348.143)"/>
              <path id="Trazado_1180176" data-name="Trazado 1180176" d="M1960.764,1427.948a4.026,4.026,0,0,1-3.05-1.4.226.226,0,1,1,.34-.3,3.567,3.567,0,0,0,6.276-2.319c0-1.968-.144-1.154-.412-1.669a.228.228,0,0,1,.4-.216,3.98,3.98,0,0,1,.464,1.875,4.024,4.024,0,0,1-4.019,4.019Z" transform="translate(-1956.735 -1411.397)"/>
              <path id="Trazado_1180177" data-name="Trazado 1180177" d="M1983.5,1479.174a.227.227,0,0,1-.227-.216l-.072-2.72a.236.236,0,0,1,.216-.237h0a.229.229,0,0,1,.227.227l.072,2.72a.236.236,0,0,1-.217.237h0Z" transform="translate(-1979.645 -1459.903)"/>
              <path id="Trazado_1180178" data-name="Trazado 1180178" d="M1984.3,1323.493a.227.227,0,0,1-.227-.216l-.175-3.246a.229.229,0,0,1,.216-.237.223.223,0,0,1,.237.216l.175,3.246a.229.229,0,0,1-.217.237Z" transform="translate(-1980.273 -1319.793)"/>
              <path id="Trazado_1180179" data-name="Trazado 1180179" d="M1969.082,1408.411h-.041l-4.122-.824a.226.226,0,1,1,.093-.443l4.122.824a.219.219,0,0,1,.175.268.233.233,0,0,1-.227.186Z" transform="translate(-1963.084 -1398.136)"/>
            </g>
          </g>
          <g id="Grupo_1226460" data-name="Grupo 1226460" transform="translate(0 68.289)">
            <g id="Grupo_1226458" data-name="Grupo 1226458" transform="translate(0 13.623)">
              <path id="Trazado_1180180" data-name="Trazado 1180180" d="M1713.366,1590.9v5.07a13.633,13.633,0,0,1-27.266,0v-5.07h27.277Z" transform="translate(-1685.873 -1590.673)" fill="#fff"/>
              <path id="Trazado_1180181" data-name="Trazado 1180181" d="M1697.76,1607.846A13.868,13.868,0,0,1,1683.9,1594v-5.07a.227.227,0,1,1,.453,0V1594a13.406,13.406,0,0,0,26.813,0v-5.07a.227.227,0,0,1,.453,0V1594A13.875,13.875,0,0,1,1697.76,1607.846Z" transform="translate(-1683.9 -1588.7)"/>
            </g>
            <ellipse id="Elipse_12676" data-name="Elipse 12676" cx="13.633" cy="13.623" rx="13.633" ry="13.623" transform="translate(0.227 0.227)" fill="#fed101"/>
            <path id="Trazado_1180182" data-name="Trazado 1180182" d="M1697.76,1484.2a13.85,13.85,0,1,1,13.86-13.85A13.868,13.868,0,0,1,1697.76,1484.2Zm0-27.256a13.4,13.4,0,1,0,13.406,13.4A13.411,13.411,0,0,0,1697.76,1456.943Z" transform="translate(-1683.9 -1456.5)"/>
            <path id="Trazado_1180183" data-name="Trazado 1180183" d="M1720.419,1516.6a.232.232,0,0,1-.227-.2,10.411,10.411,0,0,1-.093-1.391,10.168,10.168,0,0,1,4.936-8.687.226.226,0,0,1,.227.392,9.732,9.732,0,0,0-4.719,8.306c0,3.39.031.9.093,1.329a.23.23,0,0,1-.2.258h-.031Z" transform="translate(-1716.37 -1501.165)"/>
            <path id="Trazado_1180184" data-name="Trazado 1180184" d="M1729.99,1626.926a.2.2,0,0,1-.124-.041,10.189,10.189,0,0,1-3.978-5.008.225.225,0,1,1,.423-.155,9.719,9.719,0,0,0,3.8,4.781.232.232,0,0,1-.124.422Z" transform="translate(-1721.55 -1604.565)"/>
            <path id="Trazado_1180185" data-name="Trazado 1180185" d="M1781.271,1639.518a10.154,10.154,0,0,1-4.132-.876.226.226,0,1,1,.186-.412,9.7,9.7,0,0,0,12.489-4.287.228.228,0,1,1,.4.216A10.124,10.124,0,0,1,1781.271,1639.518Z" transform="translate(-1767.412 -1615.549)"/>
            <path id="Trazado_1180186" data-name="Trazado 1180186" d="M1886.946,1530.738h-.052a.227.227,0,0,1-.165-.278,9.72,9.72,0,0,0,.3-2.38,9.6,9.6,0,0,0-2.834-6.832.218.218,0,0,1,0-.319.227.227,0,0,1,.319,0,10.04,10.04,0,0,1,2.968,7.151c0,2.7-.1,1.68-.309,2.494a.239.239,0,0,1-.216.175Z" transform="translate(-1863.492 -1514.23)"/>
            <path id="Trazado_1180187" data-name="Trazado 1180187" d="M1799.654,1494.843a.18.18,0,0,1-.124-.041,9.613,9.613,0,0,0-5.41-1.649,5.326,5.326,0,0,0-2.5.33.229.229,0,0,1-.114-.443,10.208,10.208,0,0,1,2.628-.34,10.09,10.09,0,0,1,5.668,1.731.232.232,0,0,1-.124.423Z" transform="translate(-1780.26 -1488.97)"/>
            <path id="Trazado_1180188" data-name="Trazado 1180188" d="M1898.427,1707.307a.229.229,0,0,1-.227-.227v-3.854a.227.227,0,1,1,.453,0v3.854A.229.229,0,0,1,1898.427,1707.307Z" transform="translate(-1876.117 -1677.599)"/>
            <path id="Trazado_1180189" data-name="Trazado 1180189" d="M1878.727,1730.64a.229.229,0,0,1-.227-.227v-2.586a.227.227,0,1,1,.453,0v2.586A.229.229,0,0,1,1878.727,1730.64Z" transform="translate(-1858.447 -1699.664)"/>
            <path id="Trazado_1180190" data-name="Trazado 1180190" d="M1856.527,1740.54a.229.229,0,0,1-.227-.227v-2.587a.227.227,0,1,1,.453,0v2.587A.229.229,0,0,1,1856.527,1740.54Z" transform="translate(-1838.535 -1708.544)"/>
            <g id="Grupo_1226459" data-name="Grupo 1226459" transform="translate(10.758 6.399)">
              <path id="Trazado_1180191" data-name="Trazado 1180191" d="M1788.815,1547.076a.248.248,0,0,1-.206-.124,3.1,3.1,0,0,1,2.793-4.452,2.633,2.633,0,0,1,2.8,1.783.226.226,0,0,1-.412.185,2.637,2.637,0,0,0-5.029,1.113c0,1.453.093.793.268,1.164a.248.248,0,0,1-.1.309.169.169,0,0,1-.1.021Z" transform="translate(-1788.3 -1540.037)"/>
              <path id="Trazado_1180192" data-name="Trazado 1180192" d="M1797.463,1600.4a3.075,3.075,0,0,1-2.35-1.082.226.226,0,0,1,.34-.3,2.645,2.645,0,0,0,4.647-1.721c0-1.453-.1-.855-.309-1.237a.228.228,0,0,1,.4-.216,3.055,3.055,0,0,1,.361,1.443,3.1,3.1,0,0,1-3.1,3.091Z" transform="translate(-1794.361 -1587.774)"/>
              <path id="Trazado_1180193" data-name="Trazado 1180193" d="M1814.578,1639.114a.227.227,0,0,1-.227-.216l-.052-2.061a.236.236,0,0,1,.216-.237h0a.227.227,0,0,1,.227.216l.052,2.061a.236.236,0,0,1-.216.237Z" transform="translate(-1811.621 -1624.44)"/>
              <path id="Trazado_1180194" data-name="Trazado 1180194" d="M1815.261,1521.5a.227.227,0,0,1-.227-.216l-.134-2.453a.229.229,0,0,1,.216-.237.223.223,0,0,1,.237.217l.134,2.452a.229.229,0,0,1-.216.237Z" transform="translate(-1812.159 -1518.593)"/>
              <path id="Trazado_1180195" data-name="Trazado 1180195" d="M1803.772,1585.715h-.041l-3.112-.629a.226.226,0,0,1,.093-.443l3.112.629a.219.219,0,0,1,.175.268.233.233,0,0,1-.227.186Z" transform="translate(-1799.186 -1577.831)"/>
            </g>
          </g>
          <g id="Grupo_1226463" data-name="Grupo 1226463" transform="translate(16.735)">
            <g id="Grupo_1226461" data-name="Grupo 1226461" transform="translate(0 12.819)">
              <path id="Trazado_1180196" data-name="Trazado 1180196" d="M1874.259,920.4v4.771a12.829,12.829,0,0,1-25.659,0V920.4h25.659Z" transform="translate(-1848.363 -920.173)" fill="#fff"/>
              <path id="Trazado_1180197" data-name="Trazado 1180197" d="M1859.356,936.244A13.064,13.064,0,0,1,1846.3,923.2v-4.771a.227.227,0,1,1,.453,0V923.2a12.6,12.6,0,0,0,25.205,0v-4.771a.227.227,0,1,1,.453,0V923.2A13.07,13.07,0,0,1,1859.356,936.244Z" transform="translate(-1846.3 -918.2)"/>
            </g>
            <ellipse id="Elipse_12677" data-name="Elipse 12677" cx="12.829" cy="12.819" rx="12.829" ry="12.819" transform="translate(0.227 0.227)" fill="#fed101"/>
            <path id="Trazado_1180198" data-name="Trazado 1180198" d="M1859.356,819.892a13.046,13.046,0,1,1,13.056-13.046A13.064,13.064,0,0,1,1859.356,819.892Zm0-25.648a12.592,12.592,0,1,0,12.6,12.592A12.606,12.606,0,0,0,1859.356,794.243Z" transform="translate(-1846.3 -793.8)"/>
            <path id="Trazado_1180199" data-name="Trazado 1180199" d="M1880.72,850.324a.232.232,0,0,1-.227-.2,9.322,9.322,0,0,1-.093-1.309,9.6,9.6,0,0,1,4.647-8.192.226.226,0,1,1,.227.392,9.151,9.151,0,0,0-4.431,7.8c0,3.174.031.835.082,1.247a.23.23,0,0,1-.2.258h-.01Z" transform="translate(-1876.886 -835.774)"/>
            <path id="Trazado_1180200" data-name="Trazado 1180200" d="M1889.763,954.138a.2.2,0,0,1-.124-.041,9.616,9.616,0,0,1-3.751-4.72.225.225,0,0,1,.423-.155,9.146,9.146,0,0,0,3.576,4.493.232.232,0,0,1-.124.422Z" transform="translate(-1881.798 -933.075)"/>
            <path id="Trazado_1180201" data-name="Trazado 1180201" d="M1937.935,966.009a9.542,9.542,0,0,1-3.9-.824.226.226,0,1,1,.186-.412,8.944,8.944,0,0,0,3.71.783,9.1,9.1,0,0,0,8.027-4.812.228.228,0,1,1,.4.216,9.551,9.551,0,0,1-8.429,5.049Z" transform="translate(-1924.878 -943.431)"/>
            <path id="Trazado_1180202" data-name="Trazado 1180202" d="M2037.491,863.681h-.052a.227.227,0,0,1-.165-.278,9.09,9.09,0,0,0-2.38-8.656.218.218,0,0,1,0-.319.227.227,0,0,1,.319,0,9.462,9.462,0,0,1,2.793,6.739c0,2.545-.1,1.587-.289,2.349a.239.239,0,0,1-.216.175Z" transform="translate(-2015.398 -848.121)"/>
            <path id="Trazado_1180203" data-name="Trazado 1180203" d="M1955.28,829.851a.18.18,0,0,1-.124-.041,9.083,9.083,0,0,0-5.08-1.556,5.02,5.02,0,0,0-2.36.309.229.229,0,1,1-.113-.443,9.614,9.614,0,0,1,7.811,1.309.232.232,0,0,1-.124.422Z" transform="translate(-1937.01 -824.297)"/>
            <path id="Trazado_1180204" data-name="Trazado 1180204" d="M2048.227,1029.881a.229.229,0,0,1-.227-.227v-3.627a.227.227,0,1,1,.453,0v3.627A.229.229,0,0,1,2048.227,1029.881Z" transform="translate(-2027.215 -1001.893)"/>
            <path id="Trazado_1180205" data-name="Trazado 1180205" d="M2029.727,1051.8a.229.229,0,0,1-.227-.227v-2.442a.227.227,0,1,1,.453,0v2.442A.229.229,0,0,1,2029.727,1051.8Z" transform="translate(-2010.622 -1022.613)"/>
            <path id="Trazado_1180206" data-name="Trazado 1180206" d="M2008.827,1061a.229.229,0,0,1-.227-.227v-2.442a.227.227,0,1,1,.453,0v2.442A.229.229,0,0,1,2008.827,1061Z" transform="translate(-1991.876 -1030.865)"/>
            <g id="Grupo_1226462" data-name="Grupo 1226462" transform="translate(10.13 6.028)">
              <path id="Trazado_1180207" data-name="Trazado 1180207" d="M1945.105,878.938a.247.247,0,0,1-.206-.124,2.926,2.926,0,0,1,2.628-4.215,2.479,2.479,0,0,1,2.648,1.69.226.226,0,0,1-.412.186,2.472,2.472,0,0,0-4.709,1.051c0,1.36.083.742.247,1.082a.248.248,0,0,1-.1.309.169.169,0,0,1-.1.021Z" transform="translate(-1944.6 -872.301)"/>
              <path id="Trazado_1180208" data-name="Trazado 1180208" d="M1953.229,929.24a2.909,2.909,0,0,1-2.215-1.02.226.226,0,1,1,.34-.3,2.47,2.47,0,0,0,4.349-1.608c0-1.36-.1-.8-.289-1.154a.228.228,0,0,1,.4-.216,3,3,0,0,1,.34,1.37A2.925,2.925,0,0,1,1953.229,929.24Z" transform="translate(-1950.303 -917.348)"/>
              <path id="Trazado_1180209" data-name="Trazado 1180209" d="M1969.379,965.691a.227.227,0,0,1-.227-.216l-.052-1.937a.227.227,0,1,1,.453-.01l.052,1.937a.236.236,0,0,1-.216.237h0Z" transform="translate(-1966.576 -951.861)"/>
              <path id="Trazado_1180210" data-name="Trazado 1180210" d="M1969.951,855.056a.227.227,0,0,1-.227-.216l-.124-2.308a.229.229,0,0,1,.216-.237.223.223,0,0,1,.237.216l.124,2.308a.229.229,0,0,1-.216.237Z" transform="translate(-1967.024 -852.293)"/>
              <path id="Trazado_1180211" data-name="Trazado 1180211" d="M1959.186,915.474h-.041l-2.927-.587a.226.226,0,0,1,.093-.443l2.927.587a.219.219,0,0,1,.175.268.232.232,0,0,1-.227.186Z" transform="translate(-1954.858 -908.033)"/>
            </g>
          </g>
        </g>
        <g id="Grupo_1226473" data-name="Grupo 1226473">
          <g id="Grupo_1226466" data-name="Grupo 1226466">
            <circle id="Elipse_12678" data-name="Elipse 12678" cx="40.127" cy="40.127" r="40.127" transform="translate(0.227 0.227)" fill="#fff"/>
            <g id="Grupo_1226465" data-name="Grupo 1226465" transform="translate(0.464 2.844)">
              <path id="Trazado_1180212" data-name="Trazado 1180212" d="M569.509,721.476l-3.947-1.752-1.752-3.679h-2.1l-.969-1.927h-1.845l-.969-.618h-4.3l-2.339,1.752.7,1.371-.464,2.051-1.577,1.4.237,1.577-.587.938,3.771,5.688,2.545,1.927.268,6.183.567,2.02-.392,2.545,1.443,2.978,1.268,4.2,1.113,1.072c.546.33,1.092.649,1.659.948h2.277l.134-.835-1.535-.484-1.051-1.443.659-1.443-.793-.793,1.185-3.421,1.36-.618,3.071-5.616v-1.752l.793-.793h2.628l.876-5.791,1.494-3.328-1.669-2.37h-1.752Z" transform="translate(-541.047 -677.341)" fill="#fed101"/>
              <path id="Trazado_1180213" data-name="Trazado 1180213" d="M466.611,429.893l2.236,1.1,1.092-.216,1.226,1.36,1.927.567.392,1.267,1.669,1.185,1.36.7v-1.711h-.969l-.392-.793.175-2.937h-2.143l.917-2.628h-2.02l-.484,1.36-2.02-.309-.309-2.453.618-1.092v-.969l1.968-.969,1.669.526,1.618-.876,1.36.526v2.1l1.267-.289-.113-2.865,2.978-1.814,2.164-3.328,1.288-.237,1.875-1.69.464.639,2.927-1.226-1.4-.639.814-1.69,2.051.062-.464.989,2.751.587.35-1.638-.7-.35.175-2.576-1.288-.175-.113-2.452-1.927.876-.237-1.113-2.545-.763-1.494,2.8-1.638,1.051-.763,1.638-.938-.289.7-1.69-2.865-1.113-.412-1.226,3.39-1.515,3.215-.113,1.927-2.751,1.288-.062.938.876-1.226.876-1.577.464,3.452,1.4,3.1-2.453L491.2,400.7h-4.379l-.907.793v.948l-.938.144-.268-1.288-1.752.639v1.082l-1.8.134a40.069,40.069,0,0,0-14.55,26.73Z" transform="translate(-466.6 -396.774)" fill="#fed101"/>
              <path id="Trazado_1180214" data-name="Trazado 1180214" d="M548.2,653.057l1.319-.557,1.432.278,2.071,1.36-.464.67-1.144-.412-.8-.907-1.092-.175-1.319.474Z" transform="translate(-539.791 -622.627)" fill="#fed101"/>
              <path id="Trazado_1180215" data-name="Trazado 1180215" d="M595.763,671.5h1.4l1.02.814-1.206.5L595,672.664Z" transform="translate(-581.769 -639.669)" fill="#fed101"/>
              <path id="Trazado_1180216" data-name="Trazado 1180216" d="M734.5,364.475h2.288l3.04-1.288,9.7-.587,3.978.649-2.277.938-.474,1.927-1.515.814-.237,1.4-2.339.876H745.2l-1.453,1.113h-1.587l-2.916,2.865-.938-.639-1.288-1.051.062-2.339,1.4-.587-.639-1.288.113-1.288-1.577-.526-1.463.237Z" transform="translate(-706.894 -362.6)" fill="#fed101"/>
              <path id="Trazado_1180217" data-name="Trazado 1180217" d="M860.086,432.4h3.04l.237.763-1.927.763h-1.35L859.2,432.4Z" transform="translate(-818.744 -425.207)" fill="#fed101"/>
              <path id="Trazado_1180218" data-name="Trazado 1180218" d="M1137.44,840.8l-.989,1.875-1.4.35v2.04l-.649.938.3,2.1.989.412.814-.587,1.762-5.2Z" transform="translate(-1065.585 -791.523)" fill="#fed101"/>
              <path id="Trazado_1180219" data-name="Trazado 1180219" d="M887.015,593.667l-.237,1.752-1.638,3.071-1.69.927-1.638,2.288-.587,1.515.649,2.69v2.865l-2.576,1.865v2.813l-1.113.814-.587,1.752-2.556,2.4-3.957,1.051-.732-2.339v-1.113l-1.165-.989-.3-2.628-1.1-2.463.289-2.452.7-.7-.587-3.1-1.814-2.69v-2.854l-1.34-.412-.938-1-2.566,1-1.638-.474-1.463.587-2.69-1.865-2.04-3.627.577-1.638-.052-2.8,1.278-2.514,1.35-1.051,1.288-1.927,1.752-1.577h1.463l1.164-.526,4.915-.412v1.752l1.752.639,1.9,1.175.845-1.226,2.813.876,2.566-.175.876,2.689,1.577,2.391.412,1.7.989,1.989,2.288,2.566Z" transform="translate(-813.811 -557.508)" fill="#fed101"/>
              <path id="Trazado_1180220" data-name="Trazado 1180220" d="M922.922,433.354l1.927.793.876-.216.35.659,1.577.567,2.123-.237a40.069,40.069,0,0,0-13.932-22.639l-.752.309L909.4,410.9l-2.854.319-2.051,2.659-2.906,1.546.969,1.793,1.535-.711.618.979.093,1.051,1.752-.526.041-.969.835-.536-.7-1.34,1.577-1.711,1.092.422-1.474,1.113.33.969,1.144,1.092-1.01.526-.7,1.494h-3.947l.216-1.494-1.051.268.093,1.4-1.36.567-1.494,1.577h-1.185l-1.711.835L899,423.76l-.041,1.092-2.978.093-1.185,2.061.464,1.319,1.329.484,2.061-.484.659-1.144,1.268-.763.484-1.556,1.185.443,1.226-.835,1.01,1.577,1.649.7v.742l-1.34.309,1.515,1.01.237-.835.917-1.443-1.711-1.144-.618-1.36,2.782,1.886.732,2.02,1.185.742.35-2.37.742.268v1.36l1.4,1.01,1.01-.268.969.309,1.144-.134-.443,3.112,2.236,3.988.526,1.577,2.854,4.163,3.225-1.577,2.865-1.845.66-1.845-1.886-1.669-.969.526-1.092-.134-.835-1.226-1.267-1.535,1.01-.216.567,1.185Z" transform="translate(-850.675 -405.923)" fill="#fed101"/>
              <path id="Trazado_1180221" data-name="Trazado 1180221" d="M920.508,467.712l.35,1.453,1.113,1.381-1.144,1.02-1.608.144.618-2-.938-1.422.763-.989Z" transform="translate(-872.292 -456.511)" fill="#fed101"/>
              <path id="Trazado_1180222" data-name="Trazado 1180222" d="M901.795,488.7h-1.432l-.763,1.8,1.752-.381Z" transform="translate(-854.981 -475.706)" fill="#fed101"/>
            </g>
            <path id="Trazado_1180223" data-name="Trazado 1180223" d="M502.453,415.707a40.353,40.353,0,0,1,0-80.707c22.248,0,37.664,15.282,40.065,35.551a.229.229,0,0,1-.453.062,39.9,39.9,0,0,0-39.622-35.149c-20.208,0-39.9,17.9-39.9,39.9a39.945,39.945,0,0,0,39.9,39.9c22,0,26.617-7.079,33.954-18.94a.224.224,0,1,1,.381.237,40.316,40.316,0,0,1-34.346,19.156Z" transform="translate(-462.1 -335)"/>
          </g>
          <g id="Grupo_1226472" data-name="Grupo 1226472" transform="translate(48.984 18.368)">
            <g id="Grupo_1226467" data-name="Grupo 1226467">
              <path id="Trazado_1180224" data-name="Trazado 1180224" d="M1015.344,530.68H937.688a.239.239,0,0,1-.227-.185.229.229,0,0,1,.134-.258l38.828-16.972a.286.286,0,0,1,.185,0l38.828,16.972a.223.223,0,0,1,.134.258A.232.232,0,0,1,1015.344,530.68Zm-76.564-.453h75.482l-37.736-16.5-37.736,16.5Z" transform="translate(-937.457 -513.25)"/>
              <path id="Trazado_1180225" data-name="Trazado 1180225" d="M1068.032,555.1a.215.215,0,0,1-.206-.134.226.226,0,0,1,.113-.3l25.4-11.1a.286.286,0,0,1,.185,0l9.1,3.978a.226.226,0,0,1-.186.412l-9.017-3.936-25.308,11.067a.3.3,0,0,1-.093.021Z" transform="translate(-1054.374 -540.428)"/>
            </g>
            <g id="Grupo_1226468" data-name="Grupo 1226468" transform="translate(5.033 16.977)">
              <path id="Trazado_1180226" data-name="Trazado 1180226" d="M999.676,680.473H986.527a.229.229,0,0,1-.227-.227v-2.02a.229.229,0,0,1,.227-.227h13.149a.229.229,0,0,1,.227.227v2.02A.229.229,0,0,1,999.676,680.473Zm-12.922-.453h12.7v-1.566h-12.7Z" transform="translate(-986.3 -678)"/>
              <path id="Trazado_1180227" data-name="Trazado 1180227" d="M999.676,998.573H986.527a.229.229,0,0,1-.227-.227v-2.02a.229.229,0,0,1,.227-.227h13.149a.229.229,0,0,1,.227.227v2.02A.229.229,0,0,1,999.676,998.573Zm-12.922-.453h12.7v-1.566h-12.7Z" transform="translate(-986.3 -963.321)"/>
              <path id="Trazado_1180228" data-name="Trazado 1180228" d="M1016.03,728.834h-8.9a.229.229,0,0,1-.227-.227v-30.78a.229.229,0,0,1,.227-.227h8.9a.229.229,0,0,1,.227.227v30.78A.229.229,0,0,1,1016.03,728.834Zm-8.677-.453h8.45V698.053h-8.45Z" transform="translate(-1004.777 -695.58)"/>
              <path id="Trazado_1180229" data-name="Trazado 1180229" d="M1023.527,736.023a.229.229,0,0,1-.227-.227V711.127a.227.227,0,1,1,.453,0V735.8A.229.229,0,0,1,1023.527,736.023Z" transform="translate(-1019.487 -707.51)"/>
              <path id="Trazado_1180230" data-name="Trazado 1180230" d="M1049.527,735.58a.229.229,0,0,1-.227-.227V711.127a.227.227,0,1,1,.453,0v24.226A.229.229,0,0,1,1049.527,735.58Z" transform="translate(-1042.808 -707.51)"/>
              <path id="Trazado_1180231" data-name="Trazado 1180231" d="M1075.527,735.026a.229.229,0,0,1-.227-.227V711.027a.227.227,0,0,1,.453,0V734.8A.229.229,0,0,1,1075.527,735.026Z" transform="translate(-1066.129 -707.42)"/>
            </g>
            <g id="Grupo_1226469" data-name="Grupo 1226469" transform="translate(23.242 16.977)">
              <path id="Trazado_1180232" data-name="Trazado 1180232" d="M1176.376,680.473h-13.149a.229.229,0,0,1-.227-.227v-2.02a.229.229,0,0,1,.227-.227h13.149a.229.229,0,0,1,.227.227v2.02A.229.229,0,0,1,1176.376,680.473Zm-12.922-.453h12.7v-1.566h-12.7Z" transform="translate(-1163 -678)"/>
              <path id="Trazado_1180233" data-name="Trazado 1180233" d="M1176.376,998.573h-13.149a.229.229,0,0,1-.227-.227v-2.02a.229.229,0,0,1,.227-.227h13.149a.229.229,0,0,1,.227.227v2.02A.229.229,0,0,1,1176.376,998.573Zm-12.922-.453h12.7v-1.566h-12.7Z" transform="translate(-1163 -963.321)"/>
              <path id="Trazado_1180234" data-name="Trazado 1180234" d="M1192.63,728.834h-8.9a.229.229,0,0,1-.227-.227v-30.78a.229.229,0,0,1,.227-.227h8.9a.229.229,0,0,1,.227.227v30.78A.229.229,0,0,1,1192.63,728.834Zm-8.666-.453h8.45V698.053h-8.45Z" transform="translate(-1181.388 -695.58)"/>
              <path id="Trazado_1180235" data-name="Trazado 1180235" d="M1200.227,737.156a.229.229,0,0,1-.227-.227v-25.8a.227.227,0,1,1,.453,0v25.8A.229.229,0,0,1,1200.227,737.156Z" transform="translate(-1196.187 -707.51)"/>
              <path id="Trazado_1180236" data-name="Trazado 1180236" d="M1226.227,736.582a.229.229,0,0,1-.227-.227V711.027a.227.227,0,0,1,.453,0v25.329A.229.229,0,0,1,1226.227,736.582Z" transform="translate(-1219.508 -707.42)"/>
              <path id="Trazado_1180237" data-name="Trazado 1180237" d="M1252.227,736.724a.229.229,0,0,1-.227-.227v-25.37a.227.227,0,1,1,.453,0V736.5A.229.229,0,0,1,1252.227,736.724Z" transform="translate(-1242.829 -707.51)"/>
            </g>
            <g id="Grupo_1226470" data-name="Grupo 1226470" transform="translate(41.44 16.977)">
              <path id="Trazado_1180238" data-name="Trazado 1180238" d="M1352.976,680.473h-13.149a.229.229,0,0,1-.227-.227v-2.02a.229.229,0,0,1,.227-.227h13.149a.229.229,0,0,1,.227.227v2.02A.229.229,0,0,1,1352.976,680.473Zm-12.912-.453h12.7v-1.566h-12.7Z" transform="translate(-1339.6 -678)"/>
              <path id="Trazado_1180239" data-name="Trazado 1180239" d="M1352.976,998.573h-13.149a.229.229,0,0,1-.227-.227v-2.02a.229.229,0,0,1,.227-.227h13.149a.229.229,0,0,1,.227.227v2.02A.229.229,0,0,1,1352.976,998.573Zm-12.912-.453h12.7v-1.566h-12.7Z" transform="translate(-1339.6 -963.321)"/>
              <path id="Trazado_1180240" data-name="Trazado 1180240" d="M1369.33,728.834h-8.9a.229.229,0,0,1-.227-.227v-30.78a.229.229,0,0,1,.227-.227h8.9a.229.229,0,0,1,.227.227v30.78A.229.229,0,0,1,1369.33,728.834Zm-8.666-.453h8.45V698.053h-8.45Z" transform="translate(-1358.078 -695.58)"/>
              <path id="Trazado_1180241" data-name="Trazado 1180241" d="M1376.927,729.582a.229.229,0,0,1-.227-.227V711.127a.227.227,0,1,1,.453,0v18.229A.229.229,0,0,1,1376.927,729.582Z" transform="translate(-1372.877 -707.51)"/>
              <path id="Trazado_1180242" data-name="Trazado 1180242" d="M1402.927,726.628a.229.229,0,0,1-.227-.227V711.027a.227.227,0,1,1,.453,0V726.4A.229.229,0,0,1,1402.927,726.628Z" transform="translate(-1396.198 -707.42)"/>
              <path id="Trazado_1180243" data-name="Trazado 1180243" d="M1428.927,722.908a.229.229,0,0,1-.227-.227V711.027a.227.227,0,0,1,.453,0v11.655A.229.229,0,0,1,1428.927,722.908Z" transform="translate(-1419.519 -707.42)"/>
            </g>
            <g id="Grupo_1226471" data-name="Grupo 1226471" transform="translate(59.648 16.977)">
              <path id="Trazado_1180244" data-name="Trazado 1180244" d="M1529.676,680.473h-13.149a.229.229,0,0,1-.227-.227v-2.02a.229.229,0,0,1,.227-.227h13.149a.229.229,0,0,1,.227.227v2.02A.229.229,0,0,1,1529.676,680.473Zm-12.922-.453h12.7v-1.566h-12.7Z" transform="translate(-1516.3 -678)"/>
              <path id="Trazado_1180245" data-name="Trazado 1180245" d="M1529.676,998.573h-13.149a.229.229,0,0,1-.227-.227v-2.02a.229.229,0,0,1,.227-.227h13.149a.229.229,0,0,1,.227.227v2.02A.229.229,0,0,1,1529.676,998.573Zm-12.922-.453h12.7v-1.566h-12.7Z" transform="translate(-1516.3 -963.321)"/>
              <path id="Trazado_1180246" data-name="Trazado 1180246" d="M1546.03,728.834h-8.9a.229.229,0,0,1-.227-.227v-30.78a.229.229,0,0,1,.227-.227h8.9a.229.229,0,0,1,.227.227v30.78A.229.229,0,0,1,1546.03,728.834Zm-8.666-.453h8.45V698.053h-8.45Z" transform="translate(-1534.778 -695.58)"/>
              <path id="Trazado_1180247" data-name="Trazado 1180247" d="M1553.527,727.676a.229.229,0,0,1-.227-.227V711.127a.227.227,0,1,1,.453,0v16.323A.229.229,0,0,1,1553.527,727.676Z" transform="translate(-1549.487 -707.51)"/>
              <path id="Trazado_1180248" data-name="Trazado 1180248" d="M1579.627,729.582a.229.229,0,0,1-.227-.227V711.127a.227.227,0,1,1,.453,0v18.229A.229.229,0,0,1,1579.627,729.582Z" transform="translate(-1572.898 -707.51)"/>
              <path id="Trazado_1180249" data-name="Trazado 1180249" d="M1605.627,732.179a.229.229,0,0,1-.227-.227V711.127a.227.227,0,1,1,.453,0v20.826A.229.229,0,0,1,1605.627,732.179Z" transform="translate(-1596.219 -707.51)"/>
            </g>
          </g>
        </g>
      </g>
    </g>
  </g>
</svg>
