<svg xmlns="http://www.w3.org/2000/svg" xmlns:xlink="http://www.w3.org/1999/xlink" width="859.083" height="364.271" viewBox="0 0 859.083 364.271">
  <defs>
    <filter id="Trazado_1092080" x="78.746" y="303.918" width="25.63" height="34.645" filterUnits="userSpaceOnUse">
      <feOffset dy="3" input="SourceAlpha"/>
      <feGaussianBlur stdDeviation="3" result="blur"/>
      <feFlood flood-opacity="0.161"/>
      <feComposite operator="in" in2="blur"/>
      <feComposite in="SourceGraphic"/>
    </filter>
    <filter id="Trazado_1092081" x="253.476" y="303.78" width="29.805" height="34.926" filterUnits="userSpaceOnUse">
      <feOffset dy="3" input="SourceAlpha"/>
      <feGaussianBlur stdDeviation="3" result="blur-2"/>
      <feFlood flood-opacity="0.161"/>
      <feComposite operator="in" in2="blur-2"/>
      <feComposite in="SourceGraphic"/>
    </filter>
    <filter id="Trazado_1092082" x="584.167" y="303.638" width="29.754" height="35.209" filterUnits="userSpaceOnUse">
      <feOffset dy="3" input="SourceAlpha"/>
      <feGaussianBlur stdDeviation="3" result="blur-3"/>
      <feFlood flood-opacity="0.161"/>
      <feComposite operator="in" in2="blur-3"/>
      <feComposite in="SourceGraphic"/>
    </filter>
    <filter id="Trazado_1092083" x="751.99" y="303.918" width="31.06" height="34.645" filterUnits="userSpaceOnUse">
      <feOffset dy="3" input="SourceAlpha"/>
      <feGaussianBlur stdDeviation="3" result="blur-4"/>
      <feFlood flood-opacity="0.161"/>
      <feComposite operator="in" in2="blur-4"/>
      <feComposite in="SourceGraphic"/>
    </filter>
    <clipPath id="clip-path">
      <rect id="Rect치ngulo_421752" data-name="Rect치ngulo 421752" width="225" height="348" transform="translate(689 1549)" fill="#fff" stroke="#707070" stroke-width="1" opacity="0.78"/>
    </clipPath>
    <clipPath id="clip-path-2">
      <rect id="Rect치ngulo_421751" data-name="Rect치ngulo 421751" width="443" height="443" transform="translate(-0.458 -0.458)"/>
    </clipPath>
    <clipPath id="clip-path-3">
      <path id="Trazado_1178966" data-name="Trazado 1178966" d="M236.732,181.54s2.186,5.007,12.916,4.352,12.523-5.9,12.523-5.9l-.743-19.433-25.439,1.552Z" transform="translate(-235.989 -160.555)"/>
    </clipPath>
  </defs>
  <g id="Grupo_1226235" data-name="Grupo 1226235" transform="translate(-370.458 -1381.729)">
    <g id="Grupo_1219567" data-name="Grupo 1219567" transform="translate(-2505.543 -751.542)">
      <path id="Trazado_1092052" data-name="Trazado 1092052" d="M234.656,96.131,154.291,176.5a14.649,14.649,0,0,0-4.29,10.36V412.712H333.126V186.856a14.658,14.658,0,0,0-4.29-10.36L248.471,96.131A9.77,9.77,0,0,0,234.656,96.131Z" transform="translate(3067.833 2040)" fill="#1d7083"/>
      <path id="Trazado_1092054" data-name="Trazado 1092054" d="M164.656,120.638,84.291,201A14.649,14.649,0,0,0,80,211.363V377.381H263.125V211.363a14.658,14.658,0,0,0-4.29-10.36l-80.365-80.365A9.77,9.77,0,0,0,164.656,120.638Z" transform="translate(2966.916 2075.331)" fill="#36ceef"/>
      <path id="Trazado_1092055" data-name="Trazado 1092055" d="M94.656,144.519,14.291,224.884A14.649,14.649,0,0,0,10,235.244V342.955H193.126V235.242a14.658,14.658,0,0,0-4.29-10.36l-80.365-80.365A9.768,9.768,0,0,0,94.656,144.519Z" transform="translate(2866 2109.756)" fill="#86b60c"/>
      <g id="Grupo_1219555" data-name="Grupo 1219555" transform="translate(2942.49 2426.439)">
        <circle id="Elipse_12054" data-name="Elipse 12054" cx="22.873" cy="22.873" r="22.873" transform="translate(2.197 2.198)" fill="#86b60c"/>
        <path id="Trazado_1092075" data-name="Trazado 1092075" d="M62.3,217.735a20.676,20.676,0,1,1-20.676,20.676A20.675,20.675,0,0,1,62.3,217.735m0-4.395a25.071,25.071,0,1,0,25.071,25.071A25.1,25.1,0,0,0,62.3,213.34Z" transform="translate(-37.232 -213.34)" fill="#fff"/>
      </g>
      <g id="Grupo_1219556" data-name="Grupo 1219556" transform="translate(3114.507 2421.63)">
        <circle id="Elipse_12055" data-name="Elipse 12055" cx="22.873" cy="22.873" r="22.873" transform="translate(0 17.507) rotate(-22.5)" fill="#36ceef"/>
        <path id="Trazado_1092076" data-name="Trazado 1092076" d="M134.72,217.735a20.676,20.676,0,1,1-20.676,20.676,20.675,20.675,0,0,1,20.676-20.676m0-4.395a25.071,25.071,0,1,0,25.071,25.071A25.1,25.1,0,0,0,134.72,213.34Z" transform="translate(-104.848 -208.531)" fill="#fff"/>
      </g>
      <g id="Grupo_1219560" data-name="Grupo 1219560" transform="translate(2963.747 2443.189)">
        <g transform="matrix(1, 0, 0, 1, -87.75, -309.92)" filter="url(#Trazado_1092080)">
          <path id="Trazado_1092080-2" data-name="Trazado 1092080" d="M49.8,223.657h-.051l-3.174,1.509-.64-2.918,4.4-2.049h3.225v16.645H49.8Z" transform="translate(41.81 89.72)" fill="#fff"/>
        </g>
      </g>
      <g id="Grupo_1219561" data-name="Grupo 1219561" transform="translate(3138.477 2443.05)">
        <g transform="matrix(1, 0, 0, 1, -262.48, -309.78)" filter="url(#Trazado_1092081)">
          <path id="Trazado_1092081-2" data-name="Trazado 1092081" d="M117.5,237.066V234.71l2.151-1.946c3.636-3.252,5.4-5.123,5.455-7.066,0-1.358-.82-2.432-2.74-2.432a6.034,6.034,0,0,0-3.56,1.384l-1.1-2.791a9.217,9.217,0,0,1,5.455-1.716c3.763,0,5.838,2.2,5.838,5.225,0,2.791-2.022,5.018-4.429,7.169l-1.536,1.279v.051h6.273v3.2H117.5Z" transform="translate(144.98 89.64)" fill="#fff"/>
        </g>
      </g>
      <path id="Trazado_1092085" data-name="Trazado 1092085" d="M234.656,95.6l-80.365,65.311a10.9,10.9,0,0,0-4.29,8.419V352.874H333.126V169.325a10.91,10.91,0,0,0-4.29-8.419L248.471,95.6A11.425,11.425,0,0,0,234.656,95.6Z" transform="translate(3233.485 2099.838)" fill="#ff9d1c"/>
      <g id="Grupo_1219565" data-name="Grupo 1219565" transform="translate(3449.974 2426.439)">
        <circle id="Elipse_12056" data-name="Elipse 12056" cx="22.873" cy="22.873" r="22.873" transform="translate(2.198 2.198)" fill="#ff9d1c"/>
        <path id="Trazado_1092077" data-name="Trazado 1092077" d="M202.3,217.735a20.676,20.676,0,1,1-20.676,20.676A20.675,20.675,0,0,1,202.3,217.735m0-4.395a25.071,25.071,0,1,0,25.071,25.071A25.1,25.1,0,0,0,202.3,213.34Z" transform="translate(-177.232 -213.34)" fill="#fff"/>
      </g>
      <g id="Grupo_1219566" data-name="Grupo 1219566" transform="translate(3469.168 2442.908)">
        <g transform="matrix(1, 0, 0, 1, -593.17, -309.64)" filter="url(#Trazado_1092082)">
          <path id="Trazado_1092082-2" data-name="Trazado 1092082" d="M185.887,233.194a9.16,9.16,0,0,0,3.865,1.026c2.024,0,3.047-.974,3.047-2.227,0-1.638-1.638-2.381-3.355-2.381h-1.587v-2.793h1.511c1.306-.024,2.971-.513,2.971-1.919,0-1-.82-1.741-2.459-1.741a7.586,7.586,0,0,0-3.482,1l-.794-2.818a10.437,10.437,0,0,1,5.147-1.255c3.56,0,5.53,1.87,5.53,4.148a3.99,3.99,0,0,1-3.047,3.868v.051a4.136,4.136,0,0,1,3.611,4.046c0,2.945-2.586,5.1-6.812,5.1a9.847,9.847,0,0,1-4.942-1.177Z" transform="translate(408.07 89.55)" fill="#fff"/>
        </g>
      </g>
      <path id="Trazado_1092053" data-name="Trazado 1092053" d="M304.656,120l-80.365,62.315a10.253,10.253,0,0,0-4.29,8.033V319.076H403.126V190.344a10.258,10.258,0,0,0-4.29-8.033L318.471,120A11.865,11.865,0,0,0,304.656,120Z" transform="translate(3331.959 2133.635)" fill="#e2dacc"/>
      <g id="Grupo_1219558" data-name="Grupo 1219558" transform="translate(3618.449 2426.439)">
        <circle id="Elipse_12057" data-name="Elipse 12057" cx="22.873" cy="22.873" r="22.873" transform="translate(2.198 2.198)" fill="#e2dacc"/>
        <path id="Trazado_1092078" data-name="Trazado 1092078" d="M272.3,217.735a20.676,20.676,0,1,1-20.676,20.676A20.675,20.675,0,0,1,272.3,217.735m0-4.395a25.071,25.071,0,1,0,25.071,25.071A25.1,25.1,0,0,0,272.3,213.34Z" transform="translate(-247.232 -213.34)" fill="#fff"/>
      </g>
      <g id="Grupo_1219563" data-name="Grupo 1219563" transform="translate(3636.991 2443.189)">
        <g transform="matrix(1, 0, 0, 1, -760.99, -309.92)" filter="url(#Trazado_1092083)">
          <path id="Trazado_1092083-2" data-name="Trazado 1092083" d="M262.2,236.845v-3.97h-7.374V230.34l6.3-10.14h4.764v9.757h2v2.918h-2v3.97H262.2Zm0-6.888V226.27c0-1,.051-2.022.127-3.1h-.1c-.537,1.074-.974,2.049-1.538,3.1l-2.227,3.636v.051Z" transform="translate(506.16 89.72)" fill="#fff"/>
        </g>
      </g>
    </g>
    <path id="Trazado_1183803" data-name="Trazado 1183803" d="M25.847,19V6.4h4.465q6.715,0,6.715,6.144a6.212,6.212,0,0,1-1.833,4.7A6.757,6.757,0,0,1,30.312,19ZM28.686,8.708V16.7h1.406a3.8,3.8,0,0,0,2.9-1.107,4.2,4.2,0,0,0,1.05-3.015A3.812,3.812,0,0,0,33,9.741a3.971,3.971,0,0,0-2.922-1.033Zm18.248,6.583H41.062q.141,1.96,2.47,1.96a4.822,4.822,0,0,0,2.61-.7v2a6.858,6.858,0,0,1-3.243.668,4.565,4.565,0,0,1-3.384-1.208,4.566,4.566,0,0,1-1.2-3.371,4.816,4.816,0,0,1,1.3-3.551,4.334,4.334,0,0,1,3.2-1.31,3.933,3.933,0,0,1,3.045,1.169,4.5,4.5,0,0,1,1.077,3.173Zm-2.575-1.705q0-1.934-1.564-1.934a1.494,1.494,0,0,0-1.156.554,2.513,2.513,0,0,0-.593,1.38ZM48,18.763v-2.25a5.913,5.913,0,0,0,1.367.615,4.531,4.531,0,0,0,1.288.2,2.762,2.762,0,0,0,1.165-.2.653.653,0,0,0,.426-.615.569.569,0,0,0-.193-.439,1.8,1.8,0,0,0-.5-.308,5.635,5.635,0,0,0-.664-.237q-.36-.105-.694-.237a6.653,6.653,0,0,1-.945-.435,2.731,2.731,0,0,1-.686-.541,2.125,2.125,0,0,1-.422-.712A2.841,2.841,0,0,1,48,12.646a2.466,2.466,0,0,1,.33-1.3,2.692,2.692,0,0,1,.879-.892,4.016,4.016,0,0,1,1.257-.51,6.553,6.553,0,0,1,1.472-.163,8.168,8.168,0,0,1,1.213.092,9.053,9.053,0,0,1,1.213.268v2.145a4.383,4.383,0,0,0-1.129-.461,4.764,4.764,0,0,0-1.182-.154,2.619,2.619,0,0,0-.514.048,1.693,1.693,0,0,0-.426.141.783.783,0,0,0-.29.237.546.546,0,0,0-.105.33.609.609,0,0,0,.158.422,1.374,1.374,0,0,0,.413.3,4.078,4.078,0,0,0,.567.229q.312.1.62.207a8.056,8.056,0,0,1,1,.422,3.2,3.2,0,0,1,.769.536,2.105,2.105,0,0,1,.492.721,2.884,2.884,0,0,1-.176,2.351,2.78,2.78,0,0,1-.923.923,4.185,4.185,0,0,1-1.327.519,7.357,7.357,0,0,1-1.56.163A8.042,8.042,0,0,1,48,18.763Zm16.6-3.472H58.723q.141,1.96,2.47,1.96a4.822,4.822,0,0,0,2.61-.7v2a6.858,6.858,0,0,1-3.243.668,4.565,4.565,0,0,1-3.384-1.208,4.566,4.566,0,0,1-1.2-3.371,4.816,4.816,0,0,1,1.3-3.551,4.334,4.334,0,0,1,3.2-1.31,3.933,3.933,0,0,1,3.045,1.169,4.5,4.5,0,0,1,1.077,3.173Zm-2.575-1.705q0-1.934-1.564-1.934a1.494,1.494,0,0,0-1.156.554,2.513,2.513,0,0,0-.593,1.38ZM80.54,19H77.771V13.867q0-1.96-1.441-1.96a1.324,1.324,0,0,0-1.116.589,2.42,2.42,0,0,0-.431,1.468V19H72.005V13.814q0-1.907-1.415-1.907a1.356,1.356,0,0,0-1.138.563A2.475,2.475,0,0,0,69.026,14v5H66.249V10h2.777v1.406h.035A3.41,3.41,0,0,1,71.97,9.78a2.592,2.592,0,0,1,2.61,1.679A3.329,3.329,0,0,1,77.6,9.78q2.936,0,2.936,3.621Zm5.012-1.046h-.035V23.14H82.739V10h2.777v1.354h.035a3.534,3.534,0,0,1,5.594-.374,5.108,5.108,0,0,1,.954,3.265,5.537,5.537,0,0,1-1.112,3.612A3.625,3.625,0,0,1,88.03,19.22,2.8,2.8,0,0,1,85.551,17.954Zm-.079-3.691v.721a2.291,2.291,0,0,0,.492,1.521,1.6,1.6,0,0,0,1.292.589,1.7,1.7,0,0,0,1.472-.734,3.543,3.543,0,0,0,.523-2.079q0-2.373-1.846-2.373a1.733,1.733,0,0,0-1.393.646A2.576,2.576,0,0,0,85.472,14.263ZM96.68,19H93.9V5.676H96.68Zm10.426-3.709h-5.871q.141,1.96,2.47,1.96a4.822,4.822,0,0,0,2.61-.7v2a6.858,6.858,0,0,1-3.243.668,4.565,4.565,0,0,1-3.384-1.208,4.566,4.566,0,0,1-1.2-3.371,4.816,4.816,0,0,1,1.3-3.551,4.334,4.334,0,0,1,3.2-1.31,3.933,3.933,0,0,1,3.045,1.169,4.5,4.5,0,0,1,1.077,3.173Zm-2.575-1.705q0-1.934-1.564-1.934a1.494,1.494,0,0,0-1.156.554,2.513,2.513,0,0,0-.593,1.38Zm8.518,5.634a4.838,4.838,0,0,1-3.538-1.261,4.573,4.573,0,0,1-1.288-3.423,4.573,4.573,0,0,1,1.336-3.494,5.048,5.048,0,0,1,3.612-1.261,4.78,4.78,0,0,1,3.516,1.261,4.483,4.483,0,0,1,1.274,3.335,4.759,4.759,0,0,1-1.314,3.542A4.892,4.892,0,0,1,113.049,19.22Zm.07-7.312a1.852,1.852,0,0,0-1.529.677,2.984,2.984,0,0,0-.545,1.916q0,2.593,2.092,2.593,2,0,2-2.663Q115.132,11.907,113.119,11.907ZM39.363,32.8a2.806,2.806,0,0,0-1.028-.211Q37,32.592,37,34.042V35h2.057v2.048H37V44H34.231V37.048H32.719V35h1.512V33.884a3.24,3.24,0,0,1,1-2.479,3.821,3.821,0,0,1,2.725-.94,4.785,4.785,0,0,1,1.406.176Zm6.9,4.7a2.409,2.409,0,0,0-1.169-.272,1.684,1.684,0,0,0-1.415.664,2.9,2.9,0,0,0-.51,1.806V44H40.394V35h2.777v1.67h.035a2.4,2.4,0,0,1,2.373-1.828,1.788,1.788,0,0,1,.686.105Zm2.77-3.929a1.622,1.622,0,0,1-1.151-.417,1.345,1.345,0,0,1-.448-1.024,1.3,1.3,0,0,1,.448-1.02,1.88,1.88,0,0,1,2.307,0,1.3,1.3,0,0,1,.444,1.02,1.34,1.34,0,0,1-.444,1.037A1.65,1.65,0,0,1,49.035,33.576ZM50.406,44H47.629V35h2.777Zm9.16-.325a5.492,5.492,0,0,1-2.716.545,4.593,4.593,0,0,1-3.357-1.257A4.341,4.341,0,0,1,52.21,39.72,4.782,4.782,0,0,1,53.585,36.1a5.083,5.083,0,0,1,3.678-1.323,4.72,4.72,0,0,1,2.3.422v2.355a3.166,3.166,0,0,0-1.942-.65,2.559,2.559,0,0,0-1.894.7,2.607,2.607,0,0,0-.7,1.929,2.565,2.565,0,0,0,.668,1.876,2.455,2.455,0,0,0,1.837.681,3.666,3.666,0,0,0,2.03-.65Zm8.641,0a5.492,5.492,0,0,1-2.716.545,4.593,4.593,0,0,1-3.357-1.257,4.341,4.341,0,0,1-1.283-3.243A4.782,4.782,0,0,1,62.227,36.1,5.083,5.083,0,0,1,65.9,34.78a4.72,4.72,0,0,1,2.3.422v2.355a3.166,3.166,0,0,0-1.942-.65,2.559,2.559,0,0,0-1.894.7,2.607,2.607,0,0,0-.7,1.929,2.565,2.565,0,0,0,.668,1.876,2.455,2.455,0,0,0,1.837.681,3.666,3.666,0,0,0,2.03-.65Zm3.227-10.1a1.622,1.622,0,0,1-1.151-.417,1.345,1.345,0,0,1-.448-1.024,1.3,1.3,0,0,1,.448-1.02,1.88,1.88,0,0,1,2.307,0,1.3,1.3,0,0,1,.444,1.02,1.34,1.34,0,0,1-.444,1.037A1.65,1.65,0,0,1,71.435,33.576ZM72.806,44H70.029V35h2.777Zm6.629.22A4.838,4.838,0,0,1,75.9,42.958a4.573,4.573,0,0,1-1.288-3.423,4.573,4.573,0,0,1,1.336-3.494,5.048,5.048,0,0,1,3.612-1.261,4.78,4.78,0,0,1,3.516,1.261,4.483,4.483,0,0,1,1.274,3.335,4.759,4.759,0,0,1-1.314,3.542A4.892,4.892,0,0,1,79.435,44.22Zm.07-7.312a1.852,1.852,0,0,0-1.529.677,2.984,2.984,0,0,0-.545,1.916q0,2.593,2.092,2.593,2,0,2-2.663Q81.518,36.907,79.505,36.907ZM94.844,44H92.075V39q0-2.092-1.494-2.092a1.483,1.483,0,0,0-1.187.554,2.109,2.109,0,0,0-.466,1.406V44H86.151V35h2.777v1.424h.035a3.183,3.183,0,0,1,2.892-1.644q2.988,0,2.988,3.709Zm9.687,0H101.9V42.708h-.035a2.933,2.933,0,0,1-2.681,1.512,2.8,2.8,0,0,1-2.061-.743,2.661,2.661,0,0,1-.751-1.982q0-2.619,3.1-3.023l2.443-.325q0-1.477-1.6-1.477a5.46,5.46,0,0,0-3.059.958V35.536a6.881,6.881,0,0,1,1.586-.527,8.339,8.339,0,0,1,1.833-.229q3.85,0,3.85,3.841Zm-2.61-3.656v-.606l-1.635.211q-1.354.176-1.354,1.222a1.01,1.01,0,0,0,.33.778,1.266,1.266,0,0,0,.892.3,1.644,1.644,0,0,0,1.274-.541A1.952,1.952,0,0,0,101.921,40.344ZM109.508,44H106.73V30.676h2.777Z" transform="translate(390.458 1616.732)" fill="#fff"/>
    <path id="Trazado_1183802" data-name="Trazado 1183802" d="M25.847,19V6.4h4.465q6.715,0,6.715,6.144a6.212,6.212,0,0,1-1.833,4.7A6.757,6.757,0,0,1,30.312,19ZM28.686,8.708V16.7h1.406a3.8,3.8,0,0,0,2.9-1.107,4.2,4.2,0,0,0,1.05-3.015A3.812,3.812,0,0,0,33,9.741a3.971,3.971,0,0,0-2.922-1.033Zm18.248,6.583H41.062q.141,1.96,2.47,1.96a4.822,4.822,0,0,0,2.61-.7v2a6.858,6.858,0,0,1-3.243.668,4.565,4.565,0,0,1-3.384-1.208,4.566,4.566,0,0,1-1.2-3.371,4.816,4.816,0,0,1,1.3-3.551,4.334,4.334,0,0,1,3.2-1.31,3.933,3.933,0,0,1,3.045,1.169,4.5,4.5,0,0,1,1.077,3.173Zm-2.575-1.705q0-1.934-1.564-1.934a1.494,1.494,0,0,0-1.156.554,2.513,2.513,0,0,0-.593,1.38ZM48,18.763v-2.25a5.913,5.913,0,0,0,1.367.615,4.531,4.531,0,0,0,1.288.2,2.762,2.762,0,0,0,1.165-.2.653.653,0,0,0,.426-.615.569.569,0,0,0-.193-.439,1.8,1.8,0,0,0-.5-.308,5.635,5.635,0,0,0-.664-.237q-.36-.105-.694-.237a6.653,6.653,0,0,1-.945-.435,2.731,2.731,0,0,1-.686-.541,2.125,2.125,0,0,1-.422-.712A2.841,2.841,0,0,1,48,12.646a2.466,2.466,0,0,1,.33-1.3,2.692,2.692,0,0,1,.879-.892,4.016,4.016,0,0,1,1.257-.51,6.553,6.553,0,0,1,1.472-.163,8.168,8.168,0,0,1,1.213.092,9.053,9.053,0,0,1,1.213.268v2.145a4.383,4.383,0,0,0-1.129-.461,4.764,4.764,0,0,0-1.182-.154,2.619,2.619,0,0,0-.514.048,1.693,1.693,0,0,0-.426.141.783.783,0,0,0-.29.237.546.546,0,0,0-.105.33.609.609,0,0,0,.158.422,1.374,1.374,0,0,0,.413.3,4.078,4.078,0,0,0,.567.229q.312.1.62.207a8.056,8.056,0,0,1,1,.422,3.2,3.2,0,0,1,.769.536,2.105,2.105,0,0,1,.492.721,2.884,2.884,0,0,1-.176,2.351,2.78,2.78,0,0,1-.923.923,4.185,4.185,0,0,1-1.327.519,7.357,7.357,0,0,1-1.56.163A8.042,8.042,0,0,1,48,18.763Zm16.6-3.472H58.723q.141,1.96,2.47,1.96a4.822,4.822,0,0,0,2.61-.7v2a6.858,6.858,0,0,1-3.243.668,4.565,4.565,0,0,1-3.384-1.208,4.566,4.566,0,0,1-1.2-3.371,4.816,4.816,0,0,1,1.3-3.551,4.334,4.334,0,0,1,3.2-1.31,3.933,3.933,0,0,1,3.045,1.169,4.5,4.5,0,0,1,1.077,3.173Zm-2.575-1.705q0-1.934-1.564-1.934a1.494,1.494,0,0,0-1.156.554,2.513,2.513,0,0,0-.593,1.38ZM80.54,19H77.771V13.867q0-1.96-1.441-1.96a1.324,1.324,0,0,0-1.116.589,2.42,2.42,0,0,0-.431,1.468V19H72.005V13.814q0-1.907-1.415-1.907a1.356,1.356,0,0,0-1.138.563A2.475,2.475,0,0,0,69.026,14v5H66.249V10h2.777v1.406h.035A3.41,3.41,0,0,1,71.97,9.78a2.592,2.592,0,0,1,2.61,1.679A3.329,3.329,0,0,1,77.6,9.78q2.936,0,2.936,3.621Zm5.012-1.046h-.035V23.14H82.739V10h2.777v1.354h.035a3.534,3.534,0,0,1,5.594-.374,5.108,5.108,0,0,1,.954,3.265,5.537,5.537,0,0,1-1.112,3.612A3.625,3.625,0,0,1,88.03,19.22,2.8,2.8,0,0,1,85.551,17.954Zm-.079-3.691v.721a2.291,2.291,0,0,0,.492,1.521,1.6,1.6,0,0,0,1.292.589,1.7,1.7,0,0,0,1.472-.734,3.543,3.543,0,0,0,.523-2.079q0-2.373-1.846-2.373a1.733,1.733,0,0,0-1.393.646A2.576,2.576,0,0,0,85.472,14.263ZM96.68,19H93.9V5.676H96.68Zm10.426-3.709h-5.871q.141,1.96,2.47,1.96a4.822,4.822,0,0,0,2.61-.7v2a6.858,6.858,0,0,1-3.243.668,4.565,4.565,0,0,1-3.384-1.208,4.566,4.566,0,0,1-1.2-3.371,4.816,4.816,0,0,1,1.3-3.551,4.334,4.334,0,0,1,3.2-1.31,3.933,3.933,0,0,1,3.045,1.169,4.5,4.5,0,0,1,1.077,3.173Zm-2.575-1.705q0-1.934-1.564-1.934a1.494,1.494,0,0,0-1.156.554,2.513,2.513,0,0,0-.593,1.38Zm8.518,5.634a4.838,4.838,0,0,1-3.538-1.261,4.573,4.573,0,0,1-1.288-3.423,4.573,4.573,0,0,1,1.336-3.494,5.048,5.048,0,0,1,3.612-1.261,4.78,4.78,0,0,1,3.516,1.261,4.483,4.483,0,0,1,1.274,3.335,4.759,4.759,0,0,1-1.314,3.542A4.892,4.892,0,0,1,113.049,19.22Zm.07-7.312a1.852,1.852,0,0,0-1.529.677,2.984,2.984,0,0,0-.545,1.916q0,2.593,2.092,2.593,2,0,2-2.663Q115.132,11.907,113.119,11.907ZM35.113,40.291H29.242q.141,1.96,2.47,1.96a4.822,4.822,0,0,0,2.61-.7v2a6.858,6.858,0,0,1-3.243.668,4.189,4.189,0,0,1-4.588-4.579,4.816,4.816,0,0,1,1.3-3.551,4.334,4.334,0,0,1,3.2-1.31,3.933,3.933,0,0,1,3.045,1.169,4.5,4.5,0,0,1,1.077,3.173Zm-2.575-1.705q0-1.934-1.564-1.934a1.494,1.494,0,0,0-1.156.554,2.513,2.513,0,0,0-.593,1.38Zm3.64,5.177v-2.25a5.913,5.913,0,0,0,1.367.615,4.531,4.531,0,0,0,1.288.2,2.762,2.762,0,0,0,1.165-.2.653.653,0,0,0,.426-.615.569.569,0,0,0-.193-.439,1.8,1.8,0,0,0-.5-.308,5.635,5.635,0,0,0-.664-.237q-.36-.105-.694-.237a6.653,6.653,0,0,1-.945-.435,2.731,2.731,0,0,1-.686-.541,2.125,2.125,0,0,1-.422-.712,2.841,2.841,0,0,1-.145-.958,2.466,2.466,0,0,1,.33-1.3,2.692,2.692,0,0,1,.879-.892,4.016,4.016,0,0,1,1.257-.51,6.553,6.553,0,0,1,1.472-.163,8.168,8.168,0,0,1,1.213.092,9.053,9.053,0,0,1,1.213.268v2.145a4.383,4.383,0,0,0-1.129-.461,4.764,4.764,0,0,0-1.182-.154,2.619,2.619,0,0,0-.514.048,1.693,1.693,0,0,0-.426.141A.783.783,0,0,0,39,37.1a.546.546,0,0,0-.105.33.609.609,0,0,0,.158.422,1.374,1.374,0,0,0,.413.3,4.078,4.078,0,0,0,.567.229q.312.1.62.207a8.056,8.056,0,0,1,1,.422,3.2,3.2,0,0,1,.769.536,2.105,2.105,0,0,1,.492.721,2.884,2.884,0,0,1-.176,2.351,2.78,2.78,0,0,1-.923.923,4.185,4.185,0,0,1-1.327.519,7.357,7.357,0,0,1-1.56.163A8.042,8.042,0,0,1,36.178,43.763Zm13.95.132a4.105,4.105,0,0,1-1.854.325q-2.936,0-2.936-3.05V37.048H43.879V35h1.459V33.058l2.769-.791V35h2.021v2.048H48.107v3.639q0,1.406,1.116,1.406a1.882,1.882,0,0,0,.905-.255Zm7.437-6.39a2.409,2.409,0,0,0-1.169-.272,1.684,1.684,0,0,0-1.415.664,2.9,2.9,0,0,0-.51,1.806V44H51.695V35h2.777v1.67h.035a2.4,2.4,0,0,1,2.373-1.828,1.788,1.788,0,0,1,.686.105Zm9.9,6.5H64.7V42.629h-.044A3.141,3.141,0,0,1,61.9,44.22q-3.129,0-3.129-3.788V35H61.54v5.186q0,1.907,1.512,1.907a1.5,1.5,0,0,0,1.2-.523A2.109,2.109,0,0,0,64.7,40.15V35h2.769Zm9.16-.325a5.492,5.492,0,0,1-2.716.545,4.593,4.593,0,0,1-3.357-1.257,4.341,4.341,0,0,1-1.283-3.243A4.782,4.782,0,0,1,70.643,36.1a5.083,5.083,0,0,1,3.678-1.323,4.72,4.72,0,0,1,2.3.422v2.355a3.166,3.166,0,0,0-1.942-.65,2.559,2.559,0,0,0-1.894.7,2.607,2.607,0,0,0-.7,1.929,2.565,2.565,0,0,0,.668,1.876,2.455,2.455,0,0,0,1.837.681,3.666,3.666,0,0,0,2.03-.65Zm7.262.22a4.105,4.105,0,0,1-1.854.325q-2.936,0-2.936-3.05V37.048H77.637V35H79.1V33.058l2.769-.791V35h2.021v2.048H81.864v3.639q0,1.406,1.116,1.406a1.882,1.882,0,0,0,.905-.255ZM94,44H91.235V42.629h-.044A3.141,3.141,0,0,1,88.44,44.22q-3.129,0-3.129-3.788V35H88.08v5.186q0,1.907,1.512,1.907a1.5,1.5,0,0,0,1.2-.523,2.109,2.109,0,0,0,.448-1.419V35H94Zm8.211-6.5a2.409,2.409,0,0,0-1.169-.272,1.684,1.684,0,0,0-1.415.664,2.9,2.9,0,0,0-.51,1.806V44H96.343V35h2.777v1.67h.035a2.4,2.4,0,0,1,2.373-1.828,1.788,1.788,0,0,1,.686.105ZM111,44h-2.628V42.708h-.035a2.933,2.933,0,0,1-2.681,1.512,2.8,2.8,0,0,1-2.061-.743,2.661,2.661,0,0,1-.751-1.982q0-2.619,3.1-3.023l2.443-.325q0-1.477-1.6-1.477a5.46,5.46,0,0,0-3.059.958V35.536a6.881,6.881,0,0,1,1.586-.527,8.339,8.339,0,0,1,1.833-.229q3.85,0,3.85,3.841Zm-2.61-3.656v-.606l-1.635.211q-1.354.176-1.354,1.222a1.01,1.01,0,0,0,.33.778,1.266,1.266,0,0,0,.892.3,1.644,1.644,0,0,0,1.274-.541A1.952,1.952,0,0,0,108.386,40.344ZM115.973,44H113.2V30.676h2.777Z" transform="translate(567.458 1616.732)" fill="#212429"/>
    <path id="Trazado_1183801" data-name="Trazado 1183801" d="M25.847,19V6.4h4.465q6.715,0,6.715,6.144a6.212,6.212,0,0,1-1.833,4.7A6.757,6.757,0,0,1,30.312,19ZM28.686,8.708V16.7h1.406a3.8,3.8,0,0,0,2.9-1.107,4.2,4.2,0,0,0,1.05-3.015A3.812,3.812,0,0,0,33,9.741a3.971,3.971,0,0,0-2.922-1.033Zm18.248,6.583H41.062q.141,1.96,2.47,1.96a4.822,4.822,0,0,0,2.61-.7v2a6.858,6.858,0,0,1-3.243.668,4.565,4.565,0,0,1-3.384-1.208,4.566,4.566,0,0,1-1.2-3.371,4.816,4.816,0,0,1,1.3-3.551,4.334,4.334,0,0,1,3.2-1.31,3.933,3.933,0,0,1,3.045,1.169,4.5,4.5,0,0,1,1.077,3.173Zm-2.575-1.705q0-1.934-1.564-1.934a1.494,1.494,0,0,0-1.156.554,2.513,2.513,0,0,0-.593,1.38ZM48,18.763v-2.25a5.913,5.913,0,0,0,1.367.615,4.531,4.531,0,0,0,1.288.2,2.762,2.762,0,0,0,1.165-.2.653.653,0,0,0,.426-.615.569.569,0,0,0-.193-.439,1.8,1.8,0,0,0-.5-.308,5.635,5.635,0,0,0-.664-.237q-.36-.105-.694-.237a6.653,6.653,0,0,1-.945-.435,2.731,2.731,0,0,1-.686-.541,2.125,2.125,0,0,1-.422-.712A2.841,2.841,0,0,1,48,12.646a2.466,2.466,0,0,1,.33-1.3,2.692,2.692,0,0,1,.879-.892,4.016,4.016,0,0,1,1.257-.51,6.553,6.553,0,0,1,1.472-.163,8.168,8.168,0,0,1,1.213.092,9.053,9.053,0,0,1,1.213.268v2.145a4.383,4.383,0,0,0-1.129-.461,4.764,4.764,0,0,0-1.182-.154,2.619,2.619,0,0,0-.514.048,1.693,1.693,0,0,0-.426.141.783.783,0,0,0-.29.237.546.546,0,0,0-.105.33.609.609,0,0,0,.158.422,1.374,1.374,0,0,0,.413.3,4.078,4.078,0,0,0,.567.229q.312.1.62.207a8.056,8.056,0,0,1,1,.422,3.2,3.2,0,0,1,.769.536,2.105,2.105,0,0,1,.492.721,2.884,2.884,0,0,1-.176,2.351,2.78,2.78,0,0,1-.923.923,4.185,4.185,0,0,1-1.327.519,7.357,7.357,0,0,1-1.56.163A8.042,8.042,0,0,1,48,18.763Zm16.6-3.472H58.723q.141,1.96,2.47,1.96a4.822,4.822,0,0,0,2.61-.7v2a6.858,6.858,0,0,1-3.243.668,4.565,4.565,0,0,1-3.384-1.208,4.566,4.566,0,0,1-1.2-3.371,4.816,4.816,0,0,1,1.3-3.551,4.334,4.334,0,0,1,3.2-1.31,3.933,3.933,0,0,1,3.045,1.169,4.5,4.5,0,0,1,1.077,3.173Zm-2.575-1.705q0-1.934-1.564-1.934a1.494,1.494,0,0,0-1.156.554,2.513,2.513,0,0,0-.593,1.38ZM80.54,19H77.771V13.867q0-1.96-1.441-1.96a1.324,1.324,0,0,0-1.116.589,2.42,2.42,0,0,0-.431,1.468V19H72.005V13.814q0-1.907-1.415-1.907a1.356,1.356,0,0,0-1.138.563A2.475,2.475,0,0,0,69.026,14v5H66.249V10h2.777v1.406h.035A3.41,3.41,0,0,1,71.97,9.78a2.592,2.592,0,0,1,2.61,1.679A3.329,3.329,0,0,1,77.6,9.78q2.936,0,2.936,3.621Zm5.012-1.046h-.035V23.14H82.739V10h2.777v1.354h.035a3.534,3.534,0,0,1,5.594-.374,5.108,5.108,0,0,1,.954,3.265,5.537,5.537,0,0,1-1.112,3.612A3.625,3.625,0,0,1,88.03,19.22,2.8,2.8,0,0,1,85.551,17.954Zm-.079-3.691v.721a2.291,2.291,0,0,0,.492,1.521,1.6,1.6,0,0,0,1.292.589,1.7,1.7,0,0,0,1.472-.734,3.543,3.543,0,0,0,.523-2.079q0-2.373-1.846-2.373a1.733,1.733,0,0,0-1.393.646A2.576,2.576,0,0,0,85.472,14.263ZM96.68,19H93.9V5.676H96.68Zm10.426-3.709h-5.871q.141,1.96,2.47,1.96a4.822,4.822,0,0,0,2.61-.7v2a6.858,6.858,0,0,1-3.243.668,4.565,4.565,0,0,1-3.384-1.208,4.566,4.566,0,0,1-1.2-3.371,4.816,4.816,0,0,1,1.3-3.551,4.334,4.334,0,0,1,3.2-1.31,3.933,3.933,0,0,1,3.045,1.169,4.5,4.5,0,0,1,1.077,3.173Zm-2.575-1.705q0-1.934-1.564-1.934a1.494,1.494,0,0,0-1.156.554,2.513,2.513,0,0,0-.593,1.38Zm8.518,5.634a4.838,4.838,0,0,1-3.538-1.261,4.573,4.573,0,0,1-1.288-3.423,4.573,4.573,0,0,1,1.336-3.494,5.048,5.048,0,0,1,3.612-1.261,4.78,4.78,0,0,1,3.516,1.261,4.483,4.483,0,0,1,1.274,3.335,4.759,4.759,0,0,1-1.314,3.542A4.892,4.892,0,0,1,113.049,19.22Zm.07-7.312a1.852,1.852,0,0,0-1.529.677,2.984,2.984,0,0,0-.545,1.916q0,2.593,2.092,2.593,2,0,2-2.663Q115.132,11.907,113.119,11.907ZM53.35,43.675a5.492,5.492,0,0,1-2.716.545,4.593,4.593,0,0,1-3.357-1.257,4.341,4.341,0,0,1-1.283-3.243A4.782,4.782,0,0,1,47.369,36.1a5.083,5.083,0,0,1,3.678-1.323,4.72,4.72,0,0,1,2.3.422v2.355a3.166,3.166,0,0,0-1.942-.65,2.559,2.559,0,0,0-1.894.7,2.607,2.607,0,0,0-.7,1.929,2.565,2.565,0,0,0,.668,1.876,2.455,2.455,0,0,0,1.837.681,3.666,3.666,0,0,0,2.03-.65Zm4.6.325H55.171V35h2.777Zm1.433-13.263L56.63,33.576h-2l2.285-2.839Zm7.727,12.938a5.492,5.492,0,0,1-2.716.545,4.593,4.593,0,0,1-3.357-1.257,4.341,4.341,0,0,1-1.283-3.243A4.782,4.782,0,0,1,61.127,36.1a5.083,5.083,0,0,1,3.678-1.323,4.72,4.72,0,0,1,2.3.422v2.355a3.166,3.166,0,0,0-1.942-.65,2.559,2.559,0,0,0-1.894.7,2.607,2.607,0,0,0-.7,1.929,2.565,2.565,0,0,0,.668,1.876,2.455,2.455,0,0,0,1.837.681,3.666,3.666,0,0,0,2.03-.65Zm4.6.325H68.929V30.676h2.777Zm3.746-10.424a1.622,1.622,0,0,1-1.151-.417,1.345,1.345,0,0,1-.448-1.024,1.3,1.3,0,0,1,.448-1.02,1.88,1.88,0,0,1,2.307,0,1.3,1.3,0,0,1,.444,1.02,1.34,1.34,0,0,1-.444,1.037A1.65,1.65,0,0,1,75.452,33.576ZM76.824,44H74.046V35h2.777Zm9.16-.325a5.492,5.492,0,0,1-2.716.545,4.593,4.593,0,0,1-3.357-1.257,4.341,4.341,0,0,1-1.283-3.243A4.782,4.782,0,0,1,80,36.1a5.083,5.083,0,0,1,3.678-1.323,4.72,4.72,0,0,1,2.3.422v2.355a3.166,3.166,0,0,0-1.942-.65,2.559,2.559,0,0,0-1.894.7,2.607,2.607,0,0,0-.7,1.929,2.565,2.565,0,0,0,.668,1.876,2.455,2.455,0,0,0,1.837.681,3.666,3.666,0,0,0,2.03-.65Zm6.11.545a4.838,4.838,0,0,1-3.538-1.261,4.573,4.573,0,0,1-1.288-3.423A4.573,4.573,0,0,1,88.6,36.042a5.048,5.048,0,0,1,3.612-1.261,4.78,4.78,0,0,1,3.516,1.261,4.483,4.483,0,0,1,1.274,3.335,4.759,4.759,0,0,1-1.314,3.542A4.892,4.892,0,0,1,92.094,44.22Zm.07-7.312a1.852,1.852,0,0,0-1.529.677A2.984,2.984,0,0,0,90.09,39.5q0,2.593,2.092,2.593,2,0,2-2.663Q94.177,36.907,92.164,36.907Z" transform="translate(893.958 1616.732)" fill="#fff"/>
    <path id="Trazado_1183800" data-name="Trazado 1183800" d="M25.847,19V6.4h4.465q6.715,0,6.715,6.144a6.212,6.212,0,0,1-1.833,4.7A6.757,6.757,0,0,1,30.312,19ZM28.686,8.708V16.7h1.406a3.8,3.8,0,0,0,2.9-1.107,4.2,4.2,0,0,0,1.05-3.015A3.812,3.812,0,0,0,33,9.741a3.971,3.971,0,0,0-2.922-1.033Zm18.248,6.583H41.062q.141,1.96,2.47,1.96a4.822,4.822,0,0,0,2.61-.7v2a6.858,6.858,0,0,1-3.243.668,4.565,4.565,0,0,1-3.384-1.208,4.566,4.566,0,0,1-1.2-3.371,4.816,4.816,0,0,1,1.3-3.551,4.334,4.334,0,0,1,3.2-1.31,3.933,3.933,0,0,1,3.045,1.169,4.5,4.5,0,0,1,1.077,3.173Zm-2.575-1.705q0-1.934-1.564-1.934a1.494,1.494,0,0,0-1.156.554,2.513,2.513,0,0,0-.593,1.38ZM48,18.763v-2.25a5.913,5.913,0,0,0,1.367.615,4.531,4.531,0,0,0,1.288.2,2.762,2.762,0,0,0,1.165-.2.653.653,0,0,0,.426-.615.569.569,0,0,0-.193-.439,1.8,1.8,0,0,0-.5-.308,5.635,5.635,0,0,0-.664-.237q-.36-.105-.694-.237a6.653,6.653,0,0,1-.945-.435,2.731,2.731,0,0,1-.686-.541,2.125,2.125,0,0,1-.422-.712A2.841,2.841,0,0,1,48,12.646a2.466,2.466,0,0,1,.33-1.3,2.692,2.692,0,0,1,.879-.892,4.016,4.016,0,0,1,1.257-.51,6.553,6.553,0,0,1,1.472-.163,8.168,8.168,0,0,1,1.213.092,9.053,9.053,0,0,1,1.213.268v2.145a4.383,4.383,0,0,0-1.129-.461,4.764,4.764,0,0,0-1.182-.154,2.619,2.619,0,0,0-.514.048,1.693,1.693,0,0,0-.426.141.783.783,0,0,0-.29.237.546.546,0,0,0-.105.33.609.609,0,0,0,.158.422,1.374,1.374,0,0,0,.413.3,4.078,4.078,0,0,0,.567.229q.312.1.62.207a8.056,8.056,0,0,1,1,.422,3.2,3.2,0,0,1,.769.536,2.105,2.105,0,0,1,.492.721,2.884,2.884,0,0,1-.176,2.351,2.78,2.78,0,0,1-.923.923,4.185,4.185,0,0,1-1.327.519,7.357,7.357,0,0,1-1.56.163A8.042,8.042,0,0,1,48,18.763Zm16.6-3.472H58.723q.141,1.96,2.47,1.96a4.822,4.822,0,0,0,2.61-.7v2a6.858,6.858,0,0,1-3.243.668,4.565,4.565,0,0,1-3.384-1.208,4.566,4.566,0,0,1-1.2-3.371,4.816,4.816,0,0,1,1.3-3.551,4.334,4.334,0,0,1,3.2-1.31,3.933,3.933,0,0,1,3.045,1.169,4.5,4.5,0,0,1,1.077,3.173Zm-2.575-1.705q0-1.934-1.564-1.934a1.494,1.494,0,0,0-1.156.554,2.513,2.513,0,0,0-.593,1.38ZM80.54,19H77.771V13.867q0-1.96-1.441-1.96a1.324,1.324,0,0,0-1.116.589,2.42,2.42,0,0,0-.431,1.468V19H72.005V13.814q0-1.907-1.415-1.907a1.356,1.356,0,0,0-1.138.563A2.475,2.475,0,0,0,69.026,14v5H66.249V10h2.777v1.406h.035A3.41,3.41,0,0,1,71.97,9.78a2.592,2.592,0,0,1,2.61,1.679A3.329,3.329,0,0,1,77.6,9.78q2.936,0,2.936,3.621Zm5.012-1.046h-.035V23.14H82.739V10h2.777v1.354h.035a3.534,3.534,0,0,1,5.594-.374,5.108,5.108,0,0,1,.954,3.265,5.537,5.537,0,0,1-1.112,3.612A3.625,3.625,0,0,1,88.03,19.22,2.8,2.8,0,0,1,85.551,17.954Zm-.079-3.691v.721a2.291,2.291,0,0,0,.492,1.521,1.6,1.6,0,0,0,1.292.589,1.7,1.7,0,0,0,1.472-.734,3.543,3.543,0,0,0,.523-2.079q0-2.373-1.846-2.373a1.733,1.733,0,0,0-1.393.646A2.576,2.576,0,0,0,85.472,14.263ZM96.68,19H93.9V5.676H96.68Zm10.426-3.709h-5.871q.141,1.96,2.47,1.96a4.822,4.822,0,0,0,2.61-.7v2a6.858,6.858,0,0,1-3.243.668,4.565,4.565,0,0,1-3.384-1.208,4.566,4.566,0,0,1-1.2-3.371,4.816,4.816,0,0,1,1.3-3.551,4.334,4.334,0,0,1,3.2-1.31,3.933,3.933,0,0,1,3.045,1.169,4.5,4.5,0,0,1,1.077,3.173Zm-2.575-1.705q0-1.934-1.564-1.934a1.494,1.494,0,0,0-1.156.554,2.513,2.513,0,0,0-.593,1.38Zm8.518,5.634a4.838,4.838,0,0,1-3.538-1.261,4.573,4.573,0,0,1-1.288-3.423,4.573,4.573,0,0,1,1.336-3.494,5.048,5.048,0,0,1,3.612-1.261,4.78,4.78,0,0,1,3.516,1.261,4.483,4.483,0,0,1,1.274,3.335,4.759,4.759,0,0,1-1.314,3.542A4.892,4.892,0,0,1,113.049,19.22Zm.07-7.312a1.852,1.852,0,0,0-1.529.677,2.984,2.984,0,0,0-.545,1.916q0,2.593,2.092,2.593,2,0,2-2.663Q115.132,11.907,113.119,11.907ZM38.348,40.291H32.477q.141,1.96,2.47,1.96a4.822,4.822,0,0,0,2.61-.7v2a6.858,6.858,0,0,1-3.243.668,4.189,4.189,0,0,1-4.588-4.579,4.816,4.816,0,0,1,1.3-3.551,4.334,4.334,0,0,1,3.2-1.31,3.933,3.933,0,0,1,3.045,1.169,4.5,4.5,0,0,1,1.077,3.173Zm-2.575-1.705q0-1.934-1.564-1.934a1.494,1.494,0,0,0-1.156.554,2.513,2.513,0,0,0-.593,1.38Zm3.64,5.177v-2.25a5.913,5.913,0,0,0,1.367.615,4.531,4.531,0,0,0,1.288.2,2.762,2.762,0,0,0,1.165-.2.653.653,0,0,0,.426-.615.569.569,0,0,0-.193-.439,1.8,1.8,0,0,0-.5-.308,5.635,5.635,0,0,0-.664-.237q-.36-.105-.694-.237a6.653,6.653,0,0,1-.945-.435,2.731,2.731,0,0,1-.686-.541,2.125,2.125,0,0,1-.422-.712,2.841,2.841,0,0,1-.145-.958,2.466,2.466,0,0,1,.33-1.3,2.692,2.692,0,0,1,.879-.892,4.016,4.016,0,0,1,1.257-.51,6.553,6.553,0,0,1,1.472-.163,8.168,8.168,0,0,1,1.213.092,9.053,9.053,0,0,1,1.213.268v2.145a4.383,4.383,0,0,0-1.129-.461,4.764,4.764,0,0,0-1.182-.154,2.619,2.619,0,0,0-.514.048,1.693,1.693,0,0,0-.426.141.783.783,0,0,0-.29.237.546.546,0,0,0-.105.33.609.609,0,0,0,.158.422,1.374,1.374,0,0,0,.413.3,4.078,4.078,0,0,0,.567.229q.312.1.62.207a8.056,8.056,0,0,1,1,.422,3.2,3.2,0,0,1,.769.536,2.105,2.105,0,0,1,.492.721,2.884,2.884,0,0,1-.176,2.351,2.78,2.78,0,0,1-.923.923,4.185,4.185,0,0,1-1.327.519,7.357,7.357,0,0,1-1.56.163A8.042,8.042,0,0,1,39.414,43.763Zm13.95.132a4.105,4.105,0,0,1-1.854.325q-2.936,0-2.936-3.05V37.048H47.115V35h1.459V33.058l2.769-.791V35h2.021v2.048H51.342v3.639q0,1.406,1.116,1.406a1.882,1.882,0,0,0,.905-.255ZM62.418,44H59.79V42.708h-.035a2.933,2.933,0,0,1-2.681,1.512,2.8,2.8,0,0,1-2.061-.743,2.661,2.661,0,0,1-.751-1.982q0-2.619,3.1-3.023l2.443-.325q0-1.477-1.6-1.477a5.46,5.46,0,0,0-3.059.958V35.536a6.881,6.881,0,0,1,1.586-.527,8.339,8.339,0,0,1,1.833-.229q3.85,0,3.85,3.841Zm-2.61-3.656v-.606l-1.635.211q-1.354.176-1.354,1.222a1.01,1.01,0,0,0,.33.778,1.266,1.266,0,0,0,.892.3,1.644,1.644,0,0,0,1.274-.541A1.952,1.952,0,0,0,59.808,40.344Zm11.63,3.331a5.492,5.492,0,0,1-2.716.545,4.593,4.593,0,0,1-3.357-1.257,4.341,4.341,0,0,1-1.283-3.243A4.782,4.782,0,0,1,65.457,36.1a5.083,5.083,0,0,1,3.678-1.323,4.72,4.72,0,0,1,2.3.422v2.355a3.166,3.166,0,0,0-1.942-.65,2.559,2.559,0,0,0-1.894.7,2.607,2.607,0,0,0-.7,1.929,2.565,2.565,0,0,0,.668,1.876,2.455,2.455,0,0,0,1.837.681,3.666,3.666,0,0,0,2.03-.65Zm3.227-10.1a1.622,1.622,0,0,1-1.151-.417,1.345,1.345,0,0,1-.448-1.024,1.3,1.3,0,0,1,.448-1.02,1.88,1.88,0,0,1,2.307,0,1.3,1.3,0,0,1,.444,1.02,1.34,1.34,0,0,1-.444,1.037A1.65,1.65,0,0,1,74.665,33.576ZM76.036,44H73.259V35h2.777Zm6.629.22a4.838,4.838,0,0,1-3.538-1.261,4.573,4.573,0,0,1-1.288-3.423,4.573,4.573,0,0,1,1.336-3.494,5.048,5.048,0,0,1,3.612-1.261A4.78,4.78,0,0,1,86.3,36.042a4.483,4.483,0,0,1,1.274,3.335,4.759,4.759,0,0,1-1.314,3.542A4.892,4.892,0,0,1,82.665,44.22Zm.07-7.312a1.852,1.852,0,0,0-1.529.677,2.984,2.984,0,0,0-.545,1.916q0,2.593,2.092,2.593,2,0,2-2.663Q84.748,36.907,82.735,36.907ZM98.074,44H95.305V39q0-2.092-1.494-2.092a1.483,1.483,0,0,0-1.187.554,2.109,2.109,0,0,0-.466,1.406V44H89.381V35h2.777v1.424h.035a3.183,3.183,0,0,1,2.892-1.644q2.988,0,2.988,3.709Zm9.687,0h-2.628V42.708H105.1a2.933,2.933,0,0,1-2.681,1.512,2.8,2.8,0,0,1-2.061-.743A2.661,2.661,0,0,1,99.6,41.5q0-2.619,3.1-3.023l2.443-.325q0-1.477-1.6-1.477a5.46,5.46,0,0,0-3.059.958V35.536a6.881,6.881,0,0,1,1.586-.527,8.339,8.339,0,0,1,1.833-.229q3.85,0,3.85,3.841Zm-2.61-3.656v-.606l-1.635.211q-1.354.176-1.354,1.222a1.01,1.01,0,0,0,.33.778,1.266,1.266,0,0,0,.892.3,1.644,1.644,0,0,0,1.274-.541A1.952,1.952,0,0,0,105.151,40.344ZM112.738,44H109.96V30.676h2.777Z" transform="translate(1068.96 1616.732)" fill="#0b0a0a"/>
    <g id="desempleados" transform="translate(433.266 1544.762)">
      <g id="Grupo_1226178" data-name="Grupo 1226178" transform="translate(0.841 0.841)">
        <path id="Trazado_1178804" data-name="Trazado 1178804" d="M35.352,7.5A27.852,27.852,0,1,0,63.2,35.352,27.852,27.852,0,0,0,35.352,7.5ZM12.044,35.352A23.307,23.307,0,0,1,49.952,17.185L17.185,49.952A23.208,23.208,0,0,1,12.044,35.352ZM35.352,58.659a23.208,23.208,0,0,1-14.6-5.141L53.518,20.751A23.307,23.307,0,0,1,35.352,58.659Z" transform="translate(-7.5 -7.5)" fill="#ff7d7d"/>
        <g id="Grupo_1226177" data-name="Grupo 1226177" transform="translate(26.63)">
          <path id="Trazado_1178805" data-name="Trazado 1178805" d="M246.323,7.5c-.409,0-.816.011-1.222.028a27.85,27.85,0,0,1,0,55.647c.405.017.812.028,1.222.028a27.851,27.851,0,1,0,0-55.7Z" transform="translate(-245.101 -7.5)" fill="#ff6161"/>
        </g>
      </g>
      <g id="Grupo_1226180" data-name="Grupo 1226180" transform="translate(15.213 14.014)">
        <g id="Grupo_1226179" data-name="Grupo 1226179" transform="translate(6.056)">
          <path id="Trazado_1178806" data-name="Trazado 1178806" d="M203.051,137.65H191.344a1.569,1.569,0,0,1-1.569-1.569v-6.459a4.591,4.591,0,0,1,4.586-4.586h5.673a4.591,4.591,0,0,1,4.586,4.586v6.459A1.569,1.569,0,0,1,203.051,137.65Zm-10.138-3.138h8.568v-4.89a1.449,1.449,0,0,0-1.448-1.448h-5.673a1.449,1.449,0,0,0-1.448,1.448Z" transform="translate(-189.775 -125.036)" fill="#6c5e69"/>
        </g>
        <path id="Trazado_1178807" data-name="Trazado 1178807" d="M204.62,182.481v-5.188h-3.138v3.619h-8.568v-3.619h-3.138v5.188a1.569,1.569,0,0,0,1.569,1.569h11.707A1.569,1.569,0,0,0,204.62,182.481Z" transform="translate(-183.719 -171.436)" fill="#574d56"/>
        <path id="Trazado_1178808" data-name="Trazado 1178808" d="M172.7,267.313h-12.94a4.862,4.862,0,0,1-4.862-4.862V252.21h22.664v10.241A4.862,4.862,0,0,1,172.7,267.313Z" transform="translate(-152.748 -237.957)" fill="#fe9738"/>
        <path id="Trazado_1178809" data-name="Trazado 1178809" d="M154.895,258.141a33.284,33.284,0,0,0,22.664,0V252.21H154.9Z" transform="translate(-152.748 -237.956)" fill="#fe7d43"/>
        <path id="Trazado_1178810" data-name="Trazado 1178810" d="M161.078,203.485a33.379,33.379,0,0,1-23.721,0,2.467,2.467,0,0,1-1.618-2.315v-5.562a2.463,2.463,0,0,1,2.463-2.463h22.031a2.463,2.463,0,0,1,2.463,2.463v5.562A2.467,2.467,0,0,1,161.078,203.485Z" transform="translate(-135.739 -185.512)" fill="#fe9738"/>
        <path id="Trazado_1178811" data-name="Trazado 1178811" d="M240.614,279.809h-2.073a1.037,1.037,0,0,1-1.036-1.036v-3.948a1.037,1.037,0,0,1,1.036-1.036h2.073a1.037,1.037,0,0,1,1.037,1.036v3.948A1.037,1.037,0,0,1,240.614,279.809Z" transform="translate(-226.099 -257.116)" fill="#fff485"/>
      </g>
      <g id="Grupo_1226181" data-name="Grupo 1226181">
        <path id="Trazado_1178812" data-name="Trazado 1178812" d="M48.981,8.4A28.71,28.71,0,0,0,15.686,3.111a.841.841,0,1,0,.763,1.5A26.721,26.721,0,0,1,28.692,1.681,27.007,27.007,0,1,1,13.718,6.21a.841.841,0,1,0-.933-1.4A28.693,28.693,0,1,0,48.981,8.4Z"/>
        <path id="Trazado_1178813" data-name="Trazado 1178813" d="M80.129,46.476a.84.84,0,0,0-.312-.609,24.147,24.147,0,0,0-33.95,33.949.841.841,0,0,0,.609.312h.045a.841.841,0,0,0,.594-.246l5.4-5.4v.022a5.674,5.674,0,0,0,1.217,3.517l-4.239,4.239a.841.841,0,0,0,.067,1.249A24.175,24.175,0,0,0,69.288,88.4a.841.841,0,1,0-.319-1.651,22.66,22.66,0,0,1-4.281.409,22.2,22.2,0,0,1-13.33-4.382l3.6-3.6a5.671,5.671,0,0,0,3.264,1.029h12.94a5.709,5.709,0,0,0,5.7-5.7V68.764a3.32,3.32,0,0,0,2.147-3.1V60.107a3.308,3.308,0,0,0-1.963-3.019l5.73-5.73a22.2,22.2,0,0,1,4.381,13.331A22.475,22.475,0,0,1,72,85.938a.841.841,0,1,0,.547,1.59A24.152,24.152,0,0,0,83.51,49.561a.841.841,0,0,0-1.249-.067l-7.31,7.31h-2V54.6q0-.265-.025-.523l6.957-6.957A.842.842,0,0,0,80.129,46.476Zm-8.97,32.05H58.218A4.025,4.025,0,0,1,54.2,74.505V69.34a35.446,35.446,0,0,0,7.578,1.534v.793a1.879,1.879,0,0,0,1.877,1.877h2.073A1.879,1.879,0,0,0,67.6,71.667v-.793A35.452,35.452,0,0,0,75.18,69.34V74.5A4.025,4.025,0,0,1,71.159,78.526Zm-7.7-6.859V67.719a.2.2,0,0,1,.2-.2h2.073a.2.2,0,0,1,.2.2v3.948a.2.2,0,0,1-.2.2H63.652A.2.2,0,0,1,63.456,71.667ZM69.813,56.8V54.6a2.291,2.291,0,0,0-2.288-2.288H61.852A2.291,2.291,0,0,0,59.564,54.6V56.8H58.107V54.6a3.75,3.75,0,0,1,3.745-3.745h5.673A3.75,3.75,0,0,1,71.27,54.6V56.8Zm-8.569,0V54.6a.608.608,0,0,1,.607-.607h5.673a.608.608,0,0,1,.607.607V56.8ZM72.4,52.219a5.433,5.433,0,0,0-4.878-3.049H61.852A5.433,5.433,0,0,0,56.425,54.6V56.8H53.673a3.308,3.308,0,0,0-3.3,3.3v3.024a.841.841,0,0,0,1.681,0V60.107a1.624,1.624,0,0,1,1.623-1.623H75.7a1.624,1.624,0,0,1,1.623,1.623v5.562a1.632,1.632,0,0,1-1.067,1.525A34.364,34.364,0,0,1,67.6,69.186V67.719a1.879,1.879,0,0,0-1.877-1.877H63.652a1.879,1.879,0,0,0-1.877,1.877v1.467a34.37,34.37,0,0,1-8.657-1.992,1.62,1.62,0,0,1-.983-1.014.841.841,0,1,0-1.595.531,3.293,3.293,0,0,0,1.977,2.052v3.341L46.6,78.019a22.2,22.2,0,0,1-4.382-13.33A22.493,22.493,0,0,1,64.688,42.221,22.2,22.2,0,0,1,78.019,46.6Z" transform="translate(-35.996 -35.996)"/>
      </g>
    </g>
    <g id="desempleados-2" data-name="desempleados" transform="translate(601.266 1544.762)">
      <g id="Grupo_1226178-2" data-name="Grupo 1226178" transform="translate(0.841 0.841)">
        <path id="Trazado_1178804-2" data-name="Trazado 1178804" d="M35.352,7.5A27.852,27.852,0,1,0,63.2,35.352,27.852,27.852,0,0,0,35.352,7.5ZM12.044,35.352A23.307,23.307,0,0,1,49.952,17.185L17.185,49.952A23.208,23.208,0,0,1,12.044,35.352ZM35.352,58.659a23.208,23.208,0,0,1-14.6-5.141L53.518,20.751A23.307,23.307,0,0,1,35.352,58.659Z" transform="translate(-7.5 -7.5)" fill="#ff7d7d"/>
        <g id="Grupo_1226177-2" data-name="Grupo 1226177" transform="translate(26.63)">
          <path id="Trazado_1178805-2" data-name="Trazado 1178805" d="M246.323,7.5c-.409,0-.816.011-1.222.028a27.85,27.85,0,0,1,0,55.647c.405.017.812.028,1.222.028a27.851,27.851,0,1,0,0-55.7Z" transform="translate(-245.101 -7.5)" fill="#ff6161"/>
        </g>
      </g>
      <g id="Grupo_1226180-2" data-name="Grupo 1226180" transform="translate(15.213 14.014)">
        <g id="Grupo_1226179-2" data-name="Grupo 1226179" transform="translate(6.056)">
          <path id="Trazado_1178806-2" data-name="Trazado 1178806" d="M203.051,137.65H191.344a1.569,1.569,0,0,1-1.569-1.569v-6.459a4.591,4.591,0,0,1,4.586-4.586h5.673a4.591,4.591,0,0,1,4.586,4.586v6.459A1.569,1.569,0,0,1,203.051,137.65Zm-10.138-3.138h8.568v-4.89a1.449,1.449,0,0,0-1.448-1.448h-5.673a1.449,1.449,0,0,0-1.448,1.448Z" transform="translate(-189.775 -125.036)" fill="#6c5e69"/>
        </g>
        <path id="Trazado_1178807-2" data-name="Trazado 1178807" d="M204.62,182.481v-5.188h-3.138v3.619h-8.568v-3.619h-3.138v5.188a1.569,1.569,0,0,0,1.569,1.569h11.707A1.569,1.569,0,0,0,204.62,182.481Z" transform="translate(-183.719 -171.436)" fill="#574d56"/>
        <path id="Trazado_1178808-2" data-name="Trazado 1178808" d="M172.7,267.313h-12.94a4.862,4.862,0,0,1-4.862-4.862V252.21h22.664v10.241A4.862,4.862,0,0,1,172.7,267.313Z" transform="translate(-152.748 -237.957)" fill="#fe9738"/>
        <path id="Trazado_1178809-2" data-name="Trazado 1178809" d="M154.895,258.141a33.284,33.284,0,0,0,22.664,0V252.21H154.9Z" transform="translate(-152.748 -237.956)" fill="#fe7d43"/>
        <path id="Trazado_1178810-2" data-name="Trazado 1178810" d="M161.078,203.485a33.379,33.379,0,0,1-23.721,0,2.467,2.467,0,0,1-1.618-2.315v-5.562a2.463,2.463,0,0,1,2.463-2.463h22.031a2.463,2.463,0,0,1,2.463,2.463v5.562A2.467,2.467,0,0,1,161.078,203.485Z" transform="translate(-135.739 -185.512)" fill="#fe9738"/>
        <path id="Trazado_1178811-2" data-name="Trazado 1178811" d="M240.614,279.809h-2.073a1.037,1.037,0,0,1-1.036-1.036v-3.948a1.037,1.037,0,0,1,1.036-1.036h2.073a1.037,1.037,0,0,1,1.037,1.036v3.948A1.037,1.037,0,0,1,240.614,279.809Z" transform="translate(-226.099 -257.116)" fill="#fff485"/>
      </g>
      <g id="Grupo_1226181-2" data-name="Grupo 1226181">
        <path id="Trazado_1178812-2" data-name="Trazado 1178812" d="M48.981,8.4A28.71,28.71,0,0,0,15.686,3.111a.841.841,0,1,0,.763,1.5A26.721,26.721,0,0,1,28.692,1.681,27.007,27.007,0,1,1,13.718,6.21a.841.841,0,1,0-.933-1.4A28.693,28.693,0,1,0,48.981,8.4Z"/>
        <path id="Trazado_1178813-2" data-name="Trazado 1178813" d="M80.129,46.476a.84.84,0,0,0-.312-.609,24.147,24.147,0,0,0-33.95,33.949.841.841,0,0,0,.609.312h.045a.841.841,0,0,0,.594-.246l5.4-5.4v.022a5.674,5.674,0,0,0,1.217,3.517l-4.239,4.239a.841.841,0,0,0,.067,1.249A24.175,24.175,0,0,0,69.288,88.4a.841.841,0,1,0-.319-1.651,22.66,22.66,0,0,1-4.281.409,22.2,22.2,0,0,1-13.33-4.382l3.6-3.6a5.671,5.671,0,0,0,3.264,1.029h12.94a5.709,5.709,0,0,0,5.7-5.7V68.764a3.32,3.32,0,0,0,2.147-3.1V60.107a3.308,3.308,0,0,0-1.963-3.019l5.73-5.73a22.2,22.2,0,0,1,4.381,13.331A22.475,22.475,0,0,1,72,85.938a.841.841,0,1,0,.547,1.59A24.152,24.152,0,0,0,83.51,49.561a.841.841,0,0,0-1.249-.067l-7.31,7.31h-2V54.6q0-.265-.025-.523l6.957-6.957A.842.842,0,0,0,80.129,46.476Zm-8.97,32.05H58.218A4.025,4.025,0,0,1,54.2,74.505V69.34a35.446,35.446,0,0,0,7.578,1.534v.793a1.879,1.879,0,0,0,1.877,1.877h2.073A1.879,1.879,0,0,0,67.6,71.667v-.793A35.452,35.452,0,0,0,75.18,69.34V74.5A4.025,4.025,0,0,1,71.159,78.526Zm-7.7-6.859V67.719a.2.2,0,0,1,.2-.2h2.073a.2.2,0,0,1,.2.2v3.948a.2.2,0,0,1-.2.2H63.652A.2.2,0,0,1,63.456,71.667ZM69.813,56.8V54.6a2.291,2.291,0,0,0-2.288-2.288H61.852A2.291,2.291,0,0,0,59.564,54.6V56.8H58.107V54.6a3.75,3.75,0,0,1,3.745-3.745h5.673A3.75,3.75,0,0,1,71.27,54.6V56.8Zm-8.569,0V54.6a.608.608,0,0,1,.607-.607h5.673a.608.608,0,0,1,.607.607V56.8ZM72.4,52.219a5.433,5.433,0,0,0-4.878-3.049H61.852A5.433,5.433,0,0,0,56.425,54.6V56.8H53.673a3.308,3.308,0,0,0-3.3,3.3v3.024a.841.841,0,0,0,1.681,0V60.107a1.624,1.624,0,0,1,1.623-1.623H75.7a1.624,1.624,0,0,1,1.623,1.623v5.562a1.632,1.632,0,0,1-1.067,1.525A34.364,34.364,0,0,1,67.6,69.186V67.719a1.879,1.879,0,0,0-1.877-1.877H63.652a1.879,1.879,0,0,0-1.877,1.877v1.467a34.37,34.37,0,0,1-8.657-1.992,1.62,1.62,0,0,1-.983-1.014.841.841,0,1,0-1.595.531,3.293,3.293,0,0,0,1.977,2.052v3.341L46.6,78.019a22.2,22.2,0,0,1-4.382-13.33A22.493,22.493,0,0,1,64.688,42.221,22.2,22.2,0,0,1,78.019,46.6Z" transform="translate(-35.996 -35.996)"/>
      </g>
    </g>
    <g id="desempleados-3" data-name="desempleados" transform="translate(936.766 1544.762)">
      <g id="Grupo_1226178-3" data-name="Grupo 1226178" transform="translate(0.841 0.841)">
        <path id="Trazado_1178804-3" data-name="Trazado 1178804" d="M35.352,7.5A27.852,27.852,0,1,0,63.2,35.352,27.852,27.852,0,0,0,35.352,7.5ZM12.044,35.352A23.307,23.307,0,0,1,49.952,17.185L17.185,49.952A23.208,23.208,0,0,1,12.044,35.352ZM35.352,58.659a23.208,23.208,0,0,1-14.6-5.141L53.518,20.751A23.307,23.307,0,0,1,35.352,58.659Z" transform="translate(-7.5 -7.5)" fill="#ff7d7d"/>
        <g id="Grupo_1226177-3" data-name="Grupo 1226177" transform="translate(26.63)">
          <path id="Trazado_1178805-3" data-name="Trazado 1178805" d="M246.323,7.5c-.409,0-.816.011-1.222.028a27.85,27.85,0,0,1,0,55.647c.405.017.812.028,1.222.028a27.851,27.851,0,1,0,0-55.7Z" transform="translate(-245.101 -7.5)" fill="#ff6161"/>
        </g>
      </g>
      <g id="Grupo_1226180-3" data-name="Grupo 1226180" transform="translate(15.213 14.014)">
        <g id="Grupo_1226179-3" data-name="Grupo 1226179" transform="translate(6.056)">
          <path id="Trazado_1178806-3" data-name="Trazado 1178806" d="M203.051,137.65H191.344a1.569,1.569,0,0,1-1.569-1.569v-6.459a4.591,4.591,0,0,1,4.586-4.586h5.673a4.591,4.591,0,0,1,4.586,4.586v6.459A1.569,1.569,0,0,1,203.051,137.65Zm-10.138-3.138h8.568v-4.89a1.449,1.449,0,0,0-1.448-1.448h-5.673a1.449,1.449,0,0,0-1.448,1.448Z" transform="translate(-189.775 -125.036)" fill="#6c5e69"/>
        </g>
        <path id="Trazado_1178807-3" data-name="Trazado 1178807" d="M204.62,182.481v-5.188h-3.138v3.619h-8.568v-3.619h-3.138v5.188a1.569,1.569,0,0,0,1.569,1.569h11.707A1.569,1.569,0,0,0,204.62,182.481Z" transform="translate(-183.719 -171.436)" fill="#574d56"/>
        <path id="Trazado_1178808-3" data-name="Trazado 1178808" d="M172.7,267.313h-12.94a4.862,4.862,0,0,1-4.862-4.862V252.21h22.664v10.241A4.862,4.862,0,0,1,172.7,267.313Z" transform="translate(-152.748 -237.957)" fill="#fe9738"/>
        <path id="Trazado_1178809-3" data-name="Trazado 1178809" d="M154.895,258.141a33.284,33.284,0,0,0,22.664,0V252.21H154.9Z" transform="translate(-152.748 -237.956)" fill="#fe7d43"/>
        <path id="Trazado_1178810-3" data-name="Trazado 1178810" d="M161.078,203.485a33.379,33.379,0,0,1-23.721,0,2.467,2.467,0,0,1-1.618-2.315v-5.562a2.463,2.463,0,0,1,2.463-2.463h22.031a2.463,2.463,0,0,1,2.463,2.463v5.562A2.467,2.467,0,0,1,161.078,203.485Z" transform="translate(-135.739 -185.512)" fill="#fe9738"/>
        <path id="Trazado_1178811-3" data-name="Trazado 1178811" d="M240.614,279.809h-2.073a1.037,1.037,0,0,1-1.036-1.036v-3.948a1.037,1.037,0,0,1,1.036-1.036h2.073a1.037,1.037,0,0,1,1.037,1.036v3.948A1.037,1.037,0,0,1,240.614,279.809Z" transform="translate(-226.099 -257.116)" fill="#fff485"/>
      </g>
      <g id="Grupo_1226181-3" data-name="Grupo 1226181">
        <path id="Trazado_1178812-3" data-name="Trazado 1178812" d="M48.981,8.4A28.71,28.71,0,0,0,15.686,3.111a.841.841,0,1,0,.763,1.5A26.721,26.721,0,0,1,28.692,1.681,27.007,27.007,0,1,1,13.718,6.21a.841.841,0,1,0-.933-1.4A28.693,28.693,0,1,0,48.981,8.4Z"/>
        <path id="Trazado_1178813-3" data-name="Trazado 1178813" d="M80.129,46.476a.84.84,0,0,0-.312-.609,24.147,24.147,0,0,0-33.95,33.949.841.841,0,0,0,.609.312h.045a.841.841,0,0,0,.594-.246l5.4-5.4v.022a5.674,5.674,0,0,0,1.217,3.517l-4.239,4.239a.841.841,0,0,0,.067,1.249A24.175,24.175,0,0,0,69.288,88.4a.841.841,0,1,0-.319-1.651,22.66,22.66,0,0,1-4.281.409,22.2,22.2,0,0,1-13.33-4.382l3.6-3.6a5.671,5.671,0,0,0,3.264,1.029h12.94a5.709,5.709,0,0,0,5.7-5.7V68.764a3.32,3.32,0,0,0,2.147-3.1V60.107a3.308,3.308,0,0,0-1.963-3.019l5.73-5.73a22.2,22.2,0,0,1,4.381,13.331A22.475,22.475,0,0,1,72,85.938a.841.841,0,1,0,.547,1.59A24.152,24.152,0,0,0,83.51,49.561a.841.841,0,0,0-1.249-.067l-7.31,7.31h-2V54.6q0-.265-.025-.523l6.957-6.957A.842.842,0,0,0,80.129,46.476Zm-8.97,32.05H58.218A4.025,4.025,0,0,1,54.2,74.505V69.34a35.446,35.446,0,0,0,7.578,1.534v.793a1.879,1.879,0,0,0,1.877,1.877h2.073A1.879,1.879,0,0,0,67.6,71.667v-.793A35.452,35.452,0,0,0,75.18,69.34V74.5A4.025,4.025,0,0,1,71.159,78.526Zm-7.7-6.859V67.719a.2.2,0,0,1,.2-.2h2.073a.2.2,0,0,1,.2.2v3.948a.2.2,0,0,1-.2.2H63.652A.2.2,0,0,1,63.456,71.667ZM69.813,56.8V54.6a2.291,2.291,0,0,0-2.288-2.288H61.852A2.291,2.291,0,0,0,59.564,54.6V56.8H58.107V54.6a3.75,3.75,0,0,1,3.745-3.745h5.673A3.75,3.75,0,0,1,71.27,54.6V56.8Zm-8.569,0V54.6a.608.608,0,0,1,.607-.607h5.673a.608.608,0,0,1,.607.607V56.8ZM72.4,52.219a5.433,5.433,0,0,0-4.878-3.049H61.852A5.433,5.433,0,0,0,56.425,54.6V56.8H53.673a3.308,3.308,0,0,0-3.3,3.3v3.024a.841.841,0,0,0,1.681,0V60.107a1.624,1.624,0,0,1,1.623-1.623H75.7a1.624,1.624,0,0,1,1.623,1.623v5.562a1.632,1.632,0,0,1-1.067,1.525A34.364,34.364,0,0,1,67.6,69.186V67.719a1.879,1.879,0,0,0-1.877-1.877H63.652a1.879,1.879,0,0,0-1.877,1.877v1.467a34.37,34.37,0,0,1-8.657-1.992,1.62,1.62,0,0,1-.983-1.014.841.841,0,1,0-1.595.531,3.293,3.293,0,0,0,1.977,2.052v3.341L46.6,78.019a22.2,22.2,0,0,1-4.382-13.33A22.493,22.493,0,0,1,64.688,42.221,22.2,22.2,0,0,1,78.019,46.6Z" transform="translate(-35.996 -35.996)"/>
      </g>
    </g>
    <g id="desempleados-4" data-name="desempleados" transform="translate(1111.768 1544.762)">
      <g id="Grupo_1226178-4" data-name="Grupo 1226178" transform="translate(0.841 0.841)">
        <path id="Trazado_1178804-4" data-name="Trazado 1178804" d="M35.352,7.5A27.852,27.852,0,1,0,63.2,35.352,27.852,27.852,0,0,0,35.352,7.5ZM12.044,35.352A23.307,23.307,0,0,1,49.952,17.185L17.185,49.952A23.208,23.208,0,0,1,12.044,35.352ZM35.352,58.659a23.208,23.208,0,0,1-14.6-5.141L53.518,20.751A23.307,23.307,0,0,1,35.352,58.659Z" transform="translate(-7.5 -7.5)" fill="#ff7d7d"/>
        <g id="Grupo_1226177-4" data-name="Grupo 1226177" transform="translate(26.63)">
          <path id="Trazado_1178805-4" data-name="Trazado 1178805" d="M246.323,7.5c-.409,0-.816.011-1.222.028a27.85,27.85,0,0,1,0,55.647c.405.017.812.028,1.222.028a27.851,27.851,0,1,0,0-55.7Z" transform="translate(-245.101 -7.5)" fill="#ff6161"/>
        </g>
      </g>
      <g id="Grupo_1226180-4" data-name="Grupo 1226180" transform="translate(15.213 14.014)">
        <g id="Grupo_1226179-4" data-name="Grupo 1226179" transform="translate(6.056)">
          <path id="Trazado_1178806-4" data-name="Trazado 1178806" d="M203.051,137.65H191.344a1.569,1.569,0,0,1-1.569-1.569v-6.459a4.591,4.591,0,0,1,4.586-4.586h5.673a4.591,4.591,0,0,1,4.586,4.586v6.459A1.569,1.569,0,0,1,203.051,137.65Zm-10.138-3.138h8.568v-4.89a1.449,1.449,0,0,0-1.448-1.448h-5.673a1.449,1.449,0,0,0-1.448,1.448Z" transform="translate(-189.775 -125.036)" fill="#6c5e69"/>
        </g>
        <path id="Trazado_1178807-4" data-name="Trazado 1178807" d="M204.62,182.481v-5.188h-3.138v3.619h-8.568v-3.619h-3.138v5.188a1.569,1.569,0,0,0,1.569,1.569h11.707A1.569,1.569,0,0,0,204.62,182.481Z" transform="translate(-183.719 -171.436)" fill="#574d56"/>
        <path id="Trazado_1178808-4" data-name="Trazado 1178808" d="M172.7,267.313h-12.94a4.862,4.862,0,0,1-4.862-4.862V252.21h22.664v10.241A4.862,4.862,0,0,1,172.7,267.313Z" transform="translate(-152.748 -237.957)" fill="#fe9738"/>
        <path id="Trazado_1178809-4" data-name="Trazado 1178809" d="M154.895,258.141a33.284,33.284,0,0,0,22.664,0V252.21H154.9Z" transform="translate(-152.748 -237.956)" fill="#fe7d43"/>
        <path id="Trazado_1178810-4" data-name="Trazado 1178810" d="M161.078,203.485a33.379,33.379,0,0,1-23.721,0,2.467,2.467,0,0,1-1.618-2.315v-5.562a2.463,2.463,0,0,1,2.463-2.463h22.031a2.463,2.463,0,0,1,2.463,2.463v5.562A2.467,2.467,0,0,1,161.078,203.485Z" transform="translate(-135.739 -185.512)" fill="#fe9738"/>
        <path id="Trazado_1178811-4" data-name="Trazado 1178811" d="M240.614,279.809h-2.073a1.037,1.037,0,0,1-1.036-1.036v-3.948a1.037,1.037,0,0,1,1.036-1.036h2.073a1.037,1.037,0,0,1,1.037,1.036v3.948A1.037,1.037,0,0,1,240.614,279.809Z" transform="translate(-226.099 -257.116)" fill="#fff485"/>
      </g>
      <g id="Grupo_1226181-4" data-name="Grupo 1226181">
        <path id="Trazado_1178812-4" data-name="Trazado 1178812" d="M48.981,8.4A28.71,28.71,0,0,0,15.686,3.111a.841.841,0,1,0,.763,1.5A26.721,26.721,0,0,1,28.692,1.681,27.007,27.007,0,1,1,13.718,6.21a.841.841,0,1,0-.933-1.4A28.693,28.693,0,1,0,48.981,8.4Z"/>
        <path id="Trazado_1178813-4" data-name="Trazado 1178813" d="M80.129,46.476a.84.84,0,0,0-.312-.609,24.147,24.147,0,0,0-33.95,33.949.841.841,0,0,0,.609.312h.045a.841.841,0,0,0,.594-.246l5.4-5.4v.022a5.674,5.674,0,0,0,1.217,3.517l-4.239,4.239a.841.841,0,0,0,.067,1.249A24.175,24.175,0,0,0,69.288,88.4a.841.841,0,1,0-.319-1.651,22.66,22.66,0,0,1-4.281.409,22.2,22.2,0,0,1-13.33-4.382l3.6-3.6a5.671,5.671,0,0,0,3.264,1.029h12.94a5.709,5.709,0,0,0,5.7-5.7V68.764a3.32,3.32,0,0,0,2.147-3.1V60.107a3.308,3.308,0,0,0-1.963-3.019l5.73-5.73a22.2,22.2,0,0,1,4.381,13.331A22.475,22.475,0,0,1,72,85.938a.841.841,0,1,0,.547,1.59A24.152,24.152,0,0,0,83.51,49.561a.841.841,0,0,0-1.249-.067l-7.31,7.31h-2V54.6q0-.265-.025-.523l6.957-6.957A.842.842,0,0,0,80.129,46.476Zm-8.97,32.05H58.218A4.025,4.025,0,0,1,54.2,74.505V69.34a35.446,35.446,0,0,0,7.578,1.534v.793a1.879,1.879,0,0,0,1.877,1.877h2.073A1.879,1.879,0,0,0,67.6,71.667v-.793A35.452,35.452,0,0,0,75.18,69.34V74.5A4.025,4.025,0,0,1,71.159,78.526Zm-7.7-6.859V67.719a.2.2,0,0,1,.2-.2h2.073a.2.2,0,0,1,.2.2v3.948a.2.2,0,0,1-.2.2H63.652A.2.2,0,0,1,63.456,71.667ZM69.813,56.8V54.6a2.291,2.291,0,0,0-2.288-2.288H61.852A2.291,2.291,0,0,0,59.564,54.6V56.8H58.107V54.6a3.75,3.75,0,0,1,3.745-3.745h5.673A3.75,3.75,0,0,1,71.27,54.6V56.8Zm-8.569,0V54.6a.608.608,0,0,1,.607-.607h5.673a.608.608,0,0,1,.607.607V56.8ZM72.4,52.219a5.433,5.433,0,0,0-4.878-3.049H61.852A5.433,5.433,0,0,0,56.425,54.6V56.8H53.673a3.308,3.308,0,0,0-3.3,3.3v3.024a.841.841,0,0,0,1.681,0V60.107a1.624,1.624,0,0,1,1.623-1.623H75.7a1.624,1.624,0,0,1,1.623,1.623v5.562a1.632,1.632,0,0,1-1.067,1.525A34.364,34.364,0,0,1,67.6,69.186V67.719a1.879,1.879,0,0,0-1.877-1.877H63.652a1.879,1.879,0,0,0-1.877,1.877v1.467a34.37,34.37,0,0,1-8.657-1.992,1.62,1.62,0,0,1-.983-1.014.841.841,0,1,0-1.595.531,3.293,3.293,0,0,0,1.977,2.052v3.341L46.6,78.019a22.2,22.2,0,0,1-4.382-13.33A22.493,22.493,0,0,1,64.688,42.221,22.2,22.2,0,0,1,78.019,46.6Z" transform="translate(-35.996 -35.996)"/>
      </g>
    </g>
    <g id="Enmascarar_grupo_1211506" data-name="Enmascarar grupo 1211506" transform="translate(0 -151)" clip-path="url(#clip-path)">
      <g id="Grupo_1226234" data-name="Grupo 1226234" transform="translate(-6704.583 507.417)">
        <g id="OBJECTS" transform="translate(7289.042 987.042)">
          <g id="Grupo_1226233" data-name="Grupo 1226233" transform="translate(0)">
            <g id="Grupo_1226232" data-name="Grupo 1226232" clip-path="url(#clip-path-2)">
              <path id="Trazado_1178951" data-name="Trazado 1178951" d="M297.694,193.14c.52,6.35,8.436,87.777,27.588,161.931a.628.628,0,0,1-.335.767l-7.338,2.337a.493.493,0,0,1-.6-.43c-1.868-8.321-24.66-110.68-25.515-166.1-.006-.4.289-.682.6-.59l5.219,1.551A.59.59,0,0,1,297.694,193.14Z" transform="translate(-33.516 -21.981)" fill="#5c0e1b"/>
              <g id="Grupo_1226198" data-name="Grupo 1226198" transform="translate(151.958 304.958)">
                <path id="Trazado_1178952" data-name="Trazado 1178952" d="M308.311,538.484H257.139S241.3,441.372,240.02,435.7s-11.658-6.311-13.8-4.567-4.337,107.354-4.337,107.354H172.428c-1.815-34.088.106-98.953,2.965-142.964.009-.186.018-.363.035-.549v-.009c1.195-18.394,2.567-33.061,3.877-40.222,2.275-12.339,78.143-13.1,99.537-4.187l.735.328c2.505,1.133,4.134,2.425,4.656,3.859,4.727,13.1,9.462,33.619,13.331,68.99S308.311,538.484,308.311,538.484Z" transform="translate(-171.72 -344.569)" fill="#3b0e1b"/>
                <g id="Grupo_1226197" data-name="Grupo 1226197" transform="translate(3.673 5.985)" opacity="0.68">
                  <path id="Trazado_1178953" data-name="Trazado 1178953" d="M238.928,397.77c-.15-1.717-.28-3.436-.371-5.161-.18-3.4-.227-6.822-.195-10.24.036-3.871.18-7.744.377-11.616.2-3.947.536-7.9.655-11.843.011-.374-.495-.367-.531,0-.325,3.307-.481,6.629-.656,9.942s-.319,6.63-.394,9.945c-.149,6.491.068,12.917.551,19.36.154,2.05.219,5.2-1.991,6.133a3.271,3.271,0,0,1-3.24-.644,6.455,6.455,0,0,1-1.946-3.529,35.685,35.685,0,0,1-.712-4.338q-.316-2.513-.5-5.047c-.242-3.247-.347-6.51-.358-9.778-.024-7.295.466-14.59.834-21.886a.2.2,0,1,0-.4,0c-.548,6.846-.933,13.711-.959,20.563-.013,3.452.073,6.9.309,10.335a75.8,75.8,0,0,0,1.086,9.585c.5,2.512,1.729,5.112,4.3,5.537,2.2.363,3.754-1.431,4.113-3.665A14.869,14.869,0,0,0,238.928,397.77Z" transform="translate(-181.981 -352.169)" fill="#7c311b"/>
                  <path id="Trazado_1178954" data-name="Trazado 1178954" d="M244.657,441.451a57.339,57.339,0,0,0-19.374-5.473,36.7,36.7,0,0,0-5.788-.292.294.294,0,0,0,0,.588c2.166.209,4.333.316,6.5.582,2.12.261,4.23.628,6.315,1.091,1.439.32,2.858.709,4.27,1.125a34.8,34.8,0,0,0-10.349.29c-.216.042-.17.407.052.387a56.983,56.983,0,0,1,12.669.051c1.872.613,3.727,1.279,5.57,1.978C244.708,441.852,244.838,441.543,244.657,441.451Z" transform="translate(-180.847 -361.014)" fill="#7c311b"/>
                  <path id="Trazado_1178955" data-name="Trazado 1178955" d="M309.945,539.261h-.788q-.212-12.733-.682-25.458-.81-22.174-2.346-44.312-1.54-22.24-3.824-44.418-1.739-16.969-3.913-33.893a65.955,65.955,0,0,1-5.116-6.595,69.955,69.955,0,0,1-9.56-20.74,48.626,48.626,0,0,1-1.558-7.515.2.2,0,0,1,.381-.053c.584,2.8,1.106,5.585,1.9,8.329a70.423,70.423,0,0,0,13.844,25.785q-.611-4.74-1.257-9.48a252.522,252.522,0,0,0-5.506-29.582l.735.327c3.107,11.153,4.683,22.758,6.205,34.194q2.934,22.107,5.125,44.294t3.665,44.444q1.474,22.346,2.2,44.754Q309.768,529.3,309.945,539.261Z" transform="translate(-188.075 -351.33)" fill="#7c311b"/>
                  <path id="Trazado_1178956" data-name="Trazado 1178956" d="M192.343,364.383a64.645,64.645,0,0,1-10.569,25.245c-.85,1.213-1.744,2.4-2.682,3.541a23.909,23.909,0,0,1-3.151,3.4.118.118,0,0,1-.071.027c.009-.186.018-.363.035-.549v-.009c.9-1.222,1.965-2.337,2.895-3.532,1.071-1.372,2.089-2.762,3.054-4.2a64.949,64.949,0,0,0,7.816-16.261,68.679,68.679,0,0,0,2.178-8.825c.54-3.036.806-6.072,1.045-9.144a.155.155,0,0,1,.31,0A48.549,48.549,0,0,1,192.343,364.383Z" transform="translate(-175.87 -351.628)" fill="#7c311b"/>
                </g>
              </g>
              <g id="Grupo_1226204" data-name="Grupo 1226204" transform="translate(106.501 142.075)">
                <g id="Grupo_1226200" data-name="Grupo 1226200" transform="translate(0 16.606)">
                  <path id="Trazado_1178957" data-name="Trazado 1178957" d="M172.271,197.989c-1.97,1.715-53.447,78.566-51.868,91.253.783,6.3,14.442,13.308,25.39,3.877,11.59-9.984,24.71-27.859,35.047-46.175C201.361,210.581,180.045,191.224,172.271,197.989Z" transform="translate(-120.367 -181.306)" fill="#fff"/>
                  <path id="Trazado_1178958" data-name="Trazado 1178958" d="M323.042,205.506c1.7,1.815,37.228,82.2,31.856,95.625-2.666,6.664-18.533,13.087-27.982,3.106-10-10.567-20.736-28.488-26.972-47.875C287.563,217.876,316.35,198.346,323.042,205.506Z" transform="translate(-140.636 -182.155)" fill="#fff"/>
                  <path id="Trazado_1178959" data-name="Trazado 1178959" d="M308.14,203.272c.018-5.4-47.619-24.378-66.984-23.95-19.654.434-58.357,12.887-62.77,16.545-2.152,1.784-1.268,42.111-1.927,70.908-.621,27.152-.648,45.45-2.273,53.212-1.253,5.98-4.963,17-3.737,20.952s11,10.235,16.76,11.173c4.164.678,63.445,5.508,71.24,4.8,7.75-.7,27.682-5.866,32.484-11.543s-3.484-26.756-1.623-31.629c1.137-2.979,2.065-34.544,6.959-63.124C299.4,232.34,308.117,210.263,308.14,203.272Z" transform="translate(-126.09 -179.315)" fill="#fff"/>
                  <path id="Trazado_1178960" data-name="Trazado 1178960" d="M180,347.071c5.448,1.846,11.42,2.09,17.071,2.931a171.862,171.862,0,0,0,32.5,2.021,123.485,123.485,0,0,0,16.377-1.676c4.817-.854,9.67-1.5,14.479-2.4a58.11,58.11,0,0,0,14.083-4.163,34.235,34.235,0,0,0,10.122-7.512,59.376,59.376,0,0,0,4.734-5.673,7.609,7.609,0,0,1,.236-2.961,40.23,40.23,0,0,0,.823-6.459,12.293,12.293,0,0,0-1.507-2.889c-2.688-3.849-7.134-6.258-11.38-8a139.037,139.037,0,0,0-13.425-4.379c-13.113-3.878-26.94-5.3-40.568-5.567a118.694,118.694,0,0,0-19.9,1.044,105.525,105.525,0,0,0-18.591,4.529c-2.974,1.018-5.991,2.135-8.917,3.439-.3,11.636-.7,19.93-1.661,24.526-.413,1.976-1.1,4.5-1.779,7.142.827,1.243,1.725,2.438,2.662,3.591A20.452,20.452,0,0,0,180,347.071Z" transform="translate(-126.375 -193.208)" fill="#ffdedf"/>
                  <g id="Grupo_1226199" data-name="Grupo 1226199" transform="translate(49.368 17.528)">
                    <path id="Trazado_1178961" data-name="Trazado 1178961" d="M178.432,212.164q.437-3.191.978-6.366c.367-2.153.8-4.3,1.122-6.459.033-.218-.281-.32-.34-.094a104.366,104.366,0,0,0-2.07,11.4q-.806,5.614-1.291,11.266a188.435,188.435,0,0,0-.566,23.06q.191,5.134.628,10.255c-.077.775-.151,1.549-.231,2.323-.019.179.254.173.277,0,.032-.249.067-.5.1-.747.039.413.073.826.114,1.238.017.171.286.173.27,0-.081-.863-.135-1.728-.2-2.592.721-5.411,1.5-10.83,1.91-16.271.016-.215-.346-.268-.381-.051-.752,4.761-1.214,9.573-1.683,14.375q-.641-9.187-.443-18.4A201.4,201.4,0,0,1,178.432,212.164Z" transform="translate(-176.139 -199.117)" fill="#ffdedf"/>
                    <path id="Trazado_1178962" data-name="Trazado 1178962" d="M303.85,259.119c-.346-2.088-.682-4.178-1.028-6.266-.032-.194-.365-.151-.346.047a133.138,133.138,0,0,0,2.085,13.86c-.273-.806-.578-1.6-.862-2.4q-.663-1.867-1.341-3.728c-.908-2.483-1.827-4.966-2.8-7.423-.069-.173-.347-.107-.287.079.823,2.544,1.71,5.072,2.6,7.592q.663,1.868,1.345,3.727c.446,1.221.847,2.473,1.392,3.654a.174.174,0,0,0,.275.051q.7,3.327,1.5,6.625c.5,2.063,1.092,4.1,1.715,6.127a.114.114,0,0,0,.22-.06C306.652,273.738,305.069,266.47,303.85,259.119Z" transform="translate(-190.277 -205.273)" fill="#ffdedf"/>
                    <path id="Trazado_1178963" data-name="Trazado 1178963" d="M320.493,204.28a18.1,18.1,0,0,0-2.879,2.224,36.688,36.688,0,0,0-2.7,2.617,39.755,39.755,0,0,0-9.884,19.613,37.522,37.522,0,0,0-.605,8.291.114.114,0,0,0,.228,0,39.572,39.572,0,0,1,10-26.956,38.766,38.766,0,0,1,2.884-2.912c1.013-.918,2.14-1.7,3.151-2.617C320.835,204.412,320.654,204.188,320.493,204.28Z" transform="translate(-190.867 -199.708)" fill="#ffdedf"/>
                  </g>
                </g>
                <g id="Grupo_1226202" data-name="Grupo 1226202" transform="translate(102.345)">
                  <path id="Trazado_1178964" data-name="Trazado 1178964" d="M236.732,181.54s2.186,5.007,12.916,4.352,12.523-5.9,12.523-5.9l-.743-19.433-25.439,1.552Z" transform="translate(-235.989 -160.555)" fill="#ff9a73"/>
                  <g id="Grupo_1226201" data-name="Grupo 1226201" clip-path="url(#clip-path-3)">
                    <path id="Trazado_1178965" data-name="Trazado 1178965" d="M252.132,170.214a28.473,28.473,0,0,1-11.514,1.124,12.561,12.561,0,0,1-6.452-2.111c-3.08-2.422-2.752-6.907-.084-9.829s7.077-4.458,11.4-5.009a33.212,33.212,0,0,1,10.885.418c2.446.508,7.422,1.462,8.136,3.806C265.9,163.215,256.39,168.837,252.132,170.214Z" transform="translate(-235.527 -159.817)" fill="#d53140"/>
                  </g>
                </g>
                <g id="Grupo_1226203" data-name="Grupo 1226203" transform="translate(83.519 9.786)">
                  <path id="Trazado_1178967" data-name="Trazado 1178967" d="M247.161,186.413c-2.629.791-7.122,7.628-7.365,8.991s3.455,6.491,6.751,6.422,10.566-5.831,10.122-7.013S248.2,186.1,247.161,186.413Z" transform="translate(-217.599 -173.309)" fill="#3b0e1b"/>
                  <path id="Trazado_1178968" data-name="Trazado 1178968" d="M242.059,200.052s-15.232,43.8-20.523,67.925-7.417,51.843-6.671,54.594,11.75,22.853,14.924,23.276,15.074-20.035,15.26-23.348-3.411-43.668-2.141-66.236,3.889-56.212,3.889-56.212h-4.738Z" transform="translate(-214.721 -174.876)" fill="#3b0e1b"/>
                  <path id="Trazado_1178969" data-name="Trazado 1178969" d="M225.132,184.552c-.139-1.54,7.088-11.039,8.977-10.565s8,10.683,10.029,10.565,17.905-13.176,18.969-12.939,7.813,12.939,6.821,14.244-11.369,13.532-13.259,13.057-8.54-13.285-11.613-13.646-7.515,12.459-9.547,12.7S225.39,187.424,225.132,184.552Z" transform="translate(-215.916 -171.61)" fill="#ffdedf"/>
                </g>
              </g>
              <g id="Grupo_1226208" data-name="Grupo 1226208" transform="translate(253.807 164.708)">
                <g id="Grupo_1226205" data-name="Grupo 1226205" transform="translate(7.918 155.798)">
                  <path id="Trazado_1178970" data-name="Trazado 1178970" d="M341.639,363.295c-3.389-1.939-43.557,5.487-45.636,8.144s8.171,102.027,12.1,103.027,23.953-.886,29.061-2.657,20.927-8.266,23.215-12.1S347.317,366.541,341.639,363.295Z" transform="translate(-295.728 -362.23)" fill="#7c311b"/>
                  <path id="Trazado_1178971" data-name="Trazado 1178971" d="M357.34,417.816c-4.852,2.892-21.457,8.484-25.425,7.4-.7-.192-1.4-1.912-2.124-4.631-.048-.2-.105-.413-.164-.634-3.305-13.24-6.976-46.939-12.078-48.7-6.3-2.181-17.065-.586-19.419,2.171s-2.614.182-2.124-2.085,7.341-5.092,27.01-7.485,21.716-2.873,21.975,2.393c.212,4.257,10.7,34.006,12.636,46.324.039.25.077.481.105.711C358.07,415.77,358,417.423,357.34,417.816Z" transform="translate(-295.736 -362.133)" fill="#a3422c"/>
                  <path id="Trazado_1178972" data-name="Trazado 1178972" d="M317.105,373.692c-3.679-1.752-18.4-.848-19.7,3.466s9.545,94.48,13.041,96.586,19,.351,20.831-1.4S321.647,375.854,317.105,373.692Z" transform="translate(-295.908 -363.364)" fill="#5c0e1b"/>
                  <path id="Trazado_1178973" data-name="Trazado 1178973" d="M321.639,463.74q-.509-4.872-1.07-9.737c-.747-6.381-1.6-12.753-2.5-19.117q-2.7-19.213-6.141-38.326c-1.3-7.2-2.563-14.432-4.221-21.569-.069-.3-.55-.166-.5.124,1.085,6.381,2.386,12.734,3.536,19.106q1.734,9.609,3.287,19.244,3.11,19.221,5.51,38.529c.451,3.6.907,7.195,1.341,10.794.431,3.58.77,7.178,1.285,10.748.029.2.411.156.4-.049C322.368,470.234,321.978,466.983,321.639,463.74Z" transform="translate(-297.046 -363.591)" fill="#7c311b"/>
                  <path id="Trazado_1178974" data-name="Trazado 1178974" d="M362.122,419.824a69.4,69.4,0,0,1-27.942,7.3c-.048-.2-.105-.413-.164-.634a71.13,71.13,0,0,0,7.659-.845A72.27,72.27,0,0,0,356.1,421.7c2-.778,3.988-1.643,5.919-2.585C362.055,419.363,362.094,419.593,362.122,419.824Z" transform="translate(-300.124 -368.676)" fill="#5c0e1b"/>
                  <path id="Trazado_1178975" data-name="Trazado 1178975" d="M350.664,420.888c.422-.194,7.718-2.217,8.29-1.686s2,14.157,1,15.344-5.574,1.771-6.432,1.377S349.893,421.242,350.664,420.888Z" transform="translate(-302.021 -368.676)" fill="#ffbd31"/>
                </g>
                <g id="Grupo_1226207" data-name="Grupo 1226207">
                  <path id="Trazado_1178976" data-name="Trazado 1178976" d="M298.672,190.1c-.124,6.847-.5,93.611,14.048,173.566a.735.735,0,0,1-.5.826l-12.225,1.844a.534.534,0,0,1-.68-.463C298.023,356.9,282.4,246.536,287.985,186.78a.683.683,0,0,1,.8-.636l9.483,3.381A.562.562,0,0,1,298.672,190.1Z" transform="translate(-286.782 -186.125)" fill="#7c311b"/>
                  <g id="Grupo_1226206" data-name="Grupo 1226206" transform="translate(10.43 166.126)">
                    <path id="Trazado_1178977" data-name="Trazado 1178977" d="M312.948,379.513c.789-.412.156-5.392-.611-5.69s-13.779,2.645-13.772,3.69.26,3.989,1.187,4.425S311.523,380.258,312.948,379.513Z" transform="translate(-298.565 -373.802)" fill="#ffbd31"/>
                    <path id="Trazado_1178978" data-name="Trazado 1178978" d="M303.7,379.459a1.386,1.386,0,1,1-1.386-1.386A1.386,1.386,0,0,1,303.7,379.459Z" transform="translate(-298.836 -374.293)" fill="#5c0e1b"/>
                    <path id="Trazado_1178979" data-name="Trazado 1178979" d="M311.994,377.893a1.386,1.386,0,1,1-1.386-1.386A1.386,1.386,0,0,1,311.994,377.893Z" transform="translate(-299.789 -374.113)" fill="#5c0e1b"/>
                  </g>
                </g>
              </g>
              <g id="Grupo_1226215" data-name="Grupo 1226215" transform="translate(174.221 57.822)">
                <g id="Grupo_1226211" data-name="Grupo 1226211">
                  <path id="Trazado_1178980" data-name="Trazado 1178980" d="M236,75.266c18.705-1.522,35.988,14.753,38.546,37.082a46.525,46.525,0,0,1-2.062,20.27c-4.648,13.672-15.647,23.552-29.463,24.655-1.029.08-2.026.141-3,.169-10.42.348-17.333-2.165-21.912-6.636-5.263-5.138-7.43-12.837-8.355-21.744-.39-3.748-.566-7.715-.653-11.784C208.559,92.214,217.439,76.769,236,75.266Z" transform="translate(-198.273 -66.497)" fill="#ff9a73"/>
                  <path id="Trazado_1178981" data-name="Trazado 1178981" d="M281.438,99.281a53.059,53.059,0,0,1-1.037,5.343c-.23.9-.451,1.807-.673,2.7a12.246,12.246,0,0,0-.653,2.614,1.16,1.16,0,0,1-.23.519,1.188,1.188,0,0,1-.461.25,11.776,11.776,0,0,0-3.825,2.3c-1.095,1-2.085,2.364-3.584,2.758a1.638,1.638,0,0,1-1.153-.058c-.711-.356-.528-1.4-.558-2.066-.038-.855-.029-1.72,0-2.585.02-.721.058-1.441.105-2.162a.861.861,0,0,1-.01-.317c.279-1.979-1.576-3.479-2.748-4.766a16.441,16.441,0,0,1-2.825-3.958,38.912,38.912,0,0,1-2.671-9.052c-.653-3.036-1.768-7.226-4.1-9.782a14.888,14.888,0,0,0-3.988-2.2,6.621,6.621,0,0,0-1.461-.067c-5.919.394-9.772,6.735-13.721,10.4-3.911,3.622-9.455,6.553-14.835,4.42a8.022,8.022,0,0,1-.9-.461,9.4,9.4,0,0,1-2.239,2.527,12.648,12.648,0,0,1-7,2.8c-10.166.827-17.267-9.984-15.8-19.285.327-2.066,1.384-4.219,3.5-4.91,2.3-.768,4.843.384,6.909,1.336.471.221.932.451,1.4.7a3.885,3.885,0,0,1,2.864-4.2c2.171-.519,4.689.269,6.7,1.076a24.13,24.13,0,0,1,2.479,1.162c1.826-1.037,3.7-1.97,5.583-2.844,5.361-2.517,10.925-4.853,16.825-5.737,6.563-.99,13.827.2,20.1,2.23a1.5,1.5,0,0,0,.192.067c2.3.75,5.007,1.5,6.361,3.7a16.006,16.006,0,0,1,.922,2.393c.327,1.037.538,2.027.231,2.153a5.947,5.947,0,0,1,3.527-.144,7.268,7.268,0,0,1,2.69,1.288c2.085,1.615,3.094,4.151,3.642,6.794.115.567.212,1.144.289,1.71A48.316,48.316,0,0,1,281.438,99.281Z" transform="translate(-196.871 -65.373)"/>
                  <g id="Grupo_1226209" data-name="Grupo 1226209" transform="translate(54.021 2.583)" opacity="0.24">
                    <path id="Trazado_1178982" data-name="Trazado 1178982" d="M289.609,85.6a3.2,3.2,0,0,1-.952.576c-1.326.528-3.056.3-3.93,1.422-.75.961-.586,2.662-1.71,3.123-1.047.423-2.056-.673-3.142-.952-1.739-.433-3.277,1.268-3.958,2.921a1.281,1.281,0,0,1-.538.73,1.062,1.062,0,0,1-.865-.105c-1.941-.98-2.575-3.459-2.547-5.64a6.468,6.468,0,0,1,.768-3.3c2.143-3.507,7.485-2.652,9.964-6.034.212-.279.394-.558.576-.827a7.268,7.268,0,0,1,2.69,1.288C288.052,80.42,289.061,82.957,289.609,85.6Z" transform="translate(-259.515 -69.351)" fill="#ffdedf"/>
                    <path id="Trazado_1178983" data-name="Trazado 1178983" d="M277.9,74.451c-1.816,1.413-5.314,2.373-7.034,2.892a6.492,6.492,0,0,1-3.161.374,10.148,10.148,0,0,1-2.229-.9,12.016,12.016,0,0,0-4.247-1.057c-1.182-.077-2.633-.115-3.171-1.162a2.058,2.058,0,0,1,1.259-2.642,5.162,5.162,0,0,1,3.248.105c.7.192,1.643.327,2.008-.307.346-.6-.144-1.345.01-2.018.182-.836,1.259-1.134,2.114-1.019a6.853,6.853,0,0,0,2.556.24,3.156,3.156,0,0,0,1.172-.663,1.5,1.5,0,0,0,.192.067c2.3.75,5.007,1.5,6.361,3.7A16.3,16.3,0,0,1,277.9,74.451Z" transform="translate(-257.9 -68.291)" fill="#ffdedf"/>
                  </g>
                  <g id="Grupo_1226210" data-name="Grupo 1226210" transform="translate(73.396 42.621)">
                    <path id="Trazado_1178984" data-name="Trazado 1178984" d="M295.246,117.1a6.453,6.453,0,0,0-3.261-3.17c-3.414-1.376-7.7.944-9.817,3.412-2.4,2.8-2.586,7.867-2.251,12.029a8.714,8.714,0,0,0,1.992,5.422c3.054,3.09,7.327,1.066,9.732-.977a14.575,14.575,0,0,0,4.817-10.726A12.15,12.15,0,0,0,295.246,117.1Z" transform="translate(-279.788 -113.523)" fill="#ff9a73"/>
                    <path id="Trazado_1178985" data-name="Trazado 1178985" d="M284.275,129.406a13.789,13.789,0,0,1,.639-4.864,11.458,11.458,0,0,1,2.361-4,5.488,5.488,0,0,1,4.027-1.939,4.326,4.326,0,0,1,2.033.533c.6.332,1.494,1.01,1.6,1.827.063.482-.21.865-.634.8-.505-.074-.971-.591-1.453-.835a3.523,3.523,0,0,0-1.548-.382,3.234,3.234,0,0,0-.908.135,6.629,6.629,0,0,1,1.6,3.018,7.02,7.02,0,0,1,.162,2.167A5.549,5.549,0,0,1,291.94,127a4.842,4.842,0,0,1-.169.474,1.025,1.025,0,0,1-.45.5c-.282.186-.766-.146-.8-.549a1.879,1.879,0,0,1-.005-.567c.033-.154.085-.3.121-.451a6.085,6.085,0,0,0,.038-2.48A6.012,6.012,0,0,0,289.3,121.2a6.786,6.786,0,0,0-1.37,1.212,12.38,12.38,0,0,0-2.793,7.16C285.106,130.229,284.281,130.065,284.275,129.406Z" transform="translate(-280.303 -114.107)" fill="#d5311d"/>
                  </g>
                </g>
                <path id="Trazado_1178986" data-name="Trazado 1178986" d="M239.044,128.366a4.057,4.057,0,0,0-.849-.445c-.314-.159-.624-.32-.944-.471a18.621,18.621,0,0,0-1.859-.775,5.147,5.147,0,0,0,.26-.965,9.166,9.166,0,0,0,.153-1.917,7.984,7.984,0,0,0-.255-1.916,4.838,4.838,0,0,0-.8-1.71.434.434,0,0,0-.735.3c.055.581.243,1.156.344,1.733a11.983,11.983,0,0,1,.212,1.588,11.641,11.641,0,0,1-.035,1.648c-.032.316-.089.636-.135.957a4.834,4.834,0,0,0-2.816.159c-2.55,1.05-2.749,4.2-3.03,6.547a.269.269,0,0,0,.5.135c.829-1.847.767-5,3.131-5.685a5.115,5.115,0,0,1,3.3.425c.548.221,1.083.473,1.635.682a3.732,3.732,0,0,0,1.753.335A.377.377,0,0,0,239.044,128.366Z" transform="translate(-200.51 -71.65)" fill="#d5311d"/>
                <g id="Grupo_1226214" data-name="Grupo 1226214" transform="translate(21.787 46.894)">
                  <ellipse id="Elipse_12636" data-name="Elipse 12636" cx="2.106" cy="4.228" rx="2.106" ry="4.228" transform="translate(30.105)"/>
                  <path id="Trazado_1178993" data-name="Trazado 1178993" d="M225.42,122.431c0,2.254-.881,4.081-1.968,4.081s-1.968-1.827-1.968-4.081.881-4.081,1.968-4.081S225.42,120.177,225.42,122.431Z" transform="translate(-221.485 -118.35)"/>
                </g>
                <path id="Trazado_1178994" data-name="Trazado 1178994" d="M263.951,109.591c-.5.232-7.491.438-11.237-2.519s-3.966-5.916-2.2-6.792,5.869,3.887,8.069,5.368C261.076,107.328,265.6,108.824,263.951,109.591Z" transform="translate(-202.908 -69.369)"/>
                <path id="Trazado_1178995" data-name="Trazado 1178995" d="M214.985,110.031c.441.226,6.62.427,9.93-2.455s3.5-5.765,1.947-6.62-5.185,3.788-7.13,5.231C217.526,107.825,213.525,109.284,214.985,110.031Z" transform="translate(-198.915 -69.447)"/>
                <path id="Trazado_1179048" data-name="Trazado 1179048" d="M231.214,152.325a29.37,29.37,0,0,1,9.731-7.153c5.552-2.273,12.476-1.938,12.476-1.938" transform="translate(-200.815 -74.311)" fill="none" stroke="#d5311d" stroke-linecap="round" stroke-width="2"/>
              </g>
              <g id="Grupo_1226231" data-name="Grupo 1226231" transform="translate(106.502 150.251)">
                <g id="Grupo_1226216" data-name="Grupo 1226216" transform="translate(121.975 103.635)">
                  <path id="Trazado_1178996" data-name="Trazado 1178996" d="M352.5,308.192c.547,4.931-2.54,9.965-14.731,16.16s-45.153,12.1-53.239,12.419S269.5,335.06,272.416,325.14c2.337-7.954,47.639-32.916,57.036-34.042S351.741,301.325,352.5,308.192Z" transform="translate(-259.724 -287.347)" fill="#fff"/>
                  <path id="Trazado_1178997" data-name="Trazado 1178997" d="M288.441,318.947a8.544,8.544,0,0,0-7.653-4.81c-.437,0-.877.012-1.317.04a24.339,24.339,0,0,0-10.77,3.735,35.181,35.181,0,0,0-7.814,5.983c-.194.2-.388.414-.577.63a8.656,8.656,0,0,0-1.573,8.792,22.093,22.093,0,0,0,2.055,4c.919,1.428,4.844,4.474,9.78,5.035,3.758.427,8.164.607,11.644-1.171a11.989,11.989,0,0,0,2.737-1.958,17.635,17.635,0,0,0,4.249-18.425A18.109,18.109,0,0,0,288.441,318.947Z" transform="translate(-258.165 -290.002)" fill="#ffdedf"/>
                  <path id="Trazado_1178998" data-name="Trazado 1178998" d="M344.2,290.085a39.057,39.057,0,0,0-11.123.836,48.86,48.86,0,0,0-10.6,3.464c-.3.139-.6.288-.9.433,1.555-1.031,3.13-2.035,4.732-2.987,2.775-1.65,5.646-3.089,8.481-4.625.172-.093.053-.4-.136-.322a59.366,59.366,0,0,0-8.637,4.449,81.928,81.928,0,0,0-7.512,5.152c-.536.324-1.067.657-1.585,1.008a.166.166,0,0,0,.167.287,57.6,57.6,0,0,1,10.1-4.638,52.031,52.031,0,0,1,10.75-2.329c2.089-.237,4.17-.266,6.268-.332A.2.2,0,0,0,344.2,290.085Z" transform="translate(-264.903 -286.871)" fill="#ffdedf"/>
                </g>
                <g id="Grupo_1226217" data-name="Grupo 1226217" transform="translate(0 95.142)">
                  <path id="Trazado_1178999" data-name="Trazado 1178999" d="M120.421,297.608c-.493,5.608,2.29,11.332,13.283,18.377s25.951,20.655,33.241,21.023,20.1-17.688,17.473-28.969c-2.107-9.046-32.625-27.048-41.021-28.973C131.606,276.361,121.108,289.8,120.421,297.608Z" transform="translate(-120.367 -277.441)" fill="#fff"/>
                  <path id="Trazado_1179000" data-name="Trazado 1179000" d="M177.423,318.947a8.268,8.268,0,0,0-7.421-4.81q-.636,0-1.277.04a23.138,23.138,0,0,0-10.443,3.735A34.247,34.247,0,0,0,150.7,323.9q-.283.305-.56.63a8.867,8.867,0,0,0-1.525,8.792,22.31,22.31,0,0,0,1.993,4c.89,1.428,4.7,4.474,9.484,5.035,3.643.427,7.916.607,11.29-1.171a11.621,11.621,0,0,0,2.654-1.958,18.026,18.026,0,0,0,4.12-18.425A18.715,18.715,0,0,0,177.423,318.947Z" transform="translate(-123.548 -281.509)" fill="#ffdedf"/>
                  <path id="Trazado_1179001" data-name="Trazado 1179001" d="M151.237,280.823a16.421,16.421,0,0,0-3.639-1.68,16.69,16.69,0,0,0-9.5-1.731c-.15.021-.109.258.035.258a26.972,26.972,0,0,1,5.361.471c.178.036.352.085.529.127-.471-.067-.941-.124-1.407-.162a20.727,20.727,0,0,0-9.071,1.248c-.172.065-.1.336.077.28a23.271,23.271,0,0,1,8.809-.954,23.87,23.87,0,0,1,4.378.8,32.154,32.154,0,0,1,4.257,1.639A.173.173,0,0,0,151.237,280.823Z" transform="translate(-121.869 -277.276)" fill="#ffdedf"/>
                </g>
                <g id="Grupo_1226226" data-name="Grupo 1226226" transform="translate(2.655)">
                  <path id="Trazado_1179002" data-name="Trazado 1179002" d="M286.288,243.21,161.973,244.9l-15.19,3.1,5.66,59.93,132.79-8.9Z" transform="translate(-126.056 -178.223)" fill="#793627"/>
                  <g id="Grupo_1226218" data-name="Grupo 1226218" transform="translate(46.468 39.517)">
                    <path id="Trazado_1179003" data-name="Trazado 1179003" d="M246.8,273.34l-54.806,21-13.963-58.9,54.806-21Z" transform="translate(-176.112 -214.435)" fill="#c27e5b"/>
                    <path id="Trazado_1179004" data-name="Trazado 1179004" d="M244.633,274.171l-54.806,21-13.964-58.9,54.806-21Z" transform="translate(-175.863 -214.53)" fill="#d19261"/>
                    <path id="Trazado_1179005" data-name="Trazado 1179005" d="M239.747,271.309,193.59,289l-11.384-48.026,46.156-17.688Z" transform="translate(-176.591 -215.451)" fill="#fff"/>
                    <path id="Trazado_1179006" data-name="Trazado 1179006" d="M232.119,266.135l-33,12.646-7.014-29.589,33-12.646Z" transform="translate(-177.728 -216.974)" fill="#e3bda4"/>
                  </g>
                  <g id="Grupo_1226220" data-name="Grupo 1226220" transform="translate(26.635 36.042)">
                    <path id="Trazado_1179007" data-name="Trazado 1179007" d="M170.034,218.066H154.245v72.4a2.054,2.054,0,0,0,2.054,2.054H167.98a2.054,2.054,0,0,0,2.054-2.054v-72.4Z" transform="translate(-153.547 -211.378)" fill="#ff7268"/>
                    <g id="Grupo_1226219" data-name="Grupo 1226219" transform="translate(0 19.71)">
                      <path id="Trazado_1179008" data-name="Trazado 1179008" d="M170.64,234.332h0A1.6,1.6,0,0,1,169,235.887h-13.91a1.6,1.6,0,0,1-1.637-1.555h0a1.6,1.6,0,0,1,1.637-1.555H169A1.6,1.6,0,0,1,170.64,234.332Z" transform="translate(-153.457 -232.777)" fill="#d75655"/>
                      <path id="Trazado_1179009" data-name="Trazado 1179009" d="M170.64,288.984h0A1.6,1.6,0,0,1,169,290.539h-13.91a1.6,1.6,0,0,1-1.637-1.555h0a1.6,1.6,0,0,1,1.637-1.555H169A1.6,1.6,0,0,1,170.64,288.984Z" transform="translate(-153.457 -239.053)" fill="#d75655"/>
                    </g>
                    <path id="Trazado_1179010" data-name="Trazado 1179010" d="M179.642,210.51h-1.585L154.245,217.2h15.789l23.812-6.688H192.26l-9.975,2.8H169.667Z" transform="translate(-153.547 -210.51)" fill="#ffd231"/>
                    <path id="Trazado_1179011" data-name="Trazado 1179011" d="M179.642,210.51h-1.585L154.245,217.2h15.789l23.812-6.688H192.26l-9.975,2.8H169.667Z" transform="translate(-153.547 -210.51)" fill="#d75655"/>
                    <path id="Trazado_1179012" data-name="Trazado 1179012" d="M168.088,216.958H159c-.975,0-1.23-.15-.572-.335l20.82-5.848h12.617l-20.82,5.848A13.418,13.418,0,0,1,168.088,216.958Z" transform="translate(-153.986 -210.54)" fill="#ffdedf"/>
                    <path id="Trazado_1179013" data-name="Trazado 1179013" d="M171.719,217.2v71.526a3.678,3.678,0,0,1-.734,1.687,3.206,3.206,0,0,1-2.067,1.239,37.584,37.584,0,0,0,4.243-.474l0-.006a3.265,3.265,0,0,0,.767-.131l19.4-7.8a3.582,3.582,0,0,0,2.206-3.413V210.51Z" transform="translate(-155.232 -210.51)" fill="#d75655"/>
                  </g>
                  <g id="Grupo_1226221" data-name="Grupo 1226221" transform="translate(44.714 43.696)">
                    <path id="Trazado_1179014" data-name="Trazado 1179014" d="M189.67,226.713H173.881v72.4a2.054,2.054,0,0,0,2.054,2.054h11.681a2.054,2.054,0,0,0,2.055-2.054v-72.4Z" transform="translate(-173.881 -220.025)" fill="#ffd231"/>
                    <path id="Trazado_1179015" data-name="Trazado 1179015" d="M173.881,243.542v48.886c3.414.8,12.188,1.241,15.789-.313V243.589A55.59,55.59,0,0,1,173.881,243.542Z" transform="translate(-173.881 -221.957)" fill="#ffd231"/>
                    <path id="Trazado_1179016" data-name="Trazado 1179016" d="M199.278,219.157h-1.586l-23.811,6.688H189.67l23.812-6.688H211.9l-9.975,2.8H189.3Z" transform="translate(-173.881 -219.157)" fill="#ffd231"/>
                    <path id="Trazado_1179017" data-name="Trazado 1179017" d="M199.278,219.157h-1.586l-23.811,6.688H189.67l23.812-6.688H211.9l-9.975,2.8H189.3Z" transform="translate(-173.881 -219.157)" fill="#ffd231"/>
                    <path id="Trazado_1179018" data-name="Trazado 1179018" d="M187.723,225.6h-9.09c-.975,0-1.23-.15-.572-.335l20.82-5.848H211.5l-20.82,5.848A13.405,13.405,0,0,1,187.723,225.6Z" transform="translate(-174.319 -219.187)" fill="#ffdedf"/>
                    <path id="Trazado_1179019" data-name="Trazado 1179019" d="M191.355,225.845v71.526a3.678,3.678,0,0,1-.734,1.687,3.206,3.206,0,0,1-2.067,1.239,37.586,37.586,0,0,0,4.243-.474l0-.006a3.309,3.309,0,0,0,.767-.13l19.4-7.8a3.582,3.582,0,0,0,2.206-3.413V219.157Z" transform="translate(-175.566 -219.157)" fill="#ffbd31"/>
                  </g>
                  <g id="Grupo_1226222" data-name="Grupo 1226222" transform="translate(112.092)">
                    <path id="Trazado_1179020" data-name="Trazado 1179020" d="M271.7,242.937a1.694,1.694,0,0,1-.133.124,3.352,3.352,0,0,1-.7.451c-2.576,1.31-5.824-.929-7.949-2.408a26.667,26.667,0,0,1-10.7-15.986c-.965-4.408-.779-8.976-.921-13.49A93,93,0,0,0,250,198.9a73.6,73.6,0,0,1,20.7,24.183,27.58,27.58,0,0,1,3.585,10.6C274.51,236.493,273.988,240.91,271.7,242.937Z" transform="translate(-250 -173.134)" fill="#a9ac3a"/>
                    <path id="Trazado_1179021" data-name="Trazado 1179021" d="M271.966,243.36a1.71,1.71,0,0,1-.133.124,3.354,3.354,0,0,1-.7.451c-.274-1.089-.6-2.169-.974-3.24-2.319-6.727-6.108-12.8-9.657-18.916-1.753-3.01-3.479-6.055-4.93-9.232a49.08,49.08,0,0,1-3.293-9.8c-.044-.168.221-.239.257-.071a49.824,49.824,0,0,0,4.373,11.118c3.222,6.338,7.312,12.18,10.587,18.491a57.054,57.054,0,0,1,4.125,9.834C271.744,242.528,271.859,242.944,271.966,243.36Z" transform="translate(-250.261 -173.557)" fill="#98903a"/>
                    <path id="Trazado_1179022" data-name="Trazado 1179022" d="M311.961,210.51a106.6,106.6,0,0,1-12.277,22.457c-3.789,5.3-8.4,10.489-14.605,12.49-2.319.752-11.454,2.762-12.941-.018a2.686,2.686,0,0,1-.239-.664,3.748,3.748,0,0,1-.089-1.062c.106-3.381,3.337-8.675,4.665-10.507a38.53,38.53,0,0,1,9.684-8.781C294.24,218.91,303.127,214.7,311.961,210.51Z" transform="translate(-252.504 -174.468)" fill="#98903a"/>
                    <path id="Trazado_1179023" data-name="Trazado 1179023" d="M308.137,214.924c-3.275,2.691-6.559,5.338-9.994,7.834-5.975,4.337-12.056,8.56-17.588,13.472a73.19,73.19,0,0,0-8.657,9.029,3.747,3.747,0,0,1-.089-1.062c.531-.673,1.089-1.337,1.664-1.983a97.976,97.976,0,0,1,15.783-13.791c3.1-2.266,6.249-4.461,9.365-6.7,3.151-2.266,6.373-4.461,9.347-6.966C308.084,214.659,308.252,214.827,308.137,214.924Z" transform="translate(-252.504 -174.952)" fill="#a9ac3a"/>
                    <path id="Trazado_1179024" data-name="Trazado 1179024" d="M269.084,197.023c3.016-8.424,11.343-13.88,15.256-21.927.166,5.819,1.157,11.582,1.6,17.386s.315,11.778-1.675,17.248a22.206,22.206,0,0,1-5.124,8.16A14.106,14.106,0,0,1,275,220.982c-2.1.868-2.225.543-3.249-1.512C268.384,212.712,266.465,204.339,269.084,197.023Z" transform="translate(-252.051 -170.401)" fill="#98903a"/>
                    <path id="Trazado_1179025" data-name="Trazado 1179025" d="M289.542,194.072a25.209,25.209,0,0,1,9.52-12.692c6.4-4.56,14.541-6.424,20.469-11.589a48.189,48.189,0,0,1-17.541,33.53c-2.247,1.827-7.819,6.843-10.958,5.281C287.081,206.639,288.529,197.277,289.542,194.072Z" transform="translate(-254.412 -169.792)" fill="#a9ac3a"/>
                    <path id="Trazado_1179026" data-name="Trazado 1179026" d="M314.234,174.144c-1.849,2.068-3.522,4.292-5.233,6.475q-2.529,3.228-5.03,6.479-5.052,6.559-9.987,13.2c-1.869,2.518-3.711,5.052-5.492,7.633-.006.009,0,.017,0,.026-1.371,1.632-2.647,3.351-3.879,5.081q-2.857,4.011-5.311,8.283a106.144,106.144,0,0,0-7.04,14.857c.006-.229.005-.459.012-.689q.093-3.145.466-6.275a90.7,90.7,0,0,1,2.55-12.5.369.369,0,0,0-.712-.2,58.428,58.428,0,0,0-2.912,12.537q-.412,3.2-.529,6.432c-.038,1.049-.036,2.1-.012,3.148,0,.185.007.373.01.559-.55,1.582-1.05,3.173-1.5,4.787a31.363,31.363,0,0,0-1.184,5.393c-.041.437.566.436.7.1.605-1.488,1.007-3.086,1.484-4.62.281-.9.59-1.8.892-2.694a.479.479,0,0,0,.685-.374,12.912,12.912,0,0,0,.037-1.768q1.524-4.383,3.4-8.629a111.469,111.469,0,0,1,9.22-16.713c2-3,4.224-5.833,6.321-8.764,3.249-4.541,11.6-16.306,17.748-24.139,1.908-2.429,3.895-4.811,5.679-7.333C314.78,174.214,314.419,173.936,314.234,174.144Z" transform="translate(-252.118 -170.283)" fill="#98903a"/>
                  </g>
                  <g id="Grupo_1226223" data-name="Grupo 1226223" transform="translate(109.128 56.757)">
                    <path id="Trazado_1179027" data-name="Trazado 1179027" d="M269.365,245.269a11.33,11.33,0,0,1-6.083,10.054.939.939,0,0,1-.217.109,11.108,11.108,0,0,1-5.057,1.195,11.336,11.336,0,0,1-8.75-4.128,5.988,5.988,0,0,1-.471-.615,11.188,11.188,0,0,1-2.136-6.614,11.367,11.367,0,0,1,9.51-11.2c.181-.036.362-.06.543-.085a11.375,11.375,0,0,1,12.54,9.667c.036.229.06.459.084.688C269.352,244.641,269.365,244.954,269.365,245.269Z" transform="translate(-246.651 -233.912)" fill="#ffd79a"/>
                    <path id="Trazado_1179028" data-name="Trazado 1179028" d="M256.257,246.015a20.784,20.784,0,0,1-4.007,4.768,9.449,9.449,0,0,1-2.716,1.726,5.976,5.976,0,0,1-.471-.615,12.061,12.061,0,0,0,3.705-2.692,19.376,19.376,0,0,0,3.766-5.214,11.577,11.577,0,0,0,1.075-6.614,9.235,9.235,0,0,0-.953-2.921,3.081,3.081,0,0,0-.217-.374c.181-.036.362-.06.543-.085.133.217.242.435.338.628C259.129,238.29,258.32,242.635,256.257,246.015Z" transform="translate(-246.928 -233.921)" fill="#fff"/>
                    <path id="Trazado_1179029" data-name="Trazado 1179029" d="M271.457,245.6a12.78,12.78,0,0,0-1.4,1.171,15.65,15.65,0,0,0-4.647,9.812.94.94,0,0,1-.217.109,15.448,15.448,0,0,1,4.478-10.319,15.113,15.113,0,0,1,1.7-1.461C271.409,245.144,271.433,245.374,271.457,245.6Z" transform="translate(-248.78 -235.175)" fill="#fff"/>
                  </g>
                  <path id="Trazado_1179030" data-name="Trazado 1179030" d="M302.493,305.4l-17.718,13.192-.2-72.251,17.538-3.126,1.055,61.331A.888.888,0,0,1,302.493,305.4Z" transform="translate(-141.878 -178.223)" fill="#a94a27"/>
                  <path id="Trazado_1179031" data-name="Trazado 1179031" d="M146.783,248.4l1.592,70.957,120.579-.361-.2-72.251Z" transform="translate(-126.056 -178.628)" fill="#c26042"/>
                  <g id="Grupo_1226225" data-name="Grupo 1226225" transform="translate(31.564 96.411)">
                    <path id="Trazado_1179032" data-name="Trazado 1179032" d="M257.75,281.4c-.915-.781-95.119-3.434-96.453-2.493s-2.918,26.067-2,26.656,96.429,3.431,97.772,2.106S257.75,281.4,257.75,281.4Z" transform="translate(-159.026 -278.71)" fill="#e0c0ba"/>
                    <g id="Grupo_1226224" data-name="Grupo 1226224" transform="translate(17.319 5.015)">
                      <path id="Trazado_1179033" data-name="Trazado 1179033" d="M189.819,284.955a2.4,2.4,0,0,0-1.355-.265c-.474-.033-.94-.044-1.416-.042-.877,0-1.754,0-2.631.012s-1.755.027-2.631.058c-.366.012-.738.021-1.11.038a1.119,1.119,0,0,0-1.881.349.579.579,0,0,0-.041.844c-.012,2.843.22,5.72.357,8.556.07,1.462.129,2.926.217,4.389.047.788.093,1.576.161,2.363a2.655,2.655,0,0,0,.534,1.768.6.6,0,0,0,.838,0,2.531,2.531,0,0,0,.438-1.768c.016-.787,0-1.576-.005-2.363-.009-.818-.032-1.636-.052-2.454.163.027.326.051.482.079.569.1,1.149.142,1.724.2a14.223,14.223,0,0,0,3.316.152.826.826,0,0,0,.607-.794.841.841,0,0,0-.607-.794,14.086,14.086,0,0,0-3.256-.253c-.525-.017-1.054-.049-1.578-.03-.219.008-.47,0-.719.019,0-.172-.007-.343-.011-.514-.06-2.708-.041-5.457-.221-8.167.27.009.54.016.806.026.875.034,1.754.048,2.631.058s1.754.008,2.631.012c.477,0,.941-.011,1.416-.042a2.392,2.392,0,0,0,1.355-.265A.69.69,0,0,0,189.819,284.955Z" transform="translate(-178.591 -284.376)" fill="#3b0e1b"/>
                      <path id="Trazado_1179034" data-name="Trazado 1179034" d="M197.989,285.325c.047-1.039-1.323-1.255-1.837-.5l-.039.058a.723.723,0,0,0-.1.561c-.271,2.984-.327,6-.36,9-.034,2.917-.277,6.073.4,8.93a.585.585,0,0,0,1.121,0c.536-2.9.27-5.989.36-8.93C197.624,291.4,197.852,288.365,197.989,285.325Z" transform="translate(-180.542 -284.376)" fill="#3b0e1b"/>
                      <path id="Trazado_1179035" data-name="Trazado 1179035" d="M215.523,302.669q-1.089-1.653-2.2-3.289c-.583-.859-1.18-1.707-1.83-2.516a13.84,13.84,0,0,0,2.878-2.816,4.772,4.772,0,0,0,.826-5.013,6.758,6.758,0,0,0-3.747-3.091,12.45,12.45,0,0,0-3.11-.758,7.727,7.727,0,0,0-2.773.043c-.454-.346-1.2-.351-1.365.4a24.529,24.529,0,0,0-.235,4.677c-.031,1.538-.019,3.077,0,4.615s.051,3.079.147,4.614c.05.8.1,1.6.193,2.392a2.857,2.857,0,0,0,.5,1.651.407.407,0,0,0,.632-.081,3.429,3.429,0,0,0,.319-1.91c.015-.683.009-1.367.01-2.05q0-.722,0-1.445a5.246,5.246,0,0,0,1.511.257,6.1,6.1,0,0,0,2.722-.592c.152-.07.3-.171.445-.25.466.937,1,1.838,1.54,2.734q1.008,1.661,2.039,3.307a.867.867,0,0,0,1.5-.876Zm-7.389-6.086a3.663,3.663,0,0,1-1.332-.014c-.359-.075-.686-.266-1.037-.344,0-.436-.006-.871,0-1.306.01-1.482.046-2.963.079-4.444.03-1.364.227-2.835.124-4.208.759.131,1.547.171,2.291.322a13.266,13.266,0,0,1,2.911.867c1.353.623,2.91,1.758,2.848,3.421-.067,1.815-1.935,3.427-3.268,4.453A5.979,5.979,0,0,1,208.134,296.583Z" transform="translate(-181.503 -284.448)" fill="#3b0e1b"/>
                      <path id="Trazado_1179036" data-name="Trazado 1179036" d="M226.8,287.176c.759.035,1.519.072,2.279.09.736.018,1.772.246,2.355-.274a.678.678,0,0,0,.008-.966c-.545-.526-1.629-.326-2.35-.33-.76,0-1.52.01-2.28.022s-1.521.03-2.281.058c-.424.015-.885.012-1.331.061a.672.672,0,0,0-1.062.31,19.733,19.733,0,0,0-.186,4.325c.012,1.5.04,3,.106,4.5.132,2.953.277,5.934.674,8.864.095.7.994.781,1.481.411.065.005.131.014.195.02.308.027.619.036.929.043a17.95,17.95,0,0,0,1.988-.054c.686-.06,1.371-.15,2.049-.268.587-.1,1.662-.254,1.644-1.037s-1.086-.645-1.594-.534c-.623.137-1.254.25-1.888.326-.66.078-1.323.139-1.988.168-.332.014-.663.017-1,.021h-.084c-.188-2.432-.423-4.857-.575-7.291a8.928,8.928,0,0,0,1.021.142c.446.026.891.05,1.338.064.892.028,1.785.057,2.678.051a.7.7,0,0,0,.012-1.4c-.893-.005-1.786.023-2.679.051-.429.014-.857.035-1.286.06a9.967,9.967,0,0,0-1.145.156c-.074-1.429-.148-2.857-.194-4.288-.036-1.139.01-2.33-.117-3.477.341.027.684.036,1,.058C225.286,287.1,226.044,287.141,226.8,287.176Z" transform="translate(-183.568 -284.524)" fill="#3b0e1b"/>
                      <path id="Trazado_1179037" data-name="Trazado 1179037" d="M238.526,285.218a.8.8,0,0,0-.614.328.6.6,0,0,0-.407.157c-.559.488-.427,1.1-.417,1.779q.017,1.211.035,2.423l.069,4.673c.023,1.558.043,3.116.083,4.673a30.925,30.925,0,0,0,.26,4.635.479.479,0,0,0,.528.357.375.375,0,0,0,.3.366c2.5.713,5.472-.5,7.4-2.026a9.505,9.505,0,0,0,3.592-7.308A10.1,10.1,0,0,0,238.526,285.218Zm6.465,16.232c-1.887,1.639-4.043,2-6.44,2.293a32.794,32.794,0,0,0,.178-4.492c.018-1.558.015-3.115.015-4.673s0-3.115,0-4.673v-2.423c0-.224.007-.44.005-.651a8.493,8.493,0,0,1,9.1,8.3A8.347,8.347,0,0,1,244.991,301.451Z" transform="translate(-185.306 -284.47)" fill="#3b0e1b"/>
                    </g>
                  </g>
                  <path id="Trazado_1179038" data-name="Trazado 1179038" d="M144.094,247.992s-21.015,20.082-20.724,21.242,105.293,2.32,105.293,2.32l1.885-2.61.58,2.61h19l15.934-25.218,15.63,25.109,18.728-5.829L283.6,243.21l-17.538,3.126Z" transform="translate(-123.367 -178.223)" fill="#c27e5b"/>
                  <path id="Trazado_1179039" data-name="Trazado 1179039" d="M284.062,179.983a87.144,87.144,0,0,0-4.663,15.1c-1.22,5.323-2.2,10.705-3.257,16.064q-.447,2.269-.891,4.54a43.874,43.874,0,0,0-.769,4.635c-.023.266.4.294.47.06a76.95,76.95,0,0,0,1.75-8.221q.8-4.116,1.608-8.234c1-5.135,2.027-10.269,3.378-15.324q1.15-4.3,2.7-8.49C284.453,179.936,284.137,179.808,284.062,179.983Z" transform="translate(-140.719 -170.953)" fill="#a9ac3a"/>
                </g>
                <g id="Grupo_1226228" data-name="Grupo 1226228" transform="translate(110.857 126.652)">
                  <path id="Trazado_1179040" data-name="Trazado 1179040" d="M279.638,336.262c5.955-3.651,5.174-12.306,4.27-18.538a3.067,3.067,0,0,0-.343-1.179,2.116,2.116,0,0,0-3.109-.237c-1.063.971-1.237,2.582-1.517,3.947q-.551,2.7-1.1,5.39c-.071.343-.188.741-.525.837a1.008,1.008,0,0,1-.56-.057c-4.159-1.265-6.641-4.887-9.559-7.877a6.932,6.932,0,0,1-1.012-1.3,27.629,27.629,0,0,0-2.887-3.2c-.859-.789-2.108-1.54-3.134-.977a2.624,2.624,0,0,0-.954,2.54c.008.171.02.33.035.5a15.894,15.894,0,0,0,.424,2.39c-.335-.641-.671-1.269-1-1.9-.318-.6-.63-1.191-.943-1.784a2.993,2.993,0,0,0-1.329-1.521,1.993,1.993,0,0,0-2.332.883,3.086,3.086,0,0,0-.454,1.509,5.775,5.775,0,0,0,.019,1.057,11.657,11.657,0,0,0,.387,2.113c-.158-.284-.33-.571-.494-.862-.6-1.066-1.21-2.135-1.816-3.2-.2-.354-.455-.741-.856-.8-.587-.1-1,.536-1.185,1.087a8.952,8.952,0,0,0-.381,1.651,10.67,10.67,0,0,0-.07,2.161,2.022,2.022,0,0,0-.618-.826,1.318,1.318,0,0,0-.417-.289c-2.073-.586-3.025,3.594-2.359,8.16a40.035,40.035,0,0,0,4.51,13.059,4.359,4.359,0,0,0,2.208,1.964l.013.005c2.033.789,4.427.279,6.436-.038,3.945-.622,7.89-1.263,11.768-2.151,2.925-.669,6.114-.895,8.717-2.41Z" transform="translate(-245.605 -312.874)" fill="#ff9a73"/>
                  <g id="Grupo_1226227" data-name="Grupo 1226227" transform="translate(2.991 2.807)">
                    <path id="Trazado_1179041" data-name="Trazado 1179041" d="M270.21,330.485c-1.109-1.1-2.412-1.961-3.468-3.123a21.945,21.945,0,0,1-2.68-3.691,46.07,46.07,0,0,1-3.127-7.146,15.783,15.783,0,0,0,.424,2.39c-.335-.641-.672-1.269-1-1.9a31.6,31.6,0,0,0,3.1,7.235,22.474,22.474,0,0,0,2.732,3.721,10.5,10.5,0,0,0,3.728,2.94A.259.259,0,0,0,270.21,330.485Z" transform="translate(-250.29 -316.1)" fill="#d5311d"/>
                    <path id="Trazado_1179042" data-name="Trazado 1179042" d="M263.238,334a40.481,40.481,0,0,1-5.5-8.817,94.048,94.048,0,0,1-3.1-9.134,5.781,5.781,0,0,0,.019,1.057,11.661,11.661,0,0,0,.387,2.113c-.158-.284-.33-.571-.489-.855a50.241,50.241,0,0,0,2.513,7.625c1.319,3.041,3.093,6.255,5.884,8.257C263.114,334.365,263.38,334.177,263.238,334Z" transform="translate(-249.623 -316.045)" fill="#d5311d"/>
                    <path id="Trazado_1179043" data-name="Trazado 1179043" d="M256.37,337.019c-.686-1.561-1.659-2.995-2.432-4.511A39.04,39.04,0,0,1,251.8,327.5a53.578,53.578,0,0,1-2.131-10.272,10.606,10.606,0,0,0-.07,2.161,1.981,1.981,0,0,0-.613-.819,32.508,32.508,0,0,0,1.9,9.207,39.1,39.1,0,0,0,2.079,4.92,17.25,17.25,0,0,0,2.993,4.584C256.133,337.458,256.469,337.246,256.37,337.019Z" transform="translate(-248.984 -316.181)" fill="#d5311d"/>
                  </g>
                </g>
                <g id="Grupo_1226230" data-name="Grupo 1226230" transform="translate(25.994 129.08)">
                  <path id="Trazado_1179044" data-name="Trazado 1179044" d="M154.624,339c-5.955-3.651-5.174-12.306-4.27-18.538a3.068,3.068,0,0,1,.343-1.179,2.116,2.116,0,0,1,3.109-.237c1.063.971,1.237,2.582,1.517,3.947q.551,2.7,1.1,5.39c.071.343.188.741.525.837a1.008,1.008,0,0,0,.56-.057c4.159-1.265,6.641-4.887,9.559-7.877a6.936,6.936,0,0,0,1.012-1.3,27.7,27.7,0,0,1,2.886-3.2c.859-.789,2.108-1.54,3.134-.977a2.623,2.623,0,0,1,.954,2.54c-.008.171-.019.33-.035.5a15.9,15.9,0,0,1-.424,2.39c.335-.641.671-1.269,1-1.9.318-.6.63-1.191.943-1.784a2.991,2.991,0,0,1,1.33-1.521,2,2,0,0,1,2.332.883,3.086,3.086,0,0,1,.454,1.509,5.777,5.777,0,0,1-.019,1.057,11.657,11.657,0,0,1-.387,2.113c.158-.284.33-.571.494-.862.6-1.066,1.21-2.135,1.816-3.2.2-.354.455-.741.856-.8.587-.1,1,.536,1.185,1.087a8.955,8.955,0,0,1,.381,1.651,10.673,10.673,0,0,1,.07,2.161,2.021,2.021,0,0,1,.618-.826,1.317,1.317,0,0,1,.417-.289c2.073-.586,3.025,3.594,2.36,8.16a40.237,40.237,0,0,1-5.166,14.2,9.225,9.225,0,0,1-1.565.825c-2.033.789-4.427.279-6.436-.038-3.945-.622-7.89-1.263-11.768-2.151-2.925-.669-6.114-.895-8.717-2.41Z" transform="translate(-149.733 -315.617)" fill="#ff9a73"/>
                  <g id="Grupo_1226229" data-name="Grupo 1226229" transform="translate(15.925 2.806)">
                    <path id="Trazado_1179045" data-name="Trazado 1179045" d="M167.812,333.227c1.109-1.1,2.412-1.961,3.468-3.123a21.946,21.946,0,0,0,2.68-3.691,46.066,46.066,0,0,0,3.127-7.146,15.786,15.786,0,0,1-.424,2.39c.335-.641.671-1.269,1-1.9a31.6,31.6,0,0,1-3.1,7.234,22.423,22.423,0,0,1-2.732,3.721,10.5,10.5,0,0,1-3.728,2.94A.259.259,0,0,1,167.812,333.227Z" transform="translate(-167.725 -318.842)" fill="#d5311d"/>
                    <path id="Trazado_1179046" data-name="Trazado 1179046" d="M174.941,336.738a40.45,40.45,0,0,0,5.5-8.817,94.043,94.043,0,0,0,3.1-9.134,5.774,5.774,0,0,1-.019,1.057,11.655,11.655,0,0,1-.387,2.113c.159-.284.33-.571.489-.855a50.338,50.338,0,0,1-2.513,7.625c-1.319,3.041-3.093,6.255-5.883,8.257C175.066,337.107,174.8,336.919,174.941,336.738Z" transform="translate(-168.549 -318.787)" fill="#d5311d"/>
                    <path id="Trazado_1179047" data-name="Trazado 1179047" d="M181.981,339.761c.686-1.561,1.659-2.995,2.432-4.511a38.91,38.91,0,0,0,2.138-5.007,53.576,53.576,0,0,0,2.131-10.272,10.608,10.608,0,0,1,.07,2.161,1.981,1.981,0,0,1,.613-.819,32.477,32.477,0,0,1-1.9,9.207,39.093,39.093,0,0,1-2.079,4.92,17.264,17.264,0,0,1-2.993,4.584C182.218,340.2,181.882,339.988,181.981,339.761Z" transform="translate(-169.359 -318.923)" fill="#d5311d"/>
                  </g>
                </g>
              </g>
            </g>
          </g>
        </g>
      </g>
    </g>
  </g>
</svg>
